<svg id="SvgjsSvg1006" width="823" height="776.5859375" xmlns="http://www.w3.org/2000/svg" version="1.1" xmlns:xlink="http://www.w3.org/1999/xlink" xmlns:svgjs="http://svgjs.com/svgjs"><defs id="SvgjsDefs1007"></defs><g id="SvgjsG1008" transform="translate(25.423559363483264,25)"><path id="SvgjsPath1009" d="M 0 0L 772.241288517449 0L 772.241288517449 157.6606325191425L 0 157.6606325191425Z" stroke="rgba(50,50,50,1)" stroke-width="2" fill-opacity="1" fill="#f5f5f5"></path><g id="SvgjsG1010"><text id="SvgjsText1011" font-family="微软雅黑" text-anchor="middle" font-size="13px" width="753px" fill="#323232" font-weight="400" align="middle" lineHeight="125%" anchor="middle" family="微软雅黑" size="13px" weight="400" font-style="" opacity="1" y="68.20531625957125" transform="rotate(0)"></text></g></g><g id="SvgjsG1012" transform="translate(25.393325853934357,446.42575955883194)"><path id="SvgjsPath1013" d="M 0 0L 772.3017555365468 0L 772.3017555365468 264.7247012698474L 0 264.7247012698474Z" stroke="rgba(50,50,50,1)" stroke-width="2" fill-opacity="1" fill="#f5f5f5"></path><g id="SvgjsG1014"><text id="SvgjsText1015" font-family="微软雅黑" text-anchor="middle" font-size="13px" width="753px" fill="#323232" font-weight="400" align="middle" lineHeight="125%" anchor="middle" family="微软雅黑" size="13px" weight="400" font-style="" opacity="1" y="121.7373506349237" transform="rotate(0)"></text></g></g><g id="SvgjsG1016" transform="translate(79.83729648842723,550.5260336974736)"><path id="SvgjsPath1017" d="M 0 0L 93.50314356990832 0L 93.50314356990832 83.59953970080726L 0 83.59953970080726Z" stroke="rgba(50,50,50,1)" stroke-width="2" fill-opacity="1" fill="#1e3c53"></path><g id="SvgjsG1018"><text id="SvgjsText1019" font-family="微软雅黑" text-anchor="middle" font-size="13px" width="74px" fill="#323232" font-weight="400" align="middle" lineHeight="125%" anchor="middle" family="微软雅黑" size="13px" weight="400" font-style="" opacity="1" y="31.174769850403628" transform="rotate(0)"></text></g></g><g id="SvgjsG1020" transform="translate(92.2048159344655,556.321840930334)"><path id="SvgjsPath1021" d="M 0 4Q 0 0 4 0L 67.19200614980718 0Q 71.19200614980718 0 71.19200614980718 4L 71.19200614980718 8.82559186483793Q 71.19200614980718 12.82559186483793 67.19200614980718 12.82559186483793L 4 12.82559186483793Q 0 12.82559186483793 0 8.82559186483793Z" stroke="rgba(50,50,50,1)" stroke-width="2" fill-opacity="1" fill="#2196f3"></path><g id="SvgjsG1022"><text id="SvgjsText1023" font-family="微软雅黑" text-anchor="middle" font-size="13px" width="52px" fill="#323232" font-weight="400" align="middle" lineHeight="125%" anchor="middle" family="微软雅黑" size="13px" weight="400" font-style="" opacity="1" y="-4.212204067581035" transform="rotate(0)"></text></g></g><g id="SvgjsG1024" transform="translate(106.7482247663171,574.9575685805089)"><path id="SvgjsPath1025" d="M 0 4Q 0 0 4 0L 51.43664658196796 0Q 55.43664658196796 0 55.43664658196796 4L 55.43664658196796 8.82559186483793Q 55.43664658196796 12.82559186483793 51.43664658196796 12.82559186483793L 4 12.82559186483793Q 0 12.82559186483793 0 8.82559186483793Z" stroke="rgba(50,50,50,1)" stroke-width="2" fill-opacity="1" fill="#2196f3"></path><g id="SvgjsG1026"><text id="SvgjsText1027" font-family="微软雅黑" text-anchor="middle" font-size="13px" width="36px" fill="#323232" font-weight="400" align="middle" lineHeight="125%" anchor="middle" family="微软雅黑" size="13px" weight="400" font-style="" opacity="1" y="-4.212204067581035" transform="rotate(0)"></text></g></g><g id="SvgjsG1028" transform="translate(106.7482247663171,595.0867864686468)"><path id="SvgjsPath1029" d="M 0 4Q 0 0 4 0L 35.681287014128365 0Q 39.681287014128365 0 39.681287014128365 4L 39.681287014128365 9.113761808636493Q 39.681287014128365 13.113761808636493 35.681287014128365 13.113761808636493L 4 13.113761808636493Q 0 13.113761808636493 0 9.113761808636493Z" stroke="rgba(50,50,50,1)" stroke-width="2" fill-opacity="1" fill="#2196f3"></path><g id="SvgjsG1030"><text id="SvgjsText1031" font-family="微软雅黑" text-anchor="middle" font-size="13px" width="20px" fill="#323232" font-weight="400" align="middle" lineHeight="125%" anchor="middle" family="微软雅黑" size="13px" weight="400" font-style="" opacity="1" y="-4.0681190956817534" transform="rotate(0)"></text></g></g><g id="SvgjsG1032" transform="translate(92.2048159344655,615.5041743005825)"><path id="SvgjsPath1033" d="M 0 4Q 0 0 4 0L 64.76810467783169 0Q 68.76810467783169 0 68.76810467783169 4L 68.76810467783169 8.82559186483793Q 68.76810467783169 12.82559186483793 64.76810467783169 12.82559186483793L 4 12.82559186483793Q 0 12.82559186483793 0 8.82559186483793Z" stroke="rgba(50,50,50,1)" stroke-width="2" fill-opacity="1" fill="#2196f3"></path><g id="SvgjsG1034"><text id="SvgjsText1035" font-family="微软雅黑" text-anchor="middle" font-size="13px" width="49px" fill="#323232" font-weight="400" align="middle" lineHeight="125%" anchor="middle" family="微软雅黑" size="13px" weight="400" font-style="" opacity="1" y="-4.212204067581035" transform="rotate(0)"></text></g></g><g id="SvgjsG1036" transform="translate(271.36288196014857,492.8515191176642)"><path id="SvgjsPath1037" d="M 0 0L 93.50314356990832 0L 93.50314356990832 83.59953970080726L 0 83.59953970080726Z" stroke-dasharray="3,4" stroke="rgba(50,50,50,1)" stroke-width="5" fill-opacity="1" fill="#1e3c53"></path><g id="SvgjsG1038"><text id="SvgjsText1039" font-family="微软雅黑" text-anchor="middle" font-size="13px" width="74px" fill="#323232" font-weight="400" align="middle" lineHeight="125%" anchor="middle" family="微软雅黑" size="13px" weight="400" font-style="" opacity="1" y="31.174769850403628" transform="rotate(0)"></text></g></g><g id="SvgjsG1040" transform="translate(282.5184506701992,498.6473263505246)"><path id="SvgjsPath1041" d="M 0 4Q 0 0 4 0L 67.19200614980718 0Q 71.19200614980718 0 71.19200614980718 4L 71.19200614980718 8.82559186483793Q 71.19200614980718 12.82559186483793 67.19200614980718 12.82559186483793L 4 12.82559186483793Q 0 12.82559186483793 0 8.82559186483793Z" stroke="rgba(50,50,50,1)" stroke-width="2" fill-opacity="1" fill="#2196f3"></path><g id="SvgjsG1042"><text id="SvgjsText1043" font-family="微软雅黑" text-anchor="middle" font-size="13px" width="52px" fill="#323232" font-weight="400" align="middle" lineHeight="125%" anchor="middle" family="微软雅黑" size="13px" weight="400" font-style="" opacity="1" y="-4.212204067581035" transform="rotate(0)"></text></g></g><g id="SvgjsG1044" transform="translate(297.06185950205077,517.2830540006996)"><path id="SvgjsPath1045" d="M 0 4Q 0 0 4 0L 51.43664658196796 0Q 55.43664658196796 0 55.43664658196796 4L 55.43664658196796 8.82559186483793Q 55.43664658196796 12.82559186483793 51.43664658196796 12.82559186483793L 4 12.82559186483793Q 0 12.82559186483793 0 8.82559186483793Z" stroke="rgba(50,50,50,1)" stroke-width="2" fill-opacity="1" fill="#2196f3"></path><g id="SvgjsG1046"><text id="SvgjsText1047" font-family="微软雅黑" text-anchor="middle" font-size="13px" width="36px" fill="#323232" font-weight="400" align="middle" lineHeight="125%" anchor="middle" family="微软雅黑" size="13px" weight="400" font-style="" opacity="1" y="-4.212204067581035" transform="rotate(0)"></text></g></g><g id="SvgjsG1048" transform="translate(297.06185950205077,537.4122718888372)"><path id="SvgjsPath1049" d="M 0 4Q 0 0 4 0L 35.681287014128365 0Q 39.681287014128365 0 39.681287014128365 4L 39.681287014128365 9.113761808636493Q 39.681287014128365 13.113761808636493 35.681287014128365 13.113761808636493L 4 13.113761808636493Q 0 13.113761808636493 0 9.113761808636493Z" stroke="rgba(50,50,50,1)" stroke-width="2" fill-opacity="1" fill="#2196f3"></path><g id="SvgjsG1050"><text id="SvgjsText1051" font-family="微软雅黑" text-anchor="middle" font-size="13px" width="20px" fill="#323232" font-weight="400" align="middle" lineHeight="125%" anchor="middle" family="微软雅黑" size="13px" weight="400" font-style="" opacity="1" y="-4.0681190956817534" transform="rotate(0)"></text></g></g><g id="SvgjsG1052" transform="translate(283.73040140618696,557.8296597207732)"><path id="SvgjsPath1053" d="M 0 4Q 0 0 4 0L 64.76810467783169 0Q 68.76810467783169 0 68.76810467783169 4L 68.76810467783169 8.82559186483793Q 68.76810467783169 12.82559186483793 64.76810467783169 12.82559186483793L 4 12.82559186483793Q 0 12.82559186483793 0 8.82559186483793Z" stroke="rgba(50,50,50,1)" stroke-width="2" fill-opacity="1" fill="#2196f3"></path><g id="SvgjsG1054"><text id="SvgjsText1055" font-family="微软雅黑" text-anchor="middle" font-size="13px" width="49px" fill="#323232" font-weight="400" align="middle" lineHeight="125%" anchor="middle" family="微软雅黑" size="13px" weight="400" font-style="" opacity="1" y="-4.212204067581035" transform="rotate(0)"></text></g></g><g id="SvgjsG1056" transform="translate(460.464565959895,546.893837888571)"><path id="SvgjsPath1057" d="M 0 0L 93.50314356990832 0L 93.50314356990832 83.59953970080726L 0 83.59953970080726Z" stroke="rgba(50,50,50,1)" stroke-width="2" fill-opacity="1" fill="#b2ebf2"></path><g id="SvgjsG1058"><text id="SvgjsText1059" font-family="微软雅黑" text-anchor="middle" font-size="13px" width="74px" fill="#323232" font-weight="400" align="middle" lineHeight="125%" anchor="middle" family="微软雅黑" size="13px" weight="400" font-style="" opacity="1" y="31.174769850403628" transform="rotate(0)"></text></g></g><g id="SvgjsG1060" transform="translate(471.6201346699454,551.7949100387816)"><path id="SvgjsPath1061" d="M 0 4Q 0 0 4 0L 67.19200614980718 0Q 71.19200614980718 0 71.19200614980718 4L 71.19200614980718 8.82559186483793Q 71.19200614980718 12.82559186483793 67.19200614980718 12.82559186483793L 4 12.82559186483793Q 0 12.82559186483793 0 8.82559186483793Z" stroke="rgba(50,50,50,1)" stroke-width="2" fill-opacity="1" fill="#e1bee7"></path><g id="SvgjsG1062"><text id="SvgjsText1063" font-family="微软雅黑" text-anchor="middle" font-size="13px" width="52px" fill="#323232" font-weight="400" align="middle" lineHeight="125%" anchor="middle" family="微软雅黑" size="13px" weight="400" font-style="" opacity="1" y="-4.212204067581035" transform="rotate(0)"></text></g></g><g id="SvgjsG1064" transform="translate(487.3754942377848,570.4306376889565)"><path id="SvgjsPath1065" d="M 0 4Q 0 0 4 0L 51.43664658196796 0Q 55.43664658196796 0 55.43664658196796 4L 55.43664658196796 8.82559186483793Q 55.43664658196796 12.82559186483793 51.43664658196796 12.82559186483793L 4 12.82559186483793Q 0 12.82559186483793 0 8.82559186483793Z" stroke="rgba(50,50,50,1)" stroke-width="2" fill-opacity="1" fill="#e1bee7"></path><g id="SvgjsG1066"><text id="SvgjsText1067" font-family="微软雅黑" text-anchor="middle" font-size="13px" width="36px" fill="#323232" font-weight="400" align="middle" lineHeight="125%" anchor="middle" family="微软雅黑" size="13px" weight="400" font-style="" opacity="1" y="-4.212204067581035" transform="rotate(0)"></text></g></g><g id="SvgjsG1068" transform="translate(487.3754942377848,592.3493257423938)"><path id="SvgjsPath1069" d="M 0 4Q 0 0 4 0L 35.681287014128365 0Q 39.681287014128365 0 39.681287014128365 4L 39.681287014128365 9.113761808636493Q 39.681287014128365 13.113761808636493 35.681287014128365 13.113761808636493L 4 13.113761808636493Q 0 13.113761808636493 0 9.113761808636493Z" stroke="rgba(50,50,50,1)" stroke-width="2" fill-opacity="1" fill="#e1bee7"></path><g id="SvgjsG1070"><text id="SvgjsText1071" font-family="微软雅黑" text-anchor="middle" font-size="13px" width="20px" fill="#323232" font-weight="400" align="middle" lineHeight="125%" anchor="middle" family="微软雅黑" size="13px" weight="400" font-style="" opacity="1" y="-4.0681190956817534" transform="rotate(0)"></text></g></g><g id="SvgjsG1072" transform="translate(472.8320854059332,612.7667135743299)"><path id="SvgjsPath1073" d="M 0 4Q 0 0 4 0L 64.76810467783169 0Q 68.76810467783169 0 68.76810467783169 4L 68.76810467783169 8.82559186483793Q 68.76810467783169 12.82559186483793 64.76810467783169 12.82559186483793L 4 12.82559186483793Q 0 12.82559186483793 0 8.82559186483793Z" stroke="rgba(50,50,50,1)" stroke-width="2" fill-opacity="1" fill="#e1bee7"></path><g id="SvgjsG1074"><text id="SvgjsText1075" font-family="微软雅黑" text-anchor="middle" font-size="13px" width="49px" fill="#323232" font-weight="400" align="middle" lineHeight="125%" anchor="middle" family="微软雅黑" size="13px" weight="400" font-style="" opacity="1" y="-4.212204067581035" transform="rotate(0)"></text></g></g><g id="SvgjsG1076" transform="translate(650.778200695629,546.8938378885709)"><path id="SvgjsPath1077" d="M 0 0L 93.50314356990832 0L 93.50314356990832 83.59953970080726L 0 83.59953970080726Z" stroke="rgba(50,50,50,1)" stroke-width="2" fill-opacity="1" fill="#1e3c53"></path><g id="SvgjsG1078"><text id="SvgjsText1079" font-family="微软雅黑" text-anchor="middle" font-size="13px" width="74px" fill="#323232" font-weight="400" align="middle" lineHeight="125%" anchor="middle" family="微软雅黑" size="13px" weight="400" font-style="" opacity="1" y="31.174769850403628" transform="rotate(0)"></text></g></g><g id="SvgjsG1080" transform="translate(661.9337694056796,552.6896451214313)"><path id="SvgjsPath1081" d="M 0 4Q 0 0 4 0L 67.19200614980718 0Q 71.19200614980718 0 71.19200614980718 4L 71.19200614980718 8.82559186483793Q 71.19200614980718 12.82559186483793 67.19200614980718 12.82559186483793L 4 12.82559186483793Q 0 12.82559186483793 0 8.82559186483793Z" stroke="rgba(50,50,50,1)" stroke-width="2" fill-opacity="1" fill="#2196f3"></path><g id="SvgjsG1082"><text id="SvgjsText1083" font-family="微软雅黑" text-anchor="middle" font-size="13px" width="52px" fill="#323232" font-weight="400" align="middle" lineHeight="125%" anchor="middle" family="微软雅黑" size="13px" weight="400" font-style="" opacity="1" y="-4.212204067581035" transform="rotate(0)"></text></g></g><g id="SvgjsG1084" transform="translate(676.4771782375315,571.3253727716065)"><path id="SvgjsPath1085" d="M 0 4Q 0 0 4 0L 51.43664658196796 0Q 55.43664658196796 0 55.43664658196796 4L 55.43664658196796 8.82559186483793Q 55.43664658196796 12.82559186483793 51.43664658196796 12.82559186483793L 4 12.82559186483793Q 0 12.82559186483793 0 8.82559186483793Z" stroke="rgba(50,50,50,1)" stroke-width="2" fill-opacity="1" fill="#2196f3"></path><g id="SvgjsG1086"><text id="SvgjsText1087" font-family="微软雅黑" text-anchor="middle" font-size="13px" width="36px" fill="#323232" font-weight="400" align="middle" lineHeight="125%" anchor="middle" family="微软雅黑" size="13px" weight="400" font-style="" opacity="1" y="-4.212204067581035" transform="rotate(0)"></text></g></g><g id="SvgjsG1088" transform="translate(676.4771782375315,591.4545906597439)"><path id="SvgjsPath1089" d="M 0 4Q 0 0 4 0L 35.681287014128365 0Q 39.681287014128365 0 39.681287014128365 4L 39.681287014128365 9.113761808636493Q 39.681287014128365 13.113761808636493 35.681287014128365 13.113761808636493L 4 13.113761808636493Q 0 13.113761808636493 0 9.113761808636493Z" stroke="rgba(50,50,50,1)" stroke-width="2" fill-opacity="1" fill="#2196f3"></path><g id="SvgjsG1090"><text id="SvgjsText1091" font-family="微软雅黑" text-anchor="middle" font-size="13px" width="20px" fill="#323232" font-weight="400" align="middle" lineHeight="125%" anchor="middle" family="微软雅黑" size="13px" weight="400" font-style="" opacity="1" y="-4.0681190956817534" transform="rotate(0)"></text></g></g><g id="SvgjsG1092" transform="translate(663.1457201416674,611.87197849168)"><path id="SvgjsPath1093" d="M 0 4Q 0 0 4 0L 64.76810467783169 0Q 68.76810467783169 0 68.76810467783169 4L 68.76810467783169 8.82559186483793Q 68.76810467783169 12.82559186483793 64.76810467783169 12.82559186483793L 4 12.82559186483793Q 0 12.82559186483793 0 8.82559186483793Z" stroke="rgba(50,50,50,1)" stroke-width="2" fill-opacity="1" fill="#2196f3"></path><g id="SvgjsG1094"><text id="SvgjsText1095" font-family="微软雅黑" text-anchor="middle" font-size="13px" width="49px" fill="#323232" font-weight="400" align="middle" lineHeight="125%" anchor="middle" family="微软雅黑" size="13px" weight="400" font-style="" opacity="1" y="-4.212204067581035" transform="rotate(0)"></text></g></g><g id="SvgjsG1096" transform="matrix(0.8660254037844384,-0.5000000000000004,0.5000000000000004,0.8660254037844384,195.83141767475558,559.2280570530584)"><path id="SvgjsPath1097" d="M 0 11.671227716028337L 20.897060565266862 11.671227716028337L 20.897060565266862 0L 37.994655573212476 17.683678357618692L 20.897060565266862 35.367356715237385L 20.897060565266862 23.696128999209048L 0 23.696128999209048L 0 11.671227716028337Z" stroke="rgba(50,50,50,1)" stroke-width="2" fill-opacity="1" fill="#1976d2"></path><g id="SvgjsG1098"><text id="SvgjsText1099" font-family="微软雅黑" text-anchor="middle" font-size="13px" width="38px" fill="#323232" font-weight="400" align="middle" lineHeight="125%" anchor="middle" family="微软雅黑" size="13px" weight="400" font-style="" opacity="1" y="7.0586783576186924" transform="rotate(0)"></text></g></g><g id="SvgjsG1100" transform="translate(271.36288196014857,606.061842706343)"><path id="SvgjsPath1101" d="M 0 0L 93.50314356990832 0L 93.50314356990832 83.59953970080726L 0 83.59953970080726Z" stroke="rgba(50,50,50,1)" stroke-width="2" fill-opacity="1" fill="#1e3c53"></path><g id="SvgjsG1102"><text id="SvgjsText1103" font-family="微软雅黑" text-anchor="middle" font-size="13px" width="74px" fill="#323232" font-weight="400" align="middle" lineHeight="125%" anchor="middle" family="微软雅黑" size="13px" weight="400" font-style="" opacity="1" y="31.174769850403628" transform="rotate(0)"></text></g></g><g id="SvgjsG1104" transform="translate(282.5184506701992,611.8576499392034)"><path id="SvgjsPath1105" d="M 0 4Q 0 0 4 0L 67.19200614980718 0Q 71.19200614980718 0 71.19200614980718 4L 71.19200614980718 8.82559186483793Q 71.19200614980718 12.82559186483793 67.19200614980718 12.82559186483793L 4 12.82559186483793Q 0 12.82559186483793 0 8.82559186483793Z" stroke="rgba(50,50,50,1)" stroke-width="2" fill-opacity="1" fill="#2196f3"></path><g id="SvgjsG1106"><text id="SvgjsText1107" font-family="微软雅黑" text-anchor="middle" font-size="13px" width="52px" fill="#323232" font-weight="400" align="middle" lineHeight="125%" anchor="middle" family="微软雅黑" size="13px" weight="400" font-style="" opacity="1" y="-4.212204067581035" transform="rotate(0)"></text></g></g><g id="SvgjsG1108" transform="translate(297.06185950205077,630.4933775893783)"><path id="SvgjsPath1109" d="M 0 4Q 0 0 4 0L 51.43664658196796 0Q 55.43664658196796 0 55.43664658196796 4L 55.43664658196796 8.82559186483793Q 55.43664658196796 12.82559186483793 51.43664658196796 12.82559186483793L 4 12.82559186483793Q 0 12.82559186483793 0 8.82559186483793Z" stroke="rgba(50,50,50,1)" stroke-width="2" fill-opacity="1" fill="#2196f3"></path><g id="SvgjsG1110"><text id="SvgjsText1111" font-family="微软雅黑" text-anchor="middle" font-size="13px" width="36px" fill="#323232" font-weight="400" align="middle" lineHeight="125%" anchor="middle" family="微软雅黑" size="13px" weight="400" font-style="" opacity="1" y="-4.212204067581035" transform="rotate(0)"></text></g></g><g id="SvgjsG1112" transform="translate(297.06185950205077,650.6225954775159)"><path id="SvgjsPath1113" d="M 0 4Q 0 0 4 0L 35.681287014128365 0Q 39.681287014128365 0 39.681287014128365 4L 39.681287014128365 9.113761808636493Q 39.681287014128365 13.113761808636493 35.681287014128365 13.113761808636493L 4 13.113761808636493Q 0 13.113761808636493 0 9.113761808636493Z" stroke="rgba(50,50,50,1)" stroke-width="2" fill-opacity="1" fill="#2196f3"></path><g id="SvgjsG1114"><text id="SvgjsText1115" font-family="微软雅黑" text-anchor="middle" font-size="13px" width="20px" fill="#323232" font-weight="400" align="middle" lineHeight="125%" anchor="middle" family="微软雅黑" size="13px" weight="400" font-style="" opacity="1" y="-4.0681190956817534" transform="rotate(0)"></text></g></g><g id="SvgjsG1116" transform="translate(283.73040140618696,671.039983309452)"><path id="SvgjsPath1117" d="M 0 4Q 0 0 4 0L 64.76810467783169 0Q 68.76810467783169 0 68.76810467783169 4L 68.76810467783169 8.82559186483793Q 68.76810467783169 12.82559186483793 64.76810467783169 12.82559186483793L 4 12.82559186483793Q 0 12.82559186483793 0 8.82559186483793Z" stroke="rgba(50,50,50,1)" stroke-width="2" fill-opacity="1" fill="#2196f3"></path><g id="SvgjsG1118"><text id="SvgjsText1119" font-family="微软雅黑" text-anchor="middle" font-size="13px" width="49px" fill="#323232" font-weight="400" align="middle" lineHeight="125%" anchor="middle" family="微软雅黑" size="13px" weight="400" font-style="" opacity="1" y="-4.212204067581035" transform="rotate(0)"></text></g></g><g id="SvgjsG1120" transform="matrix(0.8660254037844385,0.5000000000000002,-0.5000000000000002,0.8660254037844385,213.51509603237426,601.2307292664522)"><path id="SvgjsPath1121" d="M 0 11.671227716028337L 20.897060565266862 11.671227716028337L 20.897060565266862 0L 37.994655573212476 17.683678357618692L 20.897060565266862 35.367356715237385L 20.897060565266862 23.696128999209048L 0 23.696128999209048L 0 11.671227716028337Z" stroke="rgba(50,50,50,1)" stroke-width="2" fill-opacity="1" fill="#1976d2"></path><g id="SvgjsG1122"><text id="SvgjsText1123" font-family="微软雅黑" text-anchor="middle" font-size="13px" width="38px" fill="#323232" font-weight="400" align="middle" lineHeight="125%" anchor="middle" family="微软雅黑" size="13px" weight="400" font-style="" opacity="1" y="7.0586783576186924" transform="rotate(0)"></text></g></g><g id="SvgjsG1124" transform="translate(79.83729648842723,69.5785732875355)"><path id="SvgjsPath1125" d="M 0 0L 93.50314356990832 0L 93.50314356990832 83.59953970080726L 0 83.59953970080726Z" stroke="rgba(50,50,50,1)" stroke-width="2" fill-opacity="1" fill="#1e3c53"></path><g id="SvgjsG1126"><text id="SvgjsText1127" font-family="微软雅黑" text-anchor="middle" font-size="13px" width="74px" fill="#323232" font-weight="400" align="middle" lineHeight="125%" anchor="middle" family="微软雅黑" size="13px" weight="400" font-style="" opacity="1" y="31.174769850403628" transform="rotate(0)"></text></g></g><g id="SvgjsG1128" transform="translate(92.2048159344655,75.3743805203959)"><path id="SvgjsPath1129" d="M 0 4Q 0 0 4 0L 67.19200614980718 0Q 71.19200614980718 0 71.19200614980718 4L 71.19200614980718 8.82559186483793Q 71.19200614980718 12.82559186483793 67.19200614980718 12.82559186483793L 4 12.82559186483793Q 0 12.82559186483793 0 8.82559186483793Z" stroke="rgba(50,50,50,1)" stroke-width="2" fill-opacity="1" fill="#2196f3"></path><g id="SvgjsG1130"><text id="SvgjsText1131" font-family="微软雅黑" text-anchor="middle" font-size="13px" width="52px" fill="#323232" font-weight="400" align="middle" lineHeight="125%" anchor="middle" family="微软雅黑" size="13px" weight="400" font-style="" opacity="1" y="-4.212204067581035" transform="rotate(0)"></text></g></g><g id="SvgjsG1132" transform="translate(106.7482247663171,94.01010817057079)"><path id="SvgjsPath1133" d="M 0 4Q 0 0 4 0L 51.43664658196796 0Q 55.43664658196796 0 55.43664658196796 4L 55.43664658196796 8.82559186483793Q 55.43664658196796 12.82559186483793 51.43664658196796 12.82559186483793L 4 12.82559186483793Q 0 12.82559186483793 0 8.82559186483793Z" stroke="rgba(50,50,50,1)" stroke-width="2" fill-opacity="1" fill="#2196f3"></path><g id="SvgjsG1134"><text id="SvgjsText1135" font-family="微软雅黑" text-anchor="middle" font-size="13px" width="36px" fill="#323232" font-weight="400" align="middle" lineHeight="125%" anchor="middle" family="微软雅黑" size="13px" weight="400" font-style="" opacity="1" y="-4.212204067581035" transform="rotate(0)"></text></g></g><g id="SvgjsG1136" transform="translate(106.7482247663171,114.13932605870866)"><path id="SvgjsPath1137" d="M 0 4Q 0 0 4 0L 35.681287014128365 0Q 39.681287014128365 0 39.681287014128365 4L 39.681287014128365 9.113761808636493Q 39.681287014128365 13.113761808636493 35.681287014128365 13.113761808636493L 4 13.113761808636493Q 0 13.113761808636493 0 9.113761808636493Z" stroke="rgba(50,50,50,1)" stroke-width="2" fill-opacity="1" fill="#2196f3"></path><g id="SvgjsG1138"><text id="SvgjsText1139" font-family="微软雅黑" text-anchor="middle" font-size="13px" width="20px" fill="#323232" font-weight="400" align="middle" lineHeight="125%" anchor="middle" family="微软雅黑" size="13px" weight="400" font-style="" opacity="1" y="-4.0681190956817534" transform="rotate(0)"></text></g></g><g id="SvgjsG1140" transform="translate(92.2048159344655,134.55671389064435)"><path id="SvgjsPath1141" d="M 0 4Q 0 0 4 0L 64.76810467783169 0Q 68.76810467783169 0 68.76810467783169 4L 68.76810467783169 8.82559186483793Q 68.76810467783169 12.82559186483793 64.76810467783169 12.82559186483793L 4 12.82559186483793Q 0 12.82559186483793 0 8.82559186483793Z" stroke="rgba(50,50,50,1)" stroke-width="2" fill-opacity="1" fill="#2196f3"></path><g id="SvgjsG1142"><text id="SvgjsText1143" font-family="微软雅黑" text-anchor="middle" font-size="13px" width="49px" fill="#323232" font-weight="400" align="middle" lineHeight="125%" anchor="middle" family="微软雅黑" size="13px" weight="400" font-style="" opacity="1" y="-4.212204067581035" transform="rotate(0)"></text></g></g><g id="SvgjsG1144" transform="translate(270.150931224161,69.5785732875355)"><path id="SvgjsPath1145" d="M 0 0L 93.50314356990832 0L 93.50314356990832 83.59953970080726L 0 83.59953970080726Z" stroke-dasharray="3,4" stroke="rgba(50,50,50,1)" stroke-width="5" fill-opacity="1" fill="#1e3c53"></path><g id="SvgjsG1146"><text id="SvgjsText1147" font-family="微软雅黑" text-anchor="middle" font-size="13px" width="74px" fill="#323232" font-weight="400" align="middle" lineHeight="125%" anchor="middle" family="微软雅黑" size="13px" weight="400" font-style="" opacity="1" y="31.174769850403628" transform="rotate(0)"></text></g></g><g id="SvgjsG1148" transform="translate(282.5184506701994,75.3743805203959)"><path id="SvgjsPath1149" d="M 0 4Q 0 0 4 0L 67.19200614980718 0Q 71.19200614980718 0 71.19200614980718 4L 71.19200614980718 8.82559186483793Q 71.19200614980718 12.82559186483793 67.19200614980718 12.82559186483793L 4 12.82559186483793Q 0 12.82559186483793 0 8.82559186483793Z" stroke="rgba(50,50,50,1)" stroke-width="2" fill-opacity="1" fill="#2196f3"></path><g id="SvgjsG1150"><text id="SvgjsText1151" font-family="微软雅黑" text-anchor="middle" font-size="13px" width="52px" fill="#323232" font-weight="400" align="middle" lineHeight="125%" anchor="middle" family="微软雅黑" size="13px" weight="400" font-style="" opacity="1" y="-4.212204067581035" transform="rotate(0)"></text></g></g><g id="SvgjsG1152" transform="translate(297.061859502051,94.01010817057079)"><path id="SvgjsPath1153" d="M 0 4Q 0 0 4 0L 51.43664658196796 0Q 55.43664658196796 0 55.43664658196796 4L 55.43664658196796 8.82559186483793Q 55.43664658196796 12.82559186483793 51.43664658196796 12.82559186483793L 4 12.82559186483793Q 0 12.82559186483793 0 8.82559186483793Z" stroke="rgba(50,50,50,1)" stroke-width="2" fill-opacity="1" fill="#2196f3"></path><g id="SvgjsG1154"><text id="SvgjsText1155" font-family="微软雅黑" text-anchor="middle" font-size="13px" width="36px" fill="#323232" font-weight="400" align="middle" lineHeight="125%" anchor="middle" family="微软雅黑" size="13px" weight="400" font-style="" opacity="1" y="-4.212204067581035" transform="rotate(0)"></text></g></g><g id="SvgjsG1156" transform="translate(297.061859502051,114.13932605870866)"><path id="SvgjsPath1157" d="M 0 4Q 0 0 4 0L 35.681287014128365 0Q 39.681287014128365 0 39.681287014128365 4L 39.681287014128365 9.113761808636493Q 39.681287014128365 13.113761808636493 35.681287014128365 13.113761808636493L 4 13.113761808636493Q 0 13.113761808636493 0 9.113761808636493Z" stroke="rgba(50,50,50,1)" stroke-width="2" fill-opacity="1" fill="#2196f3"></path><g id="SvgjsG1158"><text id="SvgjsText1159" font-family="微软雅黑" text-anchor="middle" font-size="13px" width="20px" fill="#323232" font-weight="400" align="middle" lineHeight="125%" anchor="middle" family="微软雅黑" size="13px" weight="400" font-style="" opacity="1" y="-4.0681190956817534" transform="rotate(0)"></text></g></g><g id="SvgjsG1160" transform="translate(282.5184506701994,134.55671389064435)"><path id="SvgjsPath1161" d="M 0 4Q 0 0 4 0L 64.76810467783169 0Q 68.76810467783169 0 68.76810467783169 4L 68.76810467783169 8.82559186483793Q 68.76810467783169 12.82559186483793 64.76810467783169 12.82559186483793L 4 12.82559186483793Q 0 12.82559186483793 0 8.82559186483793Z" stroke="rgba(50,50,50,1)" stroke-width="2" fill-opacity="1" fill="#2196f3"></path><g id="SvgjsG1162"><text id="SvgjsText1163" font-family="微软雅黑" text-anchor="middle" font-size="13px" width="49px" fill="#323232" font-weight="400" align="middle" lineHeight="125%" anchor="middle" family="微软雅黑" size="13px" weight="400" font-style="" opacity="1" y="-4.212204067581035" transform="rotate(0)"></text></g></g><g id="SvgjsG1164" transform="translate(460.464565959895,69.57857328753556)"><path id="SvgjsPath1165" d="M 0 0L 93.50314356990832 0L 93.50314356990832 83.59953970080726L 0 83.59953970080726Z" stroke="rgba(50,50,50,1)" stroke-width="2" fill-opacity="1" fill="#b2ebf2"></path><g id="SvgjsG1166"><text id="SvgjsText1167" font-family="微软雅黑" text-anchor="middle" font-size="13px" width="74px" fill="#323232" font-weight="400" align="middle" lineHeight="125%" anchor="middle" family="微软雅黑" size="13px" weight="400" font-style="" opacity="1" y="31.174769850403628" transform="rotate(0)"></text></g></g><g id="SvgjsG1168" transform="translate(471.6201346699454,74.47964543774611)"><path id="SvgjsPath1169" d="M 0 4Q 0 0 4 0L 67.19200614980718 0Q 71.19200614980718 0 71.19200614980718 4L 71.19200614980718 8.82559186483793Q 71.19200614980718 12.82559186483793 67.19200614980718 12.82559186483793L 4 12.82559186483793Q 0 12.82559186483793 0 8.82559186483793Z" stroke="rgba(50,50,50,1)" stroke-width="2" fill-opacity="1" fill="#e1bee7"></path><g id="SvgjsG1170"><text id="SvgjsText1171" font-family="微软雅黑" text-anchor="middle" font-size="13px" width="52px" fill="#323232" font-weight="400" align="middle" lineHeight="125%" anchor="middle" family="微软雅黑" size="13px" weight="400" font-style="" opacity="1" y="-4.212204067581035" transform="rotate(0)"></text></g></g><g id="SvgjsG1172" transform="translate(487.37549423778455,93.115373087921)"><path id="SvgjsPath1173" d="M 0 4Q 0 0 4 0L 51.43664658196796 0Q 55.43664658196796 0 55.43664658196796 4L 55.43664658196796 8.82559186483793Q 55.43664658196796 12.82559186483793 51.43664658196796 12.82559186483793L 4 12.82559186483793Q 0 12.82559186483793 0 8.82559186483793Z" stroke="rgba(50,50,50,1)" stroke-width="2" fill-opacity="1" fill="#e1bee7"></path><g id="SvgjsG1174"><text id="SvgjsText1175" font-family="微软雅黑" text-anchor="middle" font-size="13px" width="36px" fill="#323232" font-weight="400" align="middle" lineHeight="125%" anchor="middle" family="微软雅黑" size="13px" weight="400" font-style="" opacity="1" y="-4.212204067581035" transform="rotate(0)"></text></g></g><g id="SvgjsG1176" transform="translate(487.37549423778455,115.03406114135834)"><path id="SvgjsPath1177" d="M 0 4Q 0 0 4 0L 35.681287014128365 0Q 39.681287014128365 0 39.681287014128365 4L 39.681287014128365 9.113761808636493Q 39.681287014128365 13.113761808636493 35.681287014128365 13.113761808636493L 4 13.113761808636493Q 0 13.113761808636493 0 9.113761808636493Z" stroke="rgba(50,50,50,1)" stroke-width="2" fill-opacity="1" fill="#e1bee7"></path><g id="SvgjsG1178"><text id="SvgjsText1179" font-family="微软雅黑" text-anchor="middle" font-size="13px" width="20px" fill="#323232" font-weight="400" align="middle" lineHeight="125%" anchor="middle" family="微软雅黑" size="13px" weight="400" font-style="" opacity="1" y="-4.0681190956817534" transform="rotate(0)"></text></g></g><g id="SvgjsG1180" transform="translate(472.83208540593296,135.45144897329436)"><path id="SvgjsPath1181" d="M 0 4Q 0 0 4 0L 64.76810467783169 0Q 68.76810467783169 0 68.76810467783169 4L 68.76810467783169 8.82559186483793Q 68.76810467783169 12.82559186483793 64.76810467783169 12.82559186483793L 4 12.82559186483793Q 0 12.82559186483793 0 8.82559186483793Z" stroke="rgba(50,50,50,1)" stroke-width="2" fill-opacity="1" fill="#e1bee7"></path><g id="SvgjsG1182"><text id="SvgjsText1183" font-family="微软雅黑" text-anchor="middle" font-size="13px" width="49px" fill="#323232" font-weight="400" align="middle" lineHeight="125%" anchor="middle" family="微软雅黑" size="13px" weight="400" font-style="" opacity="1" y="-4.212204067581035" transform="rotate(0)"></text></g></g><g id="SvgjsG1184" transform="translate(650.778200695629,69.5785732875355)"><path id="SvgjsPath1185" d="M 0 0L 93.50314356990832 0L 93.50314356990832 83.59953970080726L 0 83.59953970080726Z" stroke="rgba(50,50,50,1)" stroke-width="2" fill-opacity="1" fill="#1e3c53"></path><g id="SvgjsG1186"><text id="SvgjsText1187" font-family="微软雅黑" text-anchor="middle" font-size="13px" width="74px" fill="#323232" font-weight="400" align="middle" lineHeight="125%" anchor="middle" family="微软雅黑" size="13px" weight="400" font-style="" opacity="1" y="31.174769850403628" transform="rotate(0)"></text></g></g><g id="SvgjsG1188" transform="translate(663.1457201416674,75.3743805203959)"><path id="SvgjsPath1189" d="M 0 4Q 0 0 4 0L 67.19200614980718 0Q 71.19200614980718 0 71.19200614980718 4L 71.19200614980718 8.82559186483793Q 71.19200614980718 12.82559186483793 67.19200614980718 12.82559186483793L 4 12.82559186483793Q 0 12.82559186483793 0 8.82559186483793Z" stroke="rgba(50,50,50,1)" stroke-width="2" fill-opacity="1" fill="#2196f3"></path><g id="SvgjsG1190"><text id="SvgjsText1191" font-family="微软雅黑" text-anchor="middle" font-size="13px" width="52px" fill="#323232" font-weight="400" align="middle" lineHeight="125%" anchor="middle" family="微软雅黑" size="13px" weight="400" font-style="" opacity="1" y="-4.212204067581035" transform="rotate(0)"></text></g></g><g id="SvgjsG1192" transform="translate(677.689128973519,94.01010817057079)"><path id="SvgjsPath1193" d="M 0 4Q 0 0 4 0L 51.43664658196796 0Q 55.43664658196796 0 55.43664658196796 4L 55.43664658196796 8.82559186483793Q 55.43664658196796 12.82559186483793 51.43664658196796 12.82559186483793L 4 12.82559186483793Q 0 12.82559186483793 0 8.82559186483793Z" stroke="rgba(50,50,50,1)" stroke-width="2" fill-opacity="1" fill="#2196f3"></path><g id="SvgjsG1194"><text id="SvgjsText1195" font-family="微软雅黑" text-anchor="middle" font-size="13px" width="36px" fill="#323232" font-weight="400" align="middle" lineHeight="125%" anchor="middle" family="微软雅黑" size="13px" weight="400" font-style="" opacity="1" y="-4.212204067581035" transform="rotate(0)"></text></g></g><g id="SvgjsG1196" transform="translate(677.689128973519,114.13932605870866)"><path id="SvgjsPath1197" d="M 0 4Q 0 0 4 0L 35.681287014128365 0Q 39.681287014128365 0 39.681287014128365 4L 39.681287014128365 9.113761808636493Q 39.681287014128365 13.113761808636493 35.681287014128365 13.113761808636493L 4 13.113761808636493Q 0 13.113761808636493 0 9.113761808636493Z" stroke="rgba(50,50,50,1)" stroke-width="2" fill-opacity="1" fill="#2196f3"></path><g id="SvgjsG1198"><text id="SvgjsText1199" font-family="微软雅黑" text-anchor="middle" font-size="13px" width="20px" fill="#323232" font-weight="400" align="middle" lineHeight="125%" anchor="middle" family="微软雅黑" size="13px" weight="400" font-style="" opacity="1" y="-4.0681190956817534" transform="rotate(0)"></text></g></g><g id="SvgjsG1200" transform="translate(663.1457201416674,134.55671389064435)"><path id="SvgjsPath1201" d="M 0 4Q 0 0 4 0L 64.76810467783169 0Q 68.76810467783169 0 68.76810467783169 4L 68.76810467783169 8.82559186483793Q 68.76810467783169 12.82559186483793 64.76810467783169 12.82559186483793L 4 12.82559186483793Q 0 12.82559186483793 0 8.82559186483793Z" stroke="rgba(50,50,50,1)" stroke-width="2" fill-opacity="1" fill="#2196f3"></path><g id="SvgjsG1202"><text id="SvgjsText1203" font-family="微软雅黑" text-anchor="middle" font-size="13px" width="49px" fill="#323232" font-weight="400" align="middle" lineHeight="125%" anchor="middle" family="微软雅黑" size="13px" weight="400" font-style="" opacity="1" y="-4.212204067581035" transform="rotate(0)"></text></g></g><g id="SvgjsG1204" transform="translate(202.12809609769192,93.69466478032047)"><path id="SvgjsPath1205" d="M 0 11.671227716028337L 20.897060565266862 11.671227716028337L 20.897060565266862 0L 37.994655573212476 17.683678357618692L 20.897060565266862 35.367356715237385L 20.897060565266862 23.696128999209048L 0 23.696128999209048L 0 11.671227716028337Z" stroke="rgba(50,50,50,1)" stroke-width="2" fill-opacity="1" fill="#1976d2"></path><g id="SvgjsG1206"><text id="SvgjsText1207" font-family="微软雅黑" text-anchor="middle" font-size="13px" width="38px" fill="#323232" font-weight="400" align="middle" lineHeight="125%" anchor="middle" family="微软雅黑" size="13px" weight="400" font-style="" opacity="1" y="7.0586783576186924" transform="rotate(0)"></text></g></g><g id="SvgjsG1208" transform="translate(393.0619925903759,93.69466478032047)"><path id="SvgjsPath1209" d="M 0 11.671227716028337L 20.897060565266862 11.671227716028337L 20.897060565266862 0L 37.994655573212476 17.683678357618692L 20.897060565266862 35.367356715237385L 20.897060565266862 23.696128999209048L 0 23.696128999209048L 0 11.671227716028337Z" stroke="rgba(50,50,50,1)" stroke-width="2" fill-opacity="1" fill="#1976d2"></path><g id="SvgjsG1210"><text id="SvgjsText1211" font-family="微软雅黑" text-anchor="middle" font-size="13px" width="38px" fill="#323232" font-weight="400" align="middle" lineHeight="125%" anchor="middle" family="微软雅黑" size="13px" weight="400" font-style="" opacity="1" y="7.0586783576186924" transform="rotate(0)"></text></g></g><g id="SvgjsG1212" transform="translate(583.3756273261101,93.69466478032047)"><path id="SvgjsPath1213" d="M 0 11.671227716028337L 20.897060565266862 11.671227716028337L 20.897060565266862 0L 37.994655573212476 17.683678357618692L 20.897060565266862 35.367356715237385L 20.897060565266862 23.696128999209048L 0 23.696128999209048L 0 11.671227716028337Z" stroke="rgba(50,50,50,1)" stroke-width="2" fill-opacity="1" fill="#1976d2"></path><g id="SvgjsG1214"><text id="SvgjsText1215" font-family="微软雅黑" text-anchor="middle" font-size="13px" width="38px" fill="#323232" font-weight="400" align="middle" lineHeight="125%" anchor="middle" family="微软雅黑" size="13px" weight="400" font-style="" opacity="1" y="7.0586783576186924" transform="rotate(0)"></text></g></g><g id="SvgjsG1216" transform="matrix(0.8660254037844387,0.49999999999999994,-0.49999999999999994,0.8660254037844387,403.9338734981946,540.1584026062959)"><path id="SvgjsPath1217" d="M 0 11.671227716028337L 20.897060565266862 11.671227716028337L 20.897060565266862 0L 37.994655573212476 17.683678357618692L 20.897060565266862 35.367356715237385L 20.897060565266862 23.696128999209048L 0 23.696128999209048L 0 11.671227716028337Z" stroke="rgba(50,50,50,1)" stroke-width="2" fill-opacity="1" fill="#1976d2"></path><g id="SvgjsG1218"><text id="SvgjsText1219" font-family="微软雅黑" text-anchor="middle" font-size="13px" width="38px" fill="#323232" font-weight="400" align="middle" lineHeight="125%" anchor="middle" family="微软雅黑" size="13px" weight="400" font-style="" opacity="1" y="7.0586783576186924" transform="rotate(0)"></text></g></g><g id="SvgjsG1220" transform="matrix(0.9063077870366497,-0.4226182617407,0.4226182617407,0.9063077870366497,385.4345385474295,615.0456700977387)"><path id="SvgjsPath1221" d="M 0 11.671227716028337L 20.897060565266862 11.671227716028337L 20.897060565266862 0L 37.994655573212476 17.683678357618692L 20.897060565266862 35.367356715237385L 20.897060565266862 23.696128999209048L 0 23.696128999209048L 0 11.671227716028337Z" stroke="rgba(50,50,50,1)" stroke-width="2" fill-opacity="1" fill="#1976d2"></path><g id="SvgjsG1222"><text id="SvgjsText1223" font-family="微软雅黑" text-anchor="middle" font-size="13px" width="38px" fill="#323232" font-weight="400" align="middle" lineHeight="125%" anchor="middle" family="微软雅黑" size="13px" weight="400" font-style="" opacity="1" y="7.0586783576186924" transform="rotate(0)"></text></g></g><g id="SvgjsG1224" transform="translate(583.3756273261101,571.009929381356)"><path id="SvgjsPath1225" d="M 0 11.671227716028337L 20.897060565266862 11.671227716028337L 20.897060565266862 0L 37.994655573212476 17.683678357618692L 20.897060565266862 35.367356715237385L 20.897060565266862 23.696128999209048L 0 23.696128999209048L 0 11.671227716028337Z" stroke="rgba(50,50,50,1)" stroke-width="2" fill-opacity="1" fill="#1976d2"></path><g id="SvgjsG1226"><text id="SvgjsText1227" font-family="微软雅黑" text-anchor="middle" font-size="13px" width="38px" fill="#323232" font-weight="400" align="middle" lineHeight="125%" anchor="middle" family="微软雅黑" size="13px" weight="400" font-style="" opacity="1" y="7.0586783576186924" transform="rotate(0)"></text></g></g><g id="SvgjsG1228" transform="translate(25.00477962557352,711.586589029526)"><path id="SvgjsPath1229" d="M 0 0L 773.0788479932685 0L 773.0788479932685 39.58988155870941L 0 39.58988155870941Z" stroke="rgba(50,50,50,1)" stroke-width="2" fill-opacity="1" fill="#ffcdd2"></path><g id="SvgjsG1230"><text id="SvgjsText1231" font-family="微软雅黑" text-anchor="middle" font-size="15px" width="754px" fill="#323232" font-weight="700" align="middle" lineHeight="125%" anchor="middle" family="微软雅黑" size="15px" weight="700" font-style="" opacity="1" y="7.419940779354704" transform="rotate(0)"><tspan id="SvgjsTspan1232" dy="18" x="387"><tspan id="SvgjsTspan1233" style="text-decoration:;">编排规则：THEN(a, WHEN(c, b), s, d)</tspan></tspan></text></g></g><g id="SvgjsG1234" transform="translate(270.150931224161,292.2434261885836)"><path id="SvgjsPath1235" d="M 0 0L 93.50314356990832 0L 93.50314356990832 83.59953970080726L 0 83.59953970080726Z" stroke="rgba(50,50,50,1)" stroke-width="2" fill-opacity="1" fill="#1e3c53"></path><g id="SvgjsG1236"><text id="SvgjsText1237" font-family="微软雅黑" text-anchor="middle" font-size="13px" width="74px" fill="#323232" font-weight="400" align="middle" lineHeight="125%" anchor="middle" family="微软雅黑" size="13px" weight="400" font-style="" opacity="1" y="31.174769850403628" transform="rotate(0)"></text></g></g><g id="SvgjsG1238" transform="translate(281.3064999342116,298.039233421444)"><path id="SvgjsPath1239" d="M 0 4Q 0 0 4 0L 67.19200614980718 0Q 71.19200614980718 0 71.19200614980718 4L 71.19200614980718 8.82559186483793Q 71.19200614980718 12.82559186483793 67.19200614980718 12.82559186483793L 4 12.82559186483793Q 0 12.82559186483793 0 8.82559186483793Z" stroke="rgba(50,50,50,1)" stroke-width="2" fill-opacity="1" fill="#2196f3"></path><g id="SvgjsG1240"><text id="SvgjsText1241" font-family="微软雅黑" text-anchor="middle" font-size="13px" width="52px" fill="#323232" font-weight="400" align="middle" lineHeight="125%" anchor="middle" family="微软雅黑" size="13px" weight="400" font-style="" opacity="1" y="-4.212204067581035" transform="rotate(0)"></text></g></g><g id="SvgjsG1242" transform="translate(295.8499087660632,316.67496107161895)"><path id="SvgjsPath1243" d="M 0 4Q 0 0 4 0L 51.43664658196796 0Q 55.43664658196796 0 55.43664658196796 4L 55.43664658196796 8.82559186483793Q 55.43664658196796 12.82559186483793 51.43664658196796 12.82559186483793L 4 12.82559186483793Q 0 12.82559186483793 0 8.82559186483793Z" stroke="rgba(50,50,50,1)" stroke-width="2" fill-opacity="1" fill="#2196f3"></path><g id="SvgjsG1244"><text id="SvgjsText1245" font-family="微软雅黑" text-anchor="middle" font-size="13px" width="36px" fill="#323232" font-weight="400" align="middle" lineHeight="125%" anchor="middle" family="微软雅黑" size="13px" weight="400" font-style="" opacity="1" y="-4.212204067581035" transform="rotate(0)"></text></g></g><g id="SvgjsG1246" transform="translate(295.8499087660632,336.80417895975665)"><path id="SvgjsPath1247" d="M 0 4Q 0 0 4 0L 35.681287014128365 0Q 39.681287014128365 0 39.681287014128365 4L 39.681287014128365 9.113761808636493Q 39.681287014128365 13.113761808636493 35.681287014128365 13.113761808636493L 4 13.113761808636493Q 0 13.113761808636493 0 9.113761808636493Z" stroke="rgba(50,50,50,1)" stroke-width="2" fill-opacity="1" fill="#2196f3"></path><g id="SvgjsG1248"><text id="SvgjsText1249" font-family="微软雅黑" text-anchor="middle" font-size="13px" width="20px" fill="#323232" font-weight="400" align="middle" lineHeight="125%" anchor="middle" family="微软雅黑" size="13px" weight="400" font-style="" opacity="1" y="-4.0681190956817534" transform="rotate(0)"></text></g></g><g id="SvgjsG1250" transform="translate(282.5184506701994,357.22156679169257)"><path id="SvgjsPath1251" d="M 0 4Q 0 0 4 0L 64.76810467783169 0Q 68.76810467783169 0 68.76810467783169 4L 68.76810467783169 8.82559186483793Q 68.76810467783169 12.82559186483793 64.76810467783169 12.82559186483793L 4 12.82559186483793Q 0 12.82559186483793 0 8.82559186483793Z" stroke="rgba(50,50,50,1)" stroke-width="2" fill-opacity="1" fill="#2196f3"></path><g id="SvgjsG1252"><text id="SvgjsText1253" font-family="微软雅黑" text-anchor="middle" font-size="13px" width="49px" fill="#323232" font-weight="400" align="middle" lineHeight="125%" anchor="middle" family="微软雅黑" size="13px" weight="400" font-style="" opacity="1" y="-4.212204067581035" transform="rotate(0)"></text></g></g><g id="SvgjsG1254" transform="translate(301.00320524966037,390.5)"><path id="SvgjsPath1255" d="M 11.608080707460722 0L 23.567921436359647 0L 23.567921436359647 74.41199892808982L 35.17600214382037 74.41199892808982L 17.588001071910185 92L 0 74.41199892808982L 11.608080707460722 74.41199892808982L 11.608080707460722 0Z" stroke="rgba(50,50,50,1)" stroke-width="2" fill-opacity="1" fill="#0d47a1"></path><g id="SvgjsG1256"><text id="SvgjsText1257" font-family="微软雅黑" text-anchor="middle" font-size="13px" width="50px" fill="#323232" font-weight="400" align="middle" lineHeight="125%" anchor="middle" family="微软雅黑" size="13px" weight="400" font-style="" opacity="1" y="30.775000000000006" transform="rotate(0)"></text></g></g><g id="SvgjsG1258" transform="translate(79.83729648842723,40.65542003979931)"><path id="SvgjsPath1259" d="M 0 4Q 0 0 4 0L 28.287703511572772 0Q 32.28770351157277 0 32.28770351157277 4L 32.28770351157277 17.34457996020069Q 32.28770351157277 21.34457996020069 28.287703511572772 21.34457996020069L 4 21.34457996020069Q 0 21.34457996020069 0 17.34457996020069Z" stroke="rgba(50,50,50,1)" stroke-width="2" fill-opacity="1" fill="#ffe0b2"></path><g id="SvgjsG1260"><text id="SvgjsText1261" font-family="微软雅黑" text-anchor="middle" font-size="13px" width="13px" fill="#323232" font-weight="700" align="middle" lineHeight="125%" anchor="middle" family="微软雅黑" size="13px" weight="700" font-style="" opacity="1" y="0.04728998010034502" transform="rotate(0)"><tspan id="SvgjsTspan1262" dy="16" x="16.5"><tspan id="SvgjsTspan1263" style="text-decoration:;">a</tspan></tspan></text></g></g><g id="SvgjsG1264" transform="translate(270.150931224161,40.65542003979931)"><path id="SvgjsPath1265" d="M 0 4Q 0 0 4 0L 28.287703511572772 0Q 32.28770351157277 0 32.28770351157277 4L 32.28770351157277 17.34457996020069Q 32.28770351157277 21.34457996020069 28.287703511572772 21.34457996020069L 4 21.34457996020069Q 0 21.34457996020069 0 17.34457996020069Z" stroke="rgba(50,50,50,1)" stroke-width="2" fill-opacity="1" fill="#ffe0b2"></path><g id="SvgjsG1266"><text id="SvgjsText1267" font-family="微软雅黑" text-anchor="middle" font-size="13px" width="13px" fill="#323232" font-weight="700" align="middle" lineHeight="125%" anchor="middle" family="微软雅黑" size="13px" weight="700" font-style="" opacity="1" y="0.04728998010034502" transform="rotate(0)"><tspan id="SvgjsTspan1268" dy="16" x="16.5"><tspan id="SvgjsTspan1269" style="text-decoration:;">c</tspan></tspan></text></g></g><g id="SvgjsG1270" transform="translate(460.464565959895,40.65542003979931)"><path id="SvgjsPath1271" d="M 0 4Q 0 0 4 0L 28.287703511572772 0Q 32.28770351157277 0 32.28770351157277 4L 32.28770351157277 17.34457996020069Q 32.28770351157277 21.34457996020069 28.287703511572772 21.34457996020069L 4 21.34457996020069Q 0 21.34457996020069 0 17.34457996020069Z" stroke="rgba(50,50,50,1)" stroke-width="2" fill-opacity="1" fill="#ffe0b2"></path><g id="SvgjsG1272"><text id="SvgjsText1273" font-family="微软雅黑" text-anchor="middle" font-size="13px" width="13px" fill="#323232" font-weight="700" align="middle" lineHeight="125%" anchor="middle" family="微软雅黑" size="13px" weight="700" font-style="" opacity="1" y="0.04728998010034502" transform="rotate(0)"><tspan id="SvgjsTspan1274" dy="16" x="16.5"><tspan id="SvgjsTspan1275" style="text-decoration:;">s</tspan></tspan></text></g></g><g id="SvgjsG1276" transform="translate(650.778200695629,40.65542003979931)"><path id="SvgjsPath1277" d="M 0 4Q 0 0 4 0L 28.287703511572772 0Q 32.28770351157277 0 32.28770351157277 4L 32.28770351157277 17.34457996020069Q 32.28770351157277 21.34457996020069 28.287703511572772 21.34457996020069L 4 21.34457996020069Q 0 21.34457996020069 0 17.34457996020069Z" stroke="rgba(50,50,50,1)" stroke-width="2" fill-opacity="1" fill="#ffe0b2"></path><g id="SvgjsG1278"><text id="SvgjsText1279" font-family="微软雅黑" text-anchor="middle" font-size="13px" width="13px" fill="#323232" font-weight="700" align="middle" lineHeight="125%" anchor="middle" family="微软雅黑" size="13px" weight="700" font-style="" opacity="1" y="0.04728998010034502" transform="rotate(0)"><tspan id="SvgjsTspan1280" dy="16" x="16.5"><tspan id="SvgjsTspan1281" style="text-decoration:;">d</tspan></tspan></text></g></g><g id="SvgjsG1282" transform="translate(79.83729648842723,518.8861264360299)"><path id="SvgjsPath1283" d="M 0 4Q 0 0 4 0L 28.287703511572772 0Q 32.28770351157277 0 32.28770351157277 4L 32.28770351157277 17.34457996020069Q 32.28770351157277 21.34457996020069 28.287703511572772 21.34457996020069L 4 21.34457996020069Q 0 21.34457996020069 0 17.34457996020069Z" stroke="rgba(50,50,50,1)" stroke-width="2" fill-opacity="1" fill="#ffe0b2"></path><g id="SvgjsG1284"><text id="SvgjsText1285" font-family="微软雅黑" text-anchor="middle" font-size="13px" width="13px" fill="#323232" font-weight="700" align="middle" lineHeight="125%" anchor="middle" family="微软雅黑" size="13px" weight="700" font-style="" opacity="1" y="0.04728998010034502" transform="rotate(0)"><tspan id="SvgjsTspan1286" dy="16" x="16.5"><tspan id="SvgjsTspan1287" style="text-decoration:;">a</tspan></tspan></text></g></g><g id="SvgjsG1288" transform="translate(271.36288196014857,460.5318829197671)"><path id="SvgjsPath1289" d="M 0 4Q 0 0 4 0L 28.287703511572772 0Q 32.28770351157277 0 32.28770351157277 4L 32.28770351157277 17.34457996020069Q 32.28770351157277 21.34457996020069 28.287703511572772 21.34457996020069L 4 21.34457996020069Q 0 21.34457996020069 0 17.34457996020069Z" stroke="rgba(50,50,50,1)" stroke-width="2" fill-opacity="1" fill="#ffe0b2"></path><g id="SvgjsG1290"><text id="SvgjsText1291" font-family="微软雅黑" text-anchor="middle" font-size="13px" width="13px" fill="#323232" font-weight="700" align="middle" lineHeight="125%" anchor="middle" family="微软雅黑" size="13px" weight="700" font-style="" opacity="1" y="0.04728998010034502" transform="rotate(0)"><tspan id="SvgjsTspan1292" dy="16" x="16.5"><tspan id="SvgjsTspan1293" style="text-decoration:;">c</tspan></tspan></text></g></g><g id="SvgjsG1294" transform="translate(271.36288196014857,579.88612643603)"><path id="SvgjsPath1295" d="M 0 4Q 0 0 4 0L 28.287703511572772 0Q 32.28770351157277 0 32.28770351157277 4L 32.28770351157277 17.34457996020069Q 32.28770351157277 21.34457996020069 28.287703511572772 21.34457996020069L 4 21.34457996020069Q 0 21.34457996020069 0 17.34457996020069Z" stroke="rgba(50,50,50,1)" stroke-width="2" fill-opacity="1" fill="#ffe0b2"></path><g id="SvgjsG1296"><text id="SvgjsText1297" font-family="微软雅黑" text-anchor="middle" font-size="13px" width="13px" fill="#323232" font-weight="700" align="middle" lineHeight="125%" anchor="middle" family="微软雅黑" size="13px" weight="700" font-style="" opacity="1" y="0.04728998010034502" transform="rotate(0)"><tspan id="SvgjsTspan1298" dy="16" x="16.5"><tspan id="SvgjsTspan1299" style="text-decoration:;">b</tspan></tspan></text></g></g><g id="SvgjsG1300" transform="translate(460.464565959895,518.8138146844377)"><path id="SvgjsPath1301" d="M 0 4Q 0 0 4 0L 28.287703511572772 0Q 32.28770351157277 0 32.28770351157277 4L 32.28770351157277 17.34457996020069Q 32.28770351157277 21.34457996020069 28.287703511572772 21.34457996020069L 4 21.34457996020069Q 0 21.34457996020069 0 17.34457996020069Z" stroke="rgba(50,50,50,1)" stroke-width="2" fill-opacity="1" fill="#ffe0b2"></path><g id="SvgjsG1302"><text id="SvgjsText1303" font-family="微软雅黑" text-anchor="middle" font-size="13px" width="13px" fill="#323232" font-weight="700" align="middle" lineHeight="125%" anchor="middle" family="微软雅黑" size="13px" weight="700" font-style="" opacity="1" y="0.04728998010034502" transform="rotate(0)"><tspan id="SvgjsTspan1304" dy="16" x="16.5"><tspan id="SvgjsTspan1305" style="text-decoration:;">s</tspan></tspan></text></g></g><g id="SvgjsG1306" transform="translate(650.778200695629,518.8138146844377)"><path id="SvgjsPath1307" d="M 0 4Q 0 0 4 0L 28.287703511572772 0Q 32.28770351157277 0 32.28770351157277 4L 32.28770351157277 17.34457996020069Q 32.28770351157277 21.34457996020069 28.287703511572772 21.34457996020069L 4 21.34457996020069Q 0 21.34457996020069 0 17.34457996020069Z" stroke="rgba(50,50,50,1)" stroke-width="2" fill-opacity="1" fill="#ffe0b2"></path><g id="SvgjsG1308"><text id="SvgjsText1309" font-family="微软雅黑" text-anchor="middle" font-size="13px" width="13px" fill="#323232" font-weight="700" align="middle" lineHeight="125%" anchor="middle" family="微软雅黑" size="13px" weight="700" font-style="" opacity="1" y="0.04728998010034502" transform="rotate(0)"><tspan id="SvgjsTspan1310" dy="16" x="16.5"><tspan id="SvgjsTspan1311" style="text-decoration:;">d</tspan></tspan></text></g></g><g id="SvgjsG1312" transform="translate(319.27210855224166,164.2422298087659)"><path id="SvgjsPath1313" d="M 10.564767442610487 0L 21.44967935317887 0L 21.44967935317887 91.8504265413087L 32.014446795789354 91.8504265413087L 16.007223397894677 107.85764993920338L 0 91.8504265413087L 10.564767442610487 91.8504265413087L 10.564767442610487 0Z" stroke="rgba(50,50,50,1)" stroke-width="2" fill-opacity="1" fill="#0d47a1"></path><g id="SvgjsG1314"><text id="SvgjsText1315" font-family="微软雅黑" text-anchor="middle" font-size="13px" width="45px" fill="#323232" font-weight="400" align="middle" lineHeight="125%" anchor="middle" family="微软雅黑" size="13px" weight="400" font-style="" opacity="1" y="37.91094247264152" transform="rotate(0)"></text></g></g><g id="SvgjsG1316" transform="translate(282.5184506701994,160.75668627587828)"><path id="SvgjsPath1317" d="M 17.35580249177383 0L 34.71160498354766 17.35580249177383L 23.256775338976933 17.35580249177383L 23.256775338976933 108.39994477046776L 11.454829644570728 108.39994477046776L 11.454829644570728 17.35580249177383L 0 17.35580249177383L 17.35580249177383 0Z" stroke="rgba(50,50,50,1)" stroke-width="2" fill-opacity="1" fill="#0d47a1"></path><g id="SvgjsG1318"><text id="SvgjsText1319" font-family="微软雅黑" text-anchor="middle" font-size="13px" width="49px" fill="#323232" font-weight="400" align="middle" lineHeight="125%" anchor="middle" family="微软雅黑" size="13px" weight="400" font-style="" opacity="1" y="48.99496962375727" transform="rotate(0)"></text></g></g><g id="SvgjsG1320" transform="translate(25.00477962557352,183.57703991617495)"><path id="SvgjsPath1321" d="M 0 0L 773.0788479932685 0L 773.0788479932685 38.08359260296754L 0 38.08359260296754Z" stroke="rgba(50,50,50,1)" stroke-width="2" fill-opacity="1" fill="#ffcdd2"></path><g id="SvgjsG1322"><text id="SvgjsText1323" font-family="微软雅黑" text-anchor="middle" font-size="15px" width="754px" fill="#323232" font-weight="700" align="middle" lineHeight="125%" anchor="middle" family="微软雅黑" size="15px" weight="700" font-style="" opacity="1" y="6.666796301483771" transform="rotate(0)"><tspan id="SvgjsTspan1324" dy="18" x="387"><tspan id="SvgjsTspan1325" style="text-decoration:;">编排规则：THEN(a, c, s, d)</tspan></tspan></text></g></g><g id="SvgjsG1326" transform="translate(353.84343689535035,217.92804403079458)"><path id="SvgjsPath1327" d="M 0 0L 77.21321126823796 0L 77.21321126823796 39.047970646136946L 0 39.047970646136946Z" stroke="none" fill="none"></path><g id="SvgjsG1328"><text id="SvgjsText1329" font-family="微软雅黑" text-anchor="middle" font-size="13px" width="78px" fill="#323232" font-weight="700" align="middle" lineHeight="125%" anchor="middle" family="微软雅黑" size="13px" weight="700" font-style="" opacity="1" y="8.898985323068473" transform="rotate(0)"><tspan id="SvgjsTspan1330" dy="16" x="39"><tspan id="SvgjsTspan1331" style="text-decoration:;">可实时替换</tspan></tspan></text></g></g><g id="SvgjsG1332" transform="translate(335.53119578019164,406.9280440307946)"><path id="SvgjsPath1333" d="M 0 0L 77.21321126823796 0L 77.21321126823796 39.047970646136946L 0 39.047970646136946Z" stroke="none" fill="none"></path><g id="SvgjsG1334"><text id="SvgjsText1335" font-family="微软雅黑" text-anchor="middle" font-size="13px" width="78px" fill="#323232" font-weight="700" align="middle" lineHeight="125%" anchor="middle" family="微软雅黑" size="13px" weight="700" font-style="" opacity="1" y="8.898985323068473" transform="rotate(0)"><tspan id="SvgjsTspan1336" dy="16" x="39"><tspan id="SvgjsTspan1337" style="text-decoration:;">可实时增加</tspan></tspan></text></g></g></svg>