<svg id="SvgjsSvg1006" width="331.1953125" height="287.1796875" xmlns="http://www.w3.org/2000/svg" version="1.1" xmlns:xlink="http://www.w3.org/1999/xlink" xmlns:svgjs="http://svgjs.com/svgjs"><defs id="SvgjsDefs1007"></defs><g id="SvgjsG1008" transform="translate(25.00177642933147,102.87129451405548)"><path id="SvgjsPath1009" d="M 0 0L 93.50314356990832 0L 93.50314356990832 83.59953970080726L 0 83.59953970080726Z" stroke="rgba(50,50,50,1)" stroke-width="2" fill-opacity="1" fill="#b2ebf2"></path><g id="SvgjsG1010"><text id="SvgjsText1011" font-family="微软雅黑" text-anchor="middle" font-size="13px" width="74px" fill="#323232" font-weight="400" align="middle" lineHeight="125%" anchor="middle" family="微软雅黑" size="13px" weight="400" font-style="" opacity="1" y="31.174769850403628" transform="rotate(0)"></text></g></g><g id="SvgjsG1012" transform="translate(36.157345139381846,107.77236666426614)"><path id="SvgjsPath1013" d="M 0 4Q 0 0 4 0L 67.19200614980718 0Q 71.19200614980718 0 71.19200614980718 4L 71.19200614980718 8.82559186483793Q 71.19200614980718 12.82559186483793 67.19200614980718 12.82559186483793L 4 12.82559186483793Q 0 12.82559186483793 0 8.82559186483793Z" stroke="rgba(50,50,50,1)" stroke-width="2" fill-opacity="1" fill="#e1bee7"></path><g id="SvgjsG1014"><text id="SvgjsText1015" font-family="微软雅黑" text-anchor="middle" font-size="13px" width="52px" fill="#323232" font-weight="400" align="middle" lineHeight="125%" anchor="middle" family="微软雅黑" size="13px" weight="400" font-style="" opacity="1" y="-4.212204067581035" transform="rotate(0)"></text></g></g><g id="SvgjsG1016" transform="translate(51.91270470722122,126.40809431444103)"><path id="SvgjsPath1017" d="M 0 4Q 0 0 4 0L 51.43664658196796 0Q 55.43664658196796 0 55.43664658196796 4L 55.43664658196796 8.82559186483793Q 55.43664658196796 12.82559186483793 51.43664658196796 12.82559186483793L 4 12.82559186483793Q 0 12.82559186483793 0 8.82559186483793Z" stroke="rgba(50,50,50,1)" stroke-width="2" fill-opacity="1" fill="#e1bee7"></path><g id="SvgjsG1018"><text id="SvgjsText1019" font-family="微软雅黑" text-anchor="middle" font-size="13px" width="36px" fill="#323232" font-weight="400" align="middle" lineHeight="125%" anchor="middle" family="微软雅黑" size="13px" weight="400" font-style="" opacity="1" y="-4.212204067581035" transform="rotate(0)"></text></g></g><g id="SvgjsG1020" transform="translate(51.91270470722122,148.3267823678783)"><path id="SvgjsPath1021" d="M 0 4Q 0 0 4 0L 35.681287014128365 0Q 39.681287014128365 0 39.681287014128365 4L 39.681287014128365 9.113761808636493Q 39.681287014128365 13.113761808636493 35.681287014128365 13.113761808636493L 4 13.113761808636493Q 0 13.113761808636493 0 9.113761808636493Z" stroke="rgba(50,50,50,1)" stroke-width="2" fill-opacity="1" fill="#e1bee7"></path><g id="SvgjsG1022"><text id="SvgjsText1023" font-family="微软雅黑" text-anchor="middle" font-size="13px" width="20px" fill="#323232" font-weight="400" align="middle" lineHeight="125%" anchor="middle" family="微软雅黑" size="13px" weight="400" font-style="" opacity="1" y="-4.0681190956817534" transform="rotate(0)"></text></g></g><g id="SvgjsG1024" transform="translate(37.36929587536963,168.74417019981422)"><path id="SvgjsPath1025" d="M 0 4Q 0 0 4 0L 64.76810467783169 0Q 68.76810467783169 0 68.76810467783169 4L 68.76810467783169 8.82559186483793Q 68.76810467783169 12.82559186483793 64.76810467783169 12.82559186483793L 4 12.82559186483793Q 0 12.82559186483793 0 8.82559186483793Z" stroke="rgba(50,50,50,1)" stroke-width="2" fill-opacity="1" fill="#e1bee7"></path><g id="SvgjsG1026"><text id="SvgjsText1027" font-family="微软雅黑" text-anchor="middle" font-size="13px" width="49px" fill="#323232" font-weight="400" align="middle" lineHeight="125%" anchor="middle" family="微软雅黑" size="13px" weight="400" font-style="" opacity="1" y="-4.212204067581035" transform="rotate(0)"></text></g></g><g id="SvgjsG1028" transform="translate(107.53906250000034,28.181434239203156)"><path id="SvgjsPath1029" d="M 50.14285714285711 0Q 45.1285714285714 0 45.1285714285714 9L 45.1285714285714 108.01621477349877Q 45.1285714285714 117.01621477349877 28.14285714285711 117.01621477349877Q 45.1285714285714 117.01621477349877 45.1285714285714 126.01621477349877L 45.1285714285714 225.03242954699755Q 45.1285714285714 234.03242954699755 50.14285714285711 234.03242954699755" stroke="rgba(13,71,161,1)" stroke-width="5" fill="none"></path><path id="SvgjsPath1030" d="M 0 0L 50.14285714285711 0L 50.14285714285711 234.03242954699755L 0 234.03242954699755Z" stroke="none" fill="none"></path><g id="SvgjsG1031"><text id="SvgjsText1032" font-family="微软雅黑" text-anchor="end" font-size="13px" width="24px" fill="#323232" font-weight="400" align="middle" lineHeight="125%" anchor="end" family="微软雅黑" size="13px" weight="400" font-style="" opacity="1" y="106.39121477349877" transform="rotate(0)"></text></g></g><g id="SvgjsG1033" transform="translate(178.19841899293579,25.002779539063738)"><path id="SvgjsPath1034" d="M 0 4Q 0 0 4 0L 124 0Q 128 0 128 4L 128 24.700230149596393Q 128 28.700230149596393 124 28.700230149596393L 4 28.700230149596393Q 0 28.700230149596393 0 24.700230149596393Z" stroke="rgba(50,50,50,1)" stroke-width="2" fill-opacity="1" fill="#e1bee7"></path><g id="SvgjsG1035"><text id="SvgjsText1036" font-family="微软雅黑" text-anchor="middle" font-size="17px" width="108px" fill="#1e3c53" font-weight="700" align="middle" lineHeight="125%" anchor="middle" family="微软雅黑" size="17px" weight="700" font-style="" opacity="1" y="-0.2748849252018033" transform="rotate(0)"><tspan id="SvgjsTspan1037" dy="21" x="64"><tspan id="SvgjsTspan1038" style="text-decoration:;">Groovy</tspan></tspan></text></g></g><g id="SvgjsG1039" transform="translate(178.19841899293579,77.23980948904568)"><path id="SvgjsPath1040" d="M 0 4Q 0 0 4 0L 124 0Q 128 0 128 4L 128 25.26297005001811Q 128 29.26297005001811 124 29.26297005001811L 4 29.26297005001811Q 0 29.26297005001811 0 25.26297005001811Z" stroke="rgba(50,50,50,1)" stroke-width="2" fill-opacity="1" fill="#e1bee7"></path><g id="SvgjsG1041"><text id="SvgjsText1042" font-family="微软雅黑" text-anchor="middle" font-size="17px" width="108px" fill="#1e3c53" font-weight="700" align="middle" lineHeight="125%" anchor="middle" family="微软雅黑" size="17px" weight="700" font-style="" opacity="1" y="0.006485025009055789" transform="rotate(0)"><tspan id="SvgjsTspan1043" dy="21" x="64"><tspan id="SvgjsTspan1044" style="text-decoration:;">JavaScript</tspan></tspan></text></g></g><g id="SvgjsG1045" transform="translate(178.19841899293579,130.03957933945009)"><path id="SvgjsPath1046" d="M 0 4Q 0 0 4 0L 124 0Q 128 0 128 4L 128 25.26297005001811Q 128 29.26297005001811 124 29.26297005001811L 4 29.26297005001811Q 0 29.26297005001811 0 25.26297005001811Z" stroke="rgba(50,50,50,1)" stroke-width="2" fill-opacity="1" fill="#e1bee7"></path><g id="SvgjsG1047"><text id="SvgjsText1048" font-family="微软雅黑" text-anchor="middle" font-size="17px" width="108px" fill="#1e3c53" font-weight="700" align="middle" lineHeight="125%" anchor="middle" family="微软雅黑" size="17px" weight="700" font-style="" opacity="1" y="0.006485025009055789" transform="rotate(0)"><tspan id="SvgjsTspan1049" dy="21" x="64"><tspan id="SvgjsTspan1050" style="text-decoration:;">QLExpress</tspan></tspan></text></g></g><g id="SvgjsG1051" transform="translate(178.19841899293465,181.49523653781625)"><path id="SvgjsPath1052" d="M 0 4Q 0 0 4 0L 124 0Q 128 0 128 4L 128 25.26297005001811Q 128 29.26297005001811 124 29.26297005001811L 4 29.26297005001811Q 0 29.26297005001811 0 25.26297005001811Z" stroke="rgba(50,50,50,1)" stroke-width="2" fill-opacity="1" fill="#e1bee7"></path><g id="SvgjsG1053"><text id="SvgjsText1054" font-family="微软雅黑" text-anchor="middle" font-size="17px" width="108px" fill="#1e3c53" font-weight="700" align="middle" lineHeight="125%" anchor="middle" family="微软雅黑" size="17px" weight="700" font-style="" opacity="1" y="0.006485025009055789" transform="rotate(0)"><tspan id="SvgjsTspan1055" dy="21" x="64"><tspan id="SvgjsTspan1056" style="text-decoration:;">Python</tspan></tspan></text></g></g><g id="SvgjsG1057" transform="translate(178.19841899293488,232.9508937361826)"><path id="SvgjsPath1058" d="M 0 4Q 0 0 4 0L 124 0Q 128 0 128 4L 128 25.26297005001811Q 128 29.26297005001811 124 29.26297005001811L 4 29.26297005001811Q 0 29.26297005001811 0 25.26297005001811Z" stroke="rgba(50,50,50,1)" stroke-width="2" fill-opacity="1" fill="#e1bee7"></path><g id="SvgjsG1059"><text id="SvgjsText1060" font-family="微软雅黑" text-anchor="middle" font-size="17px" width="108px" fill="#1e3c53" font-weight="700" align="middle" lineHeight="125%" anchor="middle" family="微软雅黑" size="17px" weight="700" font-style="" opacity="1" y="0.006485025009055789" transform="rotate(0)"><tspan id="SvgjsTspan1061" dy="21" x="64"><tspan id="SvgjsTspan1062" style="text-decoration:;">Lua</tspan></tspan></text></g></g></svg>