<svg id="SvgjsSvg1006" width="329" height="389.1640625" xmlns="http://www.w3.org/2000/svg" version="1.1" xmlns:xlink="http://www.w3.org/1999/xlink" xmlns:svgjs="http://svgjs.com/svgjs"><defs id="SvgjsDefs1007"><pattern patternUnits="userSpaceOnUse" id="pattern_mark_0" width="300" height="300"><text x="150" y="100" fill="rgba(229,229,229,0.8)" font-size="18" transform="rotate(-45, 150, 150)" style="dominant-baseline: middle; text-anchor: middle;"></text></pattern><pattern patternUnits="userSpaceOnUse" id="pattern_mark_1" width="300" height="300"><text x="150" y="200" fill="rgba(229,229,229,0.8)" font-size="18" transform="rotate(-45, 150, 150)" style="dominant-baseline: middle; text-anchor: middle;"></text></pattern></defs><rect id="svgbackgroundid" width="329" height="389.1640625" fill="transparent"></rect><rect id="SvgjsRect1009" width="329" height="389.1640625" fill="url(#pattern_mark_0)"></rect><rect id="SvgjsRect1010" width="329" height="389.1640625" fill="url(#pattern_mark_1)"></rect><g id="SvgjsG1011" transform="translate(25,154.1267215628253)"><path id="SvgjsPath1012" d="M 0 0L 94 0L 94 84L 0 84Z" stroke="rgba(33,41,48,1)" stroke-width="2" fill-opacity="1" fill="#b2ebf2"></path><g id="SvgjsG1013"><text id="SvgjsText1014" font-family="微软雅黑" text-anchor="middle" font-size="13px" width="74px" fill="#323232" font-weight="400" align="middle" lineHeight="125%" anchor="middle" family="微软雅黑" size="13px" weight="400" font-style="" opacity="1" y="31.375" transform="rotate(0)"></text></g></g><g id="SvgjsG1015" transform="translate(36,159.1267215628253)"><path id="SvgjsPath1016" d="M 0 4Q 0 0 4 0L 67 0Q 71 0 71 4L 71 9Q 71 13 67 13L 4 13Q 0 13 0 9Z" stroke="rgba(33,41,48,1)" stroke-width="2" fill-opacity="1" fill="#e1bee7"></path><g id="SvgjsG1017"><text id="SvgjsText1018" font-family="微软雅黑" text-anchor="middle" font-size="13px" width="51px" fill="#323232" font-weight="400" align="middle" lineHeight="125%" anchor="middle" family="微软雅黑" size="13px" weight="400" font-style="" opacity="1" y="-4.125" transform="rotate(0)"></text></g></g><g id="SvgjsG1019" transform="translate(52,178.1267215628253)"><path id="SvgjsPath1020" d="M 0 4Q 0 0 4 0L 51 0Q 55 0 55 4L 55 9Q 55 13 51 13L 4 13Q 0 13 0 9Z" stroke="rgba(33,41,48,1)" stroke-width="2" fill-opacity="1" fill="#e1bee7"></path><g id="SvgjsG1021"><text id="SvgjsText1022" font-family="微软雅黑" text-anchor="middle" font-size="13px" width="35px" fill="#323232" font-weight="400" align="middle" lineHeight="125%" anchor="middle" family="微软雅黑" size="13px" weight="400" font-style="" opacity="1" y="-4.125" transform="rotate(0)"></text></g></g><g id="SvgjsG1023" transform="translate(52,199.1267215628253)"><path id="SvgjsPath1024" d="M 0 4Q 0 0 4 0L 36 0Q 40 0 40 4L 40 9Q 40 13 36 13L 4 13Q 0 13 0 9Z" stroke="rgba(33,41,48,1)" stroke-width="2" fill-opacity="1" fill="#e1bee7"></path><g id="SvgjsG1025"><text id="SvgjsText1026" font-family="微软雅黑" text-anchor="middle" font-size="13px" width="20px" fill="#323232" font-weight="400" align="middle" lineHeight="125%" anchor="middle" family="微软雅黑" size="13px" weight="400" font-style="" opacity="1" y="-4.125" transform="rotate(0)"></text></g></g><g id="SvgjsG1027" transform="translate(37,220.1267215628253)"><path id="SvgjsPath1028" d="M 0 4Q 0 0 4 0L 65 0Q 69 0 69 4L 69 9Q 69 13 65 13L 4 13Q 0 13 0 9Z" stroke="rgba(33,41,48,1)" stroke-width="2" fill-opacity="1" fill="#e1bee7"></path><g id="SvgjsG1029"><text id="SvgjsText1030" font-family="微软雅黑" text-anchor="middle" font-size="13px" width="49px" fill="#323232" font-weight="400" align="middle" lineHeight="125%" anchor="middle" family="微软雅黑" size="13px" weight="400" font-style="" opacity="1" y="-4.125" transform="rotate(0)"></text></g></g><g id="SvgjsG1031" transform="translate(105,28.1640625)"><path id="SvgjsPath1032" d="M 50 0Q 45 0 45 9L 45 158.97509935689965Q 45 167.97509935689965 28 167.97509935689965Q 45 167.97509935689965 45 176.97509935689965L 45 326.9501987137993Q 45 335.9501987137993 50 335.9501987137993" stroke="rgba(13,71,161,1)" stroke-width="5" fill="none"></path><path id="SvgjsPath1033" d="M 0 0L 50 0L 50 335.9501987137993L 0 335.9501987137993Z" stroke="none" fill="none"></path><g id="SvgjsG1034"><text id="SvgjsText1035" font-family="微软雅黑" text-anchor="end" font-size="13px" width="23px" fill="#323232" font-weight="400" align="middle" lineHeight="125%" anchor="end" family="微软雅黑" size="13px" weight="400" font-style="" opacity="1" y="157.35009935689965" transform="rotate(0)"></text></g></g><g id="SvgjsG1036" transform="translate(175.65935649293579,25.002779539063738)"><path id="SvgjsPath1037" d="M 0 4Q 0 0 4 0L 124 0Q 128 0 128 4L 128 24.700230149596393Q 128 28.700230149596393 124 28.700230149596393L 4 28.700230149596393Q 0 28.700230149596393 0 24.700230149596393Z" stroke="rgba(33,41,48,1)" stroke-width="2" fill-opacity="1" fill="#e1bee7"></path><g id="SvgjsG1038"><text id="SvgjsText1039" font-family="微软雅黑" text-anchor="middle" font-size="17px" width="108px" fill="#1e3c53" font-weight="700" align="middle" lineHeight="125%" anchor="middle" family="微软雅黑" size="17px" weight="700" font-style="" opacity="1" y="-0.2748849252018033" transform="rotate(0)"><tspan id="SvgjsTspan1040" dy="21" x="64"><tspan id="SvgjsTspan1041" style="text-decoration:;">Groovy</tspan></tspan></text></g></g><g id="SvgjsG1042" transform="translate(175.65935649293579,77.23980948904568)"><path id="SvgjsPath1043" d="M 0 4Q 0 0 4 0L 124 0Q 128 0 128 4L 128 25.26297005001811Q 128 29.26297005001811 124 29.26297005001811L 4 29.26297005001811Q 0 29.26297005001811 0 25.26297005001811Z" stroke="rgba(33,41,48,1)" stroke-width="2" fill-opacity="1" fill="#e1bee7"></path><g id="SvgjsG1044"><text id="SvgjsText1045" font-family="微软雅黑" text-anchor="middle" font-size="17px" width="108px" fill="#1e3c53" font-weight="700" align="middle" lineHeight="125%" anchor="middle" family="微软雅黑" size="17px" weight="700" font-style="" opacity="1" y="0.006485025009055789" transform="rotate(0)"><tspan id="SvgjsTspan1046" dy="21" x="64"><tspan id="SvgjsTspan1047" style="text-decoration:;">JavaScript</tspan></tspan></text></g></g><g id="SvgjsG1048" transform="translate(175.65935649293579,130.03957933945009)"><path id="SvgjsPath1049" d="M 0 4Q 0 0 4 0L 124 0Q 128 0 128 4L 128 25.26297005001811Q 128 29.26297005001811 124 29.26297005001811L 4 29.26297005001811Q 0 29.26297005001811 0 25.26297005001811Z" stroke="rgba(33,41,48,1)" stroke-width="2" fill-opacity="1" fill="#e1bee7"></path><g id="SvgjsG1050"><text id="SvgjsText1051" font-family="微软雅黑" text-anchor="middle" font-size="17px" width="108px" fill="#1e3c53" font-weight="700" align="middle" lineHeight="125%" anchor="middle" family="微软雅黑" size="17px" weight="700" font-style="" opacity="1" y="0.006485025009055789" transform="rotate(0)"><tspan id="SvgjsTspan1052" dy="21" x="64"><tspan id="SvgjsTspan1053" style="text-decoration:;">QLExpress</tspan></tspan></text></g></g><g id="SvgjsG1054" transform="translate(175.65935649293465,181.49523653781625)"><path id="SvgjsPath1055" d="M 0 4Q 0 0 4 0L 124 0Q 128 0 128 4L 128 25.26297005001811Q 128 29.26297005001811 124 29.26297005001811L 4 29.26297005001811Q 0 29.26297005001811 0 25.26297005001811Z" stroke="rgba(33,41,48,1)" stroke-width="2" fill-opacity="1" fill="#e1bee7"></path><g id="SvgjsG1056"><text id="SvgjsText1057" font-family="微软雅黑" text-anchor="middle" font-size="17px" width="108px" fill="#1e3c53" font-weight="700" align="middle" lineHeight="125%" anchor="middle" family="微软雅黑" size="17px" weight="700" font-style="" opacity="1" y="0.006485025009055789" transform="rotate(0)"><tspan id="SvgjsTspan1058" dy="21" x="64"><tspan id="SvgjsTspan1059" style="text-decoration:;">Python</tspan></tspan></text></g></g><g id="SvgjsG1060" transform="translate(175.65935649293488,232.9508937361826)"><path id="SvgjsPath1061" d="M 0 4Q 0 0 4 0L 124 0Q 128 0 128 4L 128 25.26297005001811Q 128 29.26297005001811 124 29.26297005001811L 4 29.26297005001811Q 0 29.26297005001811 0 25.26297005001811Z" stroke="rgba(33,41,48,1)" stroke-width="2" fill-opacity="1" fill="#e1bee7"></path><g id="SvgjsG1062"><text id="SvgjsText1063" font-family="微软雅黑" text-anchor="middle" font-size="17px" width="108px" fill="#1e3c53" font-weight="700" align="middle" lineHeight="125%" anchor="middle" family="微软雅黑" size="17px" weight="700" font-style="" opacity="1" y="0.006485025009055789" transform="rotate(0)"><tspan id="SvgjsTspan1064" dy="21" x="64"><tspan id="SvgjsTspan1065" style="text-decoration:;">Lua</tspan></tspan></text></g></g><g id="SvgjsG1066" transform="translate(176,284.1640625)"><path id="SvgjsPath1067" d="M 0 4Q 0 0 4 0L 124 0Q 128 0 128 4L 128 25Q 128 29 124 29L 4 29Q 0 29 0 25Z" stroke="rgba(33,41,48,1)" stroke-width="2" fill-opacity="1" fill="#e1bee7"></path><g id="SvgjsG1068"><text id="SvgjsText1069" font-family="微软雅黑" text-anchor="middle" font-size="17px" width="108px" fill="#1e3c53" font-weight="700" align="middle" lineHeight="125%" anchor="middle" family="微软雅黑" size="17px" weight="700" font-style="" opacity="1" y="-0.125" transform="rotate(0)"><tspan id="SvgjsTspan1070" dy="21" x="64"><tspan id="SvgjsTspan1071" style="text-decoration:;">Aviator</tspan></tspan></text></g></g><g id="SvgjsG1072" transform="translate(176,335.1142612137993)"><path id="SvgjsPath1073" d="M 0 4Q 0 0 4 0L 124 0Q 128 0 128 4L 128 25Q 128 29 124 29L 4 29Q 0 29 0 25Z" stroke="rgba(33,41,48,1)" stroke-width="2" fill-opacity="1" fill="#e1bee7"></path><g id="SvgjsG1074"><text id="SvgjsText1075" font-family="微软雅黑" text-anchor="middle" font-size="17px" width="108px" fill="#1e3c53" font-weight="700" align="middle" lineHeight="125%" anchor="middle" family="微软雅黑" size="17px" weight="700" font-style="" opacity="1" y="-0.125" transform="rotate(0)"><tspan id="SvgjsTspan1076" dy="21" x="64"><tspan id="SvgjsTspan1077" style="text-decoration:;">Java</tspan></tspan></text></g></g></svg>