<svg id="SvgjsSvg1006" width="327.2578125" height="184.0390625" xmlns="http://www.w3.org/2000/svg" version="1.1" xmlns:xlink="http://www.w3.org/1999/xlink" xmlns:svgjs="http://svgjs.com/svgjs"><defs id="SvgjsDefs1007"></defs><g id="SvgjsG1008" transform="translate(25.006240715045806,49.94229769938545)"><path id="SvgjsPath1009" d="M 0 0L 93.50314356990832 0L 93.50314356990832 83.59953970080726L 0 83.59953970080726Z" stroke="rgba(50,50,50,1)" stroke-width="2" fill-opacity="1" fill="#b2ebf2"></path><g id="SvgjsG1010"><text id="SvgjsText1011" font-family="微软雅黑" text-anchor="middle" font-size="13px" width="74px" fill="#323232" font-weight="400" align="middle" lineHeight="125%" anchor="middle" family="微软雅黑" size="13px" weight="400" font-style="" opacity="1" y="31.174769850403628" transform="rotate(0)"></text></g></g><g id="SvgjsG1012" transform="translate(36.16180942509618,54.843369849596115)"><path id="SvgjsPath1013" d="M 0 4Q 0 0 4 0L 67.19200614980718 0Q 71.19200614980718 0 71.19200614980718 4L 71.19200614980718 8.82559186483793Q 71.19200614980718 12.82559186483793 67.19200614980718 12.82559186483793L 4 12.82559186483793Q 0 12.82559186483793 0 8.82559186483793Z" stroke="rgba(50,50,50,1)" stroke-width="2" fill-opacity="1" fill="#e1bee7"></path><g id="SvgjsG1014"><text id="SvgjsText1015" font-family="微软雅黑" text-anchor="middle" font-size="13px" width="52px" fill="#323232" font-weight="400" align="middle" lineHeight="125%" anchor="middle" family="微软雅黑" size="13px" weight="400" font-style="" opacity="1" y="-4.212204067581035" transform="rotate(0)"></text></g></g><g id="SvgjsG1016" transform="translate(51.91716899293556,73.479097499771)"><path id="SvgjsPath1017" d="M 0 4Q 0 0 4 0L 51.43664658196796 0Q 55.43664658196796 0 55.43664658196796 4L 55.43664658196796 8.82559186483793Q 55.43664658196796 12.82559186483793 51.43664658196796 12.82559186483793L 4 12.82559186483793Q 0 12.82559186483793 0 8.82559186483793Z" stroke="rgba(50,50,50,1)" stroke-width="2" fill-opacity="1" fill="#e1bee7"></path><g id="SvgjsG1018"><text id="SvgjsText1019" font-family="微软雅黑" text-anchor="middle" font-size="13px" width="36px" fill="#323232" font-weight="400" align="middle" lineHeight="125%" anchor="middle" family="微软雅黑" size="13px" weight="400" font-style="" opacity="1" y="-4.212204067581035" transform="rotate(0)"></text></g></g><g id="SvgjsG1020" transform="translate(51.91716899293556,95.39778555320834)"><path id="SvgjsPath1021" d="M 0 4Q 0 0 4 0L 35.681287014128365 0Q 39.681287014128365 0 39.681287014128365 4L 39.681287014128365 9.113761808636493Q 39.681287014128365 13.113761808636493 35.681287014128365 13.113761808636493L 4 13.113761808636493Q 0 13.113761808636493 0 9.113761808636493Z" stroke="rgba(50,50,50,1)" stroke-width="2" fill-opacity="1" fill="#e1bee7"></path><g id="SvgjsG1022"><text id="SvgjsText1023" font-family="微软雅黑" text-anchor="middle" font-size="13px" width="20px" fill="#323232" font-weight="400" align="middle" lineHeight="125%" anchor="middle" family="微软雅黑" size="13px" weight="400" font-style="" opacity="1" y="-4.0681190956817534" transform="rotate(0)"></text></g></g><g id="SvgjsG1024" transform="translate(37.373760161083965,115.81517338514425)"><path id="SvgjsPath1025" d="M 0 4Q 0 0 4 0L 64.76810467783169 0Q 68.76810467783169 0 68.76810467783169 4L 68.76810467783169 8.82559186483793Q 68.76810467783169 12.82559186483793 64.76810467783169 12.82559186483793L 4 12.82559186483793Q 0 12.82559186483793 0 8.82559186483793Z" stroke="rgba(50,50,50,1)" stroke-width="2" fill-opacity="1" fill="#e1bee7"></path><g id="SvgjsG1026"><text id="SvgjsText1027" font-family="微软雅黑" text-anchor="middle" font-size="13px" width="49px" fill="#323232" font-weight="400" align="middle" lineHeight="125%" anchor="middle" family="微软雅黑" size="13px" weight="400" font-style="" opacity="1" y="-4.212204067581035" transform="rotate(0)"></text></g></g><g id="SvgjsG1028" transform="translate(113.2578125,30.129471725989674)"><path id="SvgjsPath1029" d="M 44 0Q 39.6 0 39.6 9L 39.6 52.7440549309224Q 39.6 61.7440549309224 22 61.7440549309224Q 39.6 61.7440549309224 39.6 70.7440549309224L 39.6 114.4881098618448Q 39.6 123.4881098618448 44 123.4881098618448" stroke="rgba(13,71,161,1)" stroke-width="5" fill="none"></path><path id="SvgjsPath1030" d="M 0 0L 44 0L 44 123.4881098618448L 0 123.4881098618448Z" stroke="none" fill="none"></path><g id="SvgjsG1031"><text id="SvgjsText1032" font-family="微软雅黑" text-anchor="end" font-size="13px" width="17px" fill="#323232" font-weight="400" align="middle" lineHeight="125%" anchor="end" family="微软雅黑" size="13px" weight="400" font-style="" opacity="1" y="51.1190549309224" transform="rotate(0)"></text></g></g><g id="SvgjsG1033" transform="translate(174.2578125,25.005011681921133)"><path id="SvgjsPath1034" d="M 0 4Q 0 0 4 0L 124 0Q 128 0 128 4L 128 24.700230149596393Q 128 28.700230149596393 124 28.700230149596393L 4 28.700230149596393Q 0 28.700230149596393 0 24.700230149596393Z" stroke="rgba(50,50,50,1)" stroke-width="2" fill-opacity="1" fill="#e1bee7"></path><g id="SvgjsG1035"><text id="SvgjsText1036" font-family="微软雅黑" text-anchor="middle" font-size="17px" width="108px" fill="#1e3c53" font-weight="700" align="middle" lineHeight="125%" anchor="middle" family="微软雅黑" size="17px" weight="700" font-style="" opacity="1" y="-0.2748849252018033" transform="rotate(0)"><tspan id="SvgjsTspan1037" dy="21" x="64"><tspan id="SvgjsTspan1038" style="text-decoration:;">Groovy</tspan></tspan></text></g></g><g id="SvgjsG1039" transform="translate(174.2578125,77.24204163190302)"><path id="SvgjsPath1040" d="M 0 4Q 0 0 4 0L 124 0Q 128 0 128 4L 128 25.26297005001811Q 128 29.26297005001811 124 29.26297005001811L 4 29.26297005001811Q 0 29.26297005001811 0 25.26297005001811Z" stroke="rgba(50,50,50,1)" stroke-width="2" fill-opacity="1" fill="#e1bee7"></path><g id="SvgjsG1041"><text id="SvgjsText1042" font-family="微软雅黑" text-anchor="middle" font-size="17px" width="108px" fill="#1e3c53" font-weight="700" align="middle" lineHeight="125%" anchor="middle" family="微软雅黑" size="17px" weight="700" font-style="" opacity="1" y="0.006485025009055789" transform="rotate(0)"><tspan id="SvgjsTspan1043" dy="21" x="64"><tspan id="SvgjsTspan1044" style="text-decoration:;">JavaScript</tspan></tspan></text></g></g><g id="SvgjsG1045" transform="translate(174.2578125,130.04181148230668)"><path id="SvgjsPath1046" d="M 0 4Q 0 0 4 0L 124 0Q 128 0 128 4L 128 25.26297005001811Q 128 29.26297005001811 124 29.26297005001811L 4 29.26297005001811Q 0 29.26297005001811 0 25.26297005001811Z" stroke="rgba(50,50,50,1)" stroke-width="2" fill-opacity="1" fill="#e1bee7"></path><g id="SvgjsG1047"><text id="SvgjsText1048" font-family="微软雅黑" text-anchor="middle" font-size="17px" width="108px" fill="#1e3c53" font-weight="700" align="middle" lineHeight="125%" anchor="middle" family="微软雅黑" size="17px" weight="700" font-style="" opacity="1" y="0.006485025009055789" transform="rotate(0)"><tspan id="SvgjsTspan1049" dy="21" x="64"><tspan id="SvgjsTspan1050" style="text-decoration:;">QLExpress</tspan></tspan></text></g></g></svg>