<svg id="SvgjsSvg1006" width="330" height="441.16128296093626" xmlns="http://www.w3.org/2000/svg" version="1.1" xmlns:xlink="http://www.w3.org/1999/xlink" xmlns:svgjs="http://svgjs.com/svgjs"><defs id="SvgjsDefs1007"><pattern patternUnits="userSpaceOnUse" id="pattern_mark_0" width="300" height="300"><text x="150" y="100" fill="rgba(229,229,229,0.8)" font-size="18" transform="rotate(-45, 150, 150)" style="dominant-baseline: middle; text-anchor: middle;"></text></pattern><pattern patternUnits="userSpaceOnUse" id="pattern_mark_1" width="300" height="300"><text x="150" y="200" fill="rgba(229,229,229,0.8)" font-size="18" transform="rotate(-45, 150, 150)" style="dominant-baseline: middle; text-anchor: middle;"></text></pattern></defs><rect id="svgbackgroundid" width="330" height="441.16128296093626" fill="transparent"></rect><rect id="SvgjsRect1009" width="330" height="441.16128296093626" fill="url(#pattern_mark_0)"></rect><rect id="SvgjsRect1010" width="330" height="441.16128296093626" fill="url(#pattern_mark_1)"></rect><g id="SvgjsG1011" transform="translate(25,178.21108424713697)"><path id="SvgjsPath1012" d="M 0 0L 94 0L 94 84L 0 84Z" stroke="rgba(33,41,48,1)" stroke-width="2" fill-opacity="1" fill="#b2ebf2"></path><g id="SvgjsG1013"><text id="SvgjsText1014" font-family="&quot;Microsoft YaHei&quot;, 微软雅黑, Arial" text-anchor="middle" font-size="13px" width="74px" fill="#323232" font-weight="400" align="middle" lineHeight="125%" anchor="middle" family="&quot;Microsoft YaHei&quot;, 微软雅黑, Arial" size="13px" weight="400" font-style="" opacity="1" y="31.375" transform="rotate(0)"></text></g></g><g id="SvgjsG1015" transform="translate(36,183.21108424713697)"><path id="SvgjsPath1016" d="M 0 4Q 0 0 4 0L 67 0Q 71 0 71 4L 71 9Q 71 13 67 13L 4 13Q 0 13 0 9Z" stroke="rgba(33,41,48,1)" stroke-width="2" fill-opacity="1" fill="#e1bee7"></path><g id="SvgjsG1017"><text id="SvgjsText1018" font-family="&quot;Microsoft YaHei&quot;, 微软雅黑, Arial" text-anchor="middle" font-size="13px" width="51px" fill="#323232" font-weight="400" align="middle" lineHeight="125%" anchor="middle" family="&quot;Microsoft YaHei&quot;, 微软雅黑, Arial" size="13px" weight="400" font-style="" opacity="1" y="-4.125" transform="rotate(0)"></text></g></g><g id="SvgjsG1019" transform="translate(52,202.21108424713697)"><path id="SvgjsPath1020" d="M 0 4Q 0 0 4 0L 51 0Q 55 0 55 4L 55 9Q 55 13 51 13L 4 13Q 0 13 0 9Z" stroke="rgba(33,41,48,1)" stroke-width="2" fill-opacity="1" fill="#e1bee7"></path><g id="SvgjsG1021"><text id="SvgjsText1022" font-family="&quot;Microsoft YaHei&quot;, 微软雅黑, Arial" text-anchor="middle" font-size="13px" width="35px" fill="#323232" font-weight="400" align="middle" lineHeight="125%" anchor="middle" family="&quot;Microsoft YaHei&quot;, 微软雅黑, Arial" size="13px" weight="400" font-style="" opacity="1" y="-4.125" transform="rotate(0)"></text></g></g><g id="SvgjsG1023" transform="translate(52,223.21108424713697)"><path id="SvgjsPath1024" d="M 0 4Q 0 0 4 0L 36 0Q 40 0 40 4L 40 9Q 40 13 36 13L 4 13Q 0 13 0 9Z" stroke="rgba(33,41,48,1)" stroke-width="2" fill-opacity="1" fill="#e1bee7"></path><g id="SvgjsG1025"><text id="SvgjsText1026" font-family="&quot;Microsoft YaHei&quot;, 微软雅黑, Arial" text-anchor="middle" font-size="13px" width="20px" fill="#323232" font-weight="400" align="middle" lineHeight="125%" anchor="middle" family="&quot;Microsoft YaHei&quot;, 微软雅黑, Arial" size="13px" weight="400" font-style="" opacity="1" y="-4.125" transform="rotate(0)"></text></g></g><g id="SvgjsG1027" transform="translate(37,244.21108424713697)"><path id="SvgjsPath1028" d="M 0 4Q 0 0 4 0L 65 0Q 69 0 69 4L 69 9Q 69 13 65 13L 4 13Q 0 13 0 9Z" stroke="rgba(33,41,48,1)" stroke-width="2" fill-opacity="1" fill="#e1bee7"></path><g id="SvgjsG1029"><text id="SvgjsText1030" font-family="&quot;Microsoft YaHei&quot;, 微软雅黑, Arial" text-anchor="middle" font-size="13px" width="49px" fill="#323232" font-weight="400" align="middle" lineHeight="125%" anchor="middle" family="&quot;Microsoft YaHei&quot;, 微软雅黑, Arial" size="13px" weight="400" font-style="" opacity="1" y="-4.125" transform="rotate(0)"></text></g></g><g id="SvgjsG1031" transform="translate(106,28.161282960936262)"><path id="SvgjsPath1032" d="M 50 0Q 45 0 45 9L 45 183Q 45 192 28 192Q 45 192 45 201L 45 375Q 45 384 50 384" stroke="rgba(13,71,161,1)" stroke-width="5" fill="none"></path><path id="SvgjsPath1033" d="M 0 0L 50 0L 50 384L 0 384Z" stroke="none" fill="none"></path><g id="SvgjsG1034"><text id="SvgjsText1035" font-family="&quot;Microsoft YaHei&quot;, 微软雅黑, Arial" text-anchor="end" font-size="13px" width="23px" fill="#323232" font-weight="400" align="middle" lineHeight="125%" anchor="end" family="&quot;Microsoft YaHei&quot;, 微软雅黑, Arial" size="13px" weight="400" font-style="" opacity="1" y="181.375" transform="rotate(0)"></text></g></g><g id="SvgjsG1036" transform="translate(176.65935649293579,25)"><path id="SvgjsPath1037" d="M 0 4Q 0 0 4 0L 124 0Q 128 0 128 4L 128 24.700230149596393Q 128 28.700230149596393 124 28.700230149596393L 4 28.700230149596393Q 0 28.700230149596393 0 24.700230149596393Z" stroke="rgba(33,41,48,1)" stroke-width="2" fill-opacity="1" fill="#e1bee7"></path><g id="SvgjsG1038"><text id="SvgjsText1039" font-family="&quot;Microsoft YaHei&quot;, 微软雅黑, Arial" text-anchor="middle" font-size="17px" width="108px" fill="#1e3c53" font-weight="700" align="middle" lineHeight="125%" anchor="middle" family="&quot;Microsoft YaHei&quot;, 微软雅黑, Arial" size="17px" weight="700" font-style="" opacity="1" y="-0.2748849252018033" transform="rotate(0)"><tspan id="SvgjsTspan1040" dy="21.25" x="64"><tspan id="SvgjsTspan1041" style="">Groovy</tspan></tspan></text></g></g><g id="SvgjsG1042" transform="translate(176.65935649293579,77.23702994998195)"><path id="SvgjsPath1043" d="M 0 4Q 0 0 4 0L 124 0Q 128 0 128 4L 128 25.26297005001811Q 128 29.26297005001811 124 29.26297005001811L 4 29.26297005001811Q 0 29.26297005001811 0 25.26297005001811Z" stroke="rgba(33,41,48,1)" stroke-width="2" fill-opacity="1" fill="#e1bee7"></path><g id="SvgjsG1044"><text id="SvgjsText1045" font-family="&quot;Microsoft YaHei&quot;, 微软雅黑, Arial" text-anchor="middle" font-size="17px" width="108px" fill="#1e3c53" font-weight="700" align="middle" lineHeight="125%" anchor="middle" family="&quot;Microsoft YaHei&quot;, 微软雅黑, Arial" size="17px" weight="700" font-style="" opacity="1" y="0.006485025009055789" transform="rotate(0)"><tspan id="SvgjsTspan1046" dy="21.25" x="64"><tspan id="SvgjsTspan1047" style="">JavaScript</tspan></tspan></text></g></g><g id="SvgjsG1048" transform="translate(176.65935649293579,130.03679980038635)"><path id="SvgjsPath1049" d="M 0 4Q 0 0 4 0L 124 0Q 128 0 128 4L 128 25.26297005001811Q 128 29.26297005001811 124 29.26297005001811L 4 29.26297005001811Q 0 29.26297005001811 0 25.26297005001811Z" stroke="rgba(33,41,48,1)" stroke-width="2" fill-opacity="1" fill="#e1bee7"></path><g id="SvgjsG1050"><text id="SvgjsText1051" font-family="&quot;Microsoft YaHei&quot;, 微软雅黑, Arial" text-anchor="middle" font-size="17px" width="108px" fill="#1e3c53" font-weight="700" align="middle" lineHeight="125%" anchor="middle" family="&quot;Microsoft YaHei&quot;, 微软雅黑, Arial" size="17px" weight="700" font-style="" opacity="1" y="0.006485025009055789" transform="rotate(0)"><tspan id="SvgjsTspan1052" dy="21.25" x="64"><tspan id="SvgjsTspan1053" style="">QLExpress</tspan></tspan></text></g></g><g id="SvgjsG1054" transform="translate(176.65935649293465,181.49245699875252)"><path id="SvgjsPath1055" d="M 0 4Q 0 0 4 0L 124 0Q 128 0 128 4L 128 25.26297005001811Q 128 29.26297005001811 124 29.26297005001811L 4 29.26297005001811Q 0 29.26297005001811 0 25.26297005001811Z" stroke="rgba(33,41,48,1)" stroke-width="2" fill-opacity="1" fill="#e1bee7"></path><g id="SvgjsG1056"><text id="SvgjsText1057" font-family="&quot;Microsoft YaHei&quot;, 微软雅黑, Arial" text-anchor="middle" font-size="17px" width="108px" fill="#1e3c53" font-weight="700" align="middle" lineHeight="125%" anchor="middle" family="&quot;Microsoft YaHei&quot;, 微软雅黑, Arial" size="17px" weight="700" font-style="" opacity="1" y="0.006485025009055789" transform="rotate(0)"><tspan id="SvgjsTspan1058" dy="21.25" x="64"><tspan id="SvgjsTspan1059" style="">Python</tspan></tspan></text></g></g><g id="SvgjsG1060" transform="translate(176.65935649293488,232.94811419711885)"><path id="SvgjsPath1061" d="M 0 4Q 0 0 4 0L 124 0Q 128 0 128 4L 128 25.26297005001811Q 128 29.26297005001811 124 29.26297005001811L 4 29.26297005001811Q 0 29.26297005001811 0 25.26297005001811Z" stroke="rgba(33,41,48,1)" stroke-width="2" fill-opacity="1" fill="#e1bee7"></path><g id="SvgjsG1062"><text id="SvgjsText1063" font-family="&quot;Microsoft YaHei&quot;, 微软雅黑, Arial" text-anchor="middle" font-size="17px" width="108px" fill="#1e3c53" font-weight="700" align="middle" lineHeight="125%" anchor="middle" family="&quot;Microsoft YaHei&quot;, 微软雅黑, Arial" size="17px" weight="700" font-style="" opacity="1" y="0.006485025009055789" transform="rotate(0)"><tspan id="SvgjsTspan1064" dy="21.25" x="64"><tspan id="SvgjsTspan1065" style="">Lua</tspan></tspan></text></g></g><g id="SvgjsG1066" transform="translate(177,284.16128296093626)"><path id="SvgjsPath1067" d="M 0 4Q 0 0 4 0L 124 0Q 128 0 128 4L 128 25Q 128 29 124 29L 4 29Q 0 29 0 25Z" stroke="rgba(33,41,48,1)" stroke-width="2" fill-opacity="1" fill="#e1bee7"></path><g id="SvgjsG1068"><text id="SvgjsText1069" font-family="&quot;Microsoft YaHei&quot;, 微软雅黑, Arial" text-anchor="middle" font-size="17px" width="108px" fill="#1e3c53" font-weight="700" align="middle" lineHeight="125%" anchor="middle" family="&quot;Microsoft YaHei&quot;, 微软雅黑, Arial" size="17px" weight="700" font-style="" opacity="1" y="-0.125" transform="rotate(0)"><tspan id="SvgjsTspan1070" dy="21.25" x="64"><tspan id="SvgjsTspan1071" style="">Aviator</tspan></tspan></text></g></g><g id="SvgjsG1072" transform="translate(177,335.11148167473556)"><path id="SvgjsPath1073" d="M 0 4Q 0 0 4 0L 124 0Q 128 0 128 4L 128 25Q 128 29 124 29L 4 29Q 0 29 0 25Z" stroke="rgba(33,41,48,1)" stroke-width="2" fill-opacity="1" fill="#e1bee7"></path><g id="SvgjsG1074"><text id="SvgjsText1075" font-family="&quot;Microsoft YaHei&quot;, 微软雅黑, Arial" text-anchor="middle" font-size="17px" width="108px" fill="#1e3c53" font-weight="700" align="middle" lineHeight="125%" anchor="middle" family="&quot;Microsoft YaHei&quot;, 微软雅黑, Arial" size="17px" weight="700" font-style="" opacity="1" y="-0.125" transform="rotate(0)"><tspan id="SvgjsTspan1076" dy="21.25" x="64"><tspan id="SvgjsTspan1077" style="">Java</tspan></tspan></text></g></g><g id="SvgjsG1078" transform="translate(177,387.16128296093626)"><path id="SvgjsPath1079" d="M 0 4Q 0 0 4 0L 124 0Q 128 0 128 4L 128 25Q 128 29 124 29L 4 29Q 0 29 0 25Z" stroke="rgba(33,41,48,1)" stroke-width="2" fill-opacity="1" fill="#e1bee7"></path><g id="SvgjsG1080"><text id="SvgjsText1081" font-family="&quot;Microsoft YaHei&quot;, 微软雅黑, Arial" text-anchor="middle" font-size="17px" width="108px" fill="#1e3c53" font-weight="700" align="middle" lineHeight="125%" anchor="middle" family="&quot;Microsoft YaHei&quot;, 微软雅黑, Arial" size="17px" weight="700" font-style="" opacity="1" y="-0.125" transform="rotate(0)"><tspan id="SvgjsTspan1082" dy="21.25" x="64"><tspan id="SvgjsTspan1083" style="">Kotlin</tspan></tspan></text></g></g><g id="SvgjsG1084"></g></svg>