<svg id="SvgjsSvg1006" width="363.78125" height="343" xmlns="http://www.w3.org/2000/svg" version="1.1" xmlns:xlink="http://www.w3.org/1999/xlink" xmlns:svgjs="http://svgjs.com/svgjs"><defs id="SvgjsDefs1007"></defs><g id="SvgjsG1008" transform="translate(25.001838235294485,77.23702994998149)"><path id="SvgjsPath1009" d="M 0 0L 127 0L 127 187.8797164226928L 0 187.8797164226928Z" stroke="rgba(50,50,50,1)" stroke-width="2" fill-opacity="1" fill="#f5f5f5"></path><g id="SvgjsG1010"><text id="SvgjsText1011" font-family="微软雅黑" text-anchor="middle" font-size="13px" width="107px" fill="#323232" font-weight="400" align="middle" lineHeight="125%" anchor="middle" family="微软雅黑" size="13px" weight="400" font-style="" opacity="1" y="83.3148582113464" transform="rotate(0)"></text></g></g><g id="SvgjsG1012" transform="translate(41.75026645034029,93.37711831092486)"><path id="SvgjsPath1013" d="M 0 0L 93.50314356990832 0L 93.50314356990832 83.59953970080726L 0 83.59953970080726Z" stroke="rgba(50,50,50,1)" stroke-width="2" fill-opacity="1" fill="#b2ebf2"></path><g id="SvgjsG1014"><text id="SvgjsText1015" font-family="微软雅黑" text-anchor="middle" font-size="13px" width="74px" fill="#323232" font-weight="400" align="middle" lineHeight="125%" anchor="middle" family="微软雅黑" size="13px" weight="400" font-style="" opacity="1" y="31.174769850403628" transform="rotate(0)"></text></g></g><g id="SvgjsG1016" transform="translate(52.905835160390666,98.27819046113586)"><path id="SvgjsPath1017" d="M 0 4Q 0 0 4 0L 67.19200614980718 0Q 71.19200614980718 0 71.19200614980718 4L 71.19200614980718 8.82559186483793Q 71.19200614980718 12.82559186483793 67.19200614980718 12.82559186483793L 4 12.82559186483793Q 0 12.82559186483793 0 8.82559186483793Z" stroke="rgba(50,50,50,1)" stroke-width="2" fill-opacity="1" fill="#e1bee7"></path><g id="SvgjsG1018"><text id="SvgjsText1019" font-family="微软雅黑" text-anchor="middle" font-size="13px" width="52px" fill="#323232" font-weight="400" align="middle" lineHeight="125%" anchor="middle" family="微软雅黑" size="13px" weight="400" font-style="" opacity="1" y="-4.212204067581035" transform="rotate(0)"></text></g></g><g id="SvgjsG1020" transform="translate(68.66119472823004,116.91391811131075)"><path id="SvgjsPath1021" d="M 0 4Q 0 0 4 0L 51.43664658196796 0Q 55.43664658196796 0 55.43664658196796 4L 55.43664658196796 8.82559186483793Q 55.43664658196796 12.82559186483793 51.43664658196796 12.82559186483793L 4 12.82559186483793Q 0 12.82559186483793 0 8.82559186483793Z" stroke="rgba(50,50,50,1)" stroke-width="2" fill-opacity="1" fill="#e1bee7"></path><g id="SvgjsG1022"><text id="SvgjsText1023" font-family="微软雅黑" text-anchor="middle" font-size="13px" width="36px" fill="#323232" font-weight="400" align="middle" lineHeight="125%" anchor="middle" family="微软雅黑" size="13px" weight="400" font-style="" opacity="1" y="-4.212204067581035" transform="rotate(0)"></text></g></g><g id="SvgjsG1024" transform="translate(68.66119472823004,138.83260616474809)"><path id="SvgjsPath1025" d="M 0 4Q 0 0 4 0L 35.681287014128365 0Q 39.681287014128365 0 39.681287014128365 4L 39.681287014128365 9.113761808636493Q 39.681287014128365 13.113761808636493 35.681287014128365 13.113761808636493L 4 13.113761808636493Q 0 13.113761808636493 0 9.113761808636493Z" stroke="rgba(50,50,50,1)" stroke-width="2" fill-opacity="1" fill="#e1bee7"></path><g id="SvgjsG1026"><text id="SvgjsText1027" font-family="微软雅黑" text-anchor="middle" font-size="13px" width="20px" fill="#323232" font-weight="400" align="middle" lineHeight="125%" anchor="middle" family="微软雅黑" size="13px" weight="400" font-style="" opacity="1" y="-4.0681190956817534" transform="rotate(0)"></text></g></g><g id="SvgjsG1028" transform="translate(54.11778589637845,159.249993996684)"><path id="SvgjsPath1029" d="M 0 4Q 0 0 4 0L 64.76810467783169 0Q 68.76810467783169 0 68.76810467783169 4L 68.76810467783169 8.82559186483793Q 68.76810467783169 12.82559186483793 64.76810467783169 12.82559186483793L 4 12.82559186483793Q 0 12.82559186483793 0 8.82559186483793Z" stroke="rgba(50,50,50,1)" stroke-width="2" fill-opacity="1" fill="#e1bee7"></path><g id="SvgjsG1030"><text id="SvgjsText1031" font-family="微软雅黑" text-anchor="middle" font-size="13px" width="49px" fill="#323232" font-weight="400" align="middle" lineHeight="125%" anchor="middle" family="微软雅黑" size="13px" weight="400" font-style="" opacity="1" y="-4.212204067581035" transform="rotate(0)"></text></g></g><g id="SvgjsG1032" transform="translate(149.53125,24.999999999999943)"><path id="SvgjsPath1033" d="M 41 0Q 36.9 0 36.9 9L 36.9 137.3495397008074Q 36.9 146.3495397008074 19 146.3495397008074Q 36.9 146.3495397008074 36.9 155.3495397008074L 36.9 283.6990794016148Q 36.9 292.6990794016148 41 292.6990794016148" stroke="rgba(13,71,161,1)" stroke-width="5" fill="none"></path><path id="SvgjsPath1034" d="M 0 0L 41 0L 41 292.6990794016148L 0 292.6990794016148Z" stroke="none" fill="none"></path><g id="SvgjsG1035"><text id="SvgjsText1036" font-family="微软雅黑" text-anchor="end" font-size="13px" width="14px" fill="#323232" font-weight="400" align="middle" lineHeight="125%" anchor="end" family="微软雅黑" size="13px" weight="400" font-style="" opacity="1" y="135.7245397008074" transform="rotate(0)"></text></g></g><g id="SvgjsG1037" transform="translate(210.78125000000023,24.999999999999943)"><path id="SvgjsPath1038" d="M 0 4Q 0 0 4 0L 124 0Q 128 0 128 4L 128 24.700230149596393Q 128 28.700230149596393 124 28.700230149596393L 4 28.700230149596393Q 0 28.700230149596393 0 24.700230149596393Z" stroke="rgba(50,50,50,1)" stroke-width="2" fill-opacity="1" fill="#ffe0b2"></path><g id="SvgjsG1039"><text id="SvgjsText1040" font-family="微软雅黑" text-anchor="middle" font-size="17px" width="108px" fill="#1e3c53" font-weight="700" align="middle" lineHeight="125%" anchor="middle" family="微软雅黑" size="17px" weight="700" font-style="" opacity="1" y="-0.2748849252018033" transform="rotate(0)"><tspan id="SvgjsTspan1041" dy="21" x="64"><tspan id="SvgjsTspan1042" style="text-decoration:;">DB</tspan></tspan></text></g></g><g id="SvgjsG1043" transform="translate(210.78125000000023,77.23702994998189)"><path id="SvgjsPath1044" d="M 0 4Q 0 0 4 0L 124 0Q 128 0 128 4L 128 25.26297005001811Q 128 29.26297005001811 124 29.26297005001811L 4 29.26297005001811Q 0 29.26297005001811 0 25.26297005001811Z" stroke="rgba(50,50,50,1)" stroke-width="2" fill-opacity="1" fill="#ffe0b2"></path><g id="SvgjsG1045"><text id="SvgjsText1046" font-family="微软雅黑" text-anchor="middle" font-size="17px" width="108px" fill="#1e3c53" font-weight="700" align="middle" lineHeight="125%" anchor="middle" family="微软雅黑" size="17px" weight="700" font-style="" opacity="1" y="0.006485025009055789" transform="rotate(0)"><tspan id="SvgjsTspan1047" dy="21" x="64"><tspan id="SvgjsTspan1048" style="text-decoration:;">Zokeeper</tspan></tspan></text></g></g><g id="SvgjsG1049" transform="translate(210.78125000000023,130.03679980038555)"><path id="SvgjsPath1050" d="M 0 4Q 0 0 4 0L 124 0Q 128 0 128 4L 128 25.26297005001811Q 128 29.26297005001811 124 29.26297005001811L 4 29.26297005001811Q 0 29.26297005001811 0 25.26297005001811Z" stroke="rgba(50,50,50,1)" stroke-width="2" fill-opacity="1" fill="#ffe0b2"></path><g id="SvgjsG1051"><text id="SvgjsText1052" font-family="微软雅黑" text-anchor="middle" font-size="17px" width="108px" fill="#1e3c53" font-weight="700" align="middle" lineHeight="125%" anchor="middle" family="微软雅黑" size="17px" weight="700" font-style="" opacity="1" y="0.006485025009055789" transform="rotate(0)"><tspan id="SvgjsTspan1053" dy="21" x="64"><tspan id="SvgjsTspan1054" style="text-decoration:;">Etcd</tspan></tspan></text></g></g><g id="SvgjsG1055" transform="translate(210.78125000000023,182.83656965078922)"><path id="SvgjsPath1056" d="M 0 4Q 0 0 4 0L 124 0Q 128 0 128 4L 128 25.26297005001811Q 128 29.26297005001811 124 29.26297005001811L 4 29.26297005001811Q 0 29.26297005001811 0 25.26297005001811Z" stroke="rgba(50,50,50,1)" stroke-width="2" fill-opacity="1" fill="#ffe0b2"></path><g id="SvgjsG1057"><text id="SvgjsText1058" font-family="微软雅黑" text-anchor="middle" font-size="17px" width="108px" fill="#1e3c53" font-weight="700" align="middle" lineHeight="125%" anchor="middle" family="微软雅黑" size="17px" weight="700" font-style="" opacity="1" y="0.006485025009055789" transform="rotate(0)"><tspan id="SvgjsTspan1059" dy="21" x="64"><tspan id="SvgjsTspan1060" style="text-decoration:;">Nacos</tspan></tspan></text></g></g><g id="SvgjsG1061" transform="translate(210.78125000000023,235.63633950119288)"><path id="SvgjsPath1062" d="M 0 4Q 0 0 4 0L 124 0Q 128 0 128 4L 128 25.26297005001811Q 128 29.26297005001811 124 29.26297005001811L 4 29.26297005001811Q 0 29.26297005001811 0 25.26297005001811Z" stroke="rgba(50,50,50,1)" stroke-width="2" fill-opacity="1" fill="#ffe0b2"></path><g id="SvgjsG1063"><text id="SvgjsText1064" font-family="微软雅黑" text-anchor="middle" font-size="15px" width="108px" fill="#1e3c53" font-weight="700" align="middle" lineHeight="125%" anchor="middle" family="微软雅黑" size="15px" weight="700" font-style="" opacity="1" y="2.256485025009056" transform="rotate(0)"><tspan id="SvgjsTspan1065" dy="18" x="64"><tspan id="SvgjsTspan1066" style="text-decoration:;">Apollo</tspan></tspan></text></g></g><g id="SvgjsG1067" transform="translate(41.251838235294485,189.5666081459833)"><path id="SvgjsPath1068" d="M 0 0L 94.5 0L 94.5 60.36028001534555L 0 60.36028001534555Z" stroke="rgba(50,50,50,1)" stroke-width="2" fill-opacity="1" fill="#ffcdd2"></path><g id="SvgjsG1069"><text id="SvgjsText1070" font-family="微软雅黑" text-anchor="middle" font-size="15px" width="75px" fill="#323232" font-weight="700" align="middle" lineHeight="125%" anchor="middle" family="微软雅黑" size="15px" weight="700" font-style="" opacity="1" y="8.305140007672776" transform="rotate(0)"><tspan id="SvgjsTspan1071" dy="18" x="47.5"><tspan id="SvgjsTspan1072" style="text-decoration:;">THEN(a, </tspan></tspan><tspan id="SvgjsTspan1073" dy="18" x="47.5"><tspan id="SvgjsTspan1074" style="text-decoration:;">b, s, d)</tspan></tspan></text></g></g><g id="SvgjsG1075" transform="translate(210.78125,288.43610935159666)"><path id="SvgjsPath1076" d="M 0 4Q 0 0 4 0L 124 0Q 128 0 128 4L 128 25.26297005001811Q 128 29.26297005001811 124 29.26297005001811L 4 29.26297005001811Q 0 29.26297005001811 0 25.26297005001811Z" stroke="rgba(50,50,50,1)" stroke-width="2" fill-opacity="1" fill="#ffe0b2"></path><g id="SvgjsG1077"><text id="SvgjsText1078" font-family="微软雅黑" text-anchor="middle" font-size="15px" width="108px" fill="#1e3c53" font-weight="700" align="middle" lineHeight="125%" anchor="middle" family="微软雅黑" size="15px" weight="700" font-style="" opacity="1" y="2.256485025009056" transform="rotate(0)"><tspan id="SvgjsTspan1079" dy="18" x="64"><tspan id="SvgjsTspan1080" style="text-decoration:;">自定义扩展</tspan></tspan></text></g></g></svg>