<svg id="SvgjsSvg1006" width="1412.9140625" height="528.3984375" xmlns="http://www.w3.org/2000/svg" version="1.1" xmlns:xlink="http://www.w3.org/1999/xlink" xmlns:svgjs="http://svgjs.com/svgjs"><defs id="SvgjsDefs1007"></defs><g id="SvgjsG1008" transform="translate(469.91629464285734,108.1138581223629)"><path id="SvgjsPath1009" d="M 0 0L 918 0L 918 203.64672036823953L 0 203.64672036823953Z" stroke="rgba(50,50,50,1)" stroke-width="2" fill-opacity="1" fill="#f5f5f5"></path><g id="SvgjsG1010"><text id="SvgjsText1011" font-family="微软雅黑" text-anchor="middle" font-size="13px" width="898px" fill="#323232" font-weight="400" align="middle" lineHeight="125%" anchor="middle" family="微软雅黑" size="13px" weight="400" font-style="" opacity="1" y="91.19836018411976" transform="rotate(0)"></text></g></g><g id="SvgjsG1012" transform="translate(25.002650815421077,108.1138581223629)"><path id="SvgjsPath1013" d="M 0 0L 246.5 0L 246.5 394.8080168776371L 0 394.8080168776371Z" stroke="rgba(50,50,50,1)" stroke-width="2" fill-opacity="1" fill="#1e3c53"></path><g id="SvgjsG1014"><text id="SvgjsText1015" font-family="微软雅黑" text-anchor="middle" font-size="13px" width="227px" fill="#323232" font-weight="400" align="middle" lineHeight="125%" anchor="middle" family="微软雅黑" size="13px" weight="400" font-style="" opacity="1" y="186.77900843881855" transform="rotate(0)"></text></g></g><g id="SvgjsG1016" transform="translate(50.2128780881483,128.1138581223629)"><path id="SvgjsPath1017" d="M 0 4Q 0 0 4 0L 192.0795454545455 0Q 196.0795454545455 0 196.0795454545455 4L 196.0795454545455 16Q 196.0795454545455 20 192.0795454545455 20L 4 20Q 0 20 0 16Z" stroke="rgba(50,50,50,1)" stroke-width="2" fill-opacity="1" fill="#2196f3"></path><g id="SvgjsG1018"><text id="SvgjsText1019" font-family="微软雅黑" text-anchor="middle" font-size="13px" width="177px" fill="#323232" font-weight="400" align="middle" lineHeight="125%" anchor="middle" family="微软雅黑" size="13px" weight="400" font-style="" opacity="1" y="-0.625" transform="rotate(0)"></text></g></g><g id="SvgjsG1020" transform="translate(86.62765081542105,161.56322521097047)"><path id="SvgjsPath1021" d="M 0 4Q 0 0 4 0L 90.875 0Q 94.875 0 94.875 4L 94.875 16.44936708860763Q 94.875 20.44936708860763 90.875 20.44936708860763L 4 20.44936708860763Q 0 20.44936708860763 0 16.44936708860763Z" stroke="rgba(50,50,50,1)" stroke-width="2" fill-opacity="1" fill="#2196f3"></path><g id="SvgjsG1022"><text id="SvgjsText1023" font-family="微软雅黑" text-anchor="middle" font-size="13px" width="75px" fill="#323232" font-weight="400" align="middle" lineHeight="125%" anchor="middle" family="微软雅黑" size="13px" weight="400" font-style="" opacity="1" y="-0.4003164556961849" transform="rotate(0)"></text></g></g><g id="SvgjsG1024" transform="translate(86.62765081542105,195.74389264480237)"><path id="SvgjsPath1025" d="M 0 4Q 0 0 4 0L 119.25 0Q 123.25 0 123.25 4L 123.25 16Q 123.25 20 119.25 20L 4 20Q 0 20 0 16Z" stroke="rgba(50,50,50,1)" stroke-width="2" fill-opacity="1" fill="#2196f3"></path><g id="SvgjsG1026"><text id="SvgjsText1027" font-family="微软雅黑" text-anchor="middle" font-size="13px" width="104px" fill="#323232" font-weight="400" align="middle" lineHeight="125%" anchor="middle" family="微软雅黑" size="13px" weight="400" font-style="" opacity="1" y="-0.625" transform="rotate(0)"></text></g></g><g id="SvgjsG1028" transform="translate(86.62765081542105,229.47519299002658)"><path id="SvgjsPath1029" d="M 0 4Q 0 0 4 0L 106.875 0Q 110.875 0 110.875 4L 110.875 16Q 110.875 20 106.875 20L 4 20Q 0 20 0 16Z" stroke="rgba(50,50,50,1)" stroke-width="2" fill-opacity="1" fill="#2196f3"></path><g id="SvgjsG1030"><text id="SvgjsText1031" font-family="微软雅黑" text-anchor="middle" font-size="13px" width="91px" fill="#323232" font-weight="400" align="middle" lineHeight="125%" anchor="middle" family="微软雅黑" size="13px" weight="400" font-style="" opacity="1" y="-0.625" transform="rotate(0)"></text></g></g><g id="SvgjsG1032" transform="translate(86.62765081542105,263.20649333525085)"><path id="SvgjsPath1033" d="M 0 4Q 0 0 4 0L 68.875 0Q 72.875 0 72.875 4L 72.875 16Q 72.875 20 68.875 20L 4 20Q 0 20 0 16Z" stroke="rgba(50,50,50,1)" stroke-width="2" fill-opacity="1" fill="#2196f3"></path><g id="SvgjsG1034"><text id="SvgjsText1035" font-family="微软雅黑" text-anchor="middle" font-size="13px" width="53px" fill="#323232" font-weight="400" align="middle" lineHeight="125%" anchor="middle" family="微软雅黑" size="13px" weight="400" font-style="" opacity="1" y="-0.625" transform="rotate(0)"></text></g></g><g id="SvgjsG1036" transform="translate(86.62765081542105,296.9377936804751)"><path id="SvgjsPath1037" d="M 0 4Q 0 0 4 0L 96.875 0Q 100.875 0 100.875 4L 100.875 16Q 100.875 20 96.875 20L 4 20Q 0 20 0 16Z" stroke="rgba(50,50,50,1)" stroke-width="2" fill-opacity="1" fill="#2196f3"></path><g id="SvgjsG1038"><text id="SvgjsText1039" font-family="微软雅黑" text-anchor="middle" font-size="13px" width="81px" fill="#323232" font-weight="400" align="middle" lineHeight="125%" anchor="middle" family="微软雅黑" size="13px" weight="400" font-style="" opacity="1" y="-0.625" transform="rotate(0)"></text></g></g><g id="SvgjsG1040" transform="translate(86.62765081542105,330.66909402569945)"><path id="SvgjsPath1041" d="M 0 4Q 0 0 4 0L 90.875 0Q 94.875 0 94.875 4L 94.875 16Q 94.875 20 90.875 20L 4 20Q 0 20 0 16Z" stroke="rgba(50,50,50,1)" stroke-width="2" fill-opacity="1" fill="#2196f3"></path><g id="SvgjsG1042"><text id="SvgjsText1043" font-family="微软雅黑" text-anchor="middle" font-size="13px" width="75px" fill="#323232" font-weight="400" align="middle" lineHeight="125%" anchor="middle" family="微软雅黑" size="13px" weight="400" font-style="" opacity="1" y="-0.625" transform="rotate(0)"></text></g></g><g id="SvgjsG1044" transform="translate(86.62765081542105,364.40039437092366)"><path id="SvgjsPath1045" d="M 0 4Q 0 0 4 0L 138.875 0Q 142.875 0 142.875 4L 142.875 16Q 142.875 20 138.875 20L 4 20Q 0 20 0 16Z" stroke="rgba(50,50,50,1)" stroke-width="2" fill-opacity="1" fill="#2196f3"></path><g id="SvgjsG1046"><text id="SvgjsText1047" font-family="微软雅黑" text-anchor="middle" font-size="13px" width="123px" fill="#323232" font-weight="400" align="middle" lineHeight="125%" anchor="middle" family="微软雅黑" size="13px" weight="400" font-style="" opacity="1" y="-0.625" transform="rotate(0)"></text></g></g><g id="SvgjsG1048" transform="translate(50.2128780881483,465.59429540659653)"><path id="SvgjsPath1049" d="M 0 4Q 0 0 4 0L 192.0795454545455 0Q 196.0795454545455 0 196.0795454545455 4L 196.0795454545455 16Q 196.0795454545455 20 192.0795454545455 20L 4 20Q 0 20 0 16Z" stroke="rgba(50,50,50,1)" stroke-width="2" fill-opacity="1" fill="#2196f3"></path><g id="SvgjsG1050"><text id="SvgjsText1051" font-family="微软雅黑" text-anchor="middle" font-size="13px" width="177px" fill="#323232" font-weight="400" align="middle" lineHeight="125%" anchor="middle" family="微软雅黑" size="13px" weight="400" font-style="" opacity="1" y="-0.625" transform="rotate(0)"></text></g></g><g id="SvgjsG1052" transform="translate(509.8775575179135,164.75540012466445)"><path id="SvgjsPath1053" d="M 0 0L 140.27444394685813 0L 140.27444394685813 130.36363636363637L 0 130.36363636363637Z" stroke="rgba(50,50,50,1)" stroke-width="2" fill-opacity="1" fill="#1e3c53"></path><g id="SvgjsG1054"><text id="SvgjsText1055" font-family="微软雅黑" text-anchor="middle" font-size="13px" width="121px" fill="#323232" font-weight="400" align="middle" lineHeight="125%" anchor="middle" family="微软雅黑" size="13px" weight="400" font-style="" opacity="1" y="54.55681818181819" transform="rotate(0)"></text></g></g><g id="SvgjsG1056" transform="translate(528.4314461580094,173.7932789125432)"><path id="SvgjsPath1057" d="M 0 4Q 0 0 4 0L 102.80303030303025 0Q 106.80303030303025 0 106.80303030303025 4L 106.80303030303025 16Q 106.80303030303025 20 102.80303030303025 20L 4 20Q 0 20 0 16Z" stroke="rgba(50,50,50,1)" stroke-width="2" fill-opacity="1" fill="#2196f3"></path><g id="SvgjsG1058"><text id="SvgjsText1059" font-family="微软雅黑" text-anchor="middle" font-size="13px" width="87px" fill="#323232" font-weight="400" align="middle" lineHeight="125%" anchor="middle" family="微软雅黑" size="13px" weight="400" font-style="" opacity="1" y="-0.625" transform="rotate(0)"></text></g></g><g id="SvgjsG1060" transform="translate(550.249627976191,202.85350139048717)"><path id="SvgjsPath1061" d="M 0 4Q 0 0 4 0L 79.16666666666674 0Q 83.16666666666674 0 83.16666666666674 4L 83.16666666666674 16Q 83.16666666666674 20 79.16666666666674 20L 4 20Q 0 20 0 16Z" stroke="rgba(50,50,50,1)" stroke-width="2" fill-opacity="1" fill="#2196f3"></path><g id="SvgjsG1062"><text id="SvgjsText1063" font-family="微软雅黑" text-anchor="middle" font-size="13px" width="64px" fill="#323232" font-weight="400" align="middle" lineHeight="125%" anchor="middle" family="微软雅黑" size="13px" weight="400" font-style="" opacity="1" y="-0.625" transform="rotate(0)"></text></g></g><g id="SvgjsG1064" transform="translate(550.249627976191,234.24264600115083)"><path id="SvgjsPath1065" d="M 0 4Q 0 0 4 0L 55.53030303030266 0Q 59.53030303030266 0 59.53030303030266 4L 59.53030303030266 16.449367088607573Q 59.53030303030266 20.449367088607573 55.53030303030266 20.449367088607573L 4 20.449367088607573Q 0 20.449367088607573 0 16.449367088607573Z" stroke="rgba(50,50,50,1)" stroke-width="2" fill-opacity="1" fill="#2196f3"></path><g id="SvgjsG1066"><text id="SvgjsText1067" font-family="微软雅黑" text-anchor="middle" font-size="13px" width="40px" fill="#323232" font-weight="400" align="middle" lineHeight="125%" anchor="middle" family="微软雅黑" size="13px" weight="400" font-style="" opacity="1" y="-0.4003164556962133" transform="rotate(0)"></text></g></g><g id="SvgjsG1068" transform="translate(528.4314461580093,266.08115770042207)"><path id="SvgjsPath1069" d="M 0 4Q 0 0 4 0L 99.16666666666629 0Q 103.16666666666629 0 103.16666666666629 4L 103.16666666666629 16Q 103.16666666666629 20 99.16666666666629 20L 4 20Q 0 20 0 16Z" stroke="rgba(50,50,50,1)" stroke-width="2" fill-opacity="1" fill="#2196f3"></path><g id="SvgjsG1070"><text id="SvgjsText1071" font-family="微软雅黑" text-anchor="middle" font-size="13px" width="84px" fill="#323232" font-weight="400" align="middle" lineHeight="125%" anchor="middle" family="微软雅黑" size="13px" weight="400" font-style="" opacity="1" y="-0.625" transform="rotate(0)"></text></g></g><g id="SvgjsG1072" transform="translate(743.8775575179135,164.75540012466445)"><path id="SvgjsPath1073" d="M 0 0L 140.27444394685813 0L 140.27444394685813 130.36363636363637L 0 130.36363636363637Z" stroke="rgba(50,50,50,1)" stroke-width="2" fill-opacity="1" fill="#1e3c53"></path><g id="SvgjsG1074"><text id="SvgjsText1075" font-family="微软雅黑" text-anchor="middle" font-size="13px" width="121px" fill="#323232" font-weight="400" align="middle" lineHeight="125%" anchor="middle" family="微软雅黑" size="13px" weight="400" font-style="" opacity="1" y="54.55681818181819" transform="rotate(0)"></text></g></g><g id="SvgjsG1076" transform="translate(760.6132643398275,173.7932789125432)"><path id="SvgjsPath1077" d="M 0 4Q 0 0 4 0L 102.80303030303025 0Q 106.80303030303025 0 106.80303030303025 4L 106.80303030303025 16Q 106.80303030303025 20 102.80303030303025 20L 4 20Q 0 20 0 16Z" stroke="rgba(50,50,50,1)" stroke-width="2" fill-opacity="1" fill="#2196f3"></path><g id="SvgjsG1078"><text id="SvgjsText1079" font-family="微软雅黑" text-anchor="middle" font-size="13px" width="87px" fill="#323232" font-weight="400" align="middle" lineHeight="125%" anchor="middle" family="微软雅黑" size="13px" weight="400" font-style="" opacity="1" y="-0.625" transform="rotate(0)"></text></g></g><g id="SvgjsG1080" transform="translate(782.4314461580092,202.85350139048717)"><path id="SvgjsPath1081" d="M 0 4Q 0 0 4 0L 79.16666666666674 0Q 83.16666666666674 0 83.16666666666674 4L 83.16666666666674 16Q 83.16666666666674 20 79.16666666666674 20L 4 20Q 0 20 0 16Z" stroke="rgba(50,50,50,1)" stroke-width="2" fill-opacity="1" fill="#2196f3"></path><g id="SvgjsG1082"><text id="SvgjsText1083" font-family="微软雅黑" text-anchor="middle" font-size="13px" width="64px" fill="#323232" font-weight="400" align="middle" lineHeight="125%" anchor="middle" family="微软雅黑" size="13px" weight="400" font-style="" opacity="1" y="-0.625" transform="rotate(0)"></text></g></g><g id="SvgjsG1084" transform="translate(782.4314461580092,234.24264600115083)"><path id="SvgjsPath1085" d="M 0 4Q 0 0 4 0L 55.53030303030266 0Q 59.53030303030266 0 59.53030303030266 4L 59.53030303030266 16.449367088607573Q 59.53030303030266 20.449367088607573 55.53030303030266 20.449367088607573L 4 20.449367088607573Q 0 20.449367088607573 0 16.449367088607573Z" stroke="rgba(50,50,50,1)" stroke-width="2" fill-opacity="1" fill="#2196f3"></path><g id="SvgjsG1086"><text id="SvgjsText1087" font-family="微软雅黑" text-anchor="middle" font-size="13px" width="40px" fill="#323232" font-weight="400" align="middle" lineHeight="125%" anchor="middle" family="微软雅黑" size="13px" weight="400" font-style="" opacity="1" y="-0.4003164556962133" transform="rotate(0)"></text></g></g><g id="SvgjsG1088" transform="translate(762.4314461580094,266.08115770042207)"><path id="SvgjsPath1089" d="M 0 4Q 0 0 4 0L 99.16666666666629 0Q 103.16666666666629 0 103.16666666666629 4L 103.16666666666629 16Q 103.16666666666629 20 99.16666666666629 20L 4 20Q 0 20 0 16Z" stroke="rgba(50,50,50,1)" stroke-width="2" fill-opacity="1" fill="#2196f3"></path><g id="SvgjsG1090"><text id="SvgjsText1091" font-family="微软雅黑" text-anchor="middle" font-size="13px" width="84px" fill="#323232" font-weight="400" align="middle" lineHeight="125%" anchor="middle" family="微软雅黑" size="13px" weight="400" font-style="" opacity="1" y="-0.625" transform="rotate(0)"></text></g></g><g id="SvgjsG1092" transform="translate(977.8775575179131,164.75540012466445)"><path id="SvgjsPath1093" d="M 0 0L 140.27444394685813 0L 140.27444394685813 130.36363636363637L 0 130.36363636363637Z" stroke="rgba(50,50,50,1)" stroke-width="3" fill-opacity="1" fill="#b2ebf2"></path><g id="SvgjsG1094"><text id="SvgjsText1095" font-family="微软雅黑" text-anchor="middle" font-size="13px" width="121px" fill="#323232" font-weight="400" align="middle" lineHeight="125%" anchor="middle" family="微软雅黑" size="13px" weight="400" font-style="" opacity="1" y="54.55681818181819" transform="rotate(0)"></text></g></g><g id="SvgjsG1096" transform="translate(994.6132643398269,173.7932789125432)"><path id="SvgjsPath1097" d="M 0 4Q 0 0 4 0L 102.80303030303025 0Q 106.80303030303025 0 106.80303030303025 4L 106.80303030303025 16Q 106.80303030303025 20 102.80303030303025 20L 4 20Q 0 20 0 16Z" stroke="rgba(50,50,50,1)" stroke-width="3" fill-opacity="1" fill="#e1bee7"></path><g id="SvgjsG1098"><text id="SvgjsText1099" font-family="微软雅黑" text-anchor="middle" font-size="13px" width="87px" fill="#323232" font-weight="400" align="middle" lineHeight="125%" anchor="middle" family="微软雅黑" size="13px" weight="400" font-style="" opacity="1" y="-0.625" transform="rotate(0)"></text></g></g><g id="SvgjsG1100" transform="translate(1018.2496279761904,201.45826740506328)"><path id="SvgjsPath1101" d="M 0 4Q 0 0 4 0L 79.16666666666674 0Q 83.16666666666674 0 83.16666666666674 4L 83.16666666666674 16Q 83.16666666666674 20 79.16666666666674 20L 4 20Q 0 20 0 16Z" stroke="rgba(50,50,50,1)" stroke-width="3" fill-opacity="1" fill="#e1bee7"></path><g id="SvgjsG1102"><text id="SvgjsText1103" font-family="微软雅黑" text-anchor="middle" font-size="13px" width="64px" fill="#323232" font-weight="400" align="middle" lineHeight="125%" anchor="middle" family="微软雅黑" size="13px" weight="400" font-style="" opacity="1" y="-0.625" transform="rotate(0)"></text></g></g><g id="SvgjsG1104" transform="translate(1018.2496279761908,235.63787998657472)"><path id="SvgjsPath1105" d="M 0 4Q 0 0 4 0L 55.53030303030266 0Q 59.53030303030266 0 59.53030303030266 4L 59.53030303030266 16.449367088607573Q 59.53030303030266 20.449367088607573 55.53030303030266 20.449367088607573L 4 20.449367088607573Q 0 20.449367088607573 0 16.449367088607573Z" stroke="rgba(50,50,50,1)" stroke-width="3" fill-opacity="1" fill="#e1bee7"></path><g id="SvgjsG1106"><text id="SvgjsText1107" font-family="微软雅黑" text-anchor="middle" font-size="13px" width="40px" fill="#323232" font-weight="400" align="middle" lineHeight="125%" anchor="middle" family="微软雅黑" size="13px" weight="400" font-style="" opacity="1" y="-0.4003164556962133" transform="rotate(0)"></text></g></g><g id="SvgjsG1108" transform="translate(996.4314461580088,267.47639168584595)"><path id="SvgjsPath1109" d="M 0 4Q 0 0 4 0L 99.16666666666629 0Q 103.16666666666629 0 103.16666666666629 4L 103.16666666666629 16Q 103.16666666666629 20 99.16666666666629 20L 4 20Q 0 20 0 16Z" stroke="rgba(50,50,50,1)" stroke-width="3" fill-opacity="1" fill="#e1bee7"></path><g id="SvgjsG1110"><text id="SvgjsText1111" font-family="微软雅黑" text-anchor="middle" font-size="13px" width="84px" fill="#323232" font-weight="400" align="middle" lineHeight="125%" anchor="middle" family="微软雅黑" size="13px" weight="400" font-style="" opacity="1" y="-0.625" transform="rotate(0)"></text></g></g><g id="SvgjsG1112" transform="translate(86.62765081542105,398.1316947161479)"><path id="SvgjsPath1113" d="M 0 4Q 0 0 4 0L 138.875 0Q 142.875 0 142.875 4L 142.875 16Q 142.875 20 138.875 20L 4 20Q 0 20 0 16Z" stroke="rgba(50,50,50,1)" stroke-width="2" fill-opacity="1" fill="#2196f3"></path><g id="SvgjsG1114"><text id="SvgjsText1115" font-family="微软雅黑" text-anchor="middle" font-size="13px" width="123px" fill="#323232" font-weight="400" align="middle" lineHeight="125%" anchor="middle" family="微软雅黑" size="13px" weight="400" font-style="" opacity="1" y="-0.625" transform="rotate(0)"></text></g></g><g id="SvgjsG1116" transform="translate(86.62765081542105,431.8629950613722)"><path id="SvgjsPath1117" d="M 0 4Q 0 0 4 0L 138.875 0Q 142.875 0 142.875 4L 142.875 16Q 142.875 20 138.875 20L 4 20Q 0 20 0 16Z" stroke="rgba(50,50,50,1)" stroke-width="2" fill-opacity="1" fill="#2196f3"></path><g id="SvgjsG1118"><text id="SvgjsText1119" font-family="微软雅黑" text-anchor="middle" font-size="13px" width="123px" fill="#323232" font-weight="400" align="middle" lineHeight="125%" anchor="middle" family="微软雅黑" size="13px" weight="400" font-style="" opacity="1" y="-0.625" transform="rotate(0)"></text></g></g><g id="SvgjsG1120" transform="translate(1211.8775575179131,164.75540012466445)"><path id="SvgjsPath1121" d="M 0 0L 140.27444394685813 0L 140.27444394685813 130.36363636363637L 0 130.36363636363637Z" stroke="rgba(50,50,50,1)" stroke-width="2" fill-opacity="1" fill="#1e3c53"></path><g id="SvgjsG1122"><text id="SvgjsText1123" font-family="微软雅黑" text-anchor="middle" font-size="13px" width="121px" fill="#323232" font-weight="400" align="middle" lineHeight="125%" anchor="middle" family="微软雅黑" size="13px" weight="400" font-style="" opacity="1" y="54.55681818181819" transform="rotate(0)"></text></g></g><g id="SvgjsG1124" transform="translate(1228.613264339827,173.7932789125432)"><path id="SvgjsPath1125" d="M 0 4Q 0 0 4 0L 102.80303030303025 0Q 106.80303030303025 0 106.80303030303025 4L 106.80303030303025 16Q 106.80303030303025 20 102.80303030303025 20L 4 20Q 0 20 0 16Z" stroke="rgba(50,50,50,1)" stroke-width="2" fill-opacity="1" fill="#2196f3"></path><g id="SvgjsG1126"><text id="SvgjsText1127" font-family="微软雅黑" text-anchor="middle" font-size="13px" width="87px" fill="#323232" font-weight="400" align="middle" lineHeight="125%" anchor="middle" family="微软雅黑" size="13px" weight="400" font-style="" opacity="1" y="-0.625" transform="rotate(0)"></text></g></g><g id="SvgjsG1128" transform="translate(1250.431446158009,202.85350139048717)"><path id="SvgjsPath1129" d="M 0 4Q 0 0 4 0L 79.16666666666674 0Q 83.16666666666674 0 83.16666666666674 4L 83.16666666666674 16Q 83.16666666666674 20 79.16666666666674 20L 4 20Q 0 20 0 16Z" stroke="rgba(50,50,50,1)" stroke-width="2" fill-opacity="1" fill="#2196f3"></path><g id="SvgjsG1130"><text id="SvgjsText1131" font-family="微软雅黑" text-anchor="middle" font-size="13px" width="64px" fill="#323232" font-weight="400" align="middle" lineHeight="125%" anchor="middle" family="微软雅黑" size="13px" weight="400" font-style="" opacity="1" y="-0.625" transform="rotate(0)"></text></g></g><g id="SvgjsG1132" transform="translate(1250.431446158009,234.24264600115083)"><path id="SvgjsPath1133" d="M 0 4Q 0 0 4 0L 55.53030303030266 0Q 59.53030303030266 0 59.53030303030266 4L 59.53030303030266 16.449367088607573Q 59.53030303030266 20.449367088607573 55.53030303030266 20.449367088607573L 4 20.449367088607573Q 0 20.449367088607573 0 16.449367088607573Z" stroke="rgba(50,50,50,1)" stroke-width="2" fill-opacity="1" fill="#2196f3"></path><g id="SvgjsG1134"><text id="SvgjsText1135" font-family="微软雅黑" text-anchor="middle" font-size="13px" width="40px" fill="#323232" font-weight="400" align="middle" lineHeight="125%" anchor="middle" family="微软雅黑" size="13px" weight="400" font-style="" opacity="1" y="-0.4003164556962133" transform="rotate(0)"></text></g></g><g id="SvgjsG1136" transform="translate(1230.431446158009,266.08115770042207)"><path id="SvgjsPath1137" d="M 0 4Q 0 0 4 0L 99.16666666666629 0Q 103.16666666666629 0 103.16666666666629 4L 103.16666666666629 16Q 103.16666666666629 20 99.16666666666629 20L 4 20Q 0 20 0 16Z" stroke="rgba(50,50,50,1)" stroke-width="2" fill-opacity="1" fill="#2196f3"></path><g id="SvgjsG1138"><text id="SvgjsText1139" font-family="微软雅黑" text-anchor="middle" font-size="13px" width="84px" fill="#323232" font-weight="400" align="middle" lineHeight="125%" anchor="middle" family="微软雅黑" size="13px" weight="400" font-style="" opacity="1" y="-0.625" transform="rotate(0)"></text></g></g><g id="SvgjsG1140" transform="translate(668.5147794913426,202.3616045742237)"><path id="SvgjsPath1141" d="M 0 18.199905063290924L 31.349999999999998 18.199905063290924L 31.349999999999998 0L 57 27.575613732258972L 31.349999999999998 55.151227464517945L 31.349999999999998 36.951322401227024L 0 36.951322401227024L 0 18.199905063290924Z" stroke="rgba(50,50,50,1)" stroke-width="2" fill-opacity="1" fill="#1976d2"></path><g id="SvgjsG1142"><text id="SvgjsText1143" font-family="微软雅黑" text-anchor="middle" font-size="13px" width="57px" fill="#323232" font-weight="400" align="middle" lineHeight="125%" anchor="middle" family="微软雅黑" size="13px" weight="400" font-style="" opacity="1" y="16.950613732258976" transform="rotate(0)"></text></g></g><g id="SvgjsG1144" transform="translate(902.5147794913428,201.45826740506328)"><path id="SvgjsPath1145" d="M 0 18.199905063290924L 31.349999999999998 18.199905063290924L 31.349999999999998 0L 57 27.575613732258972L 31.349999999999998 55.151227464517945L 31.349999999999998 36.951322401227024L 0 36.951322401227024L 0 18.199905063290924Z" stroke="rgba(50,50,50,1)" stroke-width="2" fill-opacity="1" fill="#1976d2"></path><g id="SvgjsG1146"><text id="SvgjsText1147" font-family="微软雅黑" text-anchor="middle" font-size="13px" width="57px" fill="#323232" font-weight="400" align="middle" lineHeight="125%" anchor="middle" family="微软雅黑" size="13px" weight="400" font-style="" opacity="1" y="16.950613732258976" transform="rotate(0)"></text></g></g><g id="SvgjsG1148" transform="translate(1136.5147794913426,202.3616045742237)"><path id="SvgjsPath1149" d="M 0 18.199905063290924L 31.349999999999998 18.199905063290924L 31.349999999999998 0L 57 27.575613732258972L 31.349999999999998 55.151227464517945L 31.349999999999998 36.951322401227024L 0 36.951322401227024L 0 18.199905063290924Z" stroke="rgba(50,50,50,1)" stroke-width="2" fill-opacity="1" fill="#1976d2"></path><g id="SvgjsG1150"><text id="SvgjsText1151" font-family="微软雅黑" text-anchor="middle" font-size="13px" width="57px" fill="#323232" font-weight="400" align="middle" lineHeight="125%" anchor="middle" family="微软雅黑" size="13px" weight="400" font-style="" opacity="1" y="16.950613732258976" transform="rotate(0)"></text></g></g><g id="SvgjsG1152" transform="translate(469.91629464285734,439.40039437092366)"><path id="SvgjsPath1153" d="M 0 0L 733.6904761904761 0L 733.6904761904761 63.521480629076336L 0 63.521480629076336Z" stroke="rgba(50,50,50,1)" stroke-width="2" fill-opacity="1" fill="#ffcdd2"></path><g id="SvgjsG1154"><text id="SvgjsText1155" font-family="微软雅黑" text-anchor="middle" font-size="23px" width="714px" fill="#323232" font-weight="700" align="middle" lineHeight="125%" anchor="middle" family="微软雅黑" size="23px" weight="700" font-style="" opacity="1" y="11.385740314538168" transform="rotate(0)"><tspan id="SvgjsTspan1156" dy="28" x="367"><tspan id="SvgjsTspan1157" style="text-decoration:;">编排规则：THEN(a, b, s, d)</tspan></tspan></text></g></g><g id="SvgjsG1158" transform="translate(812.795082521646,341.9864769373743)"><path id="SvgjsPath1159" d="M 44.859848484848385 0L 89.71969696969677 29.94877733026458L 60.11219696969684 29.94877733026458L 60.11219696969684 66.55283851169906L 29.607499999999934 66.55283851169906L 29.607499999999934 29.94877733026458L 0 29.94877733026458L 44.859848484848385 0Z" stroke="rgba(50,50,50,1)" stroke-width="2" fill-opacity="1" fill="#1976d2"></path><g id="SvgjsG1160"><text id="SvgjsText1161" font-family="微软雅黑" text-anchor="middle" font-size="13px" width="126px" fill="#ffffff" font-weight="700" align="middle" lineHeight="125%" anchor="middle" family="微软雅黑" size="13px" weight="700" font-style="" opacity="1" y="25.979061181434485" transform="rotate(0)"><tspan id="SvgjsTspan1162" dy="16" x="45.05606060606064"><tspan id="SvgjsTspan1163" style="text-decoration:;">驱动</tspan></tspan></text></g></g><g id="SvgjsG1164" transform="translate(509.8775575179135,122.53388113732314)"><path id="SvgjsPath1165" d="M 0 4Q 0 0 4 0L 46.03873712494385 0Q 50.03873712494385 0 50.03873712494385 4L 50.03873712494385 27.159953970079528Q 50.03873712494385 31.159953970079528 46.03873712494385 31.159953970079528L 4 31.159953970079528Q 0 31.159953970079528 0 27.159953970079528Z" stroke="rgba(50,50,50,1)" stroke-width="2" fill-opacity="1" fill="#ffe0b2"></path><g id="SvgjsG1166"><text id="SvgjsText1167" font-family="微软雅黑" text-anchor="middle" font-size="13px" width="31px" fill="#323232" font-weight="700" align="middle" lineHeight="125%" anchor="middle" family="微软雅黑" size="13px" weight="700" font-style="" opacity="1" y="4.954976985039764" transform="rotate(0)"><tspan id="SvgjsTspan1168" dy="16" x="25.5"><tspan id="SvgjsTspan1169" style="text-decoration:;">a</tspan></tspan></text></g></g><g id="SvgjsG1170" transform="translate(743.8775575179135,122.53388113732314)"><path id="SvgjsPath1171" d="M 0 4Q 0 0 4 0L 46.03873712494385 0Q 50.03873712494385 0 50.03873712494385 4L 50.03873712494385 27.159953970079528Q 50.03873712494385 31.159953970079528 46.03873712494385 31.159953970079528L 4 31.159953970079528Q 0 31.159953970079528 0 27.159953970079528Z" stroke="rgba(50,50,50,1)" stroke-width="2" fill-opacity="1" fill="#ffe0b2"></path><g id="SvgjsG1172"><text id="SvgjsText1173" font-family="微软雅黑" text-anchor="middle" font-size="13px" width="31px" fill="#323232" font-weight="700" align="middle" lineHeight="125%" anchor="middle" family="微软雅黑" size="13px" weight="700" font-style="" opacity="1" y="4.954976985039764" transform="rotate(0)"><tspan id="SvgjsTspan1174" dy="16" x="25.5"><tspan id="SvgjsTspan1175" style="text-decoration:;">b</tspan></tspan></text></g></g><g id="SvgjsG1176" transform="translate(977.8775575179131,122.53388113732314)"><path id="SvgjsPath1177" d="M 0 4Q 0 0 4 0L 46.03873712494385 0Q 50.03873712494385 0 50.03873712494385 4L 50.03873712494385 27.159953970079528Q 50.03873712494385 31.159953970079528 46.03873712494385 31.159953970079528L 4 31.159953970079528Q 0 31.159953970079528 0 27.159953970079528Z" stroke="rgba(50,50,50,1)" stroke-width="2" fill-opacity="1" fill="#ffe0b2"></path><g id="SvgjsG1178"><text id="SvgjsText1179" font-family="微软雅黑" text-anchor="middle" font-size="13px" width="31px" fill="#323232" font-weight="700" align="middle" lineHeight="125%" anchor="middle" family="微软雅黑" size="13px" weight="700" font-style="" opacity="1" y="4.954976985039764" transform="rotate(0)"><tspan id="SvgjsTspan1180" dy="16" x="25.5"><tspan id="SvgjsTspan1181" style="text-decoration:;">s</tspan></tspan></text></g></g><g id="SvgjsG1182" transform="translate(1211.8775575179131,122.53388113732314)"><path id="SvgjsPath1183" d="M 0 4Q 0 0 4 0L 46.03873712494385 0Q 50.03873712494385 0 50.03873712494385 4L 50.03873712494385 27.159953970079528Q 50.03873712494385 31.159953970079528 46.03873712494385 31.159953970079528L 4 31.159953970079528Q 0 31.159953970079528 0 27.159953970079528Z" stroke="rgba(50,50,50,1)" stroke-width="2" fill-opacity="1" fill="#ffe0b2"></path><g id="SvgjsG1184"><text id="SvgjsText1185" font-family="微软雅黑" text-anchor="middle" font-size="13px" width="31px" fill="#323232" font-weight="700" align="middle" lineHeight="125%" anchor="middle" family="微软雅黑" size="13px" weight="700" font-style="" opacity="1" y="4.954976985039764" transform="rotate(0)"><tspan id="SvgjsTspan1186" dy="16" x="25.5"><tspan id="SvgjsTspan1187" style="text-decoration:;">d</tspan></tspan></text></g></g><g id="SvgjsG1188" transform="translate(331.7020089285713,249.47519299002658)"><path id="SvgjsPath1189" d="M 0 31.75356012658217L 55.392857142857146 31.75356012658217L 55.392857142857146 0L 100.71428571428572 48.11145473724571L 55.392857142857146 96.22290947449142L 55.392857142857146 64.46934934790926L 0 64.46934934790926L 0 31.75356012658217Z" stroke="rgba(50,50,50,1)" stroke-width="2" fill-opacity="1" fill="#1976d2"></path><g id="SvgjsG1190"><text id="SvgjsText1191" font-family="微软雅黑" text-anchor="middle" font-size="13px" width="101px" fill="#323232" font-weight="400" align="middle" lineHeight="125%" anchor="middle" family="微软雅黑" size="13px" weight="400" font-style="" opacity="1" y="37.48645473724571" transform="rotate(0)"></text></g></g><g id="SvgjsG1192" transform="translate(57.170828901703146,27.093391247465803)"><path id="SvgjsPath1193" d="M 0 0L 182.16364382743598 0L 182.16364382743598 45.057099019124195L 0 45.057099019124195Z" stroke="rgba(50,50,50,1)" stroke-width="2" fill-opacity="1" fill="#c8e6c9"></path><g id="SvgjsG1194"><text id="SvgjsText1195" font-family="微软雅黑" text-anchor="middle" font-size="16px" width="163px" fill="#323232" font-weight="700" align="middle" lineHeight="125%" anchor="middle" family="微软雅黑" size="16px" weight="700" font-style="" opacity="1" y="8.528549509562097" transform="rotate(0)"><tspan id="SvgjsTspan1196" dy="20" x="91.5"><tspan id="SvgjsTspan1197" style="text-decoration:;">瀑布流模式</tspan></tspan></text></g></g><g id="SvgjsG1198" transform="translate(828.0937838203465,25.007633123732887)"><path id="SvgjsPath1199" d="M 0 0L 201.64502164502176 0L 201.64502164502176 49.22861526659008L 0 49.22861526659008Z" stroke="rgba(50,50,50,1)" stroke-width="2" fill-opacity="1" fill="#c8e6c9"></path><g id="SvgjsG1200"><text id="SvgjsText1201" font-family="微软雅黑" text-anchor="middle" font-size="16px" width="182px" fill="#323232" font-weight="700" align="middle" lineHeight="125%" anchor="middle" family="微软雅黑" size="16px" weight="700" font-style="" opacity="1" y="10.614307633295041" transform="rotate(0)"><tspan id="SvgjsTspan1202" dy="20" x="101"><tspan id="SvgjsTspan1203" style="text-decoration:;">LiteFlow组件编排模式</tspan></tspan></text></g></g><g id="SvgjsG1204" transform="translate(1254.579304047247,386.1820307126559)"><path id="SvgjsPath1205" d="M 0 0L 52.336990595610814 0L 52.336990595610814 50.16647487533549L 0 50.16647487533549Z" stroke="rgba(50,50,50,1)" stroke-width="2" fill-opacity="1" fill="#1e3c53"></path><g id="SvgjsG1206"><text id="SvgjsText1207" font-family="微软雅黑" text-anchor="middle" font-size="13px" width="33px" fill="#323232" font-weight="400" align="middle" lineHeight="125%" anchor="middle" family="微软雅黑" size="13px" weight="400" font-style="" opacity="1" y="14.458237437667744" transform="rotate(0)"></text></g></g><g id="SvgjsG1208" transform="translate(1261.5018386725603,389.6599830909845)"><path id="SvgjsPath1209" d="M 0 4Q 0 0 4 0L 35.84866405651242 0Q 39.84866405651242 0 39.84866405651242 4L 39.84866405651242 3.6963908455884287Q 39.84866405651242 7.696390845588429 35.84866405651242 7.696390845588429L 4 7.696390845588429Q 0 7.696390845588429 0 3.6963908455884287Z" stroke="rgba(50,50,50,1)" stroke-width="2" fill-opacity="1" fill="#2196f3"></path><g id="SvgjsG1210"><text id="SvgjsText1211" font-family="微软雅黑" text-anchor="middle" font-size="13px" width="20px" fill="#323232" font-weight="400" align="middle" lineHeight="125%" anchor="middle" family="微软雅黑" size="13px" weight="400" font-style="" opacity="1" y="-6.776804577205786" transform="rotate(0)"></text></g></g><g id="SvgjsG1212" transform="translate(1269.64229494173,400.842924603485)"><path id="SvgjsPath1213" d="M 0 4Q 0 0 4 0L 27.029836431578506 0Q 31.029836431578506 0 31.029836431578506 4L 31.029836431578506 3.6963908455884287Q 31.029836431578506 7.696390845588429 27.029836431578506 7.696390845588429L 4 7.696390845588429Q 0 7.696390845588429 0 3.6963908455884287Z" stroke="rgba(50,50,50,1)" stroke-width="2" fill-opacity="1" fill="#2196f3"></path><g id="SvgjsG1214"><text id="SvgjsText1215" font-family="微软雅黑" text-anchor="middle" font-size="13px" width="12px" fill="#323232" font-weight="400" align="middle" lineHeight="125%" anchor="middle" family="微软雅黑" size="13px" weight="400" font-style="" opacity="1" y="-6.776804577205786" transform="rotate(0)"></text></g></g><g id="SvgjsG1216" transform="translate(1269.64229494173,412.92208086510345)"><path id="SvgjsPath1217" d="M 0 4Q 0 0 4 0L 18.2110088066444 0Q 22.2110088066444 0 22.2110088066444 4L 22.2110088066444 3.8693160829418316Q 22.2110088066444 7.869316082941832 18.2110088066444 7.869316082941832L 4 7.869316082941832Q 0 7.869316082941832 0 3.8693160829418316Z" stroke="rgba(50,50,50,1)" stroke-width="2" fill-opacity="1" fill="#2196f3"></path><g id="SvgjsG1218"><text id="SvgjsText1219" font-family="微软雅黑" text-anchor="middle" font-size="13px" width="3px" fill="#323232" font-weight="400" align="middle" lineHeight="125%" anchor="middle" family="微软雅黑" size="13px" weight="400" font-style="" opacity="1" y="-6.690341958529084" transform="rotate(0)"></text></g></g><g id="SvgjsG1220" transform="translate(1261.5018386725599,425.1741623640751)"><path id="SvgjsPath1221" d="M 0 4Q 0 0 4 0L 34.49192134498399 0Q 38.49192134498399 0 38.49192134498399 4L 38.49192134498399 3.6963908455884287Q 38.49192134498399 7.696390845588429 34.49192134498399 7.696390845588429L 4 7.696390845588429Q 0 7.696390845588429 0 3.6963908455884287Z" stroke="rgba(50,50,50,1)" stroke-width="2" fill-opacity="1" fill="#2196f3"></path><g id="SvgjsG1222"><text id="SvgjsText1223" font-family="微软雅黑" text-anchor="middle" font-size="13px" width="19px" fill="#323232" font-weight="400" align="middle" lineHeight="125%" anchor="middle" family="微软雅黑" size="13px" weight="400" font-style="" opacity="1" y="-6.776804577205786" transform="rotate(0)"></text></g></g><g id="SvgjsG1224" transform="translate(1254.579304047247,449.5054001246649)"><path id="SvgjsPath1225" d="M 0 0L 52.33699059561059 0L 52.33699059561059 49.99980820866875L 0 49.99980820866875Z" stroke="rgba(50,50,50,1)" stroke-width="2" fill-opacity="1" fill="#b2ebf2"></path><g id="SvgjsG1226"><text id="SvgjsText1227" font-family="微软雅黑" text-anchor="middle" font-size="13px" width="33px" fill="#323232" font-weight="400" align="middle" lineHeight="125%" anchor="middle" family="微软雅黑" size="13px" weight="400" font-style="" opacity="1" y="14.374904104334377" transform="rotate(0)"></text></g></g><g id="SvgjsG1228" transform="translate(1260.823467316796,452.43666826805884)"><path id="SvgjsPath1229" d="M 0 4Q 0 0 4 0L 35.84866405651224 0Q 39.84866405651224 0 39.84866405651224 4L 39.84866405651224 3.6708213430314673Q 39.84866405651224 7.670821343031467 35.84866405651224 7.670821343031467L 4 7.670821343031467Q 0 7.670821343031467 0 3.6708213430314673Z" stroke="rgba(50,50,50,1)" stroke-width="2" fill-opacity="1" fill="#e1bee7"></path><g id="SvgjsG1230"><text id="SvgjsText1231" font-family="微软雅黑" text-anchor="middle" font-size="13px" width="20px" fill="#323232" font-weight="400" align="middle" lineHeight="125%" anchor="middle" family="微软雅黑" size="13px" weight="400" font-style="" opacity="1" y="-6.789589328484267" transform="rotate(0)"></text></g></g><g id="SvgjsG1232" transform="translate(1269.64229494173,463.58245700891143)"><path id="SvgjsPath1233" d="M 0 4Q 0 0 4 0L 27.029836431578378 0Q 31.029836431578378 0 31.029836431578378 4L 31.029836431578378 3.6708213430314673Q 31.029836431578378 7.670821343031467 27.029836431578378 7.670821343031467L 4 7.670821343031467Q 0 7.670821343031467 0 3.6708213430314673Z" stroke="rgba(50,50,50,1)" stroke-width="2" fill-opacity="1" fill="#e1bee7"></path><g id="SvgjsG1234"><text id="SvgjsText1235" font-family="微软雅黑" text-anchor="middle" font-size="13px" width="12px" fill="#323232" font-weight="400" align="middle" lineHeight="125%" anchor="middle" family="微软雅黑" size="13px" weight="400" font-style="" opacity="1" y="-6.789589328484267" transform="rotate(0)"></text></g></g><g id="SvgjsG1236" transform="translate(1269.64229494173,476.6917420932516)"><path id="SvgjsPath1237" d="M 0 4Q 0 0 4 0L 18.211008806644305 0Q 22.211008806644305 0 22.211008806644305 4L 22.211008806644305 3.8431720757388126Q 22.211008806644305 7.843172075738813 18.211008806644305 7.843172075738813L 4 7.843172075738813Q 0 7.843172075738813 0 3.8431720757388126Z" stroke="rgba(50,50,50,1)" stroke-width="2" fill-opacity="1" fill="#e1bee7"></path><g id="SvgjsG1238"><text id="SvgjsText1239" font-family="微软雅黑" text-anchor="middle" font-size="13px" width="3px" fill="#323232" font-weight="400" align="middle" lineHeight="125%" anchor="middle" family="微软雅黑" size="13px" weight="400" font-style="" opacity="1" y="-6.703413962130593" transform="rotate(0)"></text></g></g><g id="SvgjsG1240" transform="translate(1261.5018386725603,488.903118846908)"><path id="SvgjsPath1241" d="M 0 4Q 0 0 4 0L 34.49192134498383 0Q 38.49192134498383 0 38.49192134498383 4L 38.49192134498383 3.6708213430314673Q 38.49192134498383 7.670821343031467 34.49192134498383 7.670821343031467L 4 7.670821343031467Q 0 7.670821343031467 0 3.6708213430314673Z" stroke="rgba(50,50,50,1)" stroke-width="2" fill-opacity="1" fill="#e1bee7"></path><g id="SvgjsG1242"><text id="SvgjsText1243" font-family="微软雅黑" text-anchor="middle" font-size="13px" width="19px" fill="#323232" font-weight="400" align="middle" lineHeight="125%" anchor="middle" family="微软雅黑" size="13px" weight="400" font-style="" opacity="1" y="-6.789589328484267" transform="rotate(0)"></text></g></g><g id="SvgjsG1244" transform="translate(1306.9162946428576,386.1820307126559)"><path id="SvgjsPath1245" d="M 0 0L 81 0L 81 50.16647487533548L 0 50.16647487533548Z" stroke="rgba(50,50,50,1)" stroke-width="2" fill-opacity="1" fill="#ffffff"></path><g id="SvgjsG1246"><text id="SvgjsText1247" font-family="微软雅黑" text-anchor="middle" font-size="13px" width="61px" fill="#323232" font-weight="400" align="middle" lineHeight="125%" anchor="middle" family="微软雅黑" size="13px" weight="400" font-style="" opacity="1" y="14.45823743766774" transform="rotate(0)"><tspan id="SvgjsTspan1248" dy="16" x="40.5"><tspan id="SvgjsTspan1249" style="text-decoration:;">Java组件</tspan></tspan></text></g></g><g id="SvgjsG1250" transform="translate(1306.9162946428576,449.4220667913314)"><path id="SvgjsPath1251" d="M 0 0L 81 0L 81 50.16647487533548L 0 50.16647487533548Z" stroke="rgba(50,50,50,1)" stroke-width="2" fill-opacity="1" fill="#ffffff"></path><g id="SvgjsG1252"><text id="SvgjsText1253" font-family="微软雅黑" text-anchor="middle" font-size="13px" width="61px" fill="#323232" font-weight="400" align="middle" lineHeight="125%" anchor="middle" family="微软雅黑" size="13px" weight="400" font-style="" opacity="1" y="14.45823743766774" transform="rotate(0)"><tspan id="SvgjsTspan1254" dy="16" x="40.5"><tspan id="SvgjsTspan1255" style="text-decoration:;">脚本组件</tspan></tspan></text></g></g></svg>