<svg id="SvgjsSvg1006" width="714" height="120" xmlns="http://www.w3.org/2000/svg" version="1.1" xmlns:xlink="http://www.w3.org/1999/xlink" xmlns:svgjs="http://svgjs.com/svgjs"><defs id="SvgjsDefs1007"><marker id="SvgjsMarker1016" markerWidth="16" markerHeight="12" refX="11" refY="6" viewBox="0 0 16 12" orient="auto" markerUnits="userSpaceOnUse" stroke-dasharray="0,0"><path id="SvgjsPath1017" d="M0,0 L16,6 L0,12 L0,0" fill="#323232" stroke="#323232" stroke-width="1"></path></marker><marker id="SvgjsMarker1032" markerWidth="16" markerHeight="12" refX="11" refY="6" viewBox="0 0 16 12" orient="auto" markerUnits="userSpaceOnUse" stroke-dasharray="0,0"><path id="SvgjsPath1033" d="M0,0 L16,6 L0,12 L0,0" fill="#323232" stroke="#323232" stroke-width="1"></path></marker><marker id="SvgjsMarker1042" markerWidth="16" markerHeight="12" refX="11" refY="6" viewBox="0 0 16 12" orient="auto" markerUnits="userSpaceOnUse" stroke-dasharray="0,0"><path id="SvgjsPath1043" d="M0,0 L16,6 L0,12 L0,0" fill="#323232" stroke="#323232" stroke-width="1"></path></marker></defs><g id="SvgjsG1008" transform="translate(25,25)"><path id="SvgjsPath1009" d="M 0 4Q 0 0 4 0L 96 0Q 100 0 100 4L 100 66Q 100 70 96 70L 4 70Q 0 70 0 66Z" stroke="none" fill-opacity="1" fill="#e01e5b"></path><g id="SvgjsG1010"><text id="SvgjsText1011" font-family="微软雅黑" text-anchor="middle" font-size="17px" width="80px" fill="#f5f5f5" font-weight="700" align="middle" lineHeight="125%" anchor="middle" family="微软雅黑" size="17px" weight="700" font-style="" opacity="1" y="20.375" transform="rotate(0)"><tspan id="SvgjsTspan1012" dy="21" x="50"><tspan id="SvgjsTspan1013" style="text-decoration:;">a</tspan></tspan></text></g></g><g id="SvgjsG1014"><path id="SvgjsPath1015" d="M125 60L169 60L169 60L209.10000000000002 60" stroke="#323232" stroke-width="3" fill="none" marker-end="url(#SvgjsMarker1016)"></path></g><g id="SvgjsG1018" transform="translate(213,25)"><path id="SvgjsPath1019" d="M 0 4Q 0 0 4 0L 96 0Q 100 0 100 4L 100 66Q 100 70 96 70L 4 70Q 0 70 0 66Z" stroke="none" fill-opacity="1" fill="#e01e5b"></path><g id="SvgjsG1020"><text id="SvgjsText1021" font-family="微软雅黑" text-anchor="middle" font-size="17px" width="80px" fill="#f5f5f5" font-weight="700" align="middle" lineHeight="125%" anchor="middle" family="微软雅黑" size="17px" weight="700" font-style="" opacity="1" y="20.375" transform="rotate(0)"><tspan id="SvgjsTspan1022" dy="21" x="50"><tspan id="SvgjsTspan1023" style="text-decoration:;">b</tspan></tspan></text></g></g><g id="SvgjsG1024" transform="translate(401,25)"><path id="SvgjsPath1025" d="M 0 4Q 0 0 4 0L 96 0Q 100 0 100 4L 100 66Q 100 70 96 70L 4 70Q 0 70 0 66Z" stroke="none" fill-opacity="1" fill="#e01e5b"></path><g id="SvgjsG1026"><text id="SvgjsText1027" font-family="微软雅黑" text-anchor="middle" font-size="17px" width="80px" fill="#f5f5f5" font-weight="700" align="middle" lineHeight="125%" anchor="middle" family="微软雅黑" size="17px" weight="700" font-style="" opacity="1" y="20.375" transform="rotate(0)"><tspan id="SvgjsTspan1028" dy="21" x="50"><tspan id="SvgjsTspan1029" style="text-decoration:;">c</tspan></tspan></text></g></g><g id="SvgjsG1030"><path id="SvgjsPath1031" d="M313 60L357 60L357 60L397.1 60" stroke="#323232" stroke-width="3" fill="none" marker-end="url(#SvgjsMarker1032)"></path></g><g id="SvgjsG1034" transform="translate(589,25)"><path id="SvgjsPath1035" d="M 0 4Q 0 0 4 0L 96 0Q 100 0 100 4L 100 66Q 100 70 96 70L 4 70Q 0 70 0 66Z" stroke="none" fill-opacity="1" fill="#e01e5b"></path><g id="SvgjsG1036"><text id="SvgjsText1037" font-family="微软雅黑" text-anchor="middle" font-size="17px" width="80px" fill="#f5f5f5" font-weight="700" align="middle" lineHeight="125%" anchor="middle" family="微软雅黑" size="17px" weight="700" font-style="" opacity="1" y="20.375" transform="rotate(0)"><tspan id="SvgjsTspan1038" dy="21" x="50"><tspan id="SvgjsTspan1039" style="text-decoration:;">d</tspan></tspan></text></g></g><g id="SvgjsG1040"><path id="SvgjsPath1041" d="M501 60L545 60L545 60L585.1 60" stroke="#323232" stroke-width="3" fill="none" marker-end="url(#SvgjsMarker1042)"></path></g></svg>