<svg id="SvgjsSvg1006" width="715" height="293" xmlns="http://www.w3.org/2000/svg" version="1.1" xmlns:xlink="http://www.w3.org/1999/xlink" xmlns:svgjs="http://svgjs.com/svgjs"><defs id="SvgjsDefs1007"><marker id="SvgjsMarker1022" markerWidth="16" markerHeight="12" refX="11" refY="6" viewBox="0 0 16 12" orient="auto" markerUnits="userSpaceOnUse" stroke-dasharray="0,0"><path id="SvgjsPath1023" d="M0,0 L16,6 L0,12 L0,0" fill="#323232" stroke="#323232" stroke-width="1"></path></marker><marker id="SvgjsMarker1030" markerWidth="16" markerHeight="12" refX="11" refY="6" viewBox="0 0 16 12" orient="auto" markerUnits="userSpaceOnUse" stroke-dasharray="0,0"><path id="SvgjsPath1031" d="M0,0 L16,6 L0,12 L0,0" fill="#323232" stroke="#323232" stroke-width="1"></path></marker><marker id="SvgjsMarker1044" markerWidth="16" markerHeight="12" refX="11" refY="6" viewBox="0 0 16 12" orient="auto" markerUnits="userSpaceOnUse" stroke-dasharray="0,0"><path id="SvgjsPath1045" d="M0,0 L16,6 L0,12 L0,0" fill="#323232" stroke="#323232" stroke-width="1"></path></marker><marker id="SvgjsMarker1054" markerWidth="16" markerHeight="12" refX="11" refY="6" viewBox="0 0 16 12" orient="auto" markerUnits="userSpaceOnUse" stroke-dasharray="0,0"><path id="SvgjsPath1055" d="M0,0 L16,6 L0,12 L0,0" fill="#323232" stroke="#323232" stroke-width="1"></path></marker></defs><g id="SvgjsG1008" transform="translate(25,121)"><path id="SvgjsPath1009" d="M 0 35L 50 0L 100 35L 50 70Z" stroke="none" fill-opacity="1" fill="#e01e5b"></path><g id="SvgjsG1010"><text id="SvgjsText1011" font-family="微软雅黑" text-anchor="middle" font-size="17px" width="80px" fill="#f5f5f5" font-weight="700" align="middle" lineHeight="125%" anchor="middle" family="微软雅黑" size="17px" weight="700" font-style="" opacity="1" y="20.725" transform="rotate(0)"><tspan id="SvgjsTspan1012" dy="21" x="50"><tspan id="SvgjsTspan1013" style="text-decoration:;">x</tspan></tspan></text></g></g><g id="SvgjsG1014" transform="translate(305,25)"><path id="SvgjsPath1015" d="M 0 4Q 0 0 4 0L 96 0Q 100 0 100 4L 100 66Q 100 70 96 70L 4 70Q 0 70 0 66Z" stroke="none" fill-opacity="1" fill="#e01e5b"></path><g id="SvgjsG1016"><text id="SvgjsText1017" font-family="微软雅黑" text-anchor="middle" font-size="17px" width="80px" fill="#f5f5f5" font-weight="700" align="middle" lineHeight="125%" anchor="middle" family="微软雅黑" size="17px" weight="700" font-style="" opacity="1" y="20.375" transform="rotate(0)"><tspan id="SvgjsTspan1018" dy="21" x="50"><tspan id="SvgjsTspan1019" style="text-decoration:;">a</tspan></tspan></text></g></g><g id="SvgjsG1020"><path id="SvgjsPath1021" d="M125 156L215 156L215 60L301.1 60" stroke="#323232" stroke-width="3" fill="none" marker-end="url(#SvgjsMarker1022)"></path><rect id="SvgjsRect1024" width="32" height="21" x="199" y="99.44999999999999" fill="#ffffff"></rect><text id="SvgjsText1025" font-family="微软雅黑" text-anchor="middle" font-size="17px" width="32px" fill="#000000" font-weight="700" align="top" lineHeight="21px" anchor="middle" family="微软雅黑" size="17px" weight="700" font-style="" opacity="1" y="95.32499999999999" transform="rotate(0)"><tspan id="SvgjsTspan1026" dy="21" x="215"><tspan id="SvgjsTspan1027" style="text-decoration:;">true</tspan></tspan></text></g><g id="SvgjsG1028"><path id="SvgjsPath1029" d="M125 156L215 156L215 233L301.1 233" stroke="#323232" stroke-width="3" fill="none" marker-end="url(#SvgjsMarker1030)"></path><rect id="SvgjsRect1032" width="39" height="21" x="195.5" y="182.05" fill="#ffffff"></rect><text id="SvgjsText1033" font-family="微软雅黑" text-anchor="middle" font-size="17px" width="39px" fill="#000000" font-weight="700" align="top" lineHeight="21px" anchor="middle" family="微软雅黑" size="17px" weight="700" font-style="" opacity="1" y="177.925" transform="rotate(0)"><tspan id="SvgjsTspan1034" dy="21" x="215"><tspan id="SvgjsTspan1035" style="text-decoration:;">false</tspan></tspan></text></g><g id="SvgjsG1036" transform="translate(590,121)"><path id="SvgjsPath1037" d="M 0 4Q 0 0 4 0L 96 0Q 100 0 100 4L 100 66Q 100 70 96 70L 4 70Q 0 70 0 66Z" stroke="none" fill-opacity="1" fill="#e01e5b"></path><g id="SvgjsG1038"><text id="SvgjsText1039" font-family="微软雅黑" text-anchor="middle" font-size="17px" width="80px" fill="#f5f5f5" font-weight="700" align="middle" lineHeight="125%" anchor="middle" family="微软雅黑" size="17px" weight="700" font-style="" opacity="1" y="20.375" transform="rotate(0)"><tspan id="SvgjsTspan1040" dy="21" x="50"><tspan id="SvgjsTspan1041" style="text-decoration:;">c</tspan></tspan></text></g></g><g id="SvgjsG1042"><path id="SvgjsPath1043" d="M405 60L497.5 60L497.5 156L586.0999999999999 156" stroke="#323232" stroke-width="3" fill="none" marker-end="url(#SvgjsMarker1044)"></path></g><g id="SvgjsG1046" transform="translate(305,198)"><path id="SvgjsPath1047" d="M 0 4Q 0 0 4 0L 96 0Q 100 0 100 4L 100 66Q 100 70 96 70L 4 70Q 0 70 0 66Z" stroke="none" fill-opacity="1" fill="#e01e5b"></path><g id="SvgjsG1048"><text id="SvgjsText1049" font-family="微软雅黑" text-anchor="middle" font-size="17px" width="80px" fill="#f5f5f5" font-weight="700" align="middle" lineHeight="125%" anchor="middle" family="微软雅黑" size="17px" weight="700" font-style="" opacity="1" y="20.375" transform="rotate(0)"><tspan id="SvgjsTspan1050" dy="21" x="50"><tspan id="SvgjsTspan1051" style="text-decoration:;">b</tspan></tspan></text></g></g><g id="SvgjsG1052"><path id="SvgjsPath1053" d="M405 233L497.5 233L497.5 156L586.0999999999999 156" stroke="#323232" stroke-width="3" fill="none" marker-end="url(#SvgjsMarker1054)"></path></g></svg>