<svg id="SvgjsSvg1006" width="553" height="332" xmlns="http://www.w3.org/2000/svg" version="1.1" xmlns:xlink="http://www.w3.org/1999/xlink" xmlns:svgjs="http://svgjs.com/svgjs"><defs id="SvgjsDefs1007"><marker id="SvgjsMarker1034" markerWidth="16" markerHeight="12" refX="11" refY="6" viewBox="0 0 16 12" orient="auto" markerUnits="userSpaceOnUse" stroke-dasharray="0,0"><path id="SvgjsPath1035" d="M0,0 L16,6 L0,12 L0,0" fill="#323232" stroke="#323232" stroke-width="1"></path></marker><marker id="SvgjsMarker1038" markerWidth="16" markerHeight="12" refX="11" refY="6" viewBox="0 0 16 12" orient="auto" markerUnits="userSpaceOnUse" stroke-dasharray="0,0"><path id="SvgjsPath1039" d="M0,0 L16,6 L0,12 L0,0" fill="#323232" stroke="#323232" stroke-width="1"></path></marker><marker id="SvgjsMarker1042" markerWidth="16" markerHeight="12" refX="11" refY="6" viewBox="0 0 16 12" orient="auto" markerUnits="userSpaceOnUse" stroke-dasharray="0,0"><path id="SvgjsPath1043" d="M0,0 L16,6 L0,12 L0,0" fill="#323232" stroke="#323232" stroke-width="1"></path></marker><marker id="SvgjsMarker1052" markerWidth="16" markerHeight="12" refX="11" refY="6" viewBox="0 0 16 12" orient="auto" markerUnits="userSpaceOnUse" stroke-dasharray="0,0"><path id="SvgjsPath1053" d="M0,0 L16,6 L0,12 L0,0" fill="#323232" stroke="#323232" stroke-width="1"></path></marker><marker id="SvgjsMarker1056" markerWidth="16" markerHeight="12" refX="11" refY="6" viewBox="0 0 16 12" orient="auto" markerUnits="userSpaceOnUse" stroke-dasharray="0,0"><path id="SvgjsPath1057" d="M0,0 L16,6 L0,12 L0,0" fill="#323232" stroke="#323232" stroke-width="1"></path></marker><marker id="SvgjsMarker1060" markerWidth="16" markerHeight="12" refX="11" refY="6" viewBox="0 0 16 12" orient="auto" markerUnits="userSpaceOnUse" stroke-dasharray="0,0"><path id="SvgjsPath1061" d="M0,0 L16,6 L0,12 L0,0" fill="#323232" stroke="#323232" stroke-width="1"></path></marker></defs><g id="SvgjsG1008" transform="translate(25,131)"><path id="SvgjsPath1009" d="M 0 4Q 0 0 4 0L 96 0Q 100 0 100 4L 100 66Q 100 70 96 70L 4 70Q 0 70 0 66Z" stroke="none" fill-opacity="1" fill="#e01e5b"></path><g id="SvgjsG1010"><text id="SvgjsText1011" font-family="微软雅黑" text-anchor="middle" font-size="17px" width="80px" fill="#f5f5f5" font-weight="700" align="middle" lineHeight="125%" anchor="middle" family="微软雅黑" size="17px" weight="700" font-style="" opacity="1" y="20.375" transform="rotate(0)"><tspan id="SvgjsTspan1012" dy="21" x="50"><tspan id="SvgjsTspan1013" style="text-decoration:;">a</tspan></tspan></text></g></g><g id="SvgjsG1014" transform="translate(229,131)"><path id="SvgjsPath1015" d="M 0 4Q 0 0 4 0L 96 0Q 100 0 100 4L 100 66Q 100 70 96 70L 4 70Q 0 70 0 66Z" stroke="none" fill-opacity="1" fill="#e01e5b"></path><g id="SvgjsG1016"><text id="SvgjsText1017" font-family="微软雅黑" text-anchor="middle" font-size="17px" width="80px" fill="#f5f5f5" font-weight="700" align="middle" lineHeight="125%" anchor="middle" family="微软雅黑" size="17px" weight="700" font-style="" opacity="1" y="20.375" transform="rotate(0)"><tspan id="SvgjsTspan1018" dy="21" x="50"><tspan id="SvgjsTspan1019" style="text-decoration:;">c</tspan></tspan></text></g></g><g id="SvgjsG1020" transform="translate(229,25)"><path id="SvgjsPath1021" d="M 0 4Q 0 0 4 0L 96 0Q 100 0 100 4L 100 66Q 100 70 96 70L 4 70Q 0 70 0 66Z" stroke="none" fill-opacity="1" fill="#e01e5b"></path><g id="SvgjsG1022"><text id="SvgjsText1023" font-family="微软雅黑" text-anchor="middle" font-size="17px" width="80px" fill="#f5f5f5" font-weight="700" align="middle" lineHeight="125%" anchor="middle" family="微软雅黑" size="17px" weight="700" font-style="" opacity="1" y="20.375" transform="rotate(0)"><tspan id="SvgjsTspan1024" dy="21" x="50"><tspan id="SvgjsTspan1025" style="text-decoration:;">b</tspan></tspan></text></g></g><g id="SvgjsG1026" transform="translate(229,237)"><path id="SvgjsPath1027" d="M 0 4Q 0 0 4 0L 96 0Q 100 0 100 4L 100 66Q 100 70 96 70L 4 70Q 0 70 0 66Z" stroke="none" fill-opacity="1" fill="#e01e5b"></path><g id="SvgjsG1028"><text id="SvgjsText1029" font-family="微软雅黑" text-anchor="middle" font-size="17px" width="80px" fill="#f5f5f5" font-weight="700" align="middle" lineHeight="125%" anchor="middle" family="微软雅黑" size="17px" weight="700" font-style="" opacity="1" y="20.375" transform="rotate(0)"><tspan id="SvgjsTspan1030" dy="21" x="50"><tspan id="SvgjsTspan1031" style="text-decoration:;">d</tspan></tspan></text></g></g><g id="SvgjsG1032"><path id="SvgjsPath1033" d="M125 166L177 166L177 60L225.10000000000002 60" stroke="#323232" stroke-width="3" fill="none" marker-end="url(#SvgjsMarker1034)"></path></g><g id="SvgjsG1036"><path id="SvgjsPath1037" d="M125 166L177 166L177 166L225.10000000000002 166" stroke="#323232" stroke-width="3" fill="none" marker-end="url(#SvgjsMarker1038)"></path></g><g id="SvgjsG1040"><path id="SvgjsPath1041" d="M125 166L177 166L177 272L225.10000000000002 272" stroke="#323232" stroke-width="3" fill="none" marker-end="url(#SvgjsMarker1042)"></path></g><g id="SvgjsG1044" transform="translate(428,131)"><path id="SvgjsPath1045" d="M 0 4Q 0 0 4 0L 96 0Q 100 0 100 4L 100 66Q 100 70 96 70L 4 70Q 0 70 0 66Z" stroke="none" fill-opacity="1" fill="#e01e5b"></path><g id="SvgjsG1046"><text id="SvgjsText1047" font-family="微软雅黑" text-anchor="middle" font-size="17px" width="80px" fill="#f5f5f5" font-weight="700" align="middle" lineHeight="125%" anchor="middle" family="微软雅黑" size="17px" weight="700" font-style="" opacity="1" y="20.375" transform="rotate(0)"><tspan id="SvgjsTspan1048" dy="21" x="50"><tspan id="SvgjsTspan1049" style="text-decoration:;">e</tspan></tspan></text></g></g><g id="SvgjsG1050"><path id="SvgjsPath1051" d="M329 60L378.5 60L378.5 166L424.0999999999999 166" stroke="#323232" stroke-width="3" fill="none" marker-end="url(#SvgjsMarker1052)"></path></g><g id="SvgjsG1054"><path id="SvgjsPath1055" d="M329 166L378.5 166L378.5 166L424.0999999999999 166" stroke="#323232" stroke-width="3" fill="none" marker-end="url(#SvgjsMarker1056)"></path></g><g id="SvgjsG1058"><path id="SvgjsPath1059" d="M329 272L378.5 272L378.5 166L424.0999999999999 166" stroke="#323232" stroke-width="3" fill="none" marker-end="url(#SvgjsMarker1060)"></path></g></svg>