<svg id="SvgjsSvg1068" width="917" height="294" xmlns="http://www.w3.org/2000/svg" version="1.1" xmlns:xlink="http://www.w3.org/1999/xlink" xmlns:svgjs="http://svgjs.com/svgjs"><defs id="SvgjsDefs1069"><marker id="SvgjsMarker1102" markerWidth="16" markerHeight="12" refX="11" refY="6" viewBox="0 0 16 12" orient="auto" markerUnits="userSpaceOnUse" stroke-dasharray="0,0"><path id="SvgjsPath1103" d="M0,0 L16,6 L0,12 L0,0" fill="#323232" stroke="#323232" stroke-width="1"></path></marker><marker id="SvgjsMarker1106" markerWidth="16" markerHeight="12" refX="11" refY="6" viewBox="0 0 16 12" orient="auto" markerUnits="userSpaceOnUse" stroke-dasharray="0,0"><path id="SvgjsPath1107" d="M0,0 L16,6 L0,12 L0,0" fill="#323232" stroke="#323232" stroke-width="1"></path></marker><marker id="SvgjsMarker1110" markerWidth="16" markerHeight="12" refX="11" refY="6" viewBox="0 0 16 12" orient="auto" markerUnits="userSpaceOnUse" stroke-dasharray="0,0"><path id="SvgjsPath1111" d="M0,0 L16,6 L0,12 L0,0" fill="#323232" stroke="#323232" stroke-width="1"></path></marker><marker id="SvgjsMarker1120" markerWidth="16" markerHeight="12" refX="11" refY="6" viewBox="0 0 16 12" orient="auto" markerUnits="userSpaceOnUse" stroke-dasharray="0,0"><path id="SvgjsPath1121" d="M0,0 L16,6 L0,12 L0,0" fill="#323232" stroke="#323232" stroke-width="1"></path></marker><marker id="SvgjsMarker1124" markerWidth="16" markerHeight="12" refX="11" refY="6" viewBox="0 0 16 12" orient="auto" markerUnits="userSpaceOnUse" stroke-dasharray="0,0"><path id="SvgjsPath1125" d="M0,0 L16,6 L0,12 L0,0" fill="#323232" stroke="#323232" stroke-width="1"></path></marker><marker id="SvgjsMarker1128" markerWidth="16" markerHeight="12" refX="11" refY="6" viewBox="0 0 16 12" orient="auto" markerUnits="userSpaceOnUse" stroke-dasharray="0,0"><path id="SvgjsPath1129" d="M0,0 L16,6 L0,12 L0,0" fill="#323232" stroke="#323232" stroke-width="1"></path></marker></defs><g id="SvgjsG1070" transform="translate(25,113)"><path id="SvgjsPath1071" d="M 0 4Q 0 0 4 0L 96 0Q 100 0 100 4L 100 66Q 100 70 96 70L 4 70Q 0 70 0 66Z" stroke="none" fill-opacity="1" fill="#e01e5b"></path><g id="SvgjsG1072"><text id="SvgjsText1073" font-family="微软雅黑" text-anchor="middle" font-size="17px" width="80px" fill="#f5f5f5" font-weight="700" align="middle" lineHeight="125%" anchor="middle" family="微软雅黑" size="17px" weight="700" font-style="" opacity="1" y="20.375" transform="rotate(0)"><tspan id="SvgjsTspan1074" dy="21" x="50"><tspan id="SvgjsTspan1075" style="text-decoration:;">a</tspan></tspan></text></g></g><g id="SvgjsG1076" transform="translate(214,108)"><path id="SvgjsPath1077" d="M 0 40L 60 0L 120 40L 60 80Z" stroke="none" fill-opacity="1" fill="#e01e5b"></path><g id="SvgjsG1078"><text id="SvgjsText1079" font-family="微软雅黑" text-anchor="middle" font-size="17px" width="100px" fill="#f5f5f5" font-weight="700" align="middle" lineHeight="125%" anchor="middle" family="微软雅黑" size="17px" weight="700" font-style="" opacity="1" y="25.775" transform="rotate(0)"><tspan id="SvgjsTspan1080" dy="21" x="60"><tspan id="SvgjsTspan1081" style="text-decoration:;">b</tspan></tspan></text></g></g><g id="SvgjsG1082" transform="translate(505,25)"><path id="SvgjsPath1083" d="M 0 4Q 0 0 4 0L 96 0Q 100 0 100 4L 100 66Q 100 70 96 70L 4 70Q 0 70 0 66Z" stroke="none" fill-opacity="1" fill="#e01e5b"></path><g id="SvgjsG1084"><text id="SvgjsText1085" font-family="微软雅黑" text-anchor="middle" font-size="17px" width="80px" fill="#f5f5f5" font-weight="700" align="middle" lineHeight="125%" anchor="middle" family="微软雅黑" size="17px" weight="700" font-style="" opacity="1" y="20.375" transform="rotate(0)"><tspan id="SvgjsTspan1086" dy="21" x="50"><tspan id="SvgjsTspan1087" style="text-decoration:;">c</tspan></tspan></text></g></g><g id="SvgjsG1088" transform="translate(416,199)"><path id="SvgjsPath1089" d="M 0 4Q 0 0 4 0L 96 0Q 100 0 100 4L 100 66Q 100 70 96 70L 4 70Q 0 70 0 66Z" stroke="none" fill-opacity="1" fill="#e01e5b"></path><g id="SvgjsG1090"><text id="SvgjsText1091" font-family="微软雅黑" text-anchor="middle" font-size="17px" width="80px" fill="#f5f5f5" font-weight="700" align="middle" lineHeight="125%" anchor="middle" family="微软雅黑" size="17px" weight="700" font-style="" opacity="1" y="20.375" transform="rotate(0)"><tspan id="SvgjsTspan1092" dy="21" x="50"><tspan id="SvgjsTspan1093" style="text-decoration:;">d</tspan></tspan></text></g></g><g id="SvgjsG1094" transform="translate(613,199)"><path id="SvgjsPath1095" d="M 0 4Q 0 0 4 0L 96 0Q 100 0 100 4L 100 66Q 100 70 96 70L 4 70Q 0 70 0 66Z" stroke="none" fill-opacity="1" fill="#e01e5b"></path><g id="SvgjsG1096"><text id="SvgjsText1097" font-family="微软雅黑" text-anchor="middle" font-size="17px" width="80px" fill="#f5f5f5" font-weight="700" align="middle" lineHeight="125%" anchor="middle" family="微软雅黑" size="17px" weight="700" font-style="" opacity="1" y="20.375" transform="rotate(0)"><tspan id="SvgjsTspan1098" dy="21" x="50"><tspan id="SvgjsTspan1099" style="text-decoration:;">e</tspan></tspan></text></g></g><g id="SvgjsG1100"><path id="SvgjsPath1101" d="M334 148L375.5 148L375.5 60L501.1 60" stroke="#323232" stroke-width="3" fill="none" marker-end="url(#SvgjsMarker1102)"></path></g><g id="SvgjsG1104"><path id="SvgjsPath1105" d="M334 148L375 148L375 234L412.1 234" stroke="#323232" stroke-width="3" fill="none" marker-end="url(#SvgjsMarker1106)"></path></g><g id="SvgjsG1108"><path id="SvgjsPath1109" d="M516 234L564.5 234L564.5 234L609.1 234" stroke="#323232" stroke-width="3" fill="none" marker-end="url(#SvgjsMarker1110)"></path></g><g id="SvgjsG1112" transform="translate(792,113)"><path id="SvgjsPath1113" d="M 0 4Q 0 0 4 0L 96 0Q 100 0 100 4L 100 66Q 100 70 96 70L 4 70Q 0 70 0 66Z" stroke="none" fill-opacity="1" fill="#e01e5b"></path><g id="SvgjsG1114"><text id="SvgjsText1115" font-family="微软雅黑" text-anchor="middle" font-size="17px" width="80px" fill="#f5f5f5" font-weight="700" align="middle" lineHeight="125%" anchor="middle" family="微软雅黑" size="17px" weight="700" font-style="" opacity="1" y="20.375" transform="rotate(0)"><tspan id="SvgjsTspan1116" dy="21" x="50"><tspan id="SvgjsTspan1117" style="text-decoration:;">f</tspan></tspan></text></g></g><g id="SvgjsG1118"><path id="SvgjsPath1119" d="M605 60L752.5 60L752.5 148L788.0999999999999 148" stroke="#323232" stroke-width="3" fill="none" marker-end="url(#SvgjsMarker1120)"></path></g><g id="SvgjsG1122"><path id="SvgjsPath1123" d="M713 234L752.5 234L752.5 148L788.0999999999999 148" stroke="#323232" stroke-width="3" fill="none" marker-end="url(#SvgjsMarker1124)"></path></g><g id="SvgjsG1126"><path id="SvgjsPath1127" d="M125 148L169.5 148L169.5 148L210.10000000000002 148" stroke="#323232" stroke-width="3" fill="none" marker-end="url(#SvgjsMarker1128)"></path></g></svg>