<svg id="SvgjsSvg1006" width="1027.5625" height="357.5390625" xmlns="http://www.w3.org/2000/svg" version="1.1" xmlns:xlink="http://www.w3.org/1999/xlink" xmlns:svgjs="http://svgjs.com/svgjs"><defs id="SvgjsDefs1007"><marker id="SvgjsMarker1016" markerWidth="16" markerHeight="12" refX="11" refY="6" viewBox="0 0 16 12" orient="auto" markerUnits="userSpaceOnUse" stroke-dasharray="0,0"><path id="SvgjsPath1017" d="M0,0 L16,6 L0,12 L0,0" fill="#323232" stroke="#323232" stroke-width="1"></path></marker><marker id="SvgjsMarker1032" markerWidth="16" markerHeight="12" refX="11" refY="6" viewBox="0 0 16 12" orient="auto" markerUnits="userSpaceOnUse" stroke-dasharray="0,0"><path id="SvgjsPath1033" d="M0,0 L16,6 L0,12 L0,0" fill="#323232" stroke="#323232" stroke-width="1"></path></marker><marker id="SvgjsMarker1042" markerWidth="16" markerHeight="12" refX="11" refY="6" viewBox="0 0 16 12" orient="auto" markerUnits="userSpaceOnUse" stroke-dasharray="0,0"><path id="SvgjsPath1043" d="M0,0 L16,6 L0,12 L0,0" fill="#323232" stroke="#323232" stroke-width="1"></path></marker><marker id="SvgjsMarker1052" markerWidth="16" markerHeight="12" refX="11" refY="6" viewBox="0 0 16 12" orient="auto" markerUnits="userSpaceOnUse" stroke-dasharray="0,0"><path id="SvgjsPath1053" d="M0,0 L16,6 L0,12 L0,0" fill="#323232" stroke="#323232" stroke-width="1"></path></marker><marker id="SvgjsMarker1062" markerWidth="16" markerHeight="12" refX="11" refY="6" viewBox="0 0 16 12" orient="auto" markerUnits="userSpaceOnUse" stroke-dasharray="0,0"><path id="SvgjsPath1063" d="M0,0 L16,6 L0,12 L0,0" fill="#323232" stroke="#323232" stroke-width="1"></path></marker><marker id="SvgjsMarker1080" markerWidth="16" markerHeight="12" refX="11" refY="6" viewBox="0 0 16 12" orient="auto" markerUnits="userSpaceOnUse" stroke-dasharray="0,0"><path id="SvgjsPath1081" d="M0,0 L16,6 L0,12 L0,0" fill="#323232" stroke="#323232" stroke-width="1"></path></marker><marker id="SvgjsMarker1084" markerWidth="16" markerHeight="12" refX="11" refY="6" viewBox="0 0 16 12" orient="auto" markerUnits="userSpaceOnUse" stroke-dasharray="0,0"><path id="SvgjsPath1085" d="M0,0 L16,6 L0,12 L0,0" fill="#323232" stroke="#323232" stroke-width="1"></path></marker><marker id="SvgjsMarker1100" markerWidth="16" markerHeight="12" refX="11" refY="6" viewBox="0 0 16 12" orient="auto" markerUnits="userSpaceOnUse" stroke-dasharray="0,0"><path id="SvgjsPath1101" d="M0,0 L16,6 L0,12 L0,0" fill="#323232" stroke="#323232" stroke-width="1"></path></marker><marker id="SvgjsMarker1104" markerWidth="16" markerHeight="12" refX="11" refY="6" viewBox="0 0 16 12" orient="auto" markerUnits="userSpaceOnUse" stroke-dasharray="0,0"><path id="SvgjsPath1105" d="M0,0 L16,6 L0,12 L0,0" fill="#323232" stroke="#323232" stroke-width="1"></path></marker><marker id="SvgjsMarker1108" markerWidth="16" markerHeight="12" refX="11" refY="6" viewBox="0 0 16 12" orient="auto" markerUnits="userSpaceOnUse" stroke-dasharray="0,0"><path id="SvgjsPath1109" d="M0,0 L16,6 L0,12 L0,0" fill="#323232" stroke="#323232" stroke-width="1"></path></marker><marker id="SvgjsMarker1124" markerWidth="16" markerHeight="12" refX="11" refY="6" viewBox="0 0 16 12" orient="auto" markerUnits="userSpaceOnUse" stroke-dasharray="0,0"><path id="SvgjsPath1125" d="M0,0 L16,6 L0,12 L0,0" fill="#323232" stroke="#323232" stroke-width="1"></path></marker><marker id="SvgjsMarker1128" markerWidth="16" markerHeight="12" refX="11" refY="6" viewBox="0 0 16 12" orient="auto" markerUnits="userSpaceOnUse" stroke-dasharray="0,0"><path id="SvgjsPath1129" d="M0,0 L16,6 L0,12 L0,0" fill="#323232" stroke="#323232" stroke-width="1"></path></marker><marker id="SvgjsMarker1144" markerWidth="16" markerHeight="12" refX="11" refY="6" viewBox="0 0 16 12" orient="auto" markerUnits="userSpaceOnUse" stroke-dasharray="0,0"><path id="SvgjsPath1145" d="M0,0 L16,6 L0,12 L0,0" fill="#323232" stroke="#323232" stroke-width="1"></path></marker><marker id="SvgjsMarker1154" markerWidth="16" markerHeight="12" refX="11" refY="6" viewBox="0 0 16 12" orient="auto" markerUnits="userSpaceOnUse" stroke-dasharray="0,0"><path id="SvgjsPath1155" d="M0,0 L16,6 L0,12 L0,0" fill="#323232" stroke="#323232" stroke-width="1"></path></marker><marker id="SvgjsMarker1164" markerWidth="16" markerHeight="12" refX="11" refY="6" viewBox="0 0 16 12" orient="auto" markerUnits="userSpaceOnUse" stroke-dasharray="0,0"><path id="SvgjsPath1165" d="M0,0 L16,6 L0,12 L0,0" fill="#323232" stroke="#323232" stroke-width="1"></path></marker><marker id="SvgjsMarker1182" markerWidth="16" markerHeight="12" refX="11" refY="6" viewBox="0 0 16 12" orient="auto" markerUnits="userSpaceOnUse" stroke-dasharray="0,0"><path id="SvgjsPath1183" d="M0,0 L16,6 L0,12 L0,0" fill="#323232" stroke="#323232" stroke-width="1"></path></marker><marker id="SvgjsMarker1186" markerWidth="16" markerHeight="12" refX="11" refY="6" viewBox="0 0 16 12" orient="auto" markerUnits="userSpaceOnUse" stroke-dasharray="0,0"><path id="SvgjsPath1187" d="M0,0 L16,6 L0,12 L0,0" fill="#323232" stroke="#323232" stroke-width="1"></path></marker><marker id="SvgjsMarker1190" markerWidth="16" markerHeight="12" refX="11" refY="6" viewBox="0 0 16 12" orient="auto" markerUnits="userSpaceOnUse" stroke-dasharray="0,0"><path id="SvgjsPath1191" d="M0,0 L16,6 L0,12 L0,0" fill="#323232" stroke="#323232" stroke-width="1"></path></marker></defs><g id="SvgjsG1008" transform="translate(25,155.84967320261438)"><path id="SvgjsPath1009" d="M 0 4Q 0 0 4 0L 52.43011081081046 0Q 56.43011081081046 0 56.43011081081046 4L 56.43011081081046 35.45620915032679Q 56.43011081081046 39.45620915032679 52.43011081081046 39.45620915032679L 4 39.45620915032679Q 0 39.45620915032679 0 35.45620915032679Z" stroke="none" fill-opacity="1" fill="#e01e5b"></path><g id="SvgjsG1010"><text id="SvgjsText1011" font-family="微软雅黑" text-anchor="middle" font-size="17px" width="37px" fill="#f5f5f5" font-weight="700" align="middle" lineHeight="125%" anchor="middle" family="微软雅黑" size="17px" weight="700" font-style="" opacity="1" y="5.103104575163396" transform="rotate(0)"><tspan id="SvgjsTspan1012" dy="21" x="28.5"><tspan id="SvgjsTspan1013" style="text-decoration:;">A</tspan></tspan></text></g></g><g id="SvgjsG1014"><path id="SvgjsPath1015" d="M81.4301108108105 175.57777777777778L101.27985340805412 175.57777777777778L101.27985340805412 175.57777777777778L117.22959600529782 175.57777777777778" stroke="#323232" stroke-width="3" fill="none" marker-end="url(#SvgjsMarker1016)"></path></g><g id="SvgjsG1018" transform="translate(121.1295960052978,155.84967320261438)"><path id="SvgjsPath1019" d="M 0 4Q 0 0 4 0L 52.43011081081046 0Q 56.43011081081046 0 56.43011081081046 4L 56.43011081081046 35.45620915032679Q 56.43011081081046 39.45620915032679 52.43011081081046 39.45620915032679L 4 39.45620915032679Q 0 39.45620915032679 0 35.45620915032679Z" stroke="none" fill-opacity="1" fill="#e01e5b"></path><g id="SvgjsG1020"><text id="SvgjsText1021" font-family="微软雅黑" text-anchor="middle" font-size="17px" width="37px" fill="#f5f5f5" font-weight="700" align="middle" lineHeight="125%" anchor="middle" family="微软雅黑" size="17px" weight="700" font-style="" opacity="1" y="5.103104575163396" transform="rotate(0)"><tspan id="SvgjsTspan1022" dy="21" x="28.5"><tspan id="SvgjsTspan1023" style="text-decoration:;">B</tspan></tspan></text></g></g><g id="SvgjsG1024" transform="translate(222.8808058120751,60.02745098039213)"><path id="SvgjsPath1025" d="M 0 4Q 0 0 4 0L 52.43011081081046 0Q 56.43011081081046 0 56.43011081081046 4L 56.43011081081046 35.45620915032679Q 56.43011081081046 39.45620915032679 52.43011081081046 39.45620915032679L 4 39.45620915032679Q 0 39.45620915032679 0 35.45620915032679Z" stroke="none" fill-opacity="1" fill="#e01e5b"></path><g id="SvgjsG1026"><text id="SvgjsText1027" font-family="微软雅黑" text-anchor="middle" font-size="17px" width="37px" fill="#f5f5f5" font-weight="700" align="middle" lineHeight="125%" anchor="middle" family="微软雅黑" size="17px" weight="700" font-style="" opacity="1" y="5.103104575163396" transform="rotate(0)"><tspan id="SvgjsTspan1028" dy="21" x="28.5"><tspan id="SvgjsTspan1029" style="text-decoration:;">C</tspan></tspan></text></g></g><g id="SvgjsG1030"><path id="SvgjsPath1031" d="M177.55970681610825 175.57777777777778L200.22025631409167 175.57777777777778L200.22025631409167 79.75555555555553L218.98080581207512 79.75555555555553" stroke="#323232" stroke-width="3" fill="none" marker-end="url(#SvgjsMarker1032)"></path></g><g id="SvgjsG1034" transform="translate(260.5456182819871,216.24183006535952)"><path id="SvgjsPath1035" d="M 0 4Q 0 0 4 0L 52.43011081081046 0Q 56.43011081081046 0 56.43011081081046 4L 56.43011081081046 35.45620915032679Q 56.43011081081046 39.45620915032679 52.43011081081046 39.45620915032679L 4 39.45620915032679Q 0 39.45620915032679 0 35.45620915032679Z" stroke="none" fill-opacity="1" fill="#e01e5b"></path><g id="SvgjsG1036"><text id="SvgjsText1037" font-family="微软雅黑" text-anchor="middle" font-size="17px" width="37px" fill="#f5f5f5" font-weight="700" align="middle" lineHeight="125%" anchor="middle" family="微软雅黑" size="17px" weight="700" font-style="" opacity="1" y="5.103104575163396" transform="rotate(0)"><tspan id="SvgjsTspan1038" dy="21" x="28.5"><tspan id="SvgjsTspan1039" style="text-decoration:;">H</tspan></tspan></text></g></g><g id="SvgjsG1040"><path id="SvgjsPath1041" d="M177.55970681610825 175.57777777777778L200.05266254904768 175.57777777777778L200.05266254904768 235.96993464052292L256.64561828198714 235.96993464052292" stroke="#323232" stroke-width="3" fill="none" marker-end="url(#SvgjsMarker1042)"></path></g><g id="SvgjsG1044" transform="translate(328.3118456081063,25)"><path id="SvgjsPath1045" d="M 0 4Q 0 0 4 0L 52.43011081081046 0Q 56.43011081081046 0 56.43011081081046 4L 56.43011081081046 35.45620915032679Q 56.43011081081046 39.45620915032679 52.43011081081046 39.45620915032679L 4 39.45620915032679Q 0 39.45620915032679 0 35.45620915032679Z" stroke="none" fill-opacity="1" fill="#e01e5b"></path><g id="SvgjsG1046"><text id="SvgjsText1047" font-family="微软雅黑" text-anchor="middle" font-size="17px" width="37px" fill="#f5f5f5" font-weight="700" align="middle" lineHeight="125%" anchor="middle" family="微软雅黑" size="17px" weight="700" font-style="" opacity="1" y="5.103104575163396" transform="rotate(0)"><tspan id="SvgjsTspan1048" dy="21" x="28.5"><tspan id="SvgjsTspan1049" style="text-decoration:;">J</tspan></tspan></text></g></g><g id="SvgjsG1050"><path id="SvgjsPath1051" d="M279.31091662288554 79.75555555555553L303.8113811154959 79.75555555555553L303.8113811154959 44.7281045751634L324.4118456081063 44.7281045751634" stroke="#323232" stroke-width="3" fill="none" marker-end="url(#SvgjsMarker1052)"></path></g><g id="SvgjsG1054" transform="translate(328.3118456081063,87.53425189895779)"><path id="SvgjsPath1055" d="M 0 4Q 0 0 4 0L 52.43011081081046 0Q 56.43011081081046 0 56.43011081081046 4L 56.43011081081046 35.45620915032679Q 56.43011081081046 39.45620915032679 52.43011081081046 39.45620915032679L 4 39.45620915032679Q 0 39.45620915032679 0 35.45620915032679Z" stroke="none" fill-opacity="1" fill="#e01e5b"></path><g id="SvgjsG1056"><text id="SvgjsText1057" font-family="微软雅黑" text-anchor="middle" font-size="17px" width="37px" fill="#f5f5f5" font-weight="700" align="middle" lineHeight="125%" anchor="middle" family="微软雅黑" size="17px" weight="700" font-style="" opacity="1" y="5.103104575163396" transform="rotate(0)"><tspan id="SvgjsTspan1058" dy="21" x="28.5"><tspan id="SvgjsTspan1059" style="text-decoration:;">K</tspan></tspan></text></g></g><g id="SvgjsG1060"><path id="SvgjsPath1061" d="M279.31091662288554 79.75555555555553L303.8113811154959 79.75555555555553L303.8113811154959 107.26235647412119L324.4118456081063 107.26235647412119" stroke="#323232" stroke-width="3" fill="none" marker-end="url(#SvgjsMarker1062)"></path></g><g id="SvgjsG1064" transform="translate(442.96698613999365,74.11895424836598)"><path id="SvgjsPath1065" d="M 0 5.636601307189543C 0 -1.8788671023965142 11.756273085585512 -1.8788671023965142 11.756273085585512 5.636601307189543C 11.756273085585512 13.1520697167756 0 13.1520697167756 0 5.636601307189543Z" stroke="none" fill-opacity="1" fill="#e01e5b"></path><g id="SvgjsG1066"><text id="SvgjsText1067" font-family="微软雅黑" text-anchor="middle" font-size="17px" width="0" fill="#f5f5f5" font-weight="700" align="middle" lineHeight="125%" anchor="middle" family="微软雅黑" size="17px" weight="700" font-style="" opacity="1" y="-8.988398692810456" transform="rotate(0)"></text></g></g><g id="SvgjsG1068"><path id="SvgjsPath1069" d="M384.74195641891674 44.7281045751634L413.8544712794552 44.7281045751634L413.8544712794552 79.75555555555547L442.96698613999365 79.75555555555547" stroke="#323232" stroke-width="3" fill="none"></path></g><g id="SvgjsG1070"><path id="SvgjsPath1071" d="M384.74195641891674 107.26235647412119L413.8544712794552 107.26235647412119L413.8544712794552 79.75555555555547L442.96698613999365 79.75555555555547" stroke="#323232" stroke-width="3" fill="none"></path></g><g id="SvgjsG1072" transform="translate(328.3118456081063,155.84967320261438)"><path id="SvgjsPath1073" d="M 0 4Q 0 0 4 0L 52.43011081081046 0Q 56.43011081081046 0 56.43011081081046 4L 56.43011081081046 35.45620915032679Q 56.43011081081046 39.45620915032679 52.43011081081046 39.45620915032679L 4 39.45620915032679Q 0 39.45620915032679 0 35.45620915032679Z" stroke="none" fill-opacity="1" fill="#e01e5b"></path><g id="SvgjsG1074"><text id="SvgjsText1075" font-family="微软雅黑" text-anchor="middle" font-size="17px" width="37px" fill="#f5f5f5" font-weight="700" align="middle" lineHeight="125%" anchor="middle" family="微软雅黑" size="17px" weight="700" font-style="" opacity="1" y="5.103104575163396" transform="rotate(0)"><tspan id="SvgjsTspan1076" dy="21" x="28.5"><tspan id="SvgjsTspan1077" style="text-decoration:;">D</tspan></tspan></text></g></g><g id="SvgjsG1078"><path id="SvgjsPath1079" d="M177.55970681610825 175.57777777777778L252.93577621210727 175.57777777777778L252.93577621210727 175.57777777777778L324.4118456081063 175.57777777777778" stroke="#323232" stroke-width="3" fill="none" marker-end="url(#SvgjsMarker1080)"></path></g><g id="SvgjsG1082"><path id="SvgjsPath1083" d="M316.97572909279756 235.96993464052292L357.48490241047807 235.96993464052292L357.48490241047807 235.96993464052292L394.0940757281585 235.96993464052292" stroke="#323232" stroke-width="3" fill="none" marker-end="url(#SvgjsMarker1084)"></path></g><g id="SvgjsG1086" transform="translate(397.99407572815846,216.24183006535952)"><path id="SvgjsPath1087" d="M 0 4Q 0 0 4 0L 52.43011081081046 0Q 56.43011081081046 0 56.43011081081046 4L 56.43011081081046 35.45620915032679Q 56.43011081081046 39.45620915032679 52.43011081081046 39.45620915032679L 4 39.45620915032679Q 0 39.45620915032679 0 35.45620915032679Z" stroke="none" fill-opacity="1" fill="#e01e5b"></path><g id="SvgjsG1088"><text id="SvgjsText1089" font-family="微软雅黑" text-anchor="middle" font-size="17px" width="37px" fill="#f5f5f5" font-weight="700" align="middle" lineHeight="125%" anchor="middle" family="微软雅黑" size="17px" weight="700" font-style="" opacity="1" y="5.103104575163396" transform="rotate(0)"><tspan id="SvgjsTspan1090" dy="21" x="28.5"><tspan id="SvgjsTspan1091" style="text-decoration:;">I</tspan></tspan></text></g></g><g id="SvgjsG1092" transform="translate(518.8587724599656,155.84967320261438)"><path id="SvgjsPath1093" d="M 0 19.728104575163396L 33.729682808876426 0L 67.45936561775285 19.728104575163396L 33.729682808876426 39.45620915032679Z" stroke="none" fill-opacity="1" fill="#e01e5b"></path><g id="SvgjsG1094"><text id="SvgjsText1095" font-family="微软雅黑" text-anchor="middle" font-size="17px" width="48px" fill="#f5f5f5" font-weight="700" align="middle" lineHeight="125%" anchor="middle" family="微软雅黑" size="17px" weight="700" font-style="" opacity="1" y="5.30038562091503" transform="rotate(0)"><tspan id="SvgjsTspan1096" dy="21" x="34"><tspan id="SvgjsTspan1097" style="text-decoration:;">X</tspan></tspan></text></g></g><g id="SvgjsG1098"><path id="SvgjsPath1099" d="M454.7232592255791 79.75555555555547L486.79101584277237 79.75555555555547L486.79101584277237 175.57777777777778L514.9587724599656 175.57777777777778" stroke="#323232" stroke-width="3" fill="none" marker-end="url(#SvgjsMarker1100)"></path></g><g id="SvgjsG1102"><path id="SvgjsPath1103" d="M384.74195641891674 175.57777777777778L451.8003644394412 175.57777777777778L451.8003644394412 175.57777777777778L514.9587724599656 175.57777777777778" stroke="#323232" stroke-width="3" fill="none" marker-end="url(#SvgjsMarker1104)"></path></g><g id="SvgjsG1106"><path id="SvgjsPath1107" d="M454.4241865389689 235.96993464052292L486.6414794994673 235.96993464052292L486.6414794994673 175.57777777777778L514.9587724599656 175.57777777777778" stroke="#323232" stroke-width="3" fill="none" marker-end="url(#SvgjsMarker1108)"></path></g><g id="SvgjsG1110" transform="translate(737.430148986482,60.02745098039213)"><path id="SvgjsPath1111" d="M 0 4Q 0 0 4 0L 52.43011081081046 0Q 56.43011081081046 0 56.43011081081046 4L 56.43011081081046 35.45620915032679Q 56.43011081081046 39.45620915032679 52.43011081081046 39.45620915032679L 4 39.45620915032679Q 0 39.45620915032679 0 35.45620915032679Z" stroke="none" fill-opacity="1" fill="#e01e5b"></path><g id="SvgjsG1112"><text id="SvgjsText1113" font-family="微软雅黑" text-anchor="middle" font-size="17px" width="37px" fill="#f5f5f5" font-weight="700" align="middle" lineHeight="125%" anchor="middle" family="微软雅黑" size="17px" weight="700" font-style="" opacity="1" y="5.103104575163396" transform="rotate(0)"><tspan id="SvgjsTspan1114" dy="21" x="28.5"><tspan id="SvgjsTspan1115" style="text-decoration:;">M</tspan></tspan></text></g></g><g id="SvgjsG1116" transform="translate(737.430148986482,155.84967320261438)"><path id="SvgjsPath1117" d="M 0 4Q 0 0 4 0L 52.43011081081046 0Q 56.43011081081046 0 56.43011081081046 4L 56.43011081081046 35.45620915032679Q 56.43011081081046 39.45620915032679 52.43011081081046 39.45620915032679L 4 39.45620915032679Q 0 39.45620915032679 0 35.45620915032679Z" stroke="none" fill-opacity="1" fill="#e01e5b"></path><g id="SvgjsG1118"><text id="SvgjsText1119" font-family="微软雅黑" text-anchor="middle" font-size="17px" width="37px" fill="#f5f5f5" font-weight="700" align="middle" lineHeight="125%" anchor="middle" family="微软雅黑" size="17px" weight="700" font-style="" opacity="1" y="5.103104575163396" transform="rotate(0)"><tspan id="SvgjsTspan1120" dy="21" x="28.5"><tspan id="SvgjsTspan1121" style="text-decoration:;">N</tspan></tspan></text></g></g><g id="SvgjsG1122"><path id="SvgjsPath1123" d="M586.3181380777183 175.57777777777778L615.8741435321004 175.57777777777778L615.8741435321004 79.75555555555553L733.5301489864819 79.75555555555553" stroke="#323232" stroke-width="3" fill="none" marker-end="url(#SvgjsMarker1124)"></path></g><g id="SvgjsG1126"><path id="SvgjsPath1127" d="M586.3181380777183 175.57777777777778L661.8741435321001 175.57777777777778L661.8741435321001 175.57777777777778L733.5301489864819 175.57777777777778" stroke="#323232" stroke-width="3" fill="none" marker-end="url(#SvgjsMarker1128)"></path></g><g id="SvgjsG1130" transform="translate(645.345082993252,276.2313725490195)"><path id="SvgjsPath1131" d="M 0 5.636601307189543C 0 -1.8788671023965142 11.756273085585512 -1.8788671023965142 11.756273085585512 5.636601307189543C 11.756273085585512 13.1520697167756 0 13.1520697167756 0 5.636601307189543Z" stroke="none" fill-opacity="1" fill="#e01e5b"></path><g id="SvgjsG1132"><text id="SvgjsText1133" font-family="微软雅黑" text-anchor="middle" font-size="17px" width="0" fill="#f5f5f5" font-weight="700" align="middle" lineHeight="125%" anchor="middle" family="微软雅黑" size="17px" weight="700" font-style="" opacity="1" y="-8.988398692810456" transform="rotate(0)"></text></g></g><g id="SvgjsG1134"><path id="SvgjsPath1135" d="M586.3181380777183 175.57777777777778L615.8316105354852 175.57777777777778L615.8316105354852 281.8679738562091L645.345082993252 281.8679738562091" stroke="#323232" stroke-width="3" fill="none"></path></g><g id="SvgjsG1136" transform="translate(737.430148986482,216.24183006535952)"><path id="SvgjsPath1137" d="M 0 4Q 0 0 4 0L 52.43011081081046 0Q 56.43011081081046 0 56.43011081081046 4L 56.43011081081046 35.45620915032679Q 56.43011081081046 39.45620915032679 52.43011081081046 39.45620915032679L 4 39.45620915032679Q 0 39.45620915032679 0 35.45620915032679Z" stroke="none" fill-opacity="1" fill="#e01e5b"></path><g id="SvgjsG1138"><text id="SvgjsText1139" font-family="微软雅黑" text-anchor="middle" font-size="17px" width="37px" fill="#f5f5f5" font-weight="700" align="middle" lineHeight="125%" anchor="middle" family="微软雅黑" size="17px" weight="700" font-style="" opacity="1" y="5.103104575163396" transform="rotate(0)"><tspan id="SvgjsTspan1140" dy="21" x="28.5"><tspan id="SvgjsTspan1141" style="text-decoration:;">Q</tspan></tspan></text></g></g><g id="SvgjsG1142"><path id="SvgjsPath1143" d="M657.1013560788376 281.8679738562091L676.5990858659914 281.8679738562091L676.5990858659914 235.96993464052292L733.5301489864819 235.96993464052292" stroke="#323232" stroke-width="3" fill="none" marker-end="url(#SvgjsMarker1144)"></path></g><g id="SvgjsG1146" transform="translate(696.2206878966408,293.5437908496732)"><path id="SvgjsPath1147" d="M 0 4Q 0 0 4 0L 52.43011081081046 0Q 56.43011081081046 0 56.43011081081046 4L 56.43011081081046 35.45620915032679Q 56.43011081081046 39.45620915032679 52.43011081081046 39.45620915032679L 4 39.45620915032679Q 0 39.45620915032679 0 35.45620915032679Z" stroke="none" fill-opacity="1" fill="#e01e5b"></path><g id="SvgjsG1148"><text id="SvgjsText1149" font-family="微软雅黑" text-anchor="middle" font-size="17px" width="37px" fill="#f5f5f5" font-weight="700" align="middle" lineHeight="125%" anchor="middle" family="微软雅黑" size="17px" weight="700" font-style="" opacity="1" y="5.103104575163396" transform="rotate(0)"><tspan id="SvgjsTspan1150" dy="21" x="28.5"><tspan id="SvgjsTspan1151" style="text-decoration:;">P</tspan></tspan></text></g></g><g id="SvgjsG1152"><path id="SvgjsPath1153" d="M657.1013560788376 281.8679738562091L676.6610219877393 281.8679738562091L676.6610219877393 313.27189542483666L692.3206878966407 313.27189542483666" stroke="#323232" stroke-width="3" fill="none" marker-end="url(#SvgjsMarker1154)"></path></g><g id="SvgjsG1156" transform="translate(782.2313790592757,293.5437908496732)"><path id="SvgjsPath1157" d="M 0 4Q 0 0 4 0L 52.43011081081046 0Q 56.43011081081046 0 56.43011081081046 4L 56.43011081081046 35.45620915032679Q 56.43011081081046 39.45620915032679 52.43011081081046 39.45620915032679L 4 39.45620915032679Q 0 39.45620915032679 0 35.45620915032679Z" stroke="none" fill-opacity="1" fill="#e01e5b"></path><g id="SvgjsG1158"><text id="SvgjsText1159" font-family="微软雅黑" text-anchor="middle" font-size="17px" width="37px" fill="#f5f5f5" font-weight="700" align="middle" lineHeight="125%" anchor="middle" family="微软雅黑" size="17px" weight="700" font-style="" opacity="1" y="5.103104575163396" transform="rotate(0)"><tspan id="SvgjsTspan1160" dy="21" x="28.5"><tspan id="SvgjsTspan1161" style="text-decoration:;">R</tspan></tspan></text></g></g><g id="SvgjsG1162"><path id="SvgjsPath1163" d="M752.6507987074513 313.27189542483666L767.4410888833636 313.27189542483666L767.4410888833636 313.27189542483666L778.3313790592756 313.27189542483666" stroke="#323232" stroke-width="3" fill="none" marker-end="url(#SvgjsMarker1164)"></path></g><g id="SvgjsG1166" transform="translate(884.7321373729158,276.2313725490195)"><path id="SvgjsPath1167" d="M 0 5.636601307189543C 0 -1.8788671023965142 11.756273085585512 -1.8788671023965142 11.756273085585512 5.636601307189543C 11.756273085585512 13.1520697167756 0 13.1520697167756 0 5.636601307189543Z" stroke="none" fill-opacity="1" fill="#e01e5b"></path><g id="SvgjsG1168"><text id="SvgjsText1169" font-family="微软雅黑" text-anchor="middle" font-size="17px" width="0" fill="#f5f5f5" font-weight="700" align="middle" lineHeight="125%" anchor="middle" family="微软雅黑" size="17px" weight="700" font-style="" opacity="1" y="-8.988398692810456" transform="rotate(0)"></text></g></g><g id="SvgjsG1170"><path id="SvgjsPath1171" d="M793.8602597972924 235.96993464052292L861.2961985851045 235.96993464052292L861.2961985851045 281.8679738562091L884.7321373729158 281.8679738562091" stroke="#323232" stroke-width="3" fill="none"></path></g><g id="SvgjsG1172"><path id="SvgjsPath1173" d="M838.6614898700861 313.27189542483666L861.696813621501 313.27189542483666L861.696813621501 281.8679738562091L884.7321373729158 281.8679738562091" stroke="#323232" stroke-width="3" fill="none"></path></g><g id="SvgjsG1174" transform="translate(946.5698891891896,155.84967320261438)"><path id="SvgjsPath1175" d="M 0 4Q 0 0 4 0L 52.43011081081046 0Q 56.43011081081046 0 56.43011081081046 4L 56.43011081081046 35.45620915032679Q 56.43011081081046 39.45620915032679 52.43011081081046 39.45620915032679L 4 39.45620915032679Q 0 39.45620915032679 0 35.45620915032679Z" stroke="none" fill-opacity="1" fill="#e01e5b"></path><g id="SvgjsG1176"><text id="SvgjsText1177" font-family="微软雅黑" text-anchor="middle" font-size="17px" width="37px" fill="#f5f5f5" font-weight="700" align="middle" lineHeight="125%" anchor="middle" family="微软雅黑" size="17px" weight="700" font-style="" opacity="1" y="5.103104575163396" transform="rotate(0)"><tspan id="SvgjsTspan1178" dy="21" x="28.5"><tspan id="SvgjsTspan1179" style="text-decoration:;">Z</tspan></tspan></text></g></g><g id="SvgjsG1180"><path id="SvgjsPath1181" d="M793.8602597972924 79.75555555555553L921.5484078265752 79.75555555555553L921.5484078265752 175.57777777777773L942.6698891891895 175.57777777777773" stroke="#323232" stroke-width="3" fill="none" marker-end="url(#SvgjsMarker1182)"></path></g><g id="SvgjsG1184"><path id="SvgjsPath1185" d="M793.8602597972924 175.57777777777773L870.215074493241 175.57777777777773L870.215074493241 175.57777777777773L942.6698891891895 175.57777777777773" stroke="#323232" stroke-width="3" fill="none" marker-end="url(#SvgjsMarker1186)"></path></g><g id="SvgjsG1188"><path id="SvgjsPath1189" d="M896.4884104585014 281.8679738562091L921.5291498238455 281.8679738562091L921.5291498238455 175.57777777777773L942.6698891891895 175.57777777777773" stroke="#323232" stroke-width="3" fill="none" marker-end="url(#SvgjsMarker1190)"></path></g></svg>