<svg id="SvgjsSvg1000" xmlns="http://www.w3.org/2000/svg" version="1.1" xmlns:xlink="http://www.w3.org/1999/xlink" xmlns:svgjs="http://svgjs.com/svgjs" width="883.15625" height="757"><defs id="SvgjsDefs1001"><marker id="SvgjsMarker1041" markerWidth="14" markerHeight="10" refX="10" refY="5" viewBox="0 0 14 10" orient="auto" markerUnits="userSpaceOnUse" stroke-dasharray="0,0"><path id="SvgjsPath1042" d="M0 0L14 5L0 10L0 0 " fill="#ce365c" stroke="#ce365c" stroke-width="1"></path></marker><marker id="SvgjsMarker1145" markerWidth="14" markerHeight="10" refX="10" refY="5" viewBox="0 0 14 10" orient="auto" markerUnits="userSpaceOnUse" stroke-dasharray="0,0"><path id="SvgjsPath1146" d="M0 0L14 5L0 10L0 0 " fill="#ce365c" stroke="#ce365c" stroke-width="1"></path></marker><marker id="SvgjsMarker1163" markerWidth="14" markerHeight="10" refX="10" refY="5" viewBox="0 0 14 10" orient="auto" markerUnits="userSpaceOnUse" stroke-dasharray="0,0"><path id="SvgjsPath1164" d="M0 0L14 5L0 10L0 0 " fill="#ce365c" stroke="#ce365c" stroke-width="1"></path></marker><marker id="SvgjsMarker1181" markerWidth="14" markerHeight="10" refX="10" refY="5" viewBox="0 0 14 10" orient="auto" markerUnits="userSpaceOnUse" stroke-dasharray="0,0"><path id="SvgjsPath1182" d="M0 0L14 5L0 10L0 0 " fill="#ce365c" stroke="#ce365c" stroke-width="1"></path></marker><marker id="SvgjsMarker1227" markerWidth="14" markerHeight="10" refX="4" refY="5" viewBox="0 0 14 10" orient="auto" markerUnits="userSpaceOnUse" stroke-dasharray="0,0"><path id="SvgjsPath1228" d="M14 0L0 5L14 10L14 0 " fill="#ce365c" stroke="#ce365c" stroke-width="1"></path></marker><marker id="SvgjsMarker1229" markerWidth="14" markerHeight="10" refX="10" refY="5" viewBox="0 0 14 10" orient="auto" markerUnits="userSpaceOnUse" stroke-dasharray="0,0"><path id="SvgjsPath1230" d="M0 0L14 5L0 10L0 0 " fill="#ce365c" stroke="#ce365c" stroke-width="1"></path></marker><marker id="SvgjsMarker1257" markerWidth="14" markerHeight="10" refX="10" refY="5" viewBox="0 0 14 10" orient="auto" markerUnits="userSpaceOnUse" stroke-dasharray="0,0"><path id="SvgjsPath1258" d="M0 0L14 5L0 10L0 0 " fill="#ce365c" stroke="#ce365c" stroke-width="1"></path></marker></defs><g id="SvgjsG1007" transform="translate(24.999999999999318,25.010723039215463)"><path id="SvgjsPath1008" d="M0 4Q0 0 4 0L828.8333333333342 0Q832.8333333333342 0 832.8333333333342 4L832.8333333333342 702.8174019607845Q832.8333333333342 706.8174019607845 828.8333333333342 706.8174019607845L4 706.8174019607845Q0 706.8174019607845 0 702.8174019607845Z " stroke="none" fill-opacity="1" fill="#22272e"></path><g id="SvgjsG1009"><text id="SvgjsText1010" font-family="微软雅黑" text-anchor="middle" font-size="13px" width="813px" fill="#323232" font-weight="400" align="middle" lineHeight="125%" font-style="" opacity="1" y="342.78370098039227" transform="rotate(0)"></text></g></g><g id="SvgjsG1011" transform="translate(25,176.8599877450988)"><path id="SvgjsPath1012" d="M0 4Q0 0 4 0L828.8333333333328 0Q832.8333333333328 0 832.8333333333328 4L832.8333333333328 146.4681372549012Q832.8333333333328 150.4681372549012 828.8333333333328 150.4681372549012L4 150.4681372549012Q0 150.4681372549012 0 146.4681372549012Z " stroke="none" fill-opacity="1" fill="#ce365c"></path><g id="SvgjsG1013"><text id="SvgjsText1014" font-family="微软雅黑" text-anchor="middle" font-size="13px" width="813px" fill="#ffffff" font-weight="700" align="top" lineHeight="125%" font-style="" opacity="1" y="-2.625" transform="rotate(0)"><tspan id="SvgjsTspan1015" dy="16" x="416.5"><tspan id="SvgjsTspan1016" style="text-decoration:;">Parser</tspan></tspan></text></g></g><g id="SvgjsG1017" transform="translate(71.75000000000011,216.02665441176373)"><path id="SvgjsPath1018" d="M0 4Q0 0 4 0L180.83333333333334 0Q184.83333333333334 0 184.83333333333334 4L184.83333333333334 28.134803921569528Q184.83333333333334 32.13480392156953 180.83333333333334 32.13480392156953L4 32.13480392156953Q0 32.13480392156953 0 28.134803921569528Z " stroke="rgba(255,255,255,1)" stroke-width="2" fill-opacity="1" fill="#ce365c"></path><g id="SvgjsG1019"><text id="SvgjsText1020" font-family="微软雅黑" text-anchor="middle" font-size="13px" width="165px" fill="#ffffff" font-weight="700" align="middle" lineHeight="125%" font-style="" opacity="1" y="5.442401960784764" transform="rotate(0)"><tspan id="SvgjsTspan1021" dy="16" x="92.5"><tspan id="SvgjsTspan1022" style="text-decoration:;">Xml Parser</tspan></tspan></text></g></g><g id="SvgjsG1023" transform="translate(25.16666666666663,51.82812499999977)"><path id="SvgjsPath1024" d="M0 0L832.6666666666669 0L832.6666666666669 82.00000000000023L0 82.00000000000023Z " stroke="none" fill-opacity="1" fill="#5f5e67"></path><g id="SvgjsG1025"><text id="SvgjsText1026" font-family="微软雅黑" text-anchor="middle" font-size="13px" width="813px" fill="#ffffff" font-weight="400" align="middle" lineHeight="125%" font-style="" opacity="1" y="14.375000000000114" transform="rotate(0)"><tspan id="SvgjsTspan1027" dy="16" x="416.5"><tspan id="SvgjsTspan1028" style="text-decoration:;">Local File / Remote File / MySql / MongoDB / Redis / ZK / Nacos / Etcd / Remote Url / ...</tspan></tspan><tspan id="SvgjsTspan1029" dy="16" x="416.5"><tspan id="SvgjsTspan1030" style="text-decoration:;"> </tspan></tspan><tspan id="SvgjsTspan1031" dy="16" x="416.5"><tspan id="SvgjsTspan1032" style="text-decoration:;font-weight: bold;"> It can be extended to any storage mode</tspan></tspan></text></g></g><g id="SvgjsG1033" transform="translate(25,25.010723039215463)"><path id="SvgjsPath1034" d="M0 4Q0 0 4 0L828.8333333333328 0Q832.8333333333328 0 832.8333333333328 4L832.8333333333328 32.31740196078454Q832.8333333333328 36.31740196078454 828.8333333333328 36.31740196078454L4 36.31740196078454Q0 36.31740196078454 0 32.31740196078454Z " stroke="none" fill-opacity="1" fill="#464352"></path><g id="SvgjsG1035"><text id="SvgjsText1036" font-family="微软雅黑" text-anchor="middle" font-size="13px" width="813px" fill="#ffffff" font-weight="700" align="middle" lineHeight="125%" font-style="" opacity="1" y="7.533700980392268" transform="rotate(0)"><tspan id="SvgjsTspan1037" dy="16" x="416.5"><tspan id="SvgjsTspan1038" style="text-decoration:;">Storage</tspan></tspan></text></g></g><g id="SvgjsG1039"><path id="SvgjsPath1040" d="M441.5 133.828125L441.5 155.3440563725494L441.4166666666664 155.3440563725494L441.4166666666664 174.25998774509878 " stroke="#ce365c" stroke-width="2" fill="none" marker-end="url(#SvgjsMarker1041)"></path></g><g id="SvgjsG1043" transform="translate(49.83333333333326,277.3281250000009)"><path id="SvgjsPath1044" d="M0 0L67.33333333333346 0L67.33333333333346 22.86519607843138L0 22.86519607843138Z " stroke="rgba(255,255,255,1)" stroke-width="2" fill-opacity="1" fill="#ce365c"></path><g id="SvgjsG1045"><text id="SvgjsText1046" font-family="微软雅黑" text-anchor="middle" font-size="13px" width="48px" fill="#323232" font-weight="400" align="middle" lineHeight="125%" font-style="" opacity="1" y="0.8075980392156907" transform="rotate(0)"><tspan id="SvgjsTspan1047" dy="16" x="34"><tspan id="SvgjsTspan1048" style="text-decoration:;fill: rgb(255, 255, 255);">Local</tspan></tspan></text></g></g><g id="SvgjsG1049" transform="translate(130.5000000000001,277.3281250000009)"><path id="SvgjsPath1050" d="M0 0L67.33333333333346 0L67.33333333333346 22.86519607843138L0 22.86519607843138Z " stroke="rgba(255,255,255,1)" stroke-width="2" fill-opacity="1" fill="#ce365c"></path><g id="SvgjsG1051"><text id="SvgjsText1052" font-family="微软雅黑" text-anchor="middle" font-size="13px" width="48px" fill="#323232" font-weight="400" align="middle" lineHeight="125%" font-style="" opacity="1" y="0.8075980392156907" transform="rotate(0)"><tspan id="SvgjsTspan1053" dy="16" x="34"><tspan id="SvgjsTspan1054" style="text-decoration:;fill: rgb(255, 255, 255);">ZK</tspan></tspan></text></g></g><g id="SvgjsG1055" transform="translate(211.1666666666672,277.3281250000009)"><path id="SvgjsPath1056" d="M0 0L67.33333333333346 0L67.33333333333346 22.86519607843138L0 22.86519607843138Z " stroke="rgba(255,255,255,1)" stroke-width="2" fill-opacity="1" fill="#ce365c"></path><g id="SvgjsG1057"><text id="SvgjsText1058" font-family="微软雅黑" text-anchor="middle" font-size="13px" width="48px" fill="#323232" font-weight="400" align="middle" lineHeight="125%" font-style="" opacity="1" y="0.8075980392156907" transform="rotate(0)"><tspan id="SvgjsTspan1059" dy="16" x="34"><tspan id="SvgjsTspan1060" style="text-decoration:;fill: rgb(255, 255, 255);">Custom</tspan></tspan></text></g></g><g id="SvgjsG1061"><path id="SvgjsPath1062" d="M164.16666666666697 249.16145833333348L164.16666666666697 262.74479166666697L83.5 262.74479166666697L83.5 276.3281250000009 " stroke="#ffffff" stroke-width="2" fill="none"></path></g><g id="SvgjsG1063"><path id="SvgjsPath1064" d="M164.16666666666697 249.16145833333348L164.16666666666697 262.74479166666697L164.16666666666686 262.74479166666697L164.16666666666686 276.3281250000009 " stroke="#ffffff" stroke-width="2" fill="none"></path></g><g id="SvgjsG1065"><path id="SvgjsPath1066" d="M164.16666666666674 249.16145833333348L164.16666666666674 262.74479166666697L244.83333333333394 262.74479166666697L244.83333333333394 276.3281250000009 " stroke="#ffffff" stroke-width="2" fill="none"></path></g><g id="SvgjsG1067" transform="translate(348.99999999999966,216.02665441176373)"><path id="SvgjsPath1068" d="M0 4Q0 0 4 0L180.83333333333334 0Q184.83333333333334 0 184.83333333333334 4L184.83333333333334 28.134803921569528Q184.83333333333334 32.13480392156953 180.83333333333334 32.13480392156953L4 32.13480392156953Q0 32.13480392156953 0 28.134803921569528Z " stroke="rgba(255,255,255,1)" stroke-width="2" fill-opacity="1" fill="#ce365c"></path><g id="SvgjsG1069"><text id="SvgjsText1070" font-family="微软雅黑" text-anchor="middle" font-size="13px" width="165px" fill="#ffffff" font-weight="700" align="middle" lineHeight="125%" font-style="" opacity="1" y="5.442401960784764" transform="rotate(0)"><tspan id="SvgjsTspan1071" dy="16" x="92.5"><tspan id="SvgjsTspan1072" style="text-decoration:;">Json Parser</tspan></tspan></text></g></g><g id="SvgjsG1073" transform="translate(327.0833333333328,277.3281250000009)"><path id="SvgjsPath1074" d="M0 0L67.33333333333346 0L67.33333333333346 22.86519607843138L0 22.86519607843138Z " stroke="rgba(255,255,255,1)" stroke-width="2" fill-opacity="1" fill="#ce365c"></path><g id="SvgjsG1075"><text id="SvgjsText1076" font-family="微软雅黑" text-anchor="middle" font-size="13px" width="48px" fill="#323232" font-weight="400" align="middle" lineHeight="125%" font-style="" opacity="1" y="0.8075980392156907" transform="rotate(0)"><tspan id="SvgjsTspan1077" dy="16" x="34"><tspan id="SvgjsTspan1078" style="text-decoration:;fill: rgb(255, 255, 255);">Local</tspan></tspan></text></g></g><g id="SvgjsG1079" transform="translate(407.74999999999966,277.3281250000009)"><path id="SvgjsPath1080" d="M0 0L67.33333333333346 0L67.33333333333346 22.86519607843138L0 22.86519607843138Z " stroke="rgba(255,255,255,1)" stroke-width="2" fill-opacity="1" fill="#ce365c"></path><g id="SvgjsG1081"><text id="SvgjsText1082" font-family="微软雅黑" text-anchor="middle" font-size="13px" width="48px" fill="#323232" font-weight="400" align="middle" lineHeight="125%" font-style="" opacity="1" y="0.8075980392156907" transform="rotate(0)"><tspan id="SvgjsTspan1083" dy="16" x="34"><tspan id="SvgjsTspan1084" style="text-decoration:;fill: rgb(255, 255, 255);">ZK</tspan></tspan></text></g></g><g id="SvgjsG1085" transform="translate(488.4166666666673,277.3281250000009)"><path id="SvgjsPath1086" d="M0 0L67.33333333333346 0L67.33333333333346 22.86519607843138L0 22.86519607843138Z " stroke="rgba(255,255,255,1)" stroke-width="2" fill-opacity="1" fill="#ce365c"></path><g id="SvgjsG1087"><text id="SvgjsText1088" font-family="微软雅黑" text-anchor="middle" font-size="13px" width="48px" fill="#323232" font-weight="400" align="middle" lineHeight="125%" font-style="" opacity="1" y="0.8075980392156907" transform="rotate(0)"><tspan id="SvgjsTspan1089" dy="16" x="34"><tspan id="SvgjsTspan1090" style="text-decoration:;fill: rgb(255, 255, 255);">Custom</tspan></tspan></text></g></g><g id="SvgjsG1091"><path id="SvgjsPath1092" d="M441.41666666666674 249.16145833333348L441.41666666666674 262.74479166666697L360.74999999999955 262.74479166666697L360.74999999999955 276.3281250000009 " stroke="#ffffff" stroke-width="2" fill="none"></path></g><g id="SvgjsG1093"><path id="SvgjsPath1094" d="M441.41666666666674 249.16145833333348L441.41666666666674 262.74479166666697L441.41666666666663 262.74479166666697L441.41666666666663 276.3281250000009 " stroke="#ffffff" stroke-width="2" fill="none"></path></g><g id="SvgjsG1095"><path id="SvgjsPath1096" d="M441.41666666666663 249.16145833333348L441.41666666666663 262.74479166666697L522.0833333333344 262.74479166666697L522.0833333333344 276.3281250000009 " stroke="#ffffff" stroke-width="2" fill="none"></path></g><g id="SvgjsG1097" transform="translate(626.2499999999991,216.02665441176316)"><path id="SvgjsPath1098" d="M0 4Q0 0 4 0L180.83333333333334 0Q184.83333333333334 0 184.83333333333334 4L184.83333333333334 28.134803921569528Q184.83333333333334 32.13480392156953 180.83333333333334 32.13480392156953L4 32.13480392156953Q0 32.13480392156953 0 28.134803921569528Z " stroke="rgba(255,255,255,1)" stroke-width="2" fill-opacity="1" fill="#ce365c"></path><g id="SvgjsG1099"><text id="SvgjsText1100" font-family="微软雅黑" text-anchor="middle" font-size="13px" width="165px" fill="#ffffff" font-weight="700" align="middle" lineHeight="125%" font-style="" opacity="1" y="5.442401960784764" transform="rotate(0)"><tspan id="SvgjsTspan1101" dy="16" x="92.5"><tspan id="SvgjsTspan1102" style="text-decoration:;">Yaml Parser</tspan></tspan></text></g></g><g id="SvgjsG1103" transform="translate(604.3333333333321,277.32812500000045)"><path id="SvgjsPath1104" d="M0 0L67.33333333333346 0L67.33333333333346 22.86519607843138L0 22.86519607843138Z " stroke="rgba(255,255,255,1)" stroke-width="2" fill-opacity="1" fill="#ce365c"></path><g id="SvgjsG1105"><text id="SvgjsText1106" font-family="微软雅黑" text-anchor="middle" font-size="13px" width="48px" fill="#323232" font-weight="400" align="middle" lineHeight="125%" font-style="" opacity="1" y="0.8075980392156907" transform="rotate(0)"><tspan id="SvgjsTspan1107" dy="16" x="34"><tspan id="SvgjsTspan1108" style="text-decoration:;fill: rgb(255, 255, 255);">Local</tspan></tspan></text></g></g><g id="SvgjsG1109" transform="translate(684.9999999999989,277.32812500000045)"><path id="SvgjsPath1110" d="M0 0L67.33333333333346 0L67.33333333333346 22.86519607843138L0 22.86519607843138Z " stroke="rgba(255,255,255,1)" stroke-width="2" fill-opacity="1" fill="#ce365c"></path><g id="SvgjsG1111"><text id="SvgjsText1112" font-family="微软雅黑" text-anchor="middle" font-size="13px" width="48px" fill="#323232" font-weight="400" align="middle" lineHeight="125%" font-style="" opacity="1" y="0.8075980392156907" transform="rotate(0)"><tspan id="SvgjsTspan1113" dy="16" x="34"><tspan id="SvgjsTspan1114" style="text-decoration:;fill: rgb(255, 255, 255);">ZK</tspan></tspan></text></g></g><g id="SvgjsG1115" transform="translate(765.6666666666661,277.32812500000045)"><path id="SvgjsPath1116" d="M0 0L67.33333333333346 0L67.33333333333346 22.86519607843138L0 22.86519607843138Z " stroke="rgba(255,255,255,1)" stroke-width="2" fill-opacity="1" fill="#ce365c"></path><g id="SvgjsG1117"><text id="SvgjsText1118" font-family="微软雅黑" text-anchor="middle" font-size="13px" width="48px" fill="#323232" font-weight="400" align="middle" lineHeight="125%" font-style="" opacity="1" y="0.8075980392156907" transform="rotate(0)"><tspan id="SvgjsTspan1119" dy="16" x="34"><tspan id="SvgjsTspan1120" style="text-decoration:;fill: rgb(255, 255, 255);">Custom</tspan></tspan></text></g></g><g id="SvgjsG1121"><path id="SvgjsPath1122" d="M718.6666666666656 249.16145833333258L718.6666666666656 262.7447916666665L637.9999999999989 262.7447916666665L637.9999999999989 276.32812500000045 " stroke="#ffffff" stroke-width="2" fill="none"></path></g><g id="SvgjsG1123"><path id="SvgjsPath1124" d="M718.6666666666656 249.16145833333258L718.6666666666656 262.7447916666665L718.6666666666656 262.7447916666665L718.6666666666656 276.32812500000045 " stroke="#ffffff" stroke-width="2" fill="none"></path></g><g id="SvgjsG1125"><path id="SvgjsPath1126" d="M718.6666666666656 249.16145833333258L718.6666666666656 262.7447916666665L799.3333333333328 262.7447916666665L799.3333333333328 276.32812500000045 " stroke="#ffffff" stroke-width="2" fill="none"></path></g><g id="SvgjsG1127" transform="translate(25,373.19332107843275)"><path id="SvgjsPath1128" d="M0 4Q0 0 4 0L227.58333333333343 0Q231.58333333333343 0 231.58333333333343 4L231.58333333333343 46.801470588235134Q231.58333333333343 50.801470588235134 227.58333333333343 50.801470588235134L4 50.801470588235134Q0 50.801470588235134 0 46.801470588235134Z " stroke="none" fill-opacity="1" fill="#ce365c"></path><g id="SvgjsG1129"><text id="SvgjsText1130" font-family="微软雅黑" text-anchor="middle" font-size="13px" width="212px" fill="#ffffff" font-weight="700" align="middle" lineHeight="125%" font-style="" opacity="1" y="6.775735294117567" transform="rotate(0)"><tspan id="SvgjsTspan1131" dy="16" x="116"><tspan id="SvgjsTspan1132" style="text-decoration:;">FlowBus</tspan></tspan><tspan id="SvgjsTspan1133" dy="16" x="116"><tspan id="SvgjsTspan1134" style="text-decoration:;">Chain Meta Info</tspan></tspan></text></g></g><g id="SvgjsG1135" transform="translate(311.16666666666674,373.1933210784332)"><path id="SvgjsPath1136" d="M0 4Q0 0 4 0L542.6666666666667 0Q546.6666666666667 0 546.6666666666667 4L546.6666666666667 46.80147058823468Q546.6666666666667 50.80147058823468 542.6666666666667 50.80147058823468L4 50.80147058823468Q0 50.80147058823468 0 46.80147058823468Z " stroke="none" fill-opacity="1" fill="#ce365c"></path><g id="SvgjsG1137"><text id="SvgjsText1138" font-family="微软雅黑" text-anchor="middle" font-size="13px" width="527px" fill="#ffffff" font-weight="700" align="middle" lineHeight="125%" font-style="" opacity="1" y="6.775735294117339" transform="rotate(0)"><tspan id="SvgjsTspan1139" dy="16" x="273.5"><tspan id="SvgjsTspan1140" style="text-decoration:;">DataBus</tspan></tspan><tspan id="SvgjsTspan1141" dy="16" x="273.5"><tspan id="SvgjsTspan1142" style="text-decoration:;">Slot Manager</tspan></tspan></text></g></g><g id="SvgjsG1143"><path id="SvgjsPath1144" d="M441.4166666666664 327.328125L441.4166666666664 350.2607230392164L140.79166666666674 350.2607230392164L140.79166666666674 370.5933210784327 " stroke="#ce365c" stroke-width="2" fill="none" marker-end="url(#SvgjsMarker1145)"></path></g><g id="SvgjsG1147" transform="translate(246.6666666666663,340.2607230392168)"><path id="SvgjsPath1148" d="M0 0L102.33333333333348 0L102.33333333333348 20L0 20Z " stroke="none" fill="none"></path><g id="SvgjsG1149"><text id="SvgjsText1150" font-family="微软雅黑" text-anchor="middle" font-size="13px" width="103px" fill="#ffffff" font-weight="700" align="middle" lineHeight="125%" font-style="" opacity="1" y="-0.625" transform="rotate(0)"><tspan id="SvgjsTspan1151" dy="16" x="51.5"><tspan id="SvgjsTspan1152" style="text-decoration:;">ADD</tspan></tspan></text></g></g><g id="SvgjsG1153" transform="translate(311.16666666666674,469.828125)"><path id="SvgjsPath1154" d="M0 4Q0 0 4 0L542.6666666666667 0Q546.6666666666667 0 546.6666666666667 4L546.6666666666667 47Q546.6666666666667 51 542.6666666666667 51L4 51Q0 51 0 47Z " stroke="none" fill-opacity="1" fill="#ce365c"></path><g id="SvgjsG1155"><text id="SvgjsText1156" font-family="微软雅黑" text-anchor="middle" font-size="13px" width="527px" fill="#ffffff" font-weight="700" align="middle" lineHeight="125%" font-style="" opacity="1" y="6.875" transform="rotate(0)"><tspan id="SvgjsTspan1157" dy="16" x="273.5"><tspan id="SvgjsTspan1158" style="text-decoration:;">Slot</tspan></tspan><tspan id="SvgjsTspan1159" dy="16" x="273.5"><tspan id="SvgjsTspan1160" style="text-decoration:;">Chain Request Context</tspan></tspan></text></g></g><g id="SvgjsG1161"><path id="SvgjsPath1162" d="M584.5000000000002 423.9947916666679L584.5000000000002 446.91145833333394L584.5000000000001 446.91145833333394L584.5000000000001 467.2281250000001 " stroke="#ce365c" stroke-width="2" fill="none" marker-end="url(#SvgjsMarker1163)"></path></g><g id="SvgjsG1165" transform="translate(528.3333333333334,431.36979166666606)"><path id="SvgjsPath1166" d="M0 0L102.33333333333348 0L102.33333333333348 20L0 20Z " stroke="none" fill="none"></path><g id="SvgjsG1167"><text id="SvgjsText1168" font-family="微软雅黑" text-anchor="middle" font-size="13px" width="103px" fill="#ffffff" font-weight="700" align="middle" lineHeight="125%" font-style="" opacity="1" y="-0.625" transform="rotate(0)"><tspan id="SvgjsTspan1169" dy="16" x="51.5"><tspan id="SvgjsTspan1170" style="text-decoration:;">Generate</tspan></tspan></text></g></g><g id="SvgjsG1171" transform="translate(25,469.42738970588243)"><path id="SvgjsPath1172" d="M0 4Q0 0 4 0L227.58333333333346 0Q231.58333333333346 0 231.58333333333346 4L231.58333333333346 258.40073529411757Q231.58333333333346 262.40073529411757 227.58333333333346 262.40073529411757L4 262.40073529411757Q0 262.40073529411757 0 258.40073529411757Z " stroke="none" fill-opacity="1" fill="#ce365c"></path><g id="SvgjsG1173"><text id="SvgjsText1174" font-family="微软雅黑" text-anchor="middle" font-size="13px" width="212px" fill="#ffffff" font-weight="700" align="middle" lineHeight="125%" font-style="" opacity="1" y="112.57536764705878" transform="rotate(0)"><tspan id="SvgjsTspan1175" dy="16" x="116"><tspan id="SvgjsTspan1176" style="text-decoration:;">FlowExecutor</tspan></tspan><tspan id="SvgjsTspan1177" dy="16" x="116"><tspan id="SvgjsTspan1178" style="text-decoration:;">Main Executor</tspan></tspan></text></g></g><g id="SvgjsG1179"><path id="SvgjsPath1180" d="M140.79166666666674 469.42738970588243L140.79166666666674 446.7110906862754L140.79166666666674 446.7110906862754L140.79166666666674 426.5947916666679 " stroke="#ce365c" stroke-width="2" fill="none" marker-end="url(#SvgjsMarker1181)"></path></g><g id="SvgjsG1183" transform="translate(93.58333333333326,441.36979166666606)"><path id="SvgjsPath1184" d="M0 0L102.33333333333348 0L102.33333333333348 20L0 20Z " stroke="none" fill="none"></path><g id="SvgjsG1185"><text id="SvgjsText1186" font-family="微软雅黑" text-anchor="middle" font-size="13px" width="103px" fill="#ffffff" font-weight="700" align="middle" lineHeight="125%" font-style="" opacity="1" y="-0.625" transform="rotate(0)"><tspan id="SvgjsTspan1187" dy="16" x="51.5"><tspan id="SvgjsTspan1188" style="text-decoration:;">Get Chain</tspan></tspan></text></g></g><g id="SvgjsG1189" transform="translate(311.33333333333337,582.828125)"><path id="SvgjsPath1190" d="M0 0L546.3333333333335 0L546.3333333333335 149L0 149Z " stroke="none" fill-opacity="1" fill="#ce365c"></path><g id="SvgjsG1191"><text id="SvgjsText1192" font-family="微软雅黑" text-anchor="middle" font-size="13px" width="527px" fill="#ffffff" font-weight="400" align="middle" lineHeight="125%" font-style="" opacity="1" y="63.875" transform="rotate(0)"><tspan id="SvgjsTspan1193" dy="16" x="273.5"><tspan id="SvgjsTspan1194" style="text-decoration:;"> </tspan></tspan></text></g></g><g id="SvgjsG1195" transform="translate(311.16666666666674,560.828125)"><path id="SvgjsPath1196" d="M0 4Q0 0 4 0L542.6666666666667 0Q546.6666666666667 0 546.6666666666667 4L546.6666666666667 26.29166666666697Q546.6666666666667 30.29166666666697 542.6666666666667 30.29166666666697L4 30.29166666666697Q0 30.29166666666697 0 26.29166666666697Z " stroke="none" fill-opacity="1" fill="#464352"></path><g id="SvgjsG1197"><text id="SvgjsText1198" font-family="微软雅黑" text-anchor="middle" font-size="13px" width="527px" fill="#ffffff" font-weight="700" align="middle" lineHeight="125%" font-style="" opacity="1" y="4.520833333333485" transform="rotate(0)"><tspan id="SvgjsTspan1199" dy="16" x="273.5"><tspan id="SvgjsTspan1200" style="text-decoration:;">Chain</tspan></tspan></text></g></g><g id="SvgjsG1201" transform="translate(335.16666666666674,606.3955269607832)"><path id="SvgjsPath1202" d="M0 4Q0 0 4 0L125 0Q129 0 129 4L129 21Q129 25 125 25L4 25Q0 25 0 21Z " stroke="rgba(255,255,255,1)" stroke-width="2" fill-opacity="1" fill="#ce365c"></path><g id="SvgjsG1203"><text id="SvgjsText1204" font-family="微软雅黑" text-anchor="middle" font-size="13px" width="109px" fill="#ffffff" font-weight="400" align="middle" lineHeight="125%" font-style="" opacity="1" y="1.875" transform="rotate(0)"><tspan id="SvgjsTspan1205" dy="16" x="64.5"><tspan id="SvgjsTspan1206" style="text-decoration:;font-weight: bold;">Component1</tspan></tspan></text></g></g><g id="SvgjsG1207" transform="translate(520.0000000000001,606.3955269607832)"><path id="SvgjsPath1208" d="M0 4Q0 0 4 0L125 0Q129 0 129 4L129 21Q129 25 125 25L4 25Q0 25 0 21Z " stroke="rgba(255,255,255,1)" stroke-width="2" fill-opacity="1" fill="#ce365c"></path><g id="SvgjsG1209"><text id="SvgjsText1210" font-family="微软雅黑" text-anchor="middle" font-size="13px" width="109px" fill="#ffffff" font-weight="400" align="middle" lineHeight="125%" font-style="" opacity="1" y="1.875" transform="rotate(0)"><tspan id="SvgjsTspan1211" dy="16" x="64.5"><tspan id="SvgjsTspan1212" style="text-decoration:;font-weight: bold;">Component2</tspan></tspan></text></g></g><g id="SvgjsG1213" transform="translate(697.2499999999995,606.3955269607832)"><path id="SvgjsPath1214" d="M0 4Q0 0 4 0L125 0Q129 0 129 4L129 21Q129 25 125 25L4 25Q0 25 0 21Z " stroke="rgba(255,255,255,1)" stroke-width="2" fill-opacity="1" fill="#ce365c"></path><g id="SvgjsG1215"><text id="SvgjsText1216" font-family="微软雅黑" text-anchor="middle" font-size="13px" width="109px" fill="#ffffff" font-weight="400" align="middle" lineHeight="125%" font-style="" opacity="1" y="1.875" transform="rotate(0)"><tspan id="SvgjsTspan1217" dy="16" x="64.5"><tspan id="SvgjsTspan1218" style="text-decoration:;font-weight: bold;">Component3</tspan></tspan></text></g></g><g id="SvgjsG1219" transform="translate(524.5000000000001,681.3955269607832)"><path id="SvgjsPath1220" d="M0 0L120 0L120 40L0 40Z " stroke="none" fill="none"></path><g id="SvgjsG1221"><text id="SvgjsText1222" font-family="微软雅黑" text-anchor="middle" font-size="32px" width="120px" fill="#323232" font-weight="400" align="middle" lineHeight="125%" font-style="" opacity="1" y="-8" transform="rotate(0)"><tspan id="SvgjsTspan1223" dy="40" x="60"><tspan id="SvgjsTspan1224" style="text-decoration:;font-weight: bold;fill: rgb(255, 255, 255);">......</tspan></tspan></text></g></g><g id="SvgjsG1225"><path id="SvgjsPath1226" d="M584.5000000000001 558.2281250000001L584.5000000000001 540.828125L584.5000000000001 540.828125L584.5000000000001 523.4281249999999 " stroke="#ce365c" stroke-width="2" fill="none" marker-start="url(#SvgjsMarker1227)" marker-end="url(#SvgjsMarker1229)"></path></g><g id="SvgjsG1231" transform="translate(533.3333333333334,529.328125)"><path id="SvgjsPath1232" d="M0 0L102.33333333333348 0L102.33333333333348 20L0 20Z " stroke="none" fill="none"></path><g id="SvgjsG1233"><text id="SvgjsText1234" font-family="微软雅黑" text-anchor="middle" font-size="13px" width="103px" fill="#ffffff" font-weight="700" align="middle" lineHeight="125%" font-style="" opacity="1" y="-0.625" transform="rotate(0)"><tspan id="SvgjsTspan1235" dy="16" x="51.5"><tspan id="SvgjsTspan1236" style="text-decoration:;">Exchange Data</tspan></tspan></text></g></g><g id="SvgjsG1237" transform="translate(335.16666666666674,657.3955269607832)"><path id="SvgjsPath1238" d="M0 4Q0 0 4 0L125 0Q129 0 129 4L129 21Q129 25 125 25L4 25Q0 25 0 21Z " stroke="rgba(255,255,255,1)" stroke-width="2" fill-opacity="1" fill="#ce365c"></path><g id="SvgjsG1239"><text id="SvgjsText1240" font-family="微软雅黑" text-anchor="middle" font-size="13px" width="109px" fill="#ffffff" font-weight="400" align="middle" lineHeight="125%" font-style="" opacity="1" y="1.875" transform="rotate(0)"><tspan id="SvgjsTspan1241" dy="16" x="64.5"><tspan id="SvgjsTspan1242" style="text-decoration:;font-weight: bold;">Component4</tspan></tspan></text></g></g><g id="SvgjsG1243" transform="translate(520.0000000000001,657.3955269607832)"><path id="SvgjsPath1244" d="M0 4Q0 0 4 0L125 0Q129 0 129 4L129 21Q129 25 125 25L4 25Q0 25 0 21Z " stroke="rgba(255,255,255,1)" stroke-width="2" fill-opacity="1" fill="#ce365c"></path><g id="SvgjsG1245"><text id="SvgjsText1246" font-family="微软雅黑" text-anchor="middle" font-size="13px" width="109px" fill="#ffffff" font-weight="400" align="middle" lineHeight="125%" font-style="" opacity="1" y="1.875" transform="rotate(0)"><tspan id="SvgjsTspan1247" dy="16" x="64.5"><tspan id="SvgjsTspan1248" style="text-decoration:;font-weight: bold;">Component5</tspan></tspan></text></g></g><g id="SvgjsG1249" transform="translate(697.2499999999995,657.3955269607832)"><path id="SvgjsPath1250" d="M0 4Q0 0 4 0L125 0Q129 0 129 4L129 21Q129 25 125 25L4 25Q0 25 0 21Z " stroke="rgba(255,255,255,1)" stroke-width="2" fill-opacity="1" fill="#ce365c"></path><g id="SvgjsG1251"><text id="SvgjsText1252" font-family="微软雅黑" text-anchor="middle" font-size="13px" width="109px" fill="#ffffff" font-weight="400" align="middle" lineHeight="125%" font-style="" opacity="1" y="1.875" transform="rotate(0)"><tspan id="SvgjsTspan1253" dy="16" x="64.5"><tspan id="SvgjsTspan1254" style="text-decoration:;font-weight: bold;">Component6</tspan></tspan></text></g></g><g id="SvgjsG1255"><path id="SvgjsPath1256" d="M256.26101832521476 651.828125L284.21384249594075 651.828125L284.21384249594075 651.828125L309.5666666666667 651.828125 " stroke="#ce365c" stroke-width="2" fill="none" marker-end="url(#SvgjsMarker1257)"></path></g><g id="SvgjsG1259" transform="translate(232.50000000000068,626.1933210784327)"><path id="SvgjsPath1260" d="M0 0L102.33333333333348 0L102.33333333333348 20L0 20Z " stroke="none" fill="none"></path><g id="SvgjsG1261"><text id="SvgjsText1262" font-family="微软雅黑" text-anchor="middle" font-size="13px" width="103px" fill="#ffffff" font-weight="700" align="middle" lineHeight="125%" font-style="" opacity="1" y="-0.625" transform="rotate(0)"><tspan id="SvgjsTspan1263" dy="16" x="51.5"><tspan id="SvgjsTspan1264" style="text-decoration:;">Execute</tspan></tspan></text></g></g></svg>