<svg id="SvgjsSvg1000" xmlns="http://www.w3.org/2000/svg" version="1.1" xmlns:xlink="http://www.w3.org/1999/xlink" xmlns:svgjs="http://svgjs.com/svgjs" width="883.15625" height="756.828125"><defs id="SvgjsDefs1001"><marker id="SvgjsMarker1037" markerWidth="14" markerHeight="10" refX="10" refY="5" viewBox="0 0 14 10" orient="auto" markerUnits="userSpaceOnUse" stroke-dasharray="0,0"><path id="SvgjsPath1038" d="M0 0L14 5L0 10L0 0 " fill="#9e9e9e" stroke="#9e9e9e" stroke-width="1"></path></marker><marker id="SvgjsMarker1141" markerWidth="14" markerHeight="10" refX="10" refY="5" viewBox="0 0 14 10" orient="auto" markerUnits="userSpaceOnUse" stroke-dasharray="0,0"><path id="SvgjsPath1142" d="M0 0L14 5L0 10L0 0 " fill="#9e9e9e" stroke="#9e9e9e" stroke-width="1"></path></marker><marker id="SvgjsMarker1159" markerWidth="14" markerHeight="10" refX="10" refY="5" viewBox="0 0 14 10" orient="auto" markerUnits="userSpaceOnUse" stroke-dasharray="0,0"><path id="SvgjsPath1160" d="M0 0L14 5L0 10L0 0 " fill="#9e9e9e" stroke="#9e9e9e" stroke-width="1"></path></marker><marker id="SvgjsMarker1177" markerWidth="14" markerHeight="10" refX="10" refY="5" viewBox="0 0 14 10" orient="auto" markerUnits="userSpaceOnUse" stroke-dasharray="0,0"><path id="SvgjsPath1178" d="M0 0L14 5L0 10L0 0 " fill="#9e9e9e" stroke="#9e9e9e" stroke-width="1"></path></marker><marker id="SvgjsMarker1223" markerWidth="14" markerHeight="10" refX="4" refY="5" viewBox="0 0 14 10" orient="auto" markerUnits="userSpaceOnUse" stroke-dasharray="0,0"><path id="SvgjsPath1224" d="M14 0L0 5L14 10L14 0 " fill="#9e9e9e" stroke="#9e9e9e" stroke-width="1"></path></marker><marker id="SvgjsMarker1225" markerWidth="14" markerHeight="10" refX="10" refY="5" viewBox="0 0 14 10" orient="auto" markerUnits="userSpaceOnUse" stroke-dasharray="0,0"><path id="SvgjsPath1226" d="M0 0L14 5L0 10L0 0 " fill="#9e9e9e" stroke="#9e9e9e" stroke-width="1"></path></marker><marker id="SvgjsMarker1253" markerWidth="14" markerHeight="10" refX="10" refY="5" viewBox="0 0 14 10" orient="auto" markerUnits="userSpaceOnUse" stroke-dasharray="0,0"><path id="SvgjsPath1254" d="M0 0L14 5L0 10L0 0 " fill="#9e9e9e" stroke="#9e9e9e" stroke-width="1"></path></marker></defs><g id="SvgjsG1007" transform="translate(25.0833333333336,176.85998774509972)"><path id="SvgjsPath1008" d="M0 4Q0 0 4 0L828.8333333333328 0Q832.8333333333328 0 832.8333333333328 4L832.8333333333328 146.4681372549012Q832.8333333333328 150.4681372549012 828.8333333333328 150.4681372549012L4 150.4681372549012Q0 150.4681372549012 0 146.4681372549012Z " stroke="none" fill-opacity="1" fill="#ce365c"></path><g id="SvgjsG1009"><text id="SvgjsText1010" font-family="微软雅黑" text-anchor="middle" font-size="13px" width="813px" fill="#ffffff" font-weight="700" align="top" lineHeight="125%" font-style="" opacity="1" y="-2.625" transform="rotate(0)"><tspan id="SvgjsTspan1011" dy="16" x="416.5"><tspan id="SvgjsTspan1012" style="text-decoration:;">Parser</tspan></tspan></text></g></g><g id="SvgjsG1013" transform="translate(71.75000000000011,216.02665441176373)"><path id="SvgjsPath1014" d="M0 4Q0 0 4 0L180.83333333333334 0Q184.83333333333334 0 184.83333333333334 4L184.83333333333334 28.134803921569528Q184.83333333333334 32.13480392156953 180.83333333333334 32.13480392156953L4 32.13480392156953Q0 32.13480392156953 0 28.134803921569528Z " stroke="rgba(255,255,255,1)" stroke-width="2" fill-opacity="1" fill="#ce365c"></path><g id="SvgjsG1015"><text id="SvgjsText1016" font-family="微软雅黑" text-anchor="middle" font-size="13px" width="165px" fill="#ffffff" font-weight="700" align="middle" lineHeight="125%" font-style="" opacity="1" y="5.442401960784764" transform="rotate(0)"><tspan id="SvgjsTspan1017" dy="16" x="92.5"><tspan id="SvgjsTspan1018" style="text-decoration:;">Xml Parser</tspan></tspan></text></g></g><g id="SvgjsG1019" transform="translate(25.16666666666663,51.82812499999977)"><path id="SvgjsPath1020" d="M0 0L832.6666666666669 0L832.6666666666669 82.00000000000023L0 82.00000000000023Z " stroke="none" fill-opacity="1" fill="#5f5e67"></path><g id="SvgjsG1021"><text id="SvgjsText1022" font-family="微软雅黑" text-anchor="middle" font-size="13px" width="813px" fill="#ffffff" font-weight="400" align="middle" lineHeight="125%" font-style="" opacity="1" y="14.375000000000114" transform="rotate(0)"><tspan id="SvgjsTspan1023" dy="16" x="416.5"><tspan id="SvgjsTspan1024" style="text-decoration:;">Local File / Remote File / MySql / MongoDB / Redis / ZK / Nacos / Etcd / Remote Url / ...</tspan></tspan><tspan id="SvgjsTspan1025" dy="16" x="416.5"><tspan id="SvgjsTspan1026" style="text-decoration:;"> </tspan></tspan><tspan id="SvgjsTspan1027" dy="16" x="416.5"><tspan id="SvgjsTspan1028" style="text-decoration:;font-weight: bold;"> It can be extended to any storage mode</tspan></tspan></text></g></g><g id="SvgjsG1029" transform="translate(25,25.010723039215463)"><path id="SvgjsPath1030" d="M0 4Q0 0 4 0L828.8333333333328 0Q832.8333333333328 0 832.8333333333328 4L832.8333333333328 32.31740196078454Q832.8333333333328 36.31740196078454 828.8333333333328 36.31740196078454L4 36.31740196078454Q0 36.31740196078454 0 32.31740196078454Z " stroke="none" fill-opacity="1" fill="#464352"></path><g id="SvgjsG1031"><text id="SvgjsText1032" font-family="微软雅黑" text-anchor="middle" font-size="13px" width="813px" fill="#ffffff" font-weight="700" align="middle" lineHeight="125%" font-style="" opacity="1" y="7.533700980392268" transform="rotate(0)"><tspan id="SvgjsTspan1033" dy="16" x="416.5"><tspan id="SvgjsTspan1034" style="text-decoration:;">Storage</tspan></tspan></text></g></g><g id="SvgjsG1035"><path id="SvgjsPath1036" d="M441.5 133.828125L441.5 155.34405637254986L441.5 155.34405637254986L441.5 174.2599877450997 " stroke="#9e9e9e" stroke-width="2" fill="none" marker-end="url(#SvgjsMarker1037)"></path></g><g id="SvgjsG1039" transform="translate(49.83333333333326,277.3281250000009)"><path id="SvgjsPath1040" d="M0 0L67.33333333333346 0L67.33333333333346 22.86519607843138L0 22.86519607843138Z " stroke="rgba(255,255,255,1)" stroke-width="2" fill-opacity="1" fill="#ce365c"></path><g id="SvgjsG1041"><text id="SvgjsText1042" font-family="微软雅黑" text-anchor="middle" font-size="13px" width="48px" fill="#323232" font-weight="400" align="middle" lineHeight="125%" font-style="" opacity="1" y="0.8075980392156907" transform="rotate(0)"><tspan id="SvgjsTspan1043" dy="16" x="34"><tspan id="SvgjsTspan1044" style="text-decoration:;fill: rgb(255, 255, 255);">Local</tspan></tspan></text></g></g><g id="SvgjsG1045" transform="translate(130.5000000000001,277.3281250000009)"><path id="SvgjsPath1046" d="M0 0L67.33333333333346 0L67.33333333333346 22.86519607843138L0 22.86519607843138Z " stroke="rgba(255,255,255,1)" stroke-width="2" fill-opacity="1" fill="#ce365c"></path><g id="SvgjsG1047"><text id="SvgjsText1048" font-family="微软雅黑" text-anchor="middle" font-size="13px" width="48px" fill="#323232" font-weight="400" align="middle" lineHeight="125%" font-style="" opacity="1" y="0.8075980392156907" transform="rotate(0)"><tspan id="SvgjsTspan1049" dy="16" x="34"><tspan id="SvgjsTspan1050" style="text-decoration:;fill: rgb(255, 255, 255);">ZK</tspan></tspan></text></g></g><g id="SvgjsG1051" transform="translate(211.1666666666672,277.3281250000009)"><path id="SvgjsPath1052" d="M0 0L67.33333333333346 0L67.33333333333346 22.86519607843138L0 22.86519607843138Z " stroke="rgba(255,255,255,1)" stroke-width="2" fill-opacity="1" fill="#ce365c"></path><g id="SvgjsG1053"><text id="SvgjsText1054" font-family="微软雅黑" text-anchor="middle" font-size="13px" width="48px" fill="#323232" font-weight="400" align="middle" lineHeight="125%" font-style="" opacity="1" y="0.8075980392156907" transform="rotate(0)"><tspan id="SvgjsTspan1055" dy="16" x="34"><tspan id="SvgjsTspan1056" style="text-decoration:;fill: rgb(255, 255, 255);">Custom</tspan></tspan></text></g></g><g id="SvgjsG1057"><path id="SvgjsPath1058" d="M164.16666666666697 249.16145833333348L164.16666666666697 262.74479166666697L83.5 262.74479166666697L83.5 276.3281250000009 " stroke="#ffffff" stroke-width="2" fill="none"></path></g><g id="SvgjsG1059"><path id="SvgjsPath1060" d="M164.16666666666697 249.16145833333348L164.16666666666697 262.74479166666697L164.16666666666686 262.74479166666697L164.16666666666686 276.3281250000009 " stroke="#ffffff" stroke-width="2" fill="none"></path></g><g id="SvgjsG1061"><path id="SvgjsPath1062" d="M164.16666666666674 249.16145833333348L164.16666666666674 262.74479166666697L244.83333333333394 262.74479166666697L244.83333333333394 276.3281250000009 " stroke="#ffffff" stroke-width="2" fill="none"></path></g><g id="SvgjsG1063" transform="translate(348.99999999999966,216.02665441176373)"><path id="SvgjsPath1064" d="M0 4Q0 0 4 0L180.83333333333334 0Q184.83333333333334 0 184.83333333333334 4L184.83333333333334 28.134803921569528Q184.83333333333334 32.13480392156953 180.83333333333334 32.13480392156953L4 32.13480392156953Q0 32.13480392156953 0 28.134803921569528Z " stroke="rgba(255,255,255,1)" stroke-width="2" fill-opacity="1" fill="#ce365c"></path><g id="SvgjsG1065"><text id="SvgjsText1066" font-family="微软雅黑" text-anchor="middle" font-size="13px" width="165px" fill="#ffffff" font-weight="700" align="middle" lineHeight="125%" font-style="" opacity="1" y="5.442401960784764" transform="rotate(0)"><tspan id="SvgjsTspan1067" dy="16" x="92.5"><tspan id="SvgjsTspan1068" style="text-decoration:;">Json Parser</tspan></tspan></text></g></g><g id="SvgjsG1069" transform="translate(327.0833333333328,277.3281250000009)"><path id="SvgjsPath1070" d="M0 0L67.33333333333346 0L67.33333333333346 22.86519607843138L0 22.86519607843138Z " stroke="rgba(255,255,255,1)" stroke-width="2" fill-opacity="1" fill="#ce365c"></path><g id="SvgjsG1071"><text id="SvgjsText1072" font-family="微软雅黑" text-anchor="middle" font-size="13px" width="48px" fill="#323232" font-weight="400" align="middle" lineHeight="125%" font-style="" opacity="1" y="0.8075980392156907" transform="rotate(0)"><tspan id="SvgjsTspan1073" dy="16" x="34"><tspan id="SvgjsTspan1074" style="text-decoration:;fill: rgb(255, 255, 255);">Local</tspan></tspan></text></g></g><g id="SvgjsG1075" transform="translate(407.74999999999966,277.3281250000009)"><path id="SvgjsPath1076" d="M0 0L67.33333333333346 0L67.33333333333346 22.86519607843138L0 22.86519607843138Z " stroke="rgba(255,255,255,1)" stroke-width="2" fill-opacity="1" fill="#ce365c"></path><g id="SvgjsG1077"><text id="SvgjsText1078" font-family="微软雅黑" text-anchor="middle" font-size="13px" width="48px" fill="#323232" font-weight="400" align="middle" lineHeight="125%" font-style="" opacity="1" y="0.8075980392156907" transform="rotate(0)"><tspan id="SvgjsTspan1079" dy="16" x="34"><tspan id="SvgjsTspan1080" style="text-decoration:;fill: rgb(255, 255, 255);">ZK</tspan></tspan></text></g></g><g id="SvgjsG1081" transform="translate(488.4166666666673,277.3281250000009)"><path id="SvgjsPath1082" d="M0 0L67.33333333333346 0L67.33333333333346 22.86519607843138L0 22.86519607843138Z " stroke="rgba(255,255,255,1)" stroke-width="2" fill-opacity="1" fill="#ce365c"></path><g id="SvgjsG1083"><text id="SvgjsText1084" font-family="微软雅黑" text-anchor="middle" font-size="13px" width="48px" fill="#323232" font-weight="400" align="middle" lineHeight="125%" font-style="" opacity="1" y="0.8075980392156907" transform="rotate(0)"><tspan id="SvgjsTspan1085" dy="16" x="34"><tspan id="SvgjsTspan1086" style="text-decoration:;fill: rgb(255, 255, 255);">Custom</tspan></tspan></text></g></g><g id="SvgjsG1087"><path id="SvgjsPath1088" d="M441.41666666666674 249.16145833333348L441.41666666666674 262.74479166666697L360.74999999999955 262.74479166666697L360.74999999999955 276.3281250000009 " stroke="#ffffff" stroke-width="2" fill="none"></path></g><g id="SvgjsG1089"><path id="SvgjsPath1090" d="M441.41666666666674 249.16145833333348L441.41666666666674 262.74479166666697L441.41666666666663 262.74479166666697L441.41666666666663 276.3281250000009 " stroke="#ffffff" stroke-width="2" fill="none"></path></g><g id="SvgjsG1091"><path id="SvgjsPath1092" d="M441.41666666666663 249.16145833333348L441.41666666666663 262.74479166666697L522.0833333333344 262.74479166666697L522.0833333333344 276.3281250000009 " stroke="#ffffff" stroke-width="2" fill="none"></path></g><g id="SvgjsG1093" transform="translate(626.2499999999991,216.02665441176316)"><path id="SvgjsPath1094" d="M0 4Q0 0 4 0L180.83333333333334 0Q184.83333333333334 0 184.83333333333334 4L184.83333333333334 28.134803921569528Q184.83333333333334 32.13480392156953 180.83333333333334 32.13480392156953L4 32.13480392156953Q0 32.13480392156953 0 28.134803921569528Z " stroke="rgba(255,255,255,1)" stroke-width="2" fill-opacity="1" fill="#ce365c"></path><g id="SvgjsG1095"><text id="SvgjsText1096" font-family="微软雅黑" text-anchor="middle" font-size="13px" width="165px" fill="#ffffff" font-weight="700" align="middle" lineHeight="125%" font-style="" opacity="1" y="5.442401960784764" transform="rotate(0)"><tspan id="SvgjsTspan1097" dy="16" x="92.5"><tspan id="SvgjsTspan1098" style="text-decoration:;">Yaml Parser</tspan></tspan></text></g></g><g id="SvgjsG1099" transform="translate(604.3333333333321,277.32812500000045)"><path id="SvgjsPath1100" d="M0 0L67.33333333333346 0L67.33333333333346 22.86519607843138L0 22.86519607843138Z " stroke="rgba(255,255,255,1)" stroke-width="2" fill-opacity="1" fill="#ce365c"></path><g id="SvgjsG1101"><text id="SvgjsText1102" font-family="微软雅黑" text-anchor="middle" font-size="13px" width="48px" fill="#323232" font-weight="400" align="middle" lineHeight="125%" font-style="" opacity="1" y="0.8075980392156907" transform="rotate(0)"><tspan id="SvgjsTspan1103" dy="16" x="34"><tspan id="SvgjsTspan1104" style="text-decoration:;fill: rgb(255, 255, 255);">Local</tspan></tspan></text></g></g><g id="SvgjsG1105" transform="translate(684.9999999999989,277.32812500000045)"><path id="SvgjsPath1106" d="M0 0L67.33333333333346 0L67.33333333333346 22.86519607843138L0 22.86519607843138Z " stroke="rgba(255,255,255,1)" stroke-width="2" fill-opacity="1" fill="#ce365c"></path><g id="SvgjsG1107"><text id="SvgjsText1108" font-family="微软雅黑" text-anchor="middle" font-size="13px" width="48px" fill="#323232" font-weight="400" align="middle" lineHeight="125%" font-style="" opacity="1" y="0.8075980392156907" transform="rotate(0)"><tspan id="SvgjsTspan1109" dy="16" x="34"><tspan id="SvgjsTspan1110" style="text-decoration:;fill: rgb(255, 255, 255);">ZK</tspan></tspan></text></g></g><g id="SvgjsG1111" transform="translate(765.6666666666661,277.32812500000045)"><path id="SvgjsPath1112" d="M0 0L67.33333333333346 0L67.33333333333346 22.86519607843138L0 22.86519607843138Z " stroke="rgba(255,255,255,1)" stroke-width="2" fill-opacity="1" fill="#ce365c"></path><g id="SvgjsG1113"><text id="SvgjsText1114" font-family="微软雅黑" text-anchor="middle" font-size="13px" width="48px" fill="#323232" font-weight="400" align="middle" lineHeight="125%" font-style="" opacity="1" y="0.8075980392156907" transform="rotate(0)"><tspan id="SvgjsTspan1115" dy="16" x="34"><tspan id="SvgjsTspan1116" style="text-decoration:;fill: rgb(255, 255, 255);">Custom</tspan></tspan></text></g></g><g id="SvgjsG1117"><path id="SvgjsPath1118" d="M718.6666666666656 249.16145833333258L718.6666666666656 262.7447916666665L637.9999999999989 262.7447916666665L637.9999999999989 276.32812500000045 " stroke="#ffffff" stroke-width="2" fill="none"></path></g><g id="SvgjsG1119"><path id="SvgjsPath1120" d="M718.6666666666656 249.16145833333258L718.6666666666656 262.7447916666665L718.6666666666656 262.7447916666665L718.6666666666656 276.32812500000045 " stroke="#ffffff" stroke-width="2" fill="none"></path></g><g id="SvgjsG1121"><path id="SvgjsPath1122" d="M718.6666666666656 249.16145833333258L718.6666666666656 262.7447916666665L799.3333333333328 262.7447916666665L799.3333333333328 276.32812500000045 " stroke="#ffffff" stroke-width="2" fill="none"></path></g><g id="SvgjsG1123" transform="translate(25,373.19332107843275)"><path id="SvgjsPath1124" d="M0 4Q0 0 4 0L227.58333333333343 0Q231.58333333333343 0 231.58333333333343 4L231.58333333333343 46.801470588235134Q231.58333333333343 50.801470588235134 227.58333333333343 50.801470588235134L4 50.801470588235134Q0 50.801470588235134 0 46.801470588235134Z " stroke="none" fill-opacity="1" fill="#ce365c"></path><g id="SvgjsG1125"><text id="SvgjsText1126" font-family="微软雅黑" text-anchor="middle" font-size="13px" width="212px" fill="#ffffff" font-weight="700" align="middle" lineHeight="125%" font-style="" opacity="1" y="6.775735294117567" transform="rotate(0)"><tspan id="SvgjsTspan1127" dy="16" x="116"><tspan id="SvgjsTspan1128" style="text-decoration:;">FlowBus</tspan></tspan><tspan id="SvgjsTspan1129" dy="16" x="116"><tspan id="SvgjsTspan1130" style="text-decoration:;">Chain Meta Info</tspan></tspan></text></g></g><g id="SvgjsG1131" transform="translate(311.16666666666674,373.1933210784332)"><path id="SvgjsPath1132" d="M0 4Q0 0 4 0L542.6666666666667 0Q546.6666666666667 0 546.6666666666667 4L546.6666666666667 46.80147058823468Q546.6666666666667 50.80147058823468 542.6666666666667 50.80147058823468L4 50.80147058823468Q0 50.80147058823468 0 46.80147058823468Z " stroke="none" fill-opacity="1" fill="#ce365c"></path><g id="SvgjsG1133"><text id="SvgjsText1134" font-family="微软雅黑" text-anchor="middle" font-size="13px" width="527px" fill="#ffffff" font-weight="700" align="middle" lineHeight="125%" font-style="" opacity="1" y="6.775735294117339" transform="rotate(0)"><tspan id="SvgjsTspan1135" dy="16" x="273.5"><tspan id="SvgjsTspan1136" style="text-decoration:;">DataBus</tspan></tspan><tspan id="SvgjsTspan1137" dy="16" x="273.5"><tspan id="SvgjsTspan1138" style="text-decoration:;">Slot Manager</tspan></tspan></text></g></g><g id="SvgjsG1139"><path id="SvgjsPath1140" d="M441.5 327.3281250000009L441.5 350.2607230392168L140.79166666666674 350.2607230392168L140.79166666666674 370.5933210784327 " stroke="#9e9e9e" stroke-width="2" fill="none" marker-end="url(#SvgjsMarker1141)"></path></g><g id="SvgjsG1143" transform="translate(246.6666666666663,340.2607230392168)"><path id="SvgjsPath1144" d="M0 0L102.33333333333348 0L102.33333333333348 20L0 20Z " stroke="none" fill="none"></path><g id="SvgjsG1145"><text id="SvgjsText1146" font-family="微软雅黑" text-anchor="middle" font-size="13px" width="103px" fill="#ce365c" font-weight="700" align="middle" lineHeight="125%" font-style="" opacity="1" y="-0.625" transform="rotate(0)"><tspan id="SvgjsTspan1147" dy="16" x="51.5"><tspan id="SvgjsTspan1148" style="text-decoration:;">ADD</tspan></tspan></text></g></g><g id="SvgjsG1149" transform="translate(311.16666666666674,469.828125)"><path id="SvgjsPath1150" d="M0 4Q0 0 4 0L542.6666666666667 0Q546.6666666666667 0 546.6666666666667 4L546.6666666666667 47Q546.6666666666667 51 542.6666666666667 51L4 51Q0 51 0 47Z " stroke="none" fill-opacity="1" fill="#ce365c"></path><g id="SvgjsG1151"><text id="SvgjsText1152" font-family="微软雅黑" text-anchor="middle" font-size="13px" width="527px" fill="#ffffff" font-weight="700" align="middle" lineHeight="125%" font-style="" opacity="1" y="6.875" transform="rotate(0)"><tspan id="SvgjsTspan1153" dy="16" x="273.5"><tspan id="SvgjsTspan1154" style="text-decoration:;">Slot</tspan></tspan><tspan id="SvgjsTspan1155" dy="16" x="273.5"><tspan id="SvgjsTspan1156" style="text-decoration:;">Chain Request Context</tspan></tspan></text></g></g><g id="SvgjsG1157"><path id="SvgjsPath1158" d="M584.5000000000002 423.9947916666679L584.5000000000002 446.91145833333394L584.5000000000001 446.91145833333394L584.5000000000001 467.2281250000001 " stroke="#9e9e9e" stroke-width="2" fill="none" marker-end="url(#SvgjsMarker1159)"></path></g><g id="SvgjsG1161" transform="translate(528.3333333333334,431.36979166666606)"><path id="SvgjsPath1162" d="M0 0L102.33333333333348 0L102.33333333333348 20L0 20Z " stroke="none" fill="none"></path><g id="SvgjsG1163"><text id="SvgjsText1164" font-family="微软雅黑" text-anchor="middle" font-size="13px" width="103px" fill="#ce365c" font-weight="700" align="middle" lineHeight="125%" font-style="" opacity="1" y="-0.625" transform="rotate(0)"><tspan id="SvgjsTspan1165" dy="16" x="51.5"><tspan id="SvgjsTspan1166" style="text-decoration:;">Generate</tspan></tspan></text></g></g><g id="SvgjsG1167" transform="translate(25,469.42738970588243)"><path id="SvgjsPath1168" d="M0 4Q0 0 4 0L227.58333333333346 0Q231.58333333333346 0 231.58333333333346 4L231.58333333333346 258.40073529411757Q231.58333333333346 262.40073529411757 227.58333333333346 262.40073529411757L4 262.40073529411757Q0 262.40073529411757 0 258.40073529411757Z " stroke="none" fill-opacity="1" fill="#ce365c"></path><g id="SvgjsG1169"><text id="SvgjsText1170" font-family="微软雅黑" text-anchor="middle" font-size="13px" width="212px" fill="#ffffff" font-weight="700" align="middle" lineHeight="125%" font-style="" opacity="1" y="112.57536764705878" transform="rotate(0)"><tspan id="SvgjsTspan1171" dy="16" x="116"><tspan id="SvgjsTspan1172" style="text-decoration:;">FlowExecutor</tspan></tspan><tspan id="SvgjsTspan1173" dy="16" x="116"><tspan id="SvgjsTspan1174" style="text-decoration:;">Main Executor</tspan></tspan></text></g></g><g id="SvgjsG1175"><path id="SvgjsPath1176" d="M140.79166666666674 469.42738970588243L140.79166666666674 446.7110906862754L140.79166666666674 446.7110906862754L140.79166666666674 426.5947916666679 " stroke="#9e9e9e" stroke-width="2" fill="none" marker-end="url(#SvgjsMarker1177)"></path></g><g id="SvgjsG1179" transform="translate(93.58333333333326,441.36979166666606)"><path id="SvgjsPath1180" d="M0 0L102.33333333333348 0L102.33333333333348 20L0 20Z " stroke="none" fill="none"></path><g id="SvgjsG1181"><text id="SvgjsText1182" font-family="微软雅黑" text-anchor="middle" font-size="13px" width="103px" fill="#ce365c" font-weight="700" align="middle" lineHeight="125%" font-style="" opacity="1" y="-0.625" transform="rotate(0)"><tspan id="SvgjsTspan1183" dy="16" x="51.5"><tspan id="SvgjsTspan1184" style="text-decoration:;">Get Chain</tspan></tspan></text></g></g><g id="SvgjsG1185" transform="translate(311.33333333333337,582.828125)"><path id="SvgjsPath1186" d="M0 0L546.3333333333335 0L546.3333333333335 149L0 149Z " stroke="none" fill-opacity="1" fill="#ce365c"></path><g id="SvgjsG1187"><text id="SvgjsText1188" font-family="微软雅黑" text-anchor="middle" font-size="13px" width="527px" fill="#ffffff" font-weight="400" align="middle" lineHeight="125%" font-style="" opacity="1" y="63.875" transform="rotate(0)"><tspan id="SvgjsTspan1189" dy="16" x="273.5"><tspan id="SvgjsTspan1190" style="text-decoration:;"> </tspan></tspan></text></g></g><g id="SvgjsG1191" transform="translate(311.16666666666674,560.828125)"><path id="SvgjsPath1192" d="M0 4Q0 0 4 0L542.6666666666667 0Q546.6666666666667 0 546.6666666666667 4L546.6666666666667 26.29166666666697Q546.6666666666667 30.29166666666697 542.6666666666667 30.29166666666697L4 30.29166666666697Q0 30.29166666666697 0 26.29166666666697Z " stroke="none" fill-opacity="1" fill="#464352"></path><g id="SvgjsG1193"><text id="SvgjsText1194" font-family="微软雅黑" text-anchor="middle" font-size="13px" width="527px" fill="#ffffff" font-weight="700" align="middle" lineHeight="125%" font-style="" opacity="1" y="4.520833333333485" transform="rotate(0)"><tspan id="SvgjsTspan1195" dy="16" x="273.5"><tspan id="SvgjsTspan1196" style="text-decoration:;">Chain</tspan></tspan></text></g></g><g id="SvgjsG1197" transform="translate(335.16666666666674,606.3955269607832)"><path id="SvgjsPath1198" d="M0 4Q0 0 4 0L125 0Q129 0 129 4L129 21Q129 25 125 25L4 25Q0 25 0 21Z " stroke="rgba(255,255,255,1)" stroke-width="2" fill-opacity="1" fill="#ce365c"></path><g id="SvgjsG1199"><text id="SvgjsText1200" font-family="微软雅黑" text-anchor="middle" font-size="13px" width="109px" fill="#ffffff" font-weight="400" align="middle" lineHeight="125%" font-style="" opacity="1" y="1.875" transform="rotate(0)"><tspan id="SvgjsTspan1201" dy="16" x="64.5"><tspan id="SvgjsTspan1202" style="text-decoration:;font-weight: bold;">Component1</tspan></tspan></text></g></g><g id="SvgjsG1203" transform="translate(520.0000000000001,606.3955269607832)"><path id="SvgjsPath1204" d="M0 4Q0 0 4 0L125 0Q129 0 129 4L129 21Q129 25 125 25L4 25Q0 25 0 21Z " stroke="rgba(255,255,255,1)" stroke-width="2" fill-opacity="1" fill="#ce365c"></path><g id="SvgjsG1205"><text id="SvgjsText1206" font-family="微软雅黑" text-anchor="middle" font-size="13px" width="109px" fill="#ffffff" font-weight="400" align="middle" lineHeight="125%" font-style="" opacity="1" y="1.875" transform="rotate(0)"><tspan id="SvgjsTspan1207" dy="16" x="64.5"><tspan id="SvgjsTspan1208" style="text-decoration:;font-weight: bold;">Component2</tspan></tspan></text></g></g><g id="SvgjsG1209" transform="translate(697.2499999999995,606.3955269607832)"><path id="SvgjsPath1210" d="M0 4Q0 0 4 0L125 0Q129 0 129 4L129 21Q129 25 125 25L4 25Q0 25 0 21Z " stroke="rgba(255,255,255,1)" stroke-width="2" fill-opacity="1" fill="#ce365c"></path><g id="SvgjsG1211"><text id="SvgjsText1212" font-family="微软雅黑" text-anchor="middle" font-size="13px" width="109px" fill="#ffffff" font-weight="400" align="middle" lineHeight="125%" font-style="" opacity="1" y="1.875" transform="rotate(0)"><tspan id="SvgjsTspan1213" dy="16" x="64.5"><tspan id="SvgjsTspan1214" style="text-decoration:;font-weight: bold;">Component3</tspan></tspan></text></g></g><g id="SvgjsG1215" transform="translate(524.5000000000001,681.3955269607832)"><path id="SvgjsPath1216" d="M0 0L120 0L120 40L0 40Z " stroke="none" fill="none"></path><g id="SvgjsG1217"><text id="SvgjsText1218" font-family="微软雅黑" text-anchor="middle" font-size="32px" width="120px" fill="#323232" font-weight="400" align="middle" lineHeight="125%" font-style="" opacity="1" y="-8" transform="rotate(0)"><tspan id="SvgjsTspan1219" dy="40" x="60"><tspan id="SvgjsTspan1220" style="text-decoration:;font-weight: bold;fill: rgb(255, 255, 255);">......</tspan></tspan></text></g></g><g id="SvgjsG1221"><path id="SvgjsPath1222" d="M584.5000000000001 558.2281250000001L584.5000000000001 540.828125L584.5000000000001 540.828125L584.5000000000001 523.4281249999999 " stroke="#9e9e9e" stroke-width="2" fill="none" marker-start="url(#SvgjsMarker1223)" marker-end="url(#SvgjsMarker1225)"></path></g><g id="SvgjsG1227" transform="translate(533.3333333333334,529.328125)"><path id="SvgjsPath1228" d="M0 0L102.33333333333348 0L102.33333333333348 20L0 20Z " stroke="none" fill="none"></path><g id="SvgjsG1229"><text id="SvgjsText1230" font-family="微软雅黑" text-anchor="middle" font-size="13px" width="103px" fill="#ce365c" font-weight="700" align="middle" lineHeight="125%" font-style="" opacity="1" y="-0.625" transform="rotate(0)"><tspan id="SvgjsTspan1231" dy="16" x="51.5"><tspan id="SvgjsTspan1232" style="text-decoration:;">Exchange Data</tspan></tspan></text></g></g><g id="SvgjsG1233" transform="translate(335.16666666666674,657.3955269607832)"><path id="SvgjsPath1234" d="M0 4Q0 0 4 0L125 0Q129 0 129 4L129 21Q129 25 125 25L4 25Q0 25 0 21Z " stroke="rgba(255,255,255,1)" stroke-width="2" fill-opacity="1" fill="#ce365c"></path><g id="SvgjsG1235"><text id="SvgjsText1236" font-family="微软雅黑" text-anchor="middle" font-size="13px" width="109px" fill="#ffffff" font-weight="400" align="middle" lineHeight="125%" font-style="" opacity="1" y="1.875" transform="rotate(0)"><tspan id="SvgjsTspan1237" dy="16" x="64.5"><tspan id="SvgjsTspan1238" style="text-decoration:;font-weight: bold;">Component4</tspan></tspan></text></g></g><g id="SvgjsG1239" transform="translate(520.0000000000001,657.3955269607832)"><path id="SvgjsPath1240" d="M0 4Q0 0 4 0L125 0Q129 0 129 4L129 21Q129 25 125 25L4 25Q0 25 0 21Z " stroke="rgba(255,255,255,1)" stroke-width="2" fill-opacity="1" fill="#ce365c"></path><g id="SvgjsG1241"><text id="SvgjsText1242" font-family="微软雅黑" text-anchor="middle" font-size="13px" width="109px" fill="#ffffff" font-weight="400" align="middle" lineHeight="125%" font-style="" opacity="1" y="1.875" transform="rotate(0)"><tspan id="SvgjsTspan1243" dy="16" x="64.5"><tspan id="SvgjsTspan1244" style="text-decoration:;font-weight: bold;">Component5</tspan></tspan></text></g></g><g id="SvgjsG1245" transform="translate(697.2499999999995,657.3955269607832)"><path id="SvgjsPath1246" d="M0 4Q0 0 4 0L125 0Q129 0 129 4L129 21Q129 25 125 25L4 25Q0 25 0 21Z " stroke="rgba(255,255,255,1)" stroke-width="2" fill-opacity="1" fill="#ce365c"></path><g id="SvgjsG1247"><text id="SvgjsText1248" font-family="微软雅黑" text-anchor="middle" font-size="13px" width="109px" fill="#ffffff" font-weight="400" align="middle" lineHeight="125%" font-style="" opacity="1" y="1.875" transform="rotate(0)"><tspan id="SvgjsTspan1249" dy="16" x="64.5"><tspan id="SvgjsTspan1250" style="text-decoration:;font-weight: bold;">Component6</tspan></tspan></text></g></g><g id="SvgjsG1251"><path id="SvgjsPath1252" d="M256.26101832521476 651.828125L284.21384249594075 651.828125L284.21384249594075 651.828125L309.5666666666667 651.828125 " stroke="#9e9e9e" stroke-width="2" fill="none" marker-end="url(#SvgjsMarker1253)"></path></g><g id="SvgjsG1255" transform="translate(232.50000000000068,626.1933210784327)"><path id="SvgjsPath1256" d="M0 0L102.33333333333348 0L102.33333333333348 20L0 20Z " stroke="none" fill="none"></path><g id="SvgjsG1257"><text id="SvgjsText1258" font-family="微软雅黑" text-anchor="middle" font-size="13px" width="103px" fill="#ce365c" font-weight="700" align="middle" lineHeight="125%" font-style="" opacity="1" y="-0.625" transform="rotate(0)"><tspan id="SvgjsTspan1259" dy="16" x="51.5"><tspan id="SvgjsTspan1260" style="text-decoration:;">Execute</tspan></tspan></text></g></g></svg>