<svg id="SvgjsSvg1394" width="966.5" height="988.65625" xmlns="http://www.w3.org/2000/svg" version="1.1" xmlns:xlink="http://www.w3.org/1999/xlink" xmlns:svgjs="http://svgjs.com/svgjs"><defs id="SvgjsDefs1395"><marker id="SvgjsMarker1398" markerWidth="16" markerHeight="12" refX="11" refY="6" viewBox="0 0 16 12" orient="auto" markerUnits="userSpaceOnUse" stroke-dasharray="0,0"><path id="SvgjsPath1399" d="M0,0 L16,6 L0,12 L0,0" fill="#d32f2f" stroke="#d32f2f" stroke-width="1"></path></marker><marker id="SvgjsMarker1502" markerWidth="16" markerHeight="12" refX="11" refY="6" viewBox="0 0 16 12" orient="auto" markerUnits="userSpaceOnUse" stroke-dasharray="0,0"><path id="SvgjsPath1503" d="M0,0 L16,6 L0,12 L0,0" fill="#d32f2f" stroke="#d32f2f" stroke-width="1"></path></marker><marker id="SvgjsMarker1512" markerWidth="16" markerHeight="12" refX="11" refY="6" viewBox="0 0 16 12" orient="auto" markerUnits="userSpaceOnUse" stroke-dasharray="0,0"><path id="SvgjsPath1513" d="M0,0 L16,6 L0,12 L0,0" fill="#d32f2f" stroke="#d32f2f" stroke-width="1"></path></marker><marker id="SvgjsMarker1586" markerWidth="16" markerHeight="12" refX="11" refY="6" viewBox="0 0 16 12" orient="auto" markerUnits="userSpaceOnUse" stroke-dasharray="0,0"><path id="SvgjsPath1587" d="M0,0 L16,6 L0,12 L0,0" fill="#d32f2f" stroke="#d32f2f" stroke-width="1"></path></marker><marker id="SvgjsMarker1590" markerWidth="16" markerHeight="12" refX="11" refY="6" viewBox="0 0 16 12" orient="auto" markerUnits="userSpaceOnUse" stroke-dasharray="0,0"><path id="SvgjsPath1591" d="M0,0 L16,6 L0,12 L0,0" fill="#d32f2f" stroke="#d32f2f" stroke-width="1"></path></marker><marker id="SvgjsMarker1736" markerWidth="16" markerHeight="12" refX="11" refY="6" viewBox="0 0 16 12" orient="auto" markerUnits="userSpaceOnUse" stroke-dasharray="0,0"><path id="SvgjsPath1737" d="M0,0 L16,6 L0,12 L0,0" fill="#d32f2f" stroke="#d32f2f" stroke-width="1"></path></marker><marker id="SvgjsMarker1752" markerWidth="16" markerHeight="12" refX="5" refY="6" viewBox="0 0 16 12" orient="auto" markerUnits="userSpaceOnUse" stroke-dasharray="0,0"><path id="SvgjsPath1753" d="M16,0 L0,6 L16,12 L16,0" fill="#d32f2f" stroke="#d32f2f" stroke-width="1"></path></marker><marker id="SvgjsMarker1762" markerWidth="16" markerHeight="12" refX="11" refY="6" viewBox="0 0 16 12" orient="auto" markerUnits="userSpaceOnUse" stroke-dasharray="0,0"><path id="SvgjsPath1763" d="M0,0 L16,6 L0,12 L0,0" fill="#d32f2f" stroke="#d32f2f" stroke-width="1"></path></marker><marker id="SvgjsMarker1778" markerWidth="16" markerHeight="12" refX="5" refY="6" viewBox="0 0 16 12" orient="auto" markerUnits="userSpaceOnUse" stroke-dasharray="0,0"><path id="SvgjsPath1779" d="M16,0 L0,6 L16,12 L16,0" fill="#d32f2f" stroke="#d32f2f" stroke-width="1"></path></marker><marker id="SvgjsMarker1780" markerWidth="16" markerHeight="12" refX="11" refY="6" viewBox="0 0 16 12" orient="auto" markerUnits="userSpaceOnUse" stroke-dasharray="0,0"><path id="SvgjsPath1781" d="M0,0 L16,6 L0,12 L0,0" fill="#d32f2f" stroke="#d32f2f" stroke-width="1"></path></marker></defs><g id="SvgjsG1396"><path id="SvgjsPath1397" d="M323.7500000000001 406.72727272727263L323.7500000000001 495.34889214727923L323.7500000000001 495.34889214727923L323.7500000000001 580.070511567286" stroke="#d32f2f" stroke-width="3" fill="none" marker-end="url(#SvgjsMarker1398)"></path></g><g id="SvgjsG1400" transform="translate(25.5,58)"><path id="SvgjsPath1401" d="M 0 0L 916 0L 916 184L 0 184Z" stroke="rgba(50,50,50,1)" stroke-width="2" fill-opacity="1" fill="#f5f5f5"></path><g id="SvgjsG1402"><text id="SvgjsText1403" font-family="微软雅黑" text-anchor="middle" font-size="13px" width="896px" fill="#323232" font-weight="400" align="middle" lineHeight="125%" anchor="middle" family="微软雅黑" size="13px" weight="400" font-style="" opacity="1" y="81.375" transform="rotate(0)"></text></g></g><g id="SvgjsG1404" transform="translate(25.5,25)"><path id="SvgjsPath1405" d="M 0 0L 916 0L 916 33L 0 33Z" stroke="rgba(50,50,50,1)" stroke-width="2" fill-opacity="1" fill="#ffcdd2"></path><g id="SvgjsG1406"><text id="SvgjsText1407" font-family="微软雅黑" text-anchor="middle" font-size="13px" width="896px" fill="#323232" font-weight="700" align="middle" lineHeight="125%" anchor="middle" family="微软雅黑" size="13px" weight="700" font-style="" opacity="1" y="5.875" transform="rotate(0)"><tspan id="SvgjsTspan1408" dy="16" x="458"><tspan id="SvgjsTspan1409" style="text-decoration:;">解析器</tspan></tspan></text></g></g><g id="SvgjsG1410" transform="translate(55.5,86)"><path id="SvgjsPath1411" d="M 0 0L 587 0L 587 29L 0 29Z" stroke="rgba(50,50,50,1)" stroke-width="2" fill-opacity="1" fill="#fff9c4"></path><g id="SvgjsG1412"><text id="SvgjsText1413" font-family="微软雅黑" text-anchor="middle" font-size="13px" width="567px" fill="#323232" font-weight="700" align="middle" lineHeight="125%" anchor="middle" family="微软雅黑" size="13px" weight="700" font-style="" opacity="1" y="3.875" transform="rotate(0)"><tspan id="SvgjsTspan1414" dy="16" x="293.5"><tspan id="SvgjsTspan1415" style="text-decoration:;">本地解析器</tspan></tspan></text></g></g><g id="SvgjsG1416" transform="translate(55.5,115)"><path id="SvgjsPath1417" d="M 0 0L 587 0L 587 92L 0 92Z" stroke="rgba(50,50,50,1)" stroke-width="2" fill-opacity="1" fill="#b2ebf2"></path><g id="SvgjsG1418"><text id="SvgjsText1419" font-family="微软雅黑" text-anchor="middle" font-size="13px" width="567px" fill="#323232" font-weight="400" align="middle" lineHeight="125%" anchor="middle" family="微软雅黑" size="13px" weight="400" font-style="" opacity="1" y="35.375" transform="rotate(0)"></text></g></g><g id="SvgjsG1420" transform="translate(95.5,134)"><path id="SvgjsPath1421" d="M 0 4Q 0 0 4 0L 137 0Q 141 0 141 4L 141 50Q 141 54 137 54L 4 54Q 0 54 0 50Z" stroke="rgba(50,50,50,1)" stroke-width="2" fill-opacity="1" fill="#e1bee7"></path><g id="SvgjsG1422"><text id="SvgjsText1423" font-family="微软雅黑" text-anchor="middle" font-size="13px" width="121px" fill="#000000" font-weight="700" align="middle" lineHeight="125%" anchor="middle" family="微软雅黑" size="13px" weight="700" font-style="" opacity="1" y="7.875" transform="rotate(0)"><tspan id="SvgjsTspan1424" dy="16" x="70.5"><tspan id="SvgjsTspan1425" style="text-decoration:;">EL Local Parser</tspan></tspan><tspan id="SvgjsTspan1426" dy="16" x="70.5"><tspan id="SvgjsTspan1427" style="text-decoration:;">type:xml</tspan></tspan></text></g></g><g id="SvgjsG1428" transform="translate(278.5,134)"><path id="SvgjsPath1429" d="M 0 4Q 0 0 4 0L 137 0Q 141 0 141 4L 141 50Q 141 54 137 54L 4 54Q 0 54 0 50Z" stroke="rgba(50,50,50,1)" stroke-width="2" fill-opacity="1" fill="#e1bee7"></path><g id="SvgjsG1430"><text id="SvgjsText1431" font-family="微软雅黑" text-anchor="middle" font-size="13px" width="121px" fill="#000000" font-weight="700" align="middle" lineHeight="125%" anchor="middle" family="微软雅黑" size="13px" weight="700" font-style="" opacity="1" y="7.875" transform="rotate(0)"><tspan id="SvgjsTspan1432" dy="16" x="70.5"><tspan id="SvgjsTspan1433" style="text-decoration:;">EL Local Parser</tspan></tspan><tspan id="SvgjsTspan1434" dy="16" x="70.5"><tspan id="SvgjsTspan1435" style="text-decoration:;">type:json</tspan></tspan></text></g></g><g id="SvgjsG1436" transform="translate(461.5,134)"><path id="SvgjsPath1437" d="M 0 4Q 0 0 4 0L 137 0Q 141 0 141 4L 141 50Q 141 54 137 54L 4 54Q 0 54 0 50Z" stroke="rgba(50,50,50,1)" stroke-width="2" fill-opacity="1" fill="#e1bee7"></path><g id="SvgjsG1438"><text id="SvgjsText1439" font-family="微软雅黑" text-anchor="middle" font-size="13px" width="121px" fill="#000000" font-weight="700" align="middle" lineHeight="125%" anchor="middle" family="微软雅黑" size="13px" weight="700" font-style="" opacity="1" y="7.875" transform="rotate(0)"><tspan id="SvgjsTspan1440" dy="16" x="70.5"><tspan id="SvgjsTspan1441" style="text-decoration:;">EL Local Parser</tspan></tspan><tspan id="SvgjsTspan1442" dy="16" x="70.5"><tspan id="SvgjsTspan1443" style="text-decoration:;">type:yaml</tspan></tspan></text></g></g><g id="SvgjsG1444" transform="translate(684.5,86)"><path id="SvgjsPath1445" d="M 0 0L 221 0L 221 29L 0 29Z" stroke="rgba(50,50,50,1)" stroke-width="2" fill-opacity="1" fill="#fff9c4"></path><g id="SvgjsG1446"><text id="SvgjsText1447" font-family="微软雅黑" text-anchor="middle" font-size="13px" width="201px" fill="#323232" font-weight="700" align="middle" lineHeight="125%" anchor="middle" family="微软雅黑" size="13px" weight="700" font-style="" opacity="1" y="3.875" transform="rotate(0)"><tspan id="SvgjsTspan1448" dy="16" x="110.5"><tspan id="SvgjsTspan1449" style="text-decoration:;">自定义解析器</tspan></tspan></text></g></g><g id="SvgjsG1450" transform="translate(684.5,115)"><path id="SvgjsPath1451" d="M 0 0L 221 0L 221 92L 0 92Z" stroke="rgba(50,50,50,1)" stroke-width="2" fill-opacity="1" fill="#b2ebf2"></path><g id="SvgjsG1452"><text id="SvgjsText1453" font-family="微软雅黑" text-anchor="middle" font-size="13px" width="201px" fill="#323232" font-weight="400" align="middle" lineHeight="125%" anchor="middle" family="微软雅黑" size="13px" weight="400" font-style="" opacity="1" y="35.375" transform="rotate(0)"></text></g></g><g id="SvgjsG1454" transform="translate(724.5,134)"><path id="SvgjsPath1455" d="M 0 4Q 0 0 4 0L 137 0Q 141 0 141 4L 141 50Q 141 54 137 54L 4 54Q 0 54 0 50Z" stroke="rgba(50,50,50,1)" stroke-width="2" fill-opacity="1" fill="#e1bee7"></path><g id="SvgjsG1456"><text id="SvgjsText1457" font-family="微软雅黑" text-anchor="middle" font-size="13px" width="121px" fill="#000000" font-weight="700" align="middle" lineHeight="125%" anchor="middle" family="微软雅黑" size="13px" weight="700" font-style="" opacity="1" y="7.875" transform="rotate(0)"><tspan id="SvgjsTspan1458" dy="16" x="70.5"><tspan id="SvgjsTspan1459" style="text-decoration:;">EL Custom Parser</tspan></tspan><tspan id="SvgjsTspan1460" dy="16" x="70.5"><tspan id="SvgjsTspan1461" style="text-decoration:;">type:xml</tspan></tspan></text></g></g><g id="SvgjsG1462" transform="translate(25.5,314.08243727598574)"><path id="SvgjsPath1463" d="M 0 0L 499 0L 499 92.50179211469606L 0 92.50179211469606Z" stroke="rgba(50,50,50,1)" stroke-width="2" fill-opacity="1" fill="#f5f5f5"></path><g id="SvgjsG1464"><text id="SvgjsText1465" font-family="微软雅黑" text-anchor="middle" font-size="13px" width="479px" fill="#323232" font-weight="400" align="middle" lineHeight="125%" anchor="middle" family="微软雅黑" size="13px" weight="400" font-style="" opacity="1" y="35.62589605734803" transform="rotate(0)"></text></g></g><g id="SvgjsG1466" transform="translate(25.5,277.8888888888889)"><path id="SvgjsPath1467" d="M 0 0L 499 0L 499 36.19354838709671L 0 36.19354838709671Z" stroke="rgba(50,50,50,1)" stroke-width="2" fill-opacity="1" fill="#ffcdd2"></path><g id="SvgjsG1468"><text id="SvgjsText1469" font-family="微软雅黑" text-anchor="middle" font-size="13px" width="479px" fill="#323232" font-weight="700" align="middle" lineHeight="125%" anchor="middle" family="微软雅黑" size="13px" weight="700" font-style="" opacity="1" y="7.471774193548356" transform="rotate(0)"><tspan id="SvgjsTspan1470" dy="16" x="249.5"><tspan id="SvgjsTspan1471" style="text-decoration:;">构建器</tspan></tspan></text></g></g><g id="SvgjsG1472" transform="translate(668.5,314.0824372759857)"><path id="SvgjsPath1473" d="M 0 0L 273 0L 273 235.58422939068095L 0 235.58422939068095Z" stroke="rgba(50,50,50,1)" stroke-width="2" fill-opacity="1" fill="#f5f5f5"></path><g id="SvgjsG1474"><text id="SvgjsText1475" font-family="微软雅黑" text-anchor="middle" font-size="13px" width="253px" fill="#323232" font-weight="400" align="middle" lineHeight="125%" anchor="middle" family="微软雅黑" size="13px" weight="400" font-style="" opacity="1" y="107.16711469534047" transform="rotate(0)"></text></g></g><g id="SvgjsG1476" transform="translate(668.5,277.8888888888888)"><path id="SvgjsPath1477" d="M 0 0L 273 0L 273 36.19354838709694L 0 36.19354838709694Z" stroke="rgba(50,50,50,1)" stroke-width="2" fill-opacity="1" fill="#ffcdd2"></path><g id="SvgjsG1478"><text id="SvgjsText1479" font-family="微软雅黑" text-anchor="middle" font-size="13px" width="253px" fill="#323232" font-weight="700" align="middle" lineHeight="125%" anchor="middle" family="微软雅黑" size="13px" weight="700" font-style="" opacity="1" y="7.47177419354847" transform="rotate(0)"><tspan id="SvgjsTspan1480" dy="16" x="136.5"><tspan id="SvgjsTspan1481" style="text-decoration:;">规则存储插件</tspan></tspan></text></g></g><g id="SvgjsG1482" transform="translate(702.5,333.33333333333354)"><path id="SvgjsPath1483" d="M 0 4Q 0 0 4 0L 201 0Q 205 0 205 4L 205 29.000000000000057Q 205 33.00000000000006 201 33.00000000000006L 4 33.00000000000006Q 0 33.00000000000006 0 29.000000000000057Z" stroke="rgba(50,50,50,1)" stroke-width="2" fill-opacity="1" fill="#e57373"></path><g id="SvgjsG1484"><text id="SvgjsText1485" font-family="微软雅黑" text-anchor="middle" font-size="13px" width="185px" fill="#ffffff" font-weight="700" align="middle" lineHeight="125%" anchor="middle" family="微软雅黑" size="13px" weight="700" font-style="" opacity="1" y="5.875000000000028" transform="rotate(0)"><tspan id="SvgjsTspan1486" dy="16" x="102.5"><tspan id="SvgjsTspan1487" style="text-decoration:;">关系型数据库(SQL)</tspan></tspan></text></g></g><g id="SvgjsG1488" transform="translate(702.5,387.9301075268819)"><path id="SvgjsPath1489" d="M 0 4Q 0 0 4 0L 201 0Q 205 0 205 4L 205 29.000000000000057Q 205 33.00000000000006 201 33.00000000000006L 4 33.00000000000006Q 0 33.00000000000006 0 29.000000000000057Z" stroke="rgba(50,50,50,1)" stroke-width="2" fill-opacity="1" fill="#e57373"></path><g id="SvgjsG1490"><text id="SvgjsText1491" font-family="微软雅黑" text-anchor="middle" font-size="13px" width="185px" fill="#ffffff" font-weight="700" align="middle" lineHeight="125%" anchor="middle" family="微软雅黑" size="13px" weight="700" font-style="" opacity="1" y="5.875000000000028" transform="rotate(0)"><tspan id="SvgjsTspan1492" dy="16" x="102.5"><tspan id="SvgjsTspan1493" style="text-decoration:;">Zookeeper</tspan></tspan></text></g></g><g id="SvgjsG1494" transform="translate(702.5,442.5268817204302)"><path id="SvgjsPath1495" d="M 0 4Q 0 0 4 0L 201 0Q 205 0 205 4L 205 29.000000000000057Q 205 33.00000000000006 201 33.00000000000006L 4 33.00000000000006Q 0 33.00000000000006 0 29.000000000000057Z" stroke="rgba(50,50,50,1)" stroke-width="2" fill-opacity="1" fill="#e57373"></path><g id="SvgjsG1496"><text id="SvgjsText1497" font-family="微软雅黑" text-anchor="middle" font-size="13px" width="185px" fill="#ffffff" font-weight="700" align="middle" lineHeight="125%" anchor="middle" family="微软雅黑" size="13px" weight="700" font-style="" opacity="1" y="5.875000000000028" transform="rotate(0)"><tspan id="SvgjsTspan1498" dy="16" x="102.5"><tspan id="SvgjsTspan1499" style="text-decoration:;">Etcd</tspan></tspan></text></g></g><g id="SvgjsG1500"><path id="SvgjsPath1501" d="M795 208L795 242.4444444444444L795 242.4444444444444L795 272.9888888888888" stroke="#d32f2f" stroke-width="3" fill="none" marker-end="url(#SvgjsMarker1502)"></path></g><g id="SvgjsG1504" transform="translate(702.5,497.1236559139786)"><path id="SvgjsPath1505" d="M 0 4Q 0 0 4 0L 201 0Q 205 0 205 4L 205 29.000000000000057Q 205 33.00000000000006 201 33.00000000000006L 4 33.00000000000006Q 0 33.00000000000006 0 29.000000000000057Z" stroke="rgba(50,50,50,1)" stroke-width="2" fill-opacity="1" fill="#e57373"></path><g id="SvgjsG1506"><text id="SvgjsText1507" font-family="微软雅黑" text-anchor="middle" font-size="13px" width="185px" fill="#ffffff" font-weight="700" align="middle" lineHeight="125%" anchor="middle" family="微软雅黑" size="13px" weight="700" font-style="" opacity="1" y="5.875000000000028" transform="rotate(0)"><tspan id="SvgjsTspan1508" dy="16" x="102.5"><tspan id="SvgjsTspan1509" style="text-decoration:;">Nacos</tspan></tspan></text></g></g><g id="SvgjsG1510"><path id="SvgjsPath1511" d="M324 242L324 259.77777777777777L324 259.77777777777777L324 273.65555555555557" stroke="#d32f2f" stroke-width="3" fill="none" marker-end="url(#SvgjsMarker1512)"></path></g><g id="SvgjsG1514" transform="translate(62.33333333333337,333.33333333333354)"><path id="SvgjsPath1515" d="M 0 4Q 0 0 4 0L 190.27777777777771 0Q 194.27777777777771 0 194.27777777777771 4L 194.27777777777771 50.000000000000455Q 194.27777777777771 54.000000000000455 190.27777777777771 54.000000000000455L 4 54.000000000000455Q 0 54.000000000000455 0 50.000000000000455Z" stroke="rgba(50,50,50,1)" stroke-width="2" fill-opacity="1" fill="#e1bee7"></path><g id="SvgjsG1516"><text id="SvgjsText1517" font-family="微软雅黑" text-anchor="middle" font-size="13px" width="175px" fill="#000000" font-weight="700" align="middle" lineHeight="125%" anchor="middle" family="微软雅黑" size="13px" weight="700" font-style="" opacity="1" y="16.375000000000227" transform="rotate(0)"><tspan id="SvgjsTspan1518" dy="16" x="97.5"><tspan id="SvgjsTspan1519" style="text-decoration:;">组件构建器</tspan></tspan></text></g></g><g id="SvgjsG1520" transform="translate(25.5,475.5268817204303)"><path id="SvgjsPath1521" d="M 0 0L 357.7777777777778 0L 357.7777777777778 74.13978494623643L 0 74.13978494623643Z" stroke="rgba(50,50,50,1)" stroke-width="2" fill-opacity="1" fill="#f5f5f5"></path><g id="SvgjsG1522"><text id="SvgjsText1523" font-family="微软雅黑" text-anchor="middle" font-size="13px" width="338px" fill="#323232" font-weight="400" align="middle" lineHeight="125%" anchor="middle" family="微软雅黑" size="13px" weight="400" font-style="" opacity="1" y="26.444892473118216" transform="rotate(0)"></text></g></g><g id="SvgjsG1524" transform="translate(25.5,439.33333333333337)"><path id="SvgjsPath1525" d="M 0 0L 357.7777777777777 0L 357.7777777777777 36.193548387096826L 0 36.193548387096826Z" stroke="rgba(50,50,50,1)" stroke-width="2" fill-opacity="1" fill="#ffcdd2"></path><g id="SvgjsG1526"><text id="SvgjsText1527" font-family="微软雅黑" text-anchor="middle" font-size="13px" width="338px" fill="#323232" font-weight="700" align="middle" lineHeight="125%" anchor="middle" family="微软雅黑" size="13px" weight="700" font-style="" opacity="1" y="7.471774193548413" transform="rotate(0)"><tspan id="SvgjsTspan1528" dy="16" x="179"><tspan id="SvgjsTspan1529" style="text-decoration:;">脚本插件</tspan></tspan></text></g></g><g id="SvgjsG1530" transform="translate(311.8333333333332,333.33333333333354)"><path id="SvgjsPath1531" d="M 0 4Q 0 0 4 0L 174.11111111111126 0Q 178.11111111111126 0 178.11111111111126 4L 178.11111111111126 50.000000000000455Q 178.11111111111126 54.000000000000455 174.11111111111126 54.000000000000455L 4 54.000000000000455Q 0 54.000000000000455 0 50.000000000000455Z" stroke="rgba(50,50,50,1)" stroke-width="2" fill-opacity="1" fill="#e1bee7"></path><g id="SvgjsG1532"><text id="SvgjsText1533" font-family="微软雅黑" text-anchor="middle" font-size="13px" width="159px" fill="#000000" font-weight="700" align="middle" lineHeight="125%" anchor="middle" family="微软雅黑" size="13px" weight="700" font-style="" opacity="1" y="16.375000000000227" transform="rotate(0)"><tspan id="SvgjsTspan1534" dy="16" x="89.5"><tspan id="SvgjsTspan1535" style="text-decoration:;">链路构建器</tspan></tspan></text></g></g><g id="SvgjsG1536" transform="translate(422.1666666666665,475.5268817204303)"><path id="SvgjsPath1537" d="M 0 0L 200.33333333333348 0L 200.33333333333348 74.13978494623655L 0 74.13978494623655Z" stroke="rgba(50,50,50,1)" stroke-width="2" fill-opacity="1" fill="#f5f5f5"></path><g id="SvgjsG1538"><text id="SvgjsText1539" font-family="微软雅黑" text-anchor="middle" font-size="13px" width="181px" fill="#323232" font-weight="400" align="middle" lineHeight="125%" anchor="middle" family="微软雅黑" size="13px" weight="400" font-style="" opacity="1" y="26.444892473118273" transform="rotate(0)"></text></g></g><g id="SvgjsG1540" transform="translate(422.1666666666665,439.33333333333326)"><path id="SvgjsPath1541" d="M 0 0L 200.33333333333348 0L 200.33333333333348 36.19354838709705L 0 36.19354838709705Z" stroke="rgba(50,50,50,1)" stroke-width="2" fill-opacity="1" fill="#ffcdd2"></path><g id="SvgjsG1542"><text id="SvgjsText1543" font-family="微软雅黑" text-anchor="middle" font-size="13px" width="181px" fill="#323232" font-weight="700" align="middle" lineHeight="125%" anchor="middle" family="微软雅黑" size="13px" weight="700" font-style="" opacity="1" y="7.4717741935485265" transform="rotate(0)"><tspan id="SvgjsTspan1544" dy="16" x="100.5"><tspan id="SvgjsTspan1545" style="text-decoration:;">EL执行器</tspan></tspan></text></g></g><g id="SvgjsG1546" transform="translate(40.97222222222234,493.64426523297504)"><path id="SvgjsPath1547" d="M 0 4Q 0 0 4 0L 92.40277777777766 0Q 96.40277777777766 0 96.40277777777766 4L 96.40277777777766 33.905017921146964Q 96.40277777777766 37.905017921146964 92.40277777777766 37.905017921146964L 4 37.905017921146964Q 0 37.905017921146964 0 33.905017921146964Z" stroke="rgba(0,0,0,1)" stroke-width="2" fill-opacity="1" fill="#e57373"></path><g id="SvgjsG1548"><text id="SvgjsText1549" font-family="微软雅黑" text-anchor="middle" font-size="13px" width="77px" fill="#ffffff" font-weight="700" align="middle" lineHeight="125%" anchor="middle" family="微软雅黑" size="13px" weight="700" font-style="" opacity="1" y="8.327508960573482" transform="rotate(0)"><tspan id="SvgjsTspan1550" dy="16" x="48.5"><tspan id="SvgjsTspan1551" style="text-decoration:;">Groovy</tspan></tspan></text></g></g><g id="SvgjsG1552" transform="translate(160.1111111111111,493.64426523297504)"><path id="SvgjsPath1553" d="M 0 4Q 0 0 4 0L 88.88888888888891 0Q 92.88888888888891 0 92.88888888888891 4L 92.88888888888891 33.905017921146964Q 92.88888888888891 37.905017921146964 88.88888888888891 37.905017921146964L 4 37.905017921146964Q 0 37.905017921146964 0 33.905017921146964Z" stroke="rgba(0,0,0,1)" stroke-width="2" fill-opacity="1" fill="#e57373"></path><g id="SvgjsG1554"><text id="SvgjsText1555" font-family="微软雅黑" text-anchor="middle" font-size="13px" width="73px" fill="#ffffff" font-weight="700" align="middle" lineHeight="125%" anchor="middle" family="微软雅黑" size="13px" weight="700" font-style="" opacity="1" y="8.327508960573482" transform="rotate(0)"><tspan id="SvgjsTspan1556" dy="16" x="46.5"><tspan id="SvgjsTspan1557" style="text-decoration:;">Javascript</tspan></tspan></text></g></g><g id="SvgjsG1558" transform="translate(271.6666666666667,493.64426523297504)"><path id="SvgjsPath1559" d="M 0 4Q 0 0 4 0L 85.45833333333331 0Q 89.45833333333331 0 89.45833333333331 4L 89.45833333333331 33.905017921146964Q 89.45833333333331 37.905017921146964 85.45833333333331 37.905017921146964L 4 37.905017921146964Q 0 37.905017921146964 0 33.905017921146964Z" stroke="rgba(0,0,0,1)" stroke-width="2" fill-opacity="1" fill="#e57373"></path><g id="SvgjsG1560"><text id="SvgjsText1561" font-family="微软雅黑" text-anchor="middle" font-size="13px" width="70px" fill="#ffffff" font-weight="700" align="middle" lineHeight="125%" anchor="middle" family="微软雅黑" size="13px" weight="700" font-style="" opacity="1" y="8.327508960573482" transform="rotate(0)"><tspan id="SvgjsTspan1562" dy="16" x="45"><tspan id="SvgjsTspan1563" style="text-decoration:;">QLExpress</tspan></tspan></text></g></g><g id="SvgjsG1564" transform="translate(446.69444444444423,493.64426523297504)"><path id="SvgjsPath1565" d="M 0 4Q 0 0 4 0L 147.27777777777806 0Q 151.27777777777806 0 151.27777777777806 4L 151.27777777777806 33.905017921146964Q 151.27777777777806 37.905017921146964 147.27777777777806 37.905017921146964L 4 37.905017921146964Q 0 37.905017921146964 0 33.905017921146964Z" stroke="rgba(50,50,50,1)" stroke-width="2" fill-opacity="1" fill="#e1bee7"></path><g id="SvgjsG1566"><text id="SvgjsText1567" font-family="微软雅黑" text-anchor="middle" font-size="13px" width="132px" fill="#000000" font-weight="700" align="middle" lineHeight="125%" anchor="middle" family="微软雅黑" size="13px" weight="700" font-style="" opacity="1" y="8.327508960573482" transform="rotate(0)"><tspan id="SvgjsTspan1568" dy="16" x="76"><tspan id="SvgjsTspan1569" style="text-decoration:;">核心EL解析执行过程</tspan></tspan></text></g></g><g id="SvgjsG1570" transform="translate(525,277.8888888888888)"><path id="SvgjsPath1571" d="M 0 0L 97.5 0L 97.5 63.818996415770584L 0 63.818996415770584Z" stroke="rgba(50,50,50,1)" stroke-width="2" fill-opacity="1" fill="#b2ebf2"></path><g id="SvgjsG1572"><text id="SvgjsText1573" font-family="微软雅黑" text-anchor="middle" font-size="13px" width="78px" fill="#323232" font-weight="700" align="middle" lineHeight="125%" anchor="middle" family="微软雅黑" size="13px" weight="700" font-style="" opacity="1" y="12.784498207885292" transform="rotate(0)"><tspan id="SvgjsTspan1574" dy="16" x="49"><tspan id="SvgjsTspan1575" style="text-decoration:;">单类单组件模</tspan></tspan><tspan id="SvgjsTspan1576" dy="16" x="49"><tspan id="SvgjsTspan1577" style="text-decoration:;">式</tspan></tspan></text></g></g><g id="SvgjsG1578" transform="translate(524.5,341.7078853046594)"><path id="SvgjsPath1579" d="M 0 0L 98.5 0L 98.5 64.87634408602241L 0 64.87634408602241Z" stroke="rgba(50,50,50,1)" stroke-width="2" fill-opacity="1" fill="#b2ebf2"></path><g id="SvgjsG1580"><text id="SvgjsText1581" font-family="微软雅黑" text-anchor="middle" font-size="13px" width="79px" fill="#323232" font-weight="700" align="middle" lineHeight="125%" anchor="middle" family="微软雅黑" size="13px" weight="700" font-style="" opacity="1" y="21.813172043011207" transform="rotate(0)"><tspan id="SvgjsTspan1582" dy="16" x="49.5"><tspan id="SvgjsTspan1583" style="text-decoration:;">声明式模式</tspan></tspan></text></g></g><g id="SvgjsG1584"><path id="SvgjsPath1585" d="M159.47222222222223 388.333333333334L159.47222222222223 413.50000000000034L159.47222222222223 413.50000000000034L159.47222222222223 434.76666666666665" stroke="#d32f2f" stroke-width="3" fill="none" marker-end="url(#SvgjsMarker1586)"></path></g><g id="SvgjsG1588"><path id="SvgjsPath1589" d="M461.05555555555554 387.3333333333333L461.05555555555554 413L461.05555555555554 413L461.05555555555554 434.76666666666665" stroke="#d32f2f" stroke-width="3" fill="none" marker-end="url(#SvgjsMarker1590)"></path></g><g id="SvgjsG1592" transform="translate(25.000000000000085,621.3737373737378)"><path id="SvgjsPath1593" d="M 0 0L 597.5 0L 597.5 220.85703185703142L 0 220.85703185703142Z" stroke="rgba(50,50,50,1)" stroke-width="2" fill-opacity="1" fill="#f5f5f5"></path><g id="SvgjsG1594"><text id="SvgjsText1595" font-family="微软雅黑" text-anchor="middle" font-size="13px" width="578px" fill="#323232" font-weight="400" align="middle" lineHeight="125%" anchor="middle" family="微软雅黑" size="13px" weight="400" font-style="" opacity="1" y="99.80351592851571" transform="rotate(0)"></text></g></g><g id="SvgjsG1596" transform="translate(25.5,584.9705115672859)"><path id="SvgjsPath1597" d="M 0 0L 596.5000000000002 0L 596.5000000000002 36.403225806451815L 0 36.403225806451815Z" stroke="rgba(50,50,50,1)" stroke-width="2" fill-opacity="1" fill="#ffcdd2"></path><g id="SvgjsG1598"><text id="SvgjsText1599" font-family="微软雅黑" text-anchor="middle" font-size="13px" width="577px" fill="#323232" font-weight="700" align="middle" lineHeight="125%" anchor="middle" family="微软雅黑" size="13px" weight="700" font-style="" opacity="1" y="7.576612903225907" transform="rotate(0)"><tspan id="SvgjsTspan1600" dy="16" x="298.5"><tspan id="SvgjsTspan1601" style="text-decoration:;">元数据管理</tspan></tspan></text></g></g><g id="SvgjsG1602" transform="translate(320.4141414141415,556.0303030303032)"><path id="SvgjsPath1603" d="M 0 0L 62.86363636363632 0L 62.86363636363632 24.242424242424022L 0 24.242424242424022Z" stroke="none" fill="none"></path><g id="SvgjsG1604"><text id="SvgjsText1605" font-family="微软雅黑" text-anchor="middle" font-size="13px" width="63px" fill="#e57373" font-weight="700" align="middle" lineHeight="125%" anchor="middle" family="微软雅黑" size="13px" weight="700" font-style="" opacity="1" y="1.496212121212011" transform="rotate(0)"><tspan id="SvgjsTspan1606" dy="16" x="31.5"><tspan id="SvgjsTspan1607" style="text-decoration:;">增加</tspan></tspan></text></g></g><g id="SvgjsG1608" transform="translate(46.40909090909096,642.3636363636365)"><path id="SvgjsPath1609" d="M 0 0L 551.5631313131312 0L 551.5631313131312 29L 0 29Z" stroke="rgba(50,50,50,1)" stroke-width="2" fill-opacity="1" fill="#fff9c4"></path><g id="SvgjsG1610"><text id="SvgjsText1611" font-family="微软雅黑" text-anchor="middle" font-size="13px" width="532px" fill="#323232" font-weight="700" align="middle" lineHeight="125%" anchor="middle" family="微软雅黑" size="13px" weight="700" font-style="" opacity="1" y="3.875" transform="rotate(0)"><tspan id="SvgjsTspan1612" dy="16" x="276"><tspan id="SvgjsTspan1613" style="text-decoration:;">Chain</tspan></tspan></text></g></g><g id="SvgjsG1614" transform="translate(46.40909090909096,671.3636363636365)"><path id="SvgjsPath1615" d="M 0 0L 551.5631313131313 0L 551.5631313131313 154.30303030303014L 0 154.30303030303014Z" stroke="rgba(50,50,50,1)" stroke-width="2" fill-opacity="1" fill="#b2ebf2"></path><g id="SvgjsG1616"><text id="SvgjsText1617" font-family="微软雅黑" text-anchor="middle" font-size="13px" width="532px" fill="#323232" font-weight="400" align="middle" lineHeight="125%" anchor="middle" family="微软雅黑" size="13px" weight="400" font-style="" opacity="1" y="66.52651515151507" transform="rotate(0)"></text></g></g><g id="SvgjsG1618" transform="translate(68.56349206349196,686.1214945448818)"><path id="SvgjsPath1619" d="M 0 0L 329.20634920634933 0L 329.20634920634933 20.989616566229415L 0 20.989616566229415Z" stroke="rgba(50,50,50,1)" stroke-width="2" fill-opacity="1" fill="#fff9c4"></path><g id="SvgjsG1620"><text id="SvgjsText1621" font-family="微软雅黑" text-anchor="middle" font-size="13px" width="310px" fill="#323232" font-weight="700" align="middle" lineHeight="125%" anchor="middle" family="微软雅黑" size="13px" weight="700" font-style="" opacity="1" y="-0.1301917168852924" transform="rotate(0)"><tspan id="SvgjsTspan1622" dy="16" x="165"><tspan id="SvgjsTspan1623" style="text-decoration:;">Condition</tspan></tspan></text></g></g><g id="SvgjsG1624" transform="translate(68.66666666666666,707.1111111111114)"><path id="SvgjsPath1625" d="M 0 0L 329.0000000000004 0L 329.0000000000004 97.28264208909332L 0 97.28264208909332Z" stroke="rgba(50,50,50,1)" stroke-width="2" fill-opacity="1" fill="#b2ebf2"></path><g id="SvgjsG1626"><text id="SvgjsText1627" font-family="微软雅黑" text-anchor="middle" font-size="13px" width="310px" fill="#323232" font-weight="400" align="middle" lineHeight="125%" anchor="middle" family="微软雅黑" size="13px" weight="400" font-style="" opacity="1" y="38.01632104454666" transform="rotate(0)"></text></g></g><g id="SvgjsG1628" transform="translate(100.07142857142836,725.7056017459244)"><path id="SvgjsPath1629" d="M 0 4Q 0 0 4 0L 68.92857142857153 0Q 72.92857142857153 0 72.92857142857153 4L 72.92857142857153 17.96945527590674Q 72.92857142857153 21.96945527590674 68.92857142857153 21.96945527590674L 4 21.96945527590674Q 0 21.96945527590674 0 17.96945527590674Z" stroke="rgba(50,50,50,1)" stroke-width="2" fill-opacity="1" fill="#e1bee7"></path><g id="SvgjsG1630"><text id="SvgjsText1631" font-family="微软雅黑" text-anchor="middle" font-size="12px" width="53px" fill="#000000" font-weight="700" align="middle" lineHeight="125%" anchor="middle" family="微软雅黑" size="12px" weight="700" font-style="" opacity="1" y="0.9847276379533696" transform="rotate(0)"><tspan id="SvgjsTspan1632" dy="15" x="36.5"><tspan id="SvgjsTspan1633" style="text-decoration:;">THEN</tspan></tspan></text></g></g><g id="SvgjsG1634" transform="translate(196.70238095238096,725.7056017459244)"><path id="SvgjsPath1635" d="M 0 4Q 0 0 4 0L 68.92857142857153 0Q 72.92857142857153 0 72.92857142857153 4L 72.92857142857153 17.96945527590674Q 72.92857142857153 21.96945527590674 68.92857142857153 21.96945527590674L 4 21.96945527590674Q 0 21.96945527590674 0 17.96945527590674Z" stroke="rgba(50,50,50,1)" stroke-width="2" fill-opacity="1" fill="#e1bee7"></path><g id="SvgjsG1636"><text id="SvgjsText1637" font-family="微软雅黑" text-anchor="middle" font-size="12px" width="53px" fill="#000000" font-weight="700" align="middle" lineHeight="125%" anchor="middle" family="微软雅黑" size="12px" weight="700" font-style="" opacity="1" y="0.9847276379533696" transform="rotate(0)"><tspan id="SvgjsTspan1638" dy="15" x="36.5"><tspan id="SvgjsTspan1639" style="text-decoration:;">WHEN</tspan></tspan></text></g></g><g id="SvgjsG1640" transform="translate(297.2857142857144,725.7056017459244)"><path id="SvgjsPath1641" d="M 0 4Q 0 0 4 0L 68.92857142857153 0Q 72.92857142857153 0 72.92857142857153 4L 72.92857142857153 17.96945527590674Q 72.92857142857153 21.96945527590674 68.92857142857153 21.96945527590674L 4 21.96945527590674Q 0 21.96945527590674 0 17.96945527590674Z" stroke="rgba(50,50,50,1)" stroke-width="2" fill-opacity="1" fill="#e1bee7"></path><g id="SvgjsG1642"><text id="SvgjsText1643" font-family="微软雅黑" text-anchor="middle" font-size="12px" width="53px" fill="#000000" font-weight="700" align="middle" lineHeight="125%" anchor="middle" family="微软雅黑" size="12px" weight="700" font-style="" opacity="1" y="0.9847276379533696" transform="rotate(0)"><tspan id="SvgjsTspan1644" dy="15" x="36.5"><tspan id="SvgjsTspan1645" style="text-decoration:;">SWITCH</tspan></tspan></text></g></g><g id="SvgjsG1646" transform="translate(100.07142857142836,765.752432155658)"><path id="SvgjsPath1647" d="M 0 4Q 0 0 4 0L 68.92857142857153 0Q 72.92857142857153 0 72.92857142857153 4L 72.92857142857153 17.96945527590674Q 72.92857142857153 21.96945527590674 68.92857142857153 21.96945527590674L 4 21.96945527590674Q 0 21.96945527590674 0 17.96945527590674Z" stroke="rgba(50,50,50,1)" stroke-width="2" fill-opacity="1" fill="#e1bee7"></path><g id="SvgjsG1648"><text id="SvgjsText1649" font-family="微软雅黑" text-anchor="middle" font-size="12px" width="53px" fill="#000000" font-weight="700" align="middle" lineHeight="125%" anchor="middle" family="微软雅黑" size="12px" weight="700" font-style="" opacity="1" y="0.9847276379533696" transform="rotate(0)"><tspan id="SvgjsTspan1650" dy="15" x="36.5"><tspan id="SvgjsTspan1651" style="text-decoration:;">IF</tspan></tspan></text></g></g><g id="SvgjsG1652" transform="translate(196.70238095238108,765.752432155658)"><path id="SvgjsPath1653" d="M 0 4Q 0 0 4 0L 68.92857142857153 0Q 72.92857142857153 0 72.92857142857153 4L 72.92857142857153 17.96945527590674Q 72.92857142857153 21.96945527590674 68.92857142857153 21.96945527590674L 4 21.96945527590674Q 0 21.96945527590674 0 17.96945527590674Z" stroke="rgba(50,50,50,1)" stroke-width="2" fill-opacity="1" fill="#e1bee7"></path><g id="SvgjsG1654"><text id="SvgjsText1655" font-family="微软雅黑" text-anchor="middle" font-size="12px" width="53px" fill="#000000" font-weight="700" align="middle" lineHeight="125%" anchor="middle" family="微软雅黑" size="12px" weight="700" font-style="" opacity="1" y="0.9847276379533696" transform="rotate(0)"><tspan id="SvgjsTspan1656" dy="15" x="36.5"><tspan id="SvgjsTspan1657" style="text-decoration:;">LOOP</tspan></tspan></text></g></g><g id="SvgjsG1658" transform="translate(297.28571428571433,765.752432155658)"><path id="SvgjsPath1659" d="M 0 4Q 0 0 4 0L 68.92857142857153 0Q 72.92857142857153 0 72.92857142857153 4L 72.92857142857153 17.96945527590674Q 72.92857142857153 21.96945527590674 68.92857142857153 21.96945527590674L 4 21.96945527590674Q 0 21.96945527590674 0 17.96945527590674Z" stroke="rgba(50,50,50,1)" stroke-width="2" fill-opacity="1" fill="#e1bee7"></path><g id="SvgjsG1660"><text id="SvgjsText1661" font-family="微软雅黑" text-anchor="middle" font-size="12px" width="53px" fill="#000000" font-weight="700" align="middle" lineHeight="125%" anchor="middle" family="微软雅黑" size="12px" weight="700" font-style="" opacity="1" y="0.9847276379533696" transform="rotate(0)"><tspan id="SvgjsTspan1662" dy="15" x="36.5"><tspan id="SvgjsTspan1663" style="text-decoration:;">PRE/FNL</tspan></tspan></text></g></g><g id="SvgjsG1664" transform="translate(432.1666666666665,707.1111111111113)"><path id="SvgjsPath1665" d="M 0 0L 141.7948717948725 0L 141.7948717948725 97.28264208909354L 0 97.28264208909354Z" stroke="rgba(50,50,50,1)" stroke-width="2" fill-opacity="1" fill="#b2ebf2"></path><g id="SvgjsG1666"><text id="SvgjsText1667" font-family="微软雅黑" text-anchor="middle" font-size="13px" width="122px" fill="#323232" font-weight="400" align="middle" lineHeight="125%" anchor="middle" family="微软雅黑" size="13px" weight="400" font-style="" opacity="1" y="38.01632104454677" transform="rotate(0)"></text></g></g><g id="SvgjsG1668" transform="translate(438.4047619047615,716.8688592433554)"><path id="SvgjsPath1669" d="M 0 4Q 0 0 4 0L 56.4285714285719 0Q 60.4285714285719 0 60.4285714285719 4L 60.4285714285719 16Q 60.4285714285719 20 56.4285714285719 20L 4 20Q 0 20 0 16Z" stroke="rgba(50,50,50,1)" stroke-width="2" fill-opacity="1" fill="#e1bee7"></path><g id="SvgjsG1670"><text id="SvgjsText1671" font-family="微软雅黑" text-anchor="middle" font-size="12px" width="41px" fill="#000000" font-weight="700" align="middle" lineHeight="125%" anchor="middle" family="微软雅黑" size="12px" weight="700" font-style="" opacity="1" y="0" transform="rotate(0)"><tspan id="SvgjsTspan1672" dy="15" x="30.5"><tspan id="SvgjsTspan1673" style="text-decoration:;">Node1</tspan></tspan></text></g></g><g id="SvgjsG1674" transform="translate(438.4047619047616,745.752432155658)"><path id="SvgjsPath1675" d="M 0 4Q 0 0 4 0L 56.42857142857156 0Q 60.42857142857156 0 60.42857142857156 4L 60.42857142857156 16Q 60.42857142857156 20 56.42857142857156 20L 4 20Q 0 20 0 16Z" stroke="rgba(50,50,50,1)" stroke-width="2" fill-opacity="1" fill="#e1bee7"></path><g id="SvgjsG1676"><text id="SvgjsText1677" font-family="微软雅黑" text-anchor="middle" font-size="12px" width="41px" fill="#000000" font-weight="700" align="middle" lineHeight="125%" anchor="middle" family="微软雅黑" size="12px" weight="700" font-style="" opacity="1" y="0" transform="rotate(0)"><tspan id="SvgjsTspan1678" dy="15" x="30.5"><tspan id="SvgjsTspan1679" style="text-decoration:;">Node2</tspan></tspan></text></g></g><g id="SvgjsG1680" transform="translate(438.40476190476136,774.6360050679606)"><path id="SvgjsPath1681" d="M 0 4Q 0 0 4 0L 56.42857142857213 0Q 60.42857142857213 0 60.42857142857213 4L 60.42857142857213 16.030661598705933Q 60.42857142857213 20.030661598705933 56.42857142857213 20.030661598705933L 4 20.030661598705933Q 0 20.030661598705933 0 16.030661598705933Z" stroke="rgba(50,50,50,1)" stroke-width="2" fill-opacity="1" fill="#e1bee7"></path><g id="SvgjsG1682"><text id="SvgjsText1683" font-family="微软雅黑" text-anchor="middle" font-size="12px" width="41px" fill="#000000" font-weight="700" align="middle" lineHeight="125%" anchor="middle" family="微软雅黑" size="12px" weight="700" font-style="" opacity="1" y="0.015330799352966551" transform="rotate(0)"><tspan id="SvgjsTspan1684" dy="15" x="30.5"><tspan id="SvgjsTspan1685" style="text-decoration:;">Node3</tspan></tspan></text></g></g><g id="SvgjsG1686" transform="translate(432.1666666666665,685.2473193249403)"><path id="SvgjsPath1687" d="M 0 0L 141.79487179487137 0L 141.79487179487137 22.737967006112285L 0 22.737967006112285Z" stroke="rgba(50,50,50,1)" stroke-width="2" fill-opacity="1" fill="#fff9c4"></path><g id="SvgjsG1688"><text id="SvgjsText1689" font-family="微软雅黑" text-anchor="middle" font-size="13px" width="122px" fill="#323232" font-weight="700" align="middle" lineHeight="125%" anchor="middle" family="微软雅黑" size="13px" weight="700" font-style="" opacity="1" y="0.7439835030561426" transform="rotate(0)"><tspan id="SvgjsTspan1690" dy="16" x="71"><tspan id="SvgjsTspan1691" style="text-decoration:;">Node</tspan></tspan></text></g></g><g id="SvgjsG1692" transform="translate(508.40476190476136,716.8688592433554)"><path id="SvgjsPath1693" d="M 0 4Q 0 0 4 0L 56.4285714285719 0Q 60.4285714285719 0 60.4285714285719 4L 60.4285714285719 16Q 60.4285714285719 20 56.4285714285719 20L 4 20Q 0 20 0 16Z" stroke="rgba(50,50,50,1)" stroke-width="2" fill-opacity="1" fill="#e1bee7"></path><g id="SvgjsG1694"><text id="SvgjsText1695" font-family="微软雅黑" text-anchor="middle" font-size="12px" width="41px" fill="#000000" font-weight="700" align="middle" lineHeight="125%" anchor="middle" family="微软雅黑" size="12px" weight="700" font-style="" opacity="1" y="0" transform="rotate(0)"><tspan id="SvgjsTspan1696" dy="15" x="30.5"><tspan id="SvgjsTspan1697" style="text-decoration:;">Node4</tspan></tspan></text></g></g><g id="SvgjsG1698" transform="translate(508.4047619047617,745.7524321556579)"><path id="SvgjsPath1699" d="M 0 4Q 0 0 4 0L 56.4285714285719 0Q 60.4285714285719 0 60.4285714285719 4L 60.4285714285719 16Q 60.4285714285719 20 56.4285714285719 20L 4 20Q 0 20 0 16Z" stroke="rgba(50,50,50,1)" stroke-width="2" fill-opacity="1" fill="#e1bee7"></path><g id="SvgjsG1700"><text id="SvgjsText1701" font-family="微软雅黑" text-anchor="middle" font-size="12px" width="41px" fill="#000000" font-weight="700" align="middle" lineHeight="125%" anchor="middle" family="微软雅黑" size="12px" weight="700" font-style="" opacity="1" y="0" transform="rotate(0)"><tspan id="SvgjsTspan1702" dy="15" x="30.5"><tspan id="SvgjsTspan1703" style="text-decoration:;">Node5</tspan></tspan></text></g></g><g id="SvgjsG1704" transform="translate(508.4047619047619,774.6513358673135)"><path id="SvgjsPath1705" d="M 0 4Q 0 0 4 0L 56.4285714285719 0Q 60.4285714285719 0 60.4285714285719 4L 60.4285714285719 16Q 60.4285714285719 20 56.4285714285719 20L 4 20Q 0 20 0 16Z" stroke="rgba(50,50,50,1)" stroke-width="2" fill-opacity="1" fill="#e1bee7"></path><g id="SvgjsG1706"><text id="SvgjsText1707" font-family="微软雅黑" text-anchor="middle" font-size="12px" width="41px" fill="#000000" font-weight="700" align="middle" lineHeight="125%" anchor="middle" family="微软雅黑" size="12px" weight="700" font-style="" opacity="1" y="0" transform="rotate(0)"><tspan id="SvgjsTspan1708" dy="15" x="30.5"><tspan id="SvgjsTspan1709" style="text-decoration:;">Node6</tspan></tspan></text></g></g><g id="SvgjsG1710" transform="translate(668.5,584.9705115672859)"><path id="SvgjsPath1711" d="M 0 0L 273 0L 273 112.57494297816856L 0 112.57494297816856Z" stroke="rgba(50,50,50,1)" stroke-width="2" fill-opacity="1" fill="#e1bee7"></path><g id="SvgjsG1712"><text id="SvgjsText1713" font-family="微软雅黑" text-anchor="middle" font-size="13px" width="253px" fill="#323232" font-weight="700" align="middle" lineHeight="125%" anchor="middle" family="微软雅黑" size="13px" weight="700" font-style="" opacity="1" y="45.66247148908428" transform="rotate(0)"><tspan id="SvgjsTspan1714" dy="16" x="136.5"><tspan id="SvgjsTspan1715" style="text-decoration:;">上下文管理器</tspan></tspan></text></g></g><g id="SvgjsG1716" transform="translate(668.4999999999999,729.6558262526006)"><path id="SvgjsPath1717" d="M 0 0L 273 0L 273 112.57494297816856L 0 112.57494297816856Z" stroke="rgba(50,50,50,1)" stroke-width="2" fill-opacity="1" fill="#e1bee7"></path><g id="SvgjsG1718"><text id="SvgjsText1719" font-family="微软雅黑" text-anchor="middle" font-size="13px" width="253px" fill="#323232" font-weight="700" align="middle" lineHeight="125%" anchor="middle" family="微软雅黑" size="13px" weight="700" font-style="" opacity="1" y="45.66247148908428" transform="rotate(0)"><tspan id="SvgjsTspan1720" dy="16" x="136.5"><tspan id="SvgjsTspan1721" style="text-decoration:;">数据上下文</tspan></tspan></text></g></g><g id="SvgjsG1722" transform="translate(25.000000000000227,875.6565656565654)"><path id="SvgjsPath1723" d="M 0 0L 597.4999999999998 0L 597.4999999999998 87.7979797979799L 0 87.7979797979799Z" stroke="rgba(50,50,50,1)" stroke-width="2" fill-opacity="1" fill="#e1bee7"></path><g id="SvgjsG1724"><text id="SvgjsText1725" font-family="微软雅黑" text-anchor="middle" font-size="13px" width="578px" fill="#323232" font-weight="700" align="middle" lineHeight="125%" anchor="middle" family="微软雅黑" size="13px" weight="700" font-style="" opacity="1" y="33.27398989898995" transform="rotate(0)"><tspan id="SvgjsTspan1726" dy="16" x="299"><tspan id="SvgjsTspan1727" style="text-decoration:;">LiteFlow执行器</tspan></tspan></text></g></g><g id="SvgjsG1728" transform="translate(668.5,901.6363636363635)"><path id="SvgjsPath1729" d="M 0 0L 272.9999999999998 0L 272.9999999999998 61.818181818181756L 0 61.818181818181756Z" stroke="rgba(50,50,50,1)" stroke-width="2" fill-opacity="1" fill="#e57373"></path><g id="SvgjsG1730"><text id="SvgjsText1731" font-family="微软雅黑" text-anchor="middle" font-size="13px" width="253px" fill="#323232" font-weight="700" align="middle" lineHeight="125%" anchor="middle" family="微软雅黑" size="13px" weight="700" font-style="" opacity="1" y="20.284090909090878" transform="rotate(0)"><tspan id="SvgjsTspan1732" dy="16" x="136.5"><tspan id="SvgjsTspan1733" style="text-decoration:;">THEN(a, IF(x, b, c), WHEN(d, e));</tspan></tspan></text></g></g><g id="SvgjsG1734"><path id="SvgjsPath1735" d="M805 698.5454545454545L805 713.6006403990275L805 713.6006403990275L805 724.7558262526006" stroke="#d32f2f" stroke-width="3" fill="none" marker-end="url(#SvgjsMarker1736)"></path></g><g id="SvgjsG1738" transform="translate(817.1818181818182,846.939393939394)"><path id="SvgjsPath1739" d="M 0 0L 108.3181818181821 0L 108.3181818181821 24.242424242424022L 0 24.242424242424022Z" stroke="none" fill="none"></path><g id="SvgjsG1740"><text id="SvgjsText1741" font-family="微软雅黑" text-anchor="middle" font-size="13px" width="109px" fill="#e57373" font-weight="700" align="middle" lineHeight="125%" anchor="middle" family="微软雅黑" size="13px" weight="700" font-style="" opacity="1" y="1.496212121212011" transform="rotate(0)"><tspan id="SvgjsTspan1742" dy="16" x="54.5"><tspan id="SvgjsTspan1743" style="text-decoration:;">Exchange Data</tspan></tspan></text></g></g><g id="SvgjsG1744" transform="translate(346.81818181818215,846.939393939394)"><path id="SvgjsPath1745" d="M 0 0L 62.86363636363632 0L 62.86363636363632 24.242424242424022L 0 24.242424242424022Z" stroke="none" fill="none"></path><g id="SvgjsG1746"><text id="SvgjsText1747" font-family="微软雅黑" text-anchor="middle" font-size="13px" width="63px" fill="#e57373" font-weight="700" align="middle" lineHeight="125%" anchor="middle" family="微软雅黑" size="13px" weight="700" font-style="" opacity="1" y="1.496212121212011" transform="rotate(0)"><tspan id="SvgjsTspan1748" dy="16" x="31.5"><tspan id="SvgjsTspan1749" style="text-decoration:;">获得链路</tspan></tspan></text></g></g><g id="SvgjsG1750"><path id="SvgjsPath1751" d="M323.7500000000001 847.1307692307691L323.7500000000001 858.9436674436672L323.7500000000001 858.9436674436672L323.7500000000001 874.6565656565654" stroke="#d32f2f" stroke-width="3" fill="none" marker-start="url(#SvgjsMarker1752)"></path></g><g id="SvgjsG1754" transform="translate(817.1818181818182,701.4631775035009)"><path id="SvgjsPath1755" d="M 0 0L 62.86363636363632 0L 62.86363636363632 24.242424242424022L 0 24.242424242424022Z" stroke="none" fill="none"></path><g id="SvgjsG1756"><text id="SvgjsText1757" font-family="微软雅黑" text-anchor="middle" font-size="13px" width="63px" fill="#e57373" font-weight="700" align="middle" lineHeight="125%" anchor="middle" family="微软雅黑" size="13px" weight="700" font-style="" opacity="1" y="1.496212121212011" transform="rotate(0)"><tspan id="SvgjsTspan1758" dy="16" x="31.5"><tspan id="SvgjsTspan1759" style="text-decoration:;">生成</tspan></tspan></text></g></g><g id="SvgjsG1760"><path id="SvgjsPath1761" d="M623.5 919.5555555555552L645.8181818181818 919.5555555555552L645.8181818181818 919.5555555555552L664.2363636363636 919.5555555555552" stroke="#d32f2f" stroke-width="3" fill="none" marker-end="url(#SvgjsMarker1762)"></path></g><g id="SvgjsG1764" transform="translate(613.5454545454545,884.2121212121208)"><path id="SvgjsPath1765" d="M 0 0L 62.86363636363632 0L 62.86363636363632 24.242424242424022L 0 24.242424242424022Z" stroke="none" fill="none"></path><g id="SvgjsG1766"><text id="SvgjsText1767" font-family="微软雅黑" text-anchor="middle" font-size="12px" width="63px" fill="#e57373" font-weight="700" align="middle" lineHeight="125%" anchor="middle" family="微软雅黑" size="12px" weight="700" font-style="" opacity="1" y="2.121212121212011" transform="rotate(0)"><tspan id="SvgjsTspan1768" dy="15" x="31.5"><tspan id="SvgjsTspan1769" style="text-decoration:;">Execute</tspan></tspan></text></g></g><g id="SvgjsG1770" transform="translate(668.5000000000002,875.6565656565654)"><path id="SvgjsPath1771" d="M 0 0L 272.9999999999993 0L 272.9999999999993 25.97979797979815L 0 25.97979797979815Z" stroke="rgba(50,50,50,1)" stroke-width="2" fill-opacity="1" fill="#fff9c4"></path><g id="SvgjsG1772"><text id="SvgjsText1773" font-family="微软雅黑" text-anchor="middle" font-size="13px" width="253px" fill="#323232" font-weight="700" align="middle" lineHeight="125%" anchor="middle" family="微软雅黑" size="13px" weight="700" font-style="" opacity="1" y="2.364898989899075" transform="rotate(0)"><tspan id="SvgjsTspan1774" dy="16" x="136.5"><tspan id="SvgjsTspan1775" style="text-decoration:;">规则</tspan></tspan></text></g></g><g id="SvgjsG1776"><path id="SvgjsPath1777" d="M804.9999999999999 870.7565656565654L804.9999999999999 858.9436674436672L804.9999999999999 858.9436674436672L804.9999999999999 847.1307692307691" stroke="#d32f2f" stroke-width="3" fill="none" marker-start="url(#SvgjsMarker1778)" marker-end="url(#SvgjsMarker1780)"></path></g></svg>