<svg xmlns="http://www.w3.org/2000/svg" xmlns:xlink="http://www.w3.org/1999/xlink" fill="none" version="1.1" width="528.4400024414062" height="526.0400085449219" viewBox="0 0 528.4400024414062 526.0400085449219"><defs><filter id="master_svg1_5_0" filterUnits="userSpaceOnUse" color-interpolation-filters="sRGB" x="0" y="0" width="528.4400024414062" height="518.0400085449219"><feFlood flood-opacity="0" result="BackgroundImageFix"/><feColorMatrix in="SourceAlpha" type="matrix" values="0 0 0 0 0 0 0 0 0 0 0 0 0 0 0 0 0 0 127 0"/><feOffset dy="4" dx="0"/><feGaussianBlur stdDeviation="5"/><feColorMatrix type="matrix" values="0 0 0 0 0 0 0 0 0 0 0 0 0 0 0 0 0 0 0.3019607961177826 0"/><feBlend mode="normal" in2="BackgroundImageFix" result="effect1_dropShadow"/><feBlend mode="normal" in="SourceGraphic" in2="effect1_dropShadow" result="shape"/></filter><mask id="master_svg2_5_5"><rect x="48.21999740600586" y="44.019989013671875" width="422" height="422" rx="210.98109436035156" fill="#FFFFFF" fill-opacity="1"/></mask></defs><clipPath id="master_svg0_5_0"><rect x="10" y="6" width="508.44000244140625" height="498.0400085449219" rx="0"/></clipPath><g filter="url(#master_svg1_5_0)"><g><g style="mix-blend-mode:passthrough"><ellipse cx="259.0000457763672" cy="255.00001525878906" rx="230.00001525878906" ry="230.00001525878906" fill="#21222C" fill-opacity="1"/></g><g><g mask="url(#master_svg2_5_5)"><g><rect x="1.3557090759277344" y="168.26817321777344" width="111.6500015258789" height="234.33999633789062" rx="20.8700008392334" transform="matrix(0.7071067690849304,-0.7071067690849304,0.7071067690849304,0.7071067690849304,-118.58648629241384,50.24323997842862)" fill="#FFFFFF" fill-opacity="1"/><rect x="272.02688217163086" y="255.02001953125" width="111.6500015258789" height="234.33999633789062" rx="20.8700008392334" transform="matrix(0.7071067690849304,-0.7071067690849304,0.7071067690849304,0.7071067690849304,-100.65154964771614,267.0456872251609)" fill="#FFFFFF" fill-opacity="1"/><rect x="180.0672264099121" y="163.06344604492188" width="234.33999633789062" height="111.6500015258789" rx="20.8700008392334" transform="matrix(0.7071067690849304,-0.7071067690849304,0.7071067690849304,0.7071067690849304,-62.56279476356508,175.0869342410399)" fill="#FFFFFF" fill-opacity="1"/><rect x="93.32536697387695" y="433.734619140625" width="234.33999633789062" height="111.6500015258789" rx="20.8700008392334" transform="matrix(0.7071067690849304,-0.7071067690849304,0.7071067690849304,0.7071067690849304,-279.3623169214968,193.02893267437844)" fill="#FFFFFF" fill-opacity="1"/><path d="M164.2599939147949,147.32003720092774L89.25999791479492,72.32003720092774C84.90999391479492,67.96003720092773,162.2599939147949,32.19003720092773,168.4399939147949,32.19003720092773L235.44029391479492,9.189998600927735C241.63029391479492,9.189998600927735,313.21029391479493,8.189998200927734,308.83029391479494,12.579997200927735L174.10999391479493,147.32003720092774C171.38209391479492,150.02103720092774,166.98789391479494,150.02103720092774,164.2599939147949,147.32003720092774Z" fill="#E01E5A" fill-opacity="1"/><path d="M366.77999404663086,160.2399587524414L453.13000404663086,73.89999775244141C457.51000404663085,69.5099987524414,477.44030404663084,123.99995875244142,477.44030404663084,130.1999587524414L518.4403040466309,258.1996587524414C518.4403040466309,264.3996587524414,496.55030404663086,299.8496587524414,492.17030404663086,295.46965875244143L366.77999404663086,170.0799587524414C364.08575104663083,167.3532587524414,364.08575104663083,162.96675875244142,366.77999404663086,160.2399587524414Z" fill="#E01E5A" fill-opacity="1"/><path d="M353.48017062377926,362.5199880957031L436.8001706237793,445.8399980957031C441.1801706237793,450.2199980957031,423.6301706237793,454.1999980957031,417.4401706237793,454.1999980957031L276.4399706237793,496.20029809570315C270.2399706237793,496.20029809570315,205.3199906237793,500.84029809570313,209.6999936237793,496.46029809570314L343.6401706237793,362.5199880957031C346.3671706237793,359.8257450957031,350.7531706237793,359.8257450957031,353.48017062377926,362.5199880957031Z" fill="#E01E5A" fill-opacity="1"/><path d="M151.3102859802246,349.7600767822266L81.64998598022461,419.4200767822266C77.26998598022462,423.8000767822266,74.4399859802246,410.4200767822266,74.4399859802246,404.2000767822266L38.43999598022461,254.19997678222657C38.43999598022461,248.00997678222657,33.12999598022461,221.74001678222658,37.50999598022461,226.13000478222656L151.3102859802246,339.92007678222654C154.0042859802246,342.6470767822266,154.0042859802246,347.03307678222654,151.3102859802246,349.7600767822266Z" fill="#E01E5A" fill-opacity="1"/></g></g></g></g></g></svg>