<svg width="104" height="24" viewBox="0 0 104 24" fill="none" xmlns="http://www.w3.org/2000/svg">
<path fill-rule="evenodd" clip-rule="evenodd" d="M45.2097 19.22V9.21998H48.6497V19.22H45.2097ZM46.9297 7.97998C46.3697 7.97998 45.9163 7.82664 45.5697 7.51998C45.223 7.19998 45.0497 6.77998 45.0497 6.25998C45.0497 5.73998 45.223 5.32664 45.5697 5.01998C45.9163 4.69998 46.3697 4.53998 46.9297 4.53998C47.4897 4.53998 47.943 4.69998 48.2897 5.01998C48.6363 5.32664 48.8097 5.73998 48.8097 6.25998C48.8097 6.77998 48.6363 7.19998 48.2897 7.51998C47.943 7.82664 47.4897 7.97998 46.9297 7.97998ZM85.5293 19.4597C84.2893 19.4597 83.296 18.9931 82.5493 18.0597C81.816 17.1131 81.4493 15.8331 81.4493 14.2197C81.4493 13.1264 81.6427 12.1931 82.0293 11.4197C82.4293 10.6331 82.9427 10.0331 83.5693 9.61974C84.196 9.19308 84.8493 8.97974 85.5293 8.97974C86.076 8.97974 86.5227 9.07308 86.8693 9.25974C87.2293 9.43308 87.556 9.67308 87.8493 9.97974L87.7293 8.53974V5.29974H91.1693V19.2197H88.3693L88.1293 18.2997H88.0493C87.716 18.6331 87.3227 18.9131 86.8693 19.1397C86.416 19.3531 85.9693 19.4597 85.5293 19.4597ZM86.4493 16.6597C86.716 16.6597 86.9493 16.6131 87.1493 16.5197C87.3627 16.4131 87.556 16.2197 87.7293 15.9397V12.2597C87.5293 12.0731 87.3093 11.9464 87.0693 11.8797C86.8293 11.8131 86.596 11.7797 86.3693 11.7797C86.0093 11.7797 85.6827 11.9597 85.3893 12.3197C85.1093 12.6797 84.9693 13.2997 84.9693 14.1797C84.9693 15.0731 85.1027 15.7131 85.3693 16.0997C85.636 16.4731 85.996 16.6597 86.4493 16.6597ZM98.131 19.4594C97.1576 19.4594 96.2776 19.2528 95.491 18.8394C94.7176 18.4261 94.1043 17.8328 93.6509 17.0594C93.1976 16.2728 92.9709 15.3261 92.9709 14.2194C92.9709 13.1394 93.1976 12.2128 93.6509 11.4394C94.1176 10.6528 94.7176 10.0461 95.451 9.61943C96.1843 9.19276 96.9576 8.97943 97.771 8.97943C98.7576 8.97943 99.5709 9.19943 100.211 9.63943C100.864 10.0661 101.344 10.6461 101.651 11.3794C101.971 12.1128 102.131 12.9261 102.131 13.8194C102.131 14.1128 102.111 14.3994 102.071 14.6794C102.044 14.9461 102.018 15.1394 101.991 15.2594H96.2909C96.451 15.8594 96.7376 16.2794 97.1509 16.5194C97.5643 16.7461 98.0509 16.8594 98.6109 16.8594C99.2509 16.8594 99.9309 16.6594 100.651 16.2594L101.771 18.2994C101.238 18.6728 100.638 18.9594 99.9709 19.1594C99.3043 19.3594 98.6909 19.4594 98.131 19.4594ZM96.2509 13.0194H99.2109C99.2109 12.6328 99.1109 12.2994 98.9109 12.0194C98.7243 11.7261 98.3709 11.5794 97.851 11.5794C97.4776 11.5794 97.1443 11.6928 96.8509 11.9194C96.5576 12.1461 96.3576 12.5128 96.2509 13.0194ZM72.718 18.8394C73.478 19.2528 74.2846 19.4594 75.138 19.4594C75.9913 19.4594 76.7913 19.2528 77.538 18.8394C78.298 18.4261 78.9113 17.8328 79.378 17.0594C79.858 16.2728 80.098 15.3261 80.098 14.2194C80.098 13.1128 79.858 12.1728 79.378 11.3994C78.9113 10.6128 78.298 10.0128 77.538 9.59943C76.7913 9.1861 75.9913 8.97943 75.138 8.97943C74.2846 8.97943 73.478 9.1861 72.718 9.59943C71.9713 10.0128 71.358 10.6128 70.878 11.3994C70.4113 12.1728 70.178 13.1128 70.178 14.2194C70.178 15.3261 70.4113 16.2728 70.878 17.0594C71.358 17.8328 71.9713 18.4261 72.718 18.8394ZM76.238 16.0394C76.0246 16.4794 75.658 16.6994 75.138 16.6994C74.618 16.6994 74.2446 16.4794 74.018 16.0394C73.8046 15.5861 73.698 14.9794 73.698 14.2194C73.698 13.4594 73.8046 12.8594 74.018 12.4194C74.2446 11.9661 74.618 11.7394 75.138 11.7394C75.658 11.7394 76.0246 11.9661 76.238 12.4194C76.4646 12.8594 76.578 13.4594 76.578 14.2194C76.578 14.9794 76.4646 15.5861 76.238 16.0394ZM64.8992 19.4594C63.7926 19.4594 62.7659 19.2194 61.8192 18.7394C60.8859 18.2461 60.1326 17.5061 59.5592 16.5194C58.9859 15.5328 58.6992 14.2994 58.6992 12.8194C58.6992 11.7261 58.8659 10.7594 59.1992 9.91943C59.5459 9.0661 60.0126 8.3461 60.5992 7.75943C61.1992 7.17277 61.8726 6.73276 62.6192 6.43943C63.3792 6.13276 64.1659 5.97943 64.9792 5.97943C65.8459 5.97943 66.6192 6.15276 67.2992 6.49943C67.9926 6.83277 68.5659 7.23277 69.0192 7.69943L67.2192 9.89943C66.8992 9.61943 66.5659 9.39277 66.2192 9.21943C65.8859 9.03277 65.4992 8.93943 65.0592 8.93943C64.5526 8.93943 64.0792 9.09277 63.6392 9.39943C63.2126 9.69277 62.8659 10.1194 62.5992 10.6794C62.3459 11.2394 62.2192 11.9128 62.2192 12.6994C62.2192 13.9128 62.4726 14.8528 62.9792 15.5194C63.4992 16.1728 64.1792 16.4994 65.0192 16.4994C65.5259 16.4994 65.9726 16.3861 66.3592 16.1594C66.7592 15.9328 67.0992 15.6728 67.3792 15.3794L69.1792 17.5394C68.6326 18.1794 67.9926 18.6594 67.2592 18.9794C66.5259 19.2994 65.7392 19.4594 64.8992 19.4594ZM52.2714 18.3401C52.8581 19.0867 53.7981 19.4601 55.0914 19.4601C55.6381 19.4601 56.1048 19.4201 56.4914 19.3401C56.8781 19.2601 57.1981 19.1801 57.4514 19.1001L56.9314 16.6201C56.8114 16.6601 56.6714 16.7001 56.5114 16.7401C56.3648 16.7667 56.2114 16.7801 56.0514 16.7801C55.7314 16.7801 55.4514 16.6734 55.2114 16.4601C54.9714 16.2467 54.8514 15.8667 54.8514 15.3201V11.9001H57.1314V9.22006H54.8514V6.62006H52.0114L51.6114 9.22006L50.0914 9.34006V11.9001H51.4114V15.3801C51.4114 16.5934 51.6981 17.5801 52.2714 18.3401ZM35.24 18.7394C36.24 19.2194 37.3467 19.4594 38.56 19.4594C39.48 19.4594 40.3267 19.3061 41.1 18.9994C41.8867 18.6794 42.5067 18.2994 42.96 17.8594V11.6594H38V14.4594H39.92V16.2594C39.8 16.3394 39.6467 16.3994 39.46 16.4394C39.2867 16.4794 39.1067 16.4994 38.92 16.4994C37.76 16.4994 36.9 16.1728 36.34 15.5194C35.7933 14.8528 35.52 13.9128 35.52 12.6994C35.52 11.5128 35.8133 10.5928 36.4 9.93943C36.9867 9.27277 37.72 8.93943 38.6 8.93943C39.12 8.93943 39.5533 9.03277 39.9 9.21943C40.26 9.39277 40.6 9.61943 40.92 9.89943L42.72 7.69943C42.2667 7.23277 41.6867 6.83277 40.98 6.49943C40.2733 6.15276 39.44 5.97943 38.48 5.97943C37.6133 5.97943 36.7867 6.13276 36 6.43943C35.2267 6.73276 34.54 7.17277 33.94 7.75943C33.34 8.3461 32.8667 9.0661 32.52 9.91943C32.1733 10.7594 32 11.7261 32 12.8194C32 14.2994 32.2933 15.5328 32.88 16.5194C33.4667 17.5061 34.2533 18.2461 35.24 18.7394Z" fill="black"/>
<path fill-rule="evenodd" clip-rule="evenodd" d="M15.4791 4.97677C15.6201 4.89789 15.7691 4.8145 15.93 4.72314C15.9494 4.82848 15.9683 4.92046 15.9854 5.00383C16.0157 5.15091 16.0406 5.2719 16.0525 5.39144C16.1479 6.4296 16.6697 7.1933 17.4093 7.36527C18.4908 7.61639 19.5106 7.20133 20.06 6.28555C20.72 5.18673 20.4334 3.84099 19.3097 3.03098C16.1851 0.777435 12.7523 0.155888 9.05448 1.24127C1.08137 3.59371 -1.64675 13.3884 4.01196 19.3949C6.43292 21.9642 9.50695 23.0727 12.9963 22.9889C17.4663 22.8839 20.6857 20.6563 22.7408 16.7954C24.1978 14.0561 22.6139 11.0619 19.5805 10.4396C17.8481 10.0908 16.0765 9.97757 14.3137 10.103C13.7272 10.1594 13.1579 10.3325 12.6394 10.6124C12.0592 10.9135 11.8915 11.5383 11.9565 12.1575C12.0171 12.7217 12.4498 13.0601 12.965 13.1453C14.0024 13.3077 15.0522 13.402 16.1 13.4881C16.4032 13.5136 16.7093 13.5166 17.0149 13.5197C17.4534 13.5241 17.8912 13.5285 18.3187 13.5991C19.5385 13.8007 19.9574 14.7905 19.33 15.8495C19.1763 16.1041 18.9971 16.3424 18.7951 16.5607C17.9745 17.4632 16.9014 18.0981 15.7152 18.3827C13.55 18.9127 11.3827 18.9425 9.22755 18.2617C6.77347 17.4875 5.31042 15.6849 5.25902 13.2584C5.2398 11.7619 5.61972 10.2874 6.35969 8.9865C6.69401 8.38013 6.87751 7.75562 6.82593 7.06851C6.80422 6.77557 6.79219 6.48231 6.77927 6.16716C6.77239 5.99944 6.76526 5.82551 6.75628 5.64214C7.00484 5.69431 7.25032 5.76016 7.49161 5.83943C8.43027 6.21622 9.35415 6.38812 10.3702 6.11155C10.9482 5.97335 11.5455 5.93511 12.1363 5.9985C13.0877 6.07606 14.0387 5.84361 14.847 5.33586C15.0488 5.2176 15.2539 5.10279 15.4791 4.97677Z" fill="#DA203E"/>
</svg>
