<svg id="SvgjsSvg1006" width="712.734375" height="334.453125" xmlns="http://www.w3.org/2000/svg" version="1.1" xmlns:xlink="http://www.w3.org/1999/xlink" xmlns:svgjs="http://svgjs.com/svgjs"><defs id="SvgjsDefs1007"><marker id="SvgjsMarker1022" markerWidth="16" markerHeight="12" refX="11" refY="6" viewBox="0 0 16 12" orient="auto" markerUnits="userSpaceOnUse" stroke-dasharray="0,0"><path id="SvgjsPath1023" d="M0,0 L16,6 L0,12 L0,0" fill="#323232" stroke="#323232" stroke-width="1"></path></marker><marker id="SvgjsMarker1030" markerWidth="16" markerHeight="12" refX="11" refY="6" viewBox="0 0 16 12" orient="auto" markerUnits="userSpaceOnUse" stroke-dasharray="0,0"><path id="SvgjsPath1031" d="M0,0 L16,6 L0,12 L0,0" fill="#323232" stroke="#323232" stroke-width="1"></path></marker><marker id="SvgjsMarker1050" markerWidth="16" markerHeight="12" refX="11" refY="6" viewBox="0 0 16 12" orient="auto" markerUnits="userSpaceOnUse" stroke-dasharray="0,0"><path id="SvgjsPath1051" d="M0,0 L16,6 L0,12 L0,0" fill="#323232" stroke="#323232" stroke-width="1"></path></marker><marker id="SvgjsMarker1064" markerWidth="16" markerHeight="12" refX="11" refY="6" viewBox="0 0 16 12" orient="auto" markerUnits="userSpaceOnUse" stroke-dasharray="0,0"><path id="SvgjsPath1065" d="M0,0 L16,6 L0,12 L0,0" fill="#323232" stroke="#323232" stroke-width="1"></path></marker><marker id="SvgjsMarker1078" markerWidth="16" markerHeight="12" refX="11" refY="6" viewBox="0 0 16 12" orient="auto" markerUnits="userSpaceOnUse" stroke-dasharray="0,0"><path id="SvgjsPath1079" d="M0,0 L16,6 L0,12 L0,0" fill="#323232" stroke="#323232" stroke-width="1"></path></marker><marker id="SvgjsMarker1092" markerWidth="16" markerHeight="12" refX="11" refY="6" viewBox="0 0 16 12" orient="auto" markerUnits="userSpaceOnUse" stroke-dasharray="0,0"><path id="SvgjsPath1093" d="M0,0 L16,6 L0,12 L0,0" fill="#323232" stroke="#323232" stroke-width="1"></path></marker><marker id="SvgjsMarker1106" markerWidth="16" markerHeight="12" refX="11" refY="6" viewBox="0 0 16 12" orient="auto" markerUnits="userSpaceOnUse" stroke-dasharray="0,0"><path id="SvgjsPath1107" d="M0,0 L16,6 L0,12 L0,0" fill="#323232" stroke="#323232" stroke-width="1"></path></marker><marker id="SvgjsMarker1126" markerWidth="14" markerHeight="10" refX="10" refY="5" viewBox="0 0 14 10" orient="auto" markerUnits="userSpaceOnUse" stroke-dasharray="0,0"><path id="SvgjsPath1127" d="M0,0 L14,5 L0,10 L0,0" fill="#323232" stroke="#323232" stroke-width="1"></path></marker><marker id="SvgjsMarker1130" markerWidth="16" markerHeight="12" refX="11" refY="6" viewBox="0 0 16 12" orient="auto" markerUnits="userSpaceOnUse" stroke-dasharray="0,0"><path id="SvgjsPath1131" d="M0,0 L16,6 L0,12 L0,0" fill="#323232" stroke="#323232" stroke-width="1"></path></marker></defs><g id="SvgjsG1008" transform="translate(25,74.45679012345681)"><path id="SvgjsPath1009" d="M 0 21.67695473251029L 33.34586466165413 0L 66.69172932330827 21.67695473251029L 33.34586466165413 43.35390946502058Z" stroke="none" fill-opacity="1" fill="#e01e5b"></path><g id="SvgjsG1010"><text id="SvgjsText1011" font-family="微软雅黑" text-anchor="middle" font-size="17px" width="47px" fill="#f5f5f5" font-weight="700" align="middle" lineHeight="125%" anchor="middle" family="微软雅黑" size="17px" weight="700" font-style="" opacity="1" y="7.268724279835389" transform="rotate(0)"><tspan id="SvgjsTspan1012" dy="21" x="33.5"><tspan id="SvgjsTspan1013" style="text-decoration:;">x1</tspan></tspan></text></g></g><g id="SvgjsG1014" transform="translate(161.73684210526312,25)"><path id="SvgjsPath1015" d="M 0 4Q 0 0 4 0L 62.691729323308266 0Q 66.69172932330827 0 66.69172932330827 4L 66.69172932330827 39.35390946502058Q 66.69172932330827 43.35390946502058 62.691729323308266 43.35390946502058L 4 43.35390946502058Q 0 43.35390946502058 0 39.35390946502058Z" stroke="none" fill-opacity="1" fill="#e01e5b"></path><g id="SvgjsG1016"><text id="SvgjsText1017" font-family="微软雅黑" text-anchor="middle" font-size="17px" width="47px" fill="#f5f5f5" font-weight="700" align="middle" lineHeight="125%" anchor="middle" family="微软雅黑" size="17px" weight="700" font-style="" opacity="1" y="7.051954732510289" transform="rotate(0)"><tspan id="SvgjsTspan1018" dy="21" x="33.5"><tspan id="SvgjsTspan1019" style="text-decoration:;">a</tspan></tspan></text></g></g><g id="SvgjsG1020"><path id="SvgjsPath1021" d="M91.69172932330821 96.13374485596711L126.71428571428567 96.13374485596711L126.71428571428567 46.676954732510296L157.83684210526314 46.676954732510296" stroke="#323232" stroke-width="3" fill="none" marker-end="url(#SvgjsMarker1022)"></path><rect id="SvgjsRect1024" width="28" height="19" x="112.71428571428567" y="63.85534979423869" fill="#ffffff"></rect><text id="SvgjsText1025" font-family="微软雅黑" text-anchor="middle" font-size="15px" width="28px" fill="#000000" font-weight="700" align="top" lineHeight="19px" anchor="middle" family="微软雅黑" size="15px" weight="700" font-style="" opacity="1" y="60.98034979423869" transform="rotate(0)"><tspan id="SvgjsTspan1026" dy="18" x="126.71428571428567"><tspan id="SvgjsTspan1027" style="text-decoration:;">true</tspan></tspan></text></g><g id="SvgjsG1028"><path id="SvgjsPath1029" d="M91.69172932330821 96.13374485596711L126.71428571428567 96.13374485596711L126.71428571428567 143.82304526748965L161.73684210526312 143.82304526748965" stroke="#323232" stroke-width="3" fill="none" marker-end="url(#SvgjsMarker1030)"></path><rect id="SvgjsRect1032" width="34" height="19" x="109.71428571428567" y="110.47839506172838" fill="#ffffff"></rect><text id="SvgjsText1033" font-family="微软雅黑" text-anchor="middle" font-size="15px" width="34px" fill="#000000" font-weight="700" align="top" lineHeight="19px" anchor="middle" family="微软雅黑" size="15px" weight="700" font-style="" opacity="1" y="107.60339506172838" transform="rotate(0)"><tspan id="SvgjsTspan1034" dy="18" x="126.71428571428567"><tspan id="SvgjsTspan1035" style="text-decoration:;">false</tspan></tspan></text></g><g id="SvgjsG1036" transform="translate(161.73684210526312,122.45679012345681)"><path id="SvgjsPath1037" d="M 0 21.67695473251029L 33.34586466165413 0L 66.69172932330827 21.67695473251029L 33.34586466165413 43.35390946502058Z" stroke="none" fill-opacity="1" fill="#e01e5b"></path><g id="SvgjsG1038"><text id="SvgjsText1039" font-family="微软雅黑" text-anchor="middle" font-size="17px" width="47px" fill="#f5f5f5" font-weight="700" align="middle" lineHeight="125%" anchor="middle" family="微软雅黑" size="17px" weight="700" font-style="" opacity="1" y="7.268724279835389" transform="rotate(0)"><tspan id="SvgjsTspan1040" dy="21" x="33.5"><tspan id="SvgjsTspan1041" style="text-decoration:;">x2</tspan></tspan></text></g></g><g id="SvgjsG1042" transform="translate(285.7368421052631,68.35390946502059)"><path id="SvgjsPath1043" d="M 0 4Q 0 0 4 0L 62.691729323308266 0Q 66.69172932330827 0 66.69172932330827 4L 66.69172932330827 39.35390946502058Q 66.69172932330827 43.35390946502058 62.691729323308266 43.35390946502058L 4 43.35390946502058Q 0 43.35390946502058 0 39.35390946502058Z" stroke="none" fill-opacity="1" fill="#e01e5b"></path><g id="SvgjsG1044"><text id="SvgjsText1045" font-family="微软雅黑" text-anchor="middle" font-size="17px" width="47px" fill="#f5f5f5" font-weight="700" align="middle" lineHeight="125%" anchor="middle" family="微软雅黑" size="17px" weight="700" font-style="" opacity="1" y="7.051954732510289" transform="rotate(0)"><tspan id="SvgjsTspan1046" dy="21" x="33.5"><tspan id="SvgjsTspan1047" style="text-decoration:;">b</tspan></tspan></text></g></g><g id="SvgjsG1048"><path id="SvgjsPath1049" d="M228.42857142857133 144.13374485596705L257.0827067669172 144.13374485596705L257.0827067669172 90.03086419753089L281.83684210526314 90.03086419753089" stroke="#323232" stroke-width="3" fill="none" marker-end="url(#SvgjsMarker1050)"></path><rect id="SvgjsRect1052" width="28" height="19" x="243.08270676691723" y="109.53230452674896" fill="#ffffff"></rect><text id="SvgjsText1053" font-family="微软雅黑" text-anchor="middle" font-size="15px" width="28px" fill="#323232" font-weight="700" align="top" lineHeight="19px" anchor="middle" family="微软雅黑" size="15px" weight="700" font-style="" opacity="1" y="106.65730452674896" transform="rotate(0)"><tspan id="SvgjsTspan1054" dy="18" x="257.0827067669172"><tspan id="SvgjsTspan1055" style="text-decoration:;">true</tspan></tspan></text></g><g id="SvgjsG1056" transform="translate(285.7368421052631,170.4567901234568)"><path id="SvgjsPath1057" d="M 0 21.67695473251029L 33.34586466165413 0L 66.69172932330827 21.67695473251029L 33.34586466165413 43.35390946502058Z" stroke="none" fill-opacity="1" fill="#e01e5b"></path><g id="SvgjsG1058"><text id="SvgjsText1059" font-family="微软雅黑" text-anchor="middle" font-size="17px" width="47px" fill="#f5f5f5" font-weight="700" align="middle" lineHeight="125%" anchor="middle" family="微软雅黑" size="17px" weight="700" font-style="" opacity="1" y="7.268724279835389" transform="rotate(0)"><tspan id="SvgjsTspan1060" dy="21" x="33.5"><tspan id="SvgjsTspan1061" style="text-decoration:;">x3</tspan></tspan></text></g></g><g id="SvgjsG1062"><path id="SvgjsPath1063" d="M228.42857142857133 144.13374485596705L257.0827067669172 144.13374485596705L257.0827067669172 192.13374485596705L281.83684210526314 192.13374485596705" stroke="#323232" stroke-width="3" fill="none" marker-end="url(#SvgjsMarker1064)"></path><rect id="SvgjsRect1066" width="34" height="19" x="240.08270676691723" y="156.68374485596706" fill="#ffffff"></rect><text id="SvgjsText1067" font-family="微软雅黑" text-anchor="middle" font-size="15px" width="34px" fill="#323232" font-weight="700" align="top" lineHeight="19px" anchor="middle" family="微软雅黑" size="15px" weight="700" font-style="" opacity="1" y="153.80874485596706" transform="rotate(0)"><tspan id="SvgjsTspan1068" dy="18" x="257.0827067669172"><tspan id="SvgjsTspan1069" style="text-decoration:;">false</tspan></tspan></text></g><g id="SvgjsG1070" transform="translate(392.7368421052631,112.45679012345681)"><path id="SvgjsPath1071" d="M 0 4Q 0 0 4 0L 62.691729323308266 0Q 66.69172932330827 0 66.69172932330827 4L 66.69172932330827 39.35390946502058Q 66.69172932330827 43.35390946502058 62.691729323308266 43.35390946502058L 4 43.35390946502058Q 0 43.35390946502058 0 39.35390946502058Z" stroke="none" fill-opacity="1" fill="#e01e5b"></path><g id="SvgjsG1072"><text id="SvgjsText1073" font-family="微软雅黑" text-anchor="middle" font-size="17px" width="47px" fill="#f5f5f5" font-weight="700" align="middle" lineHeight="125%" anchor="middle" family="微软雅黑" size="17px" weight="700" font-style="" opacity="1" y="7.051954732510289" transform="rotate(0)"><tspan id="SvgjsTspan1074" dy="21" x="33.5"><tspan id="SvgjsTspan1075" style="text-decoration:;">c</tspan></tspan></text></g></g><g id="SvgjsG1076"><path id="SvgjsPath1077" d="M352.42857142857133 192.13374485596705L372.5827067669172 192.13374485596705L372.5827067669172 134.13374485596705L388.83684210526303 134.13374485596705" stroke="#323232" stroke-width="3" fill="none" marker-end="url(#SvgjsMarker1078)"></path><rect id="SvgjsRect1080" width="28" height="19" x="358.5827067669172" y="155.5837448559671" fill="#ffffff"></rect><text id="SvgjsText1081" font-family="微软雅黑" text-anchor="middle" font-size="15px" width="28px" fill="#323232" font-weight="700" align="top" lineHeight="19px" anchor="middle" family="微软雅黑" size="15px" weight="700" font-style="" opacity="1" y="152.7087448559671" transform="rotate(0)"><tspan id="SvgjsTspan1082" dy="18" x="372.5827067669172"><tspan id="SvgjsTspan1083" style="text-decoration:;">true</tspan></tspan></text></g><g id="SvgjsG1084" transform="translate(392.7368421052631,221.8106995884774)"><path id="SvgjsPath1085" d="M 0 21.67695473251029L 33.34586466165413 0L 66.69172932330827 21.67695473251029L 33.34586466165413 43.35390946502058Z" stroke="none" fill-opacity="1" fill="#e01e5b"></path><g id="SvgjsG1086"><text id="SvgjsText1087" font-family="微软雅黑" text-anchor="middle" font-size="17px" width="47px" fill="#f5f5f5" font-weight="700" align="middle" lineHeight="125%" anchor="middle" family="微软雅黑" size="17px" weight="700" font-style="" opacity="1" y="7.268724279835389" transform="rotate(0)"><tspan id="SvgjsTspan1088" dy="21" x="33.5"><tspan id="SvgjsTspan1089" style="text-decoration:;">x4</tspan></tspan></text></g></g><g id="SvgjsG1090"><path id="SvgjsPath1091" d="M352.42857142857133 192.13374485596705L372.5827067669172 192.13374485596705L372.5827067669172 243.48765432098764L388.83684210526303 243.48765432098764" stroke="#323232" stroke-width="3" fill="none" marker-end="url(#SvgjsMarker1092)"></path><rect id="SvgjsRect1094" width="34" height="19" x="355.5827067669172" y="206.3606995884773" fill="#ffffff"></rect><text id="SvgjsText1095" font-family="微软雅黑" text-anchor="middle" font-size="15px" width="34px" fill="#323232" font-weight="700" align="top" lineHeight="19px" anchor="middle" family="微软雅黑" size="15px" weight="700" font-style="" opacity="1" y="203.4856995884773" transform="rotate(0)"><tspan id="SvgjsTspan1096" dy="18" x="372.5827067669172"><tspan id="SvgjsTspan1097" style="text-decoration:;">false</tspan></tspan></text></g><g id="SvgjsG1098" transform="translate(506.7368421052631,173.4567901234568)"><path id="SvgjsPath1099" d="M 0 4Q 0 0 4 0L 62.691729323308266 0Q 66.69172932330827 0 66.69172932330827 4L 66.69172932330827 39.35390946502058Q 66.69172932330827 43.35390946502058 62.691729323308266 43.35390946502058L 4 43.35390946502058Q 0 43.35390946502058 0 39.35390946502058Z" stroke="none" fill-opacity="1" fill="#e01e5b"></path><g id="SvgjsG1100"><text id="SvgjsText1101" font-family="微软雅黑" text-anchor="middle" font-size="17px" width="47px" fill="#f5f5f5" font-weight="700" align="middle" lineHeight="125%" anchor="middle" family="微软雅黑" size="17px" weight="700" font-style="" opacity="1" y="7.051954732510289" transform="rotate(0)"><tspan id="SvgjsTspan1102" dy="21" x="33.5"><tspan id="SvgjsTspan1103" style="text-decoration:;">d</tspan></tspan></text></g></g><g id="SvgjsG1104"><path id="SvgjsPath1105" d="M459.42857142857133 243.48765432098764L483.0827067669172 243.48765432098764L483.0827067669172 195.13374485596705L502.83684210526303 195.13374485596705" stroke="#323232" stroke-width="3" fill="none" marker-end="url(#SvgjsMarker1106)"></path><rect id="SvgjsRect1108" width="28" height="19" x="469.0827067669172" y="211.7606995884774" fill="#ffffff"></rect><text id="SvgjsText1109" font-family="微软雅黑" text-anchor="middle" font-size="15px" width="28px" fill="#323232" font-weight="700" align="top" lineHeight="19px" anchor="middle" family="微软雅黑" size="15px" weight="700" font-style="" opacity="1" y="208.8856995884774" transform="rotate(0)"><tspan id="SvgjsTspan1110" dy="18" x="483.0827067669172"><tspan id="SvgjsTspan1111" style="text-decoration:;">true</tspan></tspan></text></g><g id="SvgjsG1112" transform="translate(506.7368421052631,266.4567901234568)"><path id="SvgjsPath1113" d="M 0 4Q 0 0 4 0L 62.691729323308266 0Q 66.69172932330827 0 66.69172932330827 4L 66.69172932330827 39.35390946502058Q 66.69172932330827 43.35390946502058 62.691729323308266 43.35390946502058L 4 43.35390946502058Q 0 43.35390946502058 0 39.35390946502058Z" stroke="none" fill-opacity="1" fill="#e01e5b"></path><g id="SvgjsG1114"><text id="SvgjsText1115" font-family="微软雅黑" text-anchor="middle" font-size="17px" width="47px" fill="#f5f5f5" font-weight="700" align="middle" lineHeight="125%" anchor="middle" family="微软雅黑" size="17px" weight="700" font-style="" opacity="1" y="7.051954732510289" transform="rotate(0)"><tspan id="SvgjsTspan1116" dy="21" x="33.5"><tspan id="SvgjsTspan1117" style="text-decoration:;">m</tspan></tspan></text></g></g><g id="SvgjsG1118" transform="translate(620.7368421052631,266.4567901234568)"><path id="SvgjsPath1119" d="M 0 4Q 0 0 4 0L 62.691729323308266 0Q 66.69172932330827 0 66.69172932330827 4L 66.69172932330827 39.35390946502058Q 66.69172932330827 43.35390946502058 62.691729323308266 43.35390946502058L 4 43.35390946502058Q 0 43.35390946502058 0 39.35390946502058Z" stroke="none" fill-opacity="1" fill="#e01e5b"></path><g id="SvgjsG1120"><text id="SvgjsText1121" font-family="微软雅黑" text-anchor="middle" font-size="17px" width="47px" fill="#f5f5f5" font-weight="700" align="middle" lineHeight="125%" anchor="middle" family="微软雅黑" size="17px" weight="700" font-style="" opacity="1" y="7.051954732510289" transform="rotate(0)"><tspan id="SvgjsTspan1122" dy="21" x="33.5"><tspan id="SvgjsTspan1123" style="text-decoration:;">n</tspan></tspan></text></g></g><g id="SvgjsG1124"><path id="SvgjsPath1125" d="M573.4285714285713 288.13374485596705L597.0827067669172 288.13374485596705L597.0827067669172 288.13374485596705L618.1368421052632 288.13374485596705" stroke="#323232" stroke-width="2" fill="none" marker-end="url(#SvgjsMarker1126)"></path></g><g id="SvgjsG1128"><path id="SvgjsPath1129" d="M459.42857142857133 243.48765432098764L483.0827067669172 243.48765432098764L483.0827067669172 288.13374485596705L502.83684210526303 288.13374485596705" stroke="#323232" stroke-width="3" fill="none" marker-end="url(#SvgjsMarker1130)"></path><rect id="SvgjsRect1132" width="34" height="19" x="466.0827067669172" y="254.3606995884773" fill="#ffffff"></rect><text id="SvgjsText1133" font-family="微软雅黑" text-anchor="middle" font-size="15px" width="34px" fill="#323232" font-weight="700" align="top" lineHeight="19px" anchor="middle" family="微软雅黑" size="15px" weight="700" font-style="" opacity="1" y="251.4856995884773" transform="rotate(0)"><tspan id="SvgjsTspan1134" dy="18" x="483.0827067669172"><tspan id="SvgjsTspan1135" style="text-decoration:;">false</tspan></tspan></text></g></svg>