<svg id="SvgjsSvg1200" width="1027.5625" height="357.5390625" xmlns="http://www.w3.org/2000/svg" version="1.1" xmlns:xlink="http://www.w3.org/1999/xlink" xmlns:svgjs="http://svgjs.com/svgjs"><defs id="SvgjsDefs1201"><marker id="SvgjsMarker1210" markerWidth="16" markerHeight="12" refX="11" refY="6" viewBox="0 0 16 12" orient="auto" markerUnits="userSpaceOnUse" stroke-dasharray="0,0"><path id="SvgjsPath1211" d="M0,0 L16,6 L0,12 L0,0" fill="#323232" stroke="#323232" stroke-width="1"></path></marker><marker id="SvgjsMarker1226" markerWidth="16" markerHeight="12" refX="11" refY="6" viewBox="0 0 16 12" orient="auto" markerUnits="userSpaceOnUse" stroke-dasharray="0,0"><path id="SvgjsPath1227" d="M0,0 L16,6 L0,12 L0,0" fill="#323232" stroke="#323232" stroke-width="1"></path></marker><marker id="SvgjsMarker1236" markerWidth="16" markerHeight="12" refX="11" refY="6" viewBox="0 0 16 12" orient="auto" markerUnits="userSpaceOnUse" stroke-dasharray="0,0"><path id="SvgjsPath1237" d="M0,0 L16,6 L0,12 L0,0" fill="#323232" stroke="#323232" stroke-width="1"></path></marker><marker id="SvgjsMarker1246" markerWidth="16" markerHeight="12" refX="11" refY="6" viewBox="0 0 16 12" orient="auto" markerUnits="userSpaceOnUse" stroke-dasharray="0,0"><path id="SvgjsPath1247" d="M0,0 L16,6 L0,12 L0,0" fill="#323232" stroke="#323232" stroke-width="1"></path></marker><marker id="SvgjsMarker1256" markerWidth="16" markerHeight="12" refX="11" refY="6" viewBox="0 0 16 12" orient="auto" markerUnits="userSpaceOnUse" stroke-dasharray="0,0"><path id="SvgjsPath1257" d="M0,0 L16,6 L0,12 L0,0" fill="#323232" stroke="#323232" stroke-width="1"></path></marker><marker id="SvgjsMarker1264" markerWidth="16" markerHeight="12" refX="11" refY="6" viewBox="0 0 16 12" orient="auto" markerUnits="userSpaceOnUse" stroke-dasharray="0,0"><path id="SvgjsPath1265" d="M0,0 L16,6 L0,12 L0,0" fill="#323232" stroke="#323232" stroke-width="1"></path></marker><marker id="SvgjsMarker1268" markerWidth="16" markerHeight="12" refX="11" refY="6" viewBox="0 0 16 12" orient="auto" markerUnits="userSpaceOnUse" stroke-dasharray="0,0"><path id="SvgjsPath1269" d="M0,0 L16,6 L0,12 L0,0" fill="#323232" stroke="#323232" stroke-width="1"></path></marker><marker id="SvgjsMarker1278" markerWidth="16" markerHeight="12" refX="11" refY="6" viewBox="0 0 16 12" orient="auto" markerUnits="userSpaceOnUse" stroke-dasharray="0,0"><path id="SvgjsPath1279" d="M0,0 L16,6 L0,12 L0,0" fill="#323232" stroke="#323232" stroke-width="1"></path></marker><marker id="SvgjsMarker1282" markerWidth="16" markerHeight="12" refX="11" refY="6" viewBox="0 0 16 12" orient="auto" markerUnits="userSpaceOnUse" stroke-dasharray="0,0"><path id="SvgjsPath1283" d="M0,0 L16,6 L0,12 L0,0" fill="#323232" stroke="#323232" stroke-width="1"></path></marker><marker id="SvgjsMarker1298" markerWidth="16" markerHeight="12" refX="11" refY="6" viewBox="0 0 16 12" orient="auto" markerUnits="userSpaceOnUse" stroke-dasharray="0,0"><path id="SvgjsPath1299" d="M0,0 L16,6 L0,12 L0,0" fill="#323232" stroke="#323232" stroke-width="1"></path></marker><marker id="SvgjsMarker1302" markerWidth="16" markerHeight="12" refX="11" refY="6" viewBox="0 0 16 12" orient="auto" markerUnits="userSpaceOnUse" stroke-dasharray="0,0"><path id="SvgjsPath1303" d="M0,0 L16,6 L0,12 L0,0" fill="#323232" stroke="#323232" stroke-width="1"></path></marker><marker id="SvgjsMarker1306" markerWidth="16" markerHeight="12" refX="11" refY="6" viewBox="0 0 16 12" orient="auto" markerUnits="userSpaceOnUse" stroke-dasharray="0,0"><path id="SvgjsPath1307" d="M0,0 L16,6 L0,12 L0,0" fill="#323232" stroke="#323232" stroke-width="1"></path></marker><marker id="SvgjsMarker1322" markerWidth="16" markerHeight="12" refX="11" refY="6" viewBox="0 0 16 12" orient="auto" markerUnits="userSpaceOnUse" stroke-dasharray="0,0"><path id="SvgjsPath1323" d="M0,0 L16,6 L0,12 L0,0" fill="#323232" stroke="#323232" stroke-width="1"></path></marker><marker id="SvgjsMarker1326" markerWidth="16" markerHeight="12" refX="11" refY="6" viewBox="0 0 16 12" orient="auto" markerUnits="userSpaceOnUse" stroke-dasharray="0,0"><path id="SvgjsPath1327" d="M0,0 L16,6 L0,12 L0,0" fill="#323232" stroke="#323232" stroke-width="1"></path></marker><marker id="SvgjsMarker1342" markerWidth="16" markerHeight="12" refX="11" refY="6" viewBox="0 0 16 12" orient="auto" markerUnits="userSpaceOnUse" stroke-dasharray="0,0"><path id="SvgjsPath1343" d="M0,0 L16,6 L0,12 L0,0" fill="#323232" stroke="#323232" stroke-width="1"></path></marker><marker id="SvgjsMarker1352" markerWidth="16" markerHeight="12" refX="11" refY="6" viewBox="0 0 16 12" orient="auto" markerUnits="userSpaceOnUse" stroke-dasharray="0,0"><path id="SvgjsPath1353" d="M0,0 L16,6 L0,12 L0,0" fill="#323232" stroke="#323232" stroke-width="1"></path></marker><marker id="SvgjsMarker1362" markerWidth="16" markerHeight="12" refX="11" refY="6" viewBox="0 0 16 12" orient="auto" markerUnits="userSpaceOnUse" stroke-dasharray="0,0"><path id="SvgjsPath1363" d="M0,0 L16,6 L0,12 L0,0" fill="#323232" stroke="#323232" stroke-width="1"></path></marker><marker id="SvgjsMarker1370" markerWidth="16" markerHeight="12" refX="11" refY="6" viewBox="0 0 16 12" orient="auto" markerUnits="userSpaceOnUse" stroke-dasharray="0,0"><path id="SvgjsPath1371" d="M0,0 L16,6 L0,12 L0,0" fill="#323232" stroke="#323232" stroke-width="1"></path></marker><marker id="SvgjsMarker1374" markerWidth="16" markerHeight="12" refX="11" refY="6" viewBox="0 0 16 12" orient="auto" markerUnits="userSpaceOnUse" stroke-dasharray="0,0"><path id="SvgjsPath1375" d="M0,0 L16,6 L0,12 L0,0" fill="#323232" stroke="#323232" stroke-width="1"></path></marker><marker id="SvgjsMarker1384" markerWidth="16" markerHeight="12" refX="11" refY="6" viewBox="0 0 16 12" orient="auto" markerUnits="userSpaceOnUse" stroke-dasharray="0,0"><path id="SvgjsPath1385" d="M0,0 L16,6 L0,12 L0,0" fill="#323232" stroke="#323232" stroke-width="1"></path></marker><marker id="SvgjsMarker1388" markerWidth="16" markerHeight="12" refX="11" refY="6" viewBox="0 0 16 12" orient="auto" markerUnits="userSpaceOnUse" stroke-dasharray="0,0"><path id="SvgjsPath1389" d="M0,0 L16,6 L0,12 L0,0" fill="#323232" stroke="#323232" stroke-width="1"></path></marker><marker id="SvgjsMarker1392" markerWidth="16" markerHeight="12" refX="11" refY="6" viewBox="0 0 16 12" orient="auto" markerUnits="userSpaceOnUse" stroke-dasharray="0,0"><path id="SvgjsPath1393" d="M0,0 L16,6 L0,12 L0,0" fill="#323232" stroke="#323232" stroke-width="1"></path></marker></defs><g id="SvgjsG1202" transform="translate(25,155.84967320261438)"><path id="SvgjsPath1203" d="M 0 4Q 0 0 4 0L 52.43011081081046 0Q 56.43011081081046 0 56.43011081081046 4L 56.43011081081046 35.45620915032679Q 56.43011081081046 39.45620915032679 52.43011081081046 39.45620915032679L 4 39.45620915032679Q 0 39.45620915032679 0 35.45620915032679Z" stroke="none" fill-opacity="1" fill="#e01e5b"></path><g id="SvgjsG1204"><text id="SvgjsText1205" font-family="微软雅黑" text-anchor="middle" font-size="17px" width="37px" fill="#f5f5f5" font-weight="700" align="middle" lineHeight="125%" anchor="middle" family="微软雅黑" size="17px" weight="700" font-style="" opacity="1" y="5.103104575163396" transform="rotate(0)"><tspan id="SvgjsTspan1206" dy="21" x="28.5"><tspan id="SvgjsTspan1207" style="text-decoration:;">A</tspan></tspan></text></g></g><g id="SvgjsG1208"><path id="SvgjsPath1209" d="M81.4301108108105 175.57777777777778L101.27985340805412 175.57777777777778L101.27985340805412 175.57777777777778L117.22959600529782 175.57777777777778" stroke="#323232" stroke-width="3" fill="none" marker-end="url(#SvgjsMarker1210)"></path></g><g id="SvgjsG1212" transform="translate(121.1295960052978,155.84967320261438)"><path id="SvgjsPath1213" d="M 0 4Q 0 0 4 0L 52.43011081081046 0Q 56.43011081081046 0 56.43011081081046 4L 56.43011081081046 35.45620915032679Q 56.43011081081046 39.45620915032679 52.43011081081046 39.45620915032679L 4 39.45620915032679Q 0 39.45620915032679 0 35.45620915032679Z" stroke="none" fill-opacity="1" fill="#e01e5b"></path><g id="SvgjsG1214"><text id="SvgjsText1215" font-family="微软雅黑" text-anchor="middle" font-size="17px" width="37px" fill="#f5f5f5" font-weight="700" align="middle" lineHeight="125%" anchor="middle" family="微软雅黑" size="17px" weight="700" font-style="" opacity="1" y="5.103104575163396" transform="rotate(0)"><tspan id="SvgjsTspan1216" dy="21" x="28.5"><tspan id="SvgjsTspan1217" style="text-decoration:;">B</tspan></tspan></text></g></g><g id="SvgjsG1218" transform="translate(222.8808058120751,60.02745098039213)"><path id="SvgjsPath1219" d="M 0 4Q 0 0 4 0L 52.43011081081046 0Q 56.43011081081046 0 56.43011081081046 4L 56.43011081081046 35.45620915032679Q 56.43011081081046 39.45620915032679 52.43011081081046 39.45620915032679L 4 39.45620915032679Q 0 39.45620915032679 0 35.45620915032679Z" stroke="none" fill-opacity="1" fill="#e01e5b"></path><g id="SvgjsG1220"><text id="SvgjsText1221" font-family="微软雅黑" text-anchor="middle" font-size="17px" width="37px" fill="#f5f5f5" font-weight="700" align="middle" lineHeight="125%" anchor="middle" family="微软雅黑" size="17px" weight="700" font-style="" opacity="1" y="5.103104575163396" transform="rotate(0)"><tspan id="SvgjsTspan1222" dy="21" x="28.5"><tspan id="SvgjsTspan1223" style="text-decoration:;">C</tspan></tspan></text></g></g><g id="SvgjsG1224"><path id="SvgjsPath1225" d="M177.55970681610825 175.57777777777778L200.22025631409167 175.57777777777778L200.22025631409167 79.75555555555553L218.98080581207512 79.75555555555553" stroke="#323232" stroke-width="3" fill="none" marker-end="url(#SvgjsMarker1226)"></path></g><g id="SvgjsG1228" transform="translate(260.5456182819871,216.24183006535952)"><path id="SvgjsPath1229" d="M 0 4Q 0 0 4 0L 52.43011081081046 0Q 56.43011081081046 0 56.43011081081046 4L 56.43011081081046 35.45620915032679Q 56.43011081081046 39.45620915032679 52.43011081081046 39.45620915032679L 4 39.45620915032679Q 0 39.45620915032679 0 35.45620915032679Z" stroke="none" fill-opacity="1" fill="#e01e5b"></path><g id="SvgjsG1230"><text id="SvgjsText1231" font-family="微软雅黑" text-anchor="middle" font-size="17px" width="37px" fill="#f5f5f5" font-weight="700" align="middle" lineHeight="125%" anchor="middle" family="微软雅黑" size="17px" weight="700" font-style="" opacity="1" y="5.103104575163396" transform="rotate(0)"><tspan id="SvgjsTspan1232" dy="21" x="28.5"><tspan id="SvgjsTspan1233" style="text-decoration:;">H</tspan></tspan></text></g></g><g id="SvgjsG1234"><path id="SvgjsPath1235" d="M177.55970681610825 175.57777777777778L200.05266254904768 175.57777777777778L200.05266254904768 235.96993464052292L256.64561828198714 235.96993464052292" stroke="#323232" stroke-width="3" fill="none" marker-end="url(#SvgjsMarker1236)"></path></g><g id="SvgjsG1238" transform="translate(328.3118456081063,25)"><path id="SvgjsPath1239" d="M 0 4Q 0 0 4 0L 52.43011081081046 0Q 56.43011081081046 0 56.43011081081046 4L 56.43011081081046 35.45620915032679Q 56.43011081081046 39.45620915032679 52.43011081081046 39.45620915032679L 4 39.45620915032679Q 0 39.45620915032679 0 35.45620915032679Z" stroke="none" fill-opacity="1" fill="#e01e5b"></path><g id="SvgjsG1240"><text id="SvgjsText1241" font-family="微软雅黑" text-anchor="middle" font-size="17px" width="37px" fill="#f5f5f5" font-weight="700" align="middle" lineHeight="125%" anchor="middle" family="微软雅黑" size="17px" weight="700" font-style="" opacity="1" y="5.103104575163396" transform="rotate(0)"><tspan id="SvgjsTspan1242" dy="21" x="28.5"><tspan id="SvgjsTspan1243" style="text-decoration:;">J</tspan></tspan></text></g></g><g id="SvgjsG1244"><path id="SvgjsPath1245" d="M279.31091662288554 79.75555555555553L303.8113811154959 79.75555555555553L303.8113811154959 44.7281045751634L324.4118456081063 44.7281045751634" stroke="#323232" stroke-width="3" fill="none" marker-end="url(#SvgjsMarker1246)"></path></g><g id="SvgjsG1248" transform="translate(328.3118456081063,87.53425189895779)"><path id="SvgjsPath1249" d="M 0 4Q 0 0 4 0L 52.43011081081046 0Q 56.43011081081046 0 56.43011081081046 4L 56.43011081081046 35.45620915032679Q 56.43011081081046 39.45620915032679 52.43011081081046 39.45620915032679L 4 39.45620915032679Q 0 39.45620915032679 0 35.45620915032679Z" stroke="none" fill-opacity="1" fill="#e01e5b"></path><g id="SvgjsG1250"><text id="SvgjsText1251" font-family="微软雅黑" text-anchor="middle" font-size="17px" width="37px" fill="#f5f5f5" font-weight="700" align="middle" lineHeight="125%" anchor="middle" family="微软雅黑" size="17px" weight="700" font-style="" opacity="1" y="5.103104575163396" transform="rotate(0)"><tspan id="SvgjsTspan1252" dy="21" x="28.5"><tspan id="SvgjsTspan1253" style="text-decoration:;">K</tspan></tspan></text></g></g><g id="SvgjsG1254"><path id="SvgjsPath1255" d="M279.31091662288554 79.75555555555553L303.8113811154959 79.75555555555553L303.8113811154959 107.26235647412119L324.4118456081063 107.26235647412119" stroke="#323232" stroke-width="3" fill="none" marker-end="url(#SvgjsMarker1256)"></path></g><g id="SvgjsG1258" transform="translate(442.96698613999365,74.11895424836598)"><path id="SvgjsPath1259" d="M 0 5.636601307189543C 0 -1.8788671023965142 11.756273085585512 -1.8788671023965142 11.756273085585512 5.636601307189543C 11.756273085585512 13.1520697167756 0 13.1520697167756 0 5.636601307189543Z" stroke="none" fill-opacity="1" fill="#e01e5b"></path><g id="SvgjsG1260"><text id="SvgjsText1261" font-family="微软雅黑" text-anchor="middle" font-size="17px" width="0" fill="#f5f5f5" font-weight="700" align="middle" lineHeight="125%" anchor="middle" family="微软雅黑" size="17px" weight="700" font-style="" opacity="1" y="-8.988398692810456" transform="rotate(0)"></text></g></g><g id="SvgjsG1262"><path id="SvgjsPath1263" d="M384.74195641891674 44.7281045751634L413.8544712794552 44.7281045751634L413.8544712794552 79.75555555555547L439.0669861399937 79.75555555555547" stroke="#323232" stroke-width="3" fill="none" marker-end="url(#SvgjsMarker1264)"></path></g><g id="SvgjsG1266"><path id="SvgjsPath1267" d="M384.74195641891674 107.26235647412119L413.8544712794552 107.26235647412119L413.8544712794552 79.75555555555547L439.0669861399937 79.75555555555547" stroke="#323232" stroke-width="3" fill="none" marker-end="url(#SvgjsMarker1268)"></path></g><g id="SvgjsG1270" transform="translate(328.3118456081063,155.84967320261438)"><path id="SvgjsPath1271" d="M 0 4Q 0 0 4 0L 52.43011081081046 0Q 56.43011081081046 0 56.43011081081046 4L 56.43011081081046 35.45620915032679Q 56.43011081081046 39.45620915032679 52.43011081081046 39.45620915032679L 4 39.45620915032679Q 0 39.45620915032679 0 35.45620915032679Z" stroke="none" fill-opacity="1" fill="#e01e5b"></path><g id="SvgjsG1272"><text id="SvgjsText1273" font-family="微软雅黑" text-anchor="middle" font-size="17px" width="37px" fill="#f5f5f5" font-weight="700" align="middle" lineHeight="125%" anchor="middle" family="微软雅黑" size="17px" weight="700" font-style="" opacity="1" y="5.103104575163396" transform="rotate(0)"><tspan id="SvgjsTspan1274" dy="21" x="28.5"><tspan id="SvgjsTspan1275" style="text-decoration:;">D</tspan></tspan></text></g></g><g id="SvgjsG1276"><path id="SvgjsPath1277" d="M177.55970681610825 175.57777777777778L252.93577621210727 175.57777777777778L252.93577621210727 175.57777777777778L324.4118456081063 175.57777777777778" stroke="#323232" stroke-width="3" fill="none" marker-end="url(#SvgjsMarker1278)"></path></g><g id="SvgjsG1280"><path id="SvgjsPath1281" d="M316.97572909279756 235.96993464052292L357.48490241047807 235.96993464052292L357.48490241047807 235.96993464052292L394.0940757281585 235.96993464052292" stroke="#323232" stroke-width="3" fill="none" marker-end="url(#SvgjsMarker1282)"></path></g><g id="SvgjsG1284" transform="translate(397.99407572815846,216.24183006535952)"><path id="SvgjsPath1285" d="M 0 4Q 0 0 4 0L 52.43011081081046 0Q 56.43011081081046 0 56.43011081081046 4L 56.43011081081046 35.45620915032679Q 56.43011081081046 39.45620915032679 52.43011081081046 39.45620915032679L 4 39.45620915032679Q 0 39.45620915032679 0 35.45620915032679Z" stroke="none" fill-opacity="1" fill="#e01e5b"></path><g id="SvgjsG1286"><text id="SvgjsText1287" font-family="微软雅黑" text-anchor="middle" font-size="17px" width="37px" fill="#f5f5f5" font-weight="700" align="middle" lineHeight="125%" anchor="middle" family="微软雅黑" size="17px" weight="700" font-style="" opacity="1" y="5.103104575163396" transform="rotate(0)"><tspan id="SvgjsTspan1288" dy="21" x="28.5"><tspan id="SvgjsTspan1289" style="text-decoration:;">I</tspan></tspan></text></g></g><g id="SvgjsG1290" transform="translate(518.8587724599656,155.84967320261438)"><path id="SvgjsPath1291" d="M 0 19.728104575163396L 33.729682808876426 0L 67.45936561775285 19.728104575163396L 33.729682808876426 39.45620915032679Z" stroke="none" fill-opacity="1" fill="#e01e5b"></path><g id="SvgjsG1292"><text id="SvgjsText1293" font-family="微软雅黑" text-anchor="middle" font-size="17px" width="48px" fill="#f5f5f5" font-weight="700" align="middle" lineHeight="125%" anchor="middle" family="微软雅黑" size="17px" weight="700" font-style="" opacity="1" y="5.30038562091503" transform="rotate(0)"><tspan id="SvgjsTspan1294" dy="21" x="34"><tspan id="SvgjsTspan1295" style="text-decoration:;">X</tspan></tspan></text></g></g><g id="SvgjsG1296"><path id="SvgjsPath1297" d="M454.7232592255791 79.75555555555547L486.79101584277237 79.75555555555547L486.79101584277237 175.57777777777778L514.9587724599656 175.57777777777778" stroke="#323232" stroke-width="3" fill="none" marker-end="url(#SvgjsMarker1298)"></path></g><g id="SvgjsG1300"><path id="SvgjsPath1301" d="M384.74195641891674 175.57777777777778L451.8003644394412 175.57777777777778L451.8003644394412 175.57777777777778L514.9587724599656 175.57777777777778" stroke="#323232" stroke-width="3" fill="none" marker-end="url(#SvgjsMarker1302)"></path></g><g id="SvgjsG1304"><path id="SvgjsPath1305" d="M454.4241865389689 235.96993464052292L486.6414794994673 235.96993464052292L486.6414794994673 175.57777777777778L514.9587724599656 175.57777777777778" stroke="#323232" stroke-width="3" fill="none" marker-end="url(#SvgjsMarker1306)"></path></g><g id="SvgjsG1308" transform="translate(737.430148986482,60.02745098039213)"><path id="SvgjsPath1309" d="M 0 4Q 0 0 4 0L 52.43011081081046 0Q 56.43011081081046 0 56.43011081081046 4L 56.43011081081046 35.45620915032679Q 56.43011081081046 39.45620915032679 52.43011081081046 39.45620915032679L 4 39.45620915032679Q 0 39.45620915032679 0 35.45620915032679Z" stroke="none" fill-opacity="1" fill="#e01e5b"></path><g id="SvgjsG1310"><text id="SvgjsText1311" font-family="微软雅黑" text-anchor="middle" font-size="17px" width="37px" fill="#f5f5f5" font-weight="700" align="middle" lineHeight="125%" anchor="middle" family="微软雅黑" size="17px" weight="700" font-style="" opacity="1" y="5.103104575163396" transform="rotate(0)"><tspan id="SvgjsTspan1312" dy="21" x="28.5"><tspan id="SvgjsTspan1313" style="text-decoration:;">M</tspan></tspan></text></g></g><g id="SvgjsG1314" transform="translate(737.430148986482,155.84967320261438)"><path id="SvgjsPath1315" d="M 0 4Q 0 0 4 0L 52.43011081081046 0Q 56.43011081081046 0 56.43011081081046 4L 56.43011081081046 35.45620915032679Q 56.43011081081046 39.45620915032679 52.43011081081046 39.45620915032679L 4 39.45620915032679Q 0 39.45620915032679 0 35.45620915032679Z" stroke="none" fill-opacity="1" fill="#e01e5b"></path><g id="SvgjsG1316"><text id="SvgjsText1317" font-family="微软雅黑" text-anchor="middle" font-size="17px" width="37px" fill="#f5f5f5" font-weight="700" align="middle" lineHeight="125%" anchor="middle" family="微软雅黑" size="17px" weight="700" font-style="" opacity="1" y="5.103104575163396" transform="rotate(0)"><tspan id="SvgjsTspan1318" dy="21" x="28.5"><tspan id="SvgjsTspan1319" style="text-decoration:;">N</tspan></tspan></text></g></g><g id="SvgjsG1320"><path id="SvgjsPath1321" d="M586.3181380777183 175.57777777777778L615.8741435321004 175.57777777777778L615.8741435321004 79.75555555555553L733.5301489864819 79.75555555555553" stroke="#323232" stroke-width="3" fill="none" marker-end="url(#SvgjsMarker1322)"></path></g><g id="SvgjsG1324"><path id="SvgjsPath1325" d="M586.3181380777183 175.57777777777778L661.8741435321001 175.57777777777778L661.8741435321001 175.57777777777778L733.5301489864819 175.57777777777778" stroke="#323232" stroke-width="3" fill="none" marker-end="url(#SvgjsMarker1326)"></path></g><g id="SvgjsG1328" transform="translate(645.345082993252,276.2313725490195)"><path id="SvgjsPath1329" d="M 0 5.636601307189543C 0 -1.8788671023965142 11.756273085585512 -1.8788671023965142 11.756273085585512 5.636601307189543C 11.756273085585512 13.1520697167756 0 13.1520697167756 0 5.636601307189543Z" stroke="none" fill-opacity="1" fill="#e01e5b"></path><g id="SvgjsG1330"><text id="SvgjsText1331" font-family="微软雅黑" text-anchor="middle" font-size="17px" width="0" fill="#f5f5f5" font-weight="700" align="middle" lineHeight="125%" anchor="middle" family="微软雅黑" size="17px" weight="700" font-style="" opacity="1" y="-8.988398692810456" transform="rotate(0)"></text></g></g><g id="SvgjsG1332"><path id="SvgjsPath1333" d="M586.3181380777183 175.57777777777778L615.8316105354852 175.57777777777778L615.8316105354852 281.8679738562091L645.345082993252 281.8679738562091" stroke="#323232" stroke-width="3" fill="none"></path></g><g id="SvgjsG1334" transform="translate(737.430148986482,216.24183006535952)"><path id="SvgjsPath1335" d="M 0 4Q 0 0 4 0L 52.43011081081046 0Q 56.43011081081046 0 56.43011081081046 4L 56.43011081081046 35.45620915032679Q 56.43011081081046 39.45620915032679 52.43011081081046 39.45620915032679L 4 39.45620915032679Q 0 39.45620915032679 0 35.45620915032679Z" stroke="none" fill-opacity="1" fill="#e01e5b"></path><g id="SvgjsG1336"><text id="SvgjsText1337" font-family="微软雅黑" text-anchor="middle" font-size="17px" width="37px" fill="#f5f5f5" font-weight="700" align="middle" lineHeight="125%" anchor="middle" family="微软雅黑" size="17px" weight="700" font-style="" opacity="1" y="5.103104575163396" transform="rotate(0)"><tspan id="SvgjsTspan1338" dy="21" x="28.5"><tspan id="SvgjsTspan1339" style="text-decoration:;">Q</tspan></tspan></text></g></g><g id="SvgjsG1340"><path id="SvgjsPath1341" d="M657.1013560788376 281.8679738562091L676.5990858659914 281.8679738562091L676.5990858659914 235.96993464052292L733.5301489864819 235.96993464052292" stroke="#323232" stroke-width="3" fill="none" marker-end="url(#SvgjsMarker1342)"></path></g><g id="SvgjsG1344" transform="translate(696.2206878966408,293.5437908496732)"><path id="SvgjsPath1345" d="M 0 4Q 0 0 4 0L 52.43011081081046 0Q 56.43011081081046 0 56.43011081081046 4L 56.43011081081046 35.45620915032679Q 56.43011081081046 39.45620915032679 52.43011081081046 39.45620915032679L 4 39.45620915032679Q 0 39.45620915032679 0 35.45620915032679Z" stroke="none" fill-opacity="1" fill="#e01e5b"></path><g id="SvgjsG1346"><text id="SvgjsText1347" font-family="微软雅黑" text-anchor="middle" font-size="17px" width="37px" fill="#f5f5f5" font-weight="700" align="middle" lineHeight="125%" anchor="middle" family="微软雅黑" size="17px" weight="700" font-style="" opacity="1" y="5.103104575163396" transform="rotate(0)"><tspan id="SvgjsTspan1348" dy="21" x="28.5"><tspan id="SvgjsTspan1349" style="text-decoration:;">P</tspan></tspan></text></g></g><g id="SvgjsG1350"><path id="SvgjsPath1351" d="M657.1013560788376 281.8679738562091L676.6610219877393 281.8679738562091L676.6610219877393 313.27189542483666L692.3206878966407 313.27189542483666" stroke="#323232" stroke-width="3" fill="none" marker-end="url(#SvgjsMarker1352)"></path></g><g id="SvgjsG1354" transform="translate(782.2313790592757,293.5437908496732)"><path id="SvgjsPath1355" d="M 0 4Q 0 0 4 0L 52.43011081081046 0Q 56.43011081081046 0 56.43011081081046 4L 56.43011081081046 35.45620915032679Q 56.43011081081046 39.45620915032679 52.43011081081046 39.45620915032679L 4 39.45620915032679Q 0 39.45620915032679 0 35.45620915032679Z" stroke="none" fill-opacity="1" fill="#e01e5b"></path><g id="SvgjsG1356"><text id="SvgjsText1357" font-family="微软雅黑" text-anchor="middle" font-size="17px" width="37px" fill="#f5f5f5" font-weight="700" align="middle" lineHeight="125%" anchor="middle" family="微软雅黑" size="17px" weight="700" font-style="" opacity="1" y="5.103104575163396" transform="rotate(0)"><tspan id="SvgjsTspan1358" dy="21" x="28.5"><tspan id="SvgjsTspan1359" style="text-decoration:;">R</tspan></tspan></text></g></g><g id="SvgjsG1360"><path id="SvgjsPath1361" d="M752.6507987074513 313.27189542483666L767.4410888833636 313.27189542483666L767.4410888833636 313.27189542483666L778.3313790592756 313.27189542483666" stroke="#323232" stroke-width="3" fill="none" marker-end="url(#SvgjsMarker1362)"></path></g><g id="SvgjsG1364" transform="translate(884.7321373729158,276.2313725490195)"><path id="SvgjsPath1365" d="M 0 5.636601307189543C 0 -1.8788671023965142 11.756273085585512 -1.8788671023965142 11.756273085585512 5.636601307189543C 11.756273085585512 13.1520697167756 0 13.1520697167756 0 5.636601307189543Z" stroke="none" fill-opacity="1" fill="#e01e5b"></path><g id="SvgjsG1366"><text id="SvgjsText1367" font-family="微软雅黑" text-anchor="middle" font-size="17px" width="0" fill="#f5f5f5" font-weight="700" align="middle" lineHeight="125%" anchor="middle" family="微软雅黑" size="17px" weight="700" font-style="" opacity="1" y="-8.988398692810456" transform="rotate(0)"></text></g></g><g id="SvgjsG1368"><path id="SvgjsPath1369" d="M793.8602597972924 235.96993464052292L861.2961985851045 235.96993464052292L861.2961985851045 281.8679738562091L880.8321373729157 281.8679738562091" stroke="#323232" stroke-width="3" fill="none" marker-end="url(#SvgjsMarker1370)"></path></g><g id="SvgjsG1372"><path id="SvgjsPath1373" d="M838.6614898700861 313.27189542483666L861.696813621501 313.27189542483666L861.696813621501 281.8679738562091L880.8321373729157 281.8679738562091" stroke="#323232" stroke-width="3" fill="none" marker-end="url(#SvgjsMarker1374)"></path></g><g id="SvgjsG1376" transform="translate(946.5698891891896,155.84967320261438)"><path id="SvgjsPath1377" d="M 0 4Q 0 0 4 0L 52.43011081081046 0Q 56.43011081081046 0 56.43011081081046 4L 56.43011081081046 35.45620915032679Q 56.43011081081046 39.45620915032679 52.43011081081046 39.45620915032679L 4 39.45620915032679Q 0 39.45620915032679 0 35.45620915032679Z" stroke="none" fill-opacity="1" fill="#e01e5b"></path><g id="SvgjsG1378"><text id="SvgjsText1379" font-family="微软雅黑" text-anchor="middle" font-size="17px" width="37px" fill="#f5f5f5" font-weight="700" align="middle" lineHeight="125%" anchor="middle" family="微软雅黑" size="17px" weight="700" font-style="" opacity="1" y="5.103104575163396" transform="rotate(0)"><tspan id="SvgjsTspan1380" dy="21" x="28.5"><tspan id="SvgjsTspan1381" style="text-decoration:;">Z</tspan></tspan></text></g></g><g id="SvgjsG1382"><path id="SvgjsPath1383" d="M793.8602597972924 79.75555555555553L921.5484078265752 79.75555555555553L921.5484078265752 175.57777777777773L942.6698891891895 175.57777777777773" stroke="#323232" stroke-width="3" fill="none" marker-end="url(#SvgjsMarker1384)"></path></g><g id="SvgjsG1386"><path id="SvgjsPath1387" d="M793.8602597972924 175.57777777777773L870.215074493241 175.57777777777773L870.215074493241 175.57777777777773L942.6698891891895 175.57777777777773" stroke="#323232" stroke-width="3" fill="none" marker-end="url(#SvgjsMarker1388)"></path></g><g id="SvgjsG1390"><path id="SvgjsPath1391" d="M896.4884104585014 281.8679738562091L921.5291498238455 281.8679738562091L921.5291498238455 175.57777777777773L942.6698891891895 175.57777777777773" stroke="#323232" stroke-width="3" fill="none" marker-end="url(#SvgjsMarker1392)"></path></g></svg>